<svg xmlns="http://www.w3.org/2000/svg" xmlns:xlink="http://www.w3.org/1999/xlink" fill="none" version="1.1" width="30.2439022064209" height="30" viewBox="0 0 30.2439022064209 30"><defs><clipPath id="master_svg0_0_27774/0_34377"><rect x="0" y="0" width="30.2439022064209" height="30" rx="0"/></clipPath><linearGradient x1="-0.1450507491827011" y1="0.07788297533988953" x2="0.6185259674072207" y2="1.3705339843547886" id="master_svg1_0_27753"><stop offset="0%" stop-color="#FFFFFF" stop-opacity="0.30000001192092896"/><stop offset="100%" stop-color="#FFFFFF" stop-opacity="0"/></linearGradient><linearGradient x1="0.425394743680954" y1="0.28315556049346924" x2="0.648482291051985" y2="0.4702401697289359" id="master_svg2_0_27770"><stop offset="0%" stop-color="#FFFFFF" stop-opacity="0.30000001192092896"/><stop offset="100%" stop-color="#FFFFFF" stop-opacity="0"/></linearGradient></defs><g clip-path="url(#master_svg0_0_27774/0_34377)"><g><g><g><path d="M25.241129420672543,0.1311188982949108C25.440129420672545,0.10489489829491079,25.667529420672544,0.2097898982949108,25.781229420672542,0.3671328982949108C26.179129420672542,0.9440558982949108,26.520229420672543,1.5472018982949107,26.832929420672542,2.176571898294911C26.861329420672543,2.2552418982949107,26.946629420672544,2.2814718982949107,27.031929420672544,2.2814718982949107C27.117129420672544,2.2814718982949107,27.174029420672543,2.229021898294911,27.230829420672542,2.176571898294911C27.600429420672544,1.5209818982949108,28.168929420672544,0.9702798982949108,28.879529420672544,0.6293708982949108C28.964729420672544,0.5769228982949108,29.078429420672542,0.5769228982949108,29.192129420672543,0.5769228982949108C29.817529420672543,0.5769228982949108,30.471329420672543,1.3636318982949107,29.988029420672543,1.7569918982949109C29.419529420672543,2.229021898294911,28.339429420672545,3.5664318982949106,28.311029420672543,5.113631898294911C28.282629420672542,6.4772718982949105,27.998329420672544,9.36189189829491,27.856229420672545,11.25004189829491C27.827829420672543,11.51224189829491,27.827829420672543,11.74824189829491,27.827829420672543,11.95804189829491C27.742529420672543,13.741241898294911,27.202429420672544,16.54724189829491,26.434929420672542,18.277941898294912C25.667529420672544,20.00874189829491,25.298029420672542,20.71674189829491,24.900029420672542,22.421341898294912C24.757929420672543,23.15554189829491,24.530529420672543,23.86364189829491,24.217829420672544,24.54544189829491C24.189429420672543,24.59794189829491,24.217829420672544,24.65034189829491,24.274729420672543,24.67654189829491C24.303129420672544,24.70284189829491,24.359929420672543,24.67654189829491,24.388429420672544,24.67654189829491C25.013729420672544,24.33564189829491,26.463429420672544,23.65384189829491,27.856229420672545,23.62764189829491C28.652129420672544,23.62764189829491,28.680529420672542,24.93884189829491,27.941529420672545,25.017441898294912C27.031929420672544,25.12234189829491,23.933629420672542,26.09264189829491,22.597629420672543,27.29894189829491C22.000729420672542,27.849641898294912,21.318529420672544,29.134641898294912,19.10142942067254,29.81644189829491C19.044529420672543,29.84264189829491,18.987729420672544,29.84264189829491,18.930829420672545,29.84264189829491C18.362329420672545,29.84264189829491,17.992829420672543,28.95104189829491,18.362329420672545,28.636341898294912C19.300329420672544,27.849641898294912,20.750029420672544,26.74824189829491,21.773329420672543,24.70284189829491C21.83012942067254,24.59794189829491,21.887029420672544,24.493041898294912,21.91542942067254,24.38814189829491C22.88192942067254,22.26394189829491,23.137729420672542,19.61534189829491,24.24622942067254,17.70104189829491C25.582229420672544,15.340941898294911,25.894929420672543,13.269241898294911,25.496929420672544,12.823441898294911C25.468529420672542,12.79724189829491,25.468529420672542,12.79724189829491,25.440129420672545,12.770941898294911C24.956929420672544,12.45634189829491,23.194529420672545,11.95804189829491,22.455529420672544,10.90904189829491C21.545929420672543,9.624121898294911,21.773329420672543,8.47028189829491,20.977429420672543,7.972031898294911C20.494229420672543,7.657341898294911,20.096229420672543,7.657341898294911,19.669929420672542,7.55244189829491C19.357229420672542,7.473771898294911,19.072929420672544,7.316431898294911,18.845529420672545,7.106641898294911C18.163429420672543,6.503491898294911,18.191829420672544,5.638111898294911,17.623329420672544,5.638111898294911C17.566429420672545,5.638111898294911,17.538029420672544,5.638111898294911,17.509629420672542,5.638111898294911C16.713729420672543,5.79545189829491,17.026429420672542,6.68706189829491,15.889429420672544,8.02447189829491C14.553429420672543,9.59790189829491,13.672229420672544,9.57168189829491,13.245929420672544,10.699341898294911C12.819529420672543,11.82694189829491,11.341429420672544,14.554241898294912,8.641099420672543,16.12764189829491C8.243159420672542,16.36364189829491,7.873629420672543,16.57344189829491,7.447259420672544,16.75694189829491C6.5092494206725435,17.22904189829491,5.485959420672543,17.49124189829491,4.405819420672543,17.517441898294912C3.1551294206725435,17.517441898294912,1.9612894206725433,16.993041898294912,1.1653994206725433,16.07514189829491C-0.42638357932745663,14.39684189829491,-0.11371157932745665,12.40384189829491,1.3643694206725434,10.59444189829491C2.4729394206725432,9.30944189829491,3.8373194206725434,8.26049189829491,5.400679420672543,7.447551898294911C9.778089420672543,5.087411898294911,13.388029420672543,3.487761898294911,15.320929420672543,3.435311898294911C15.491429420672544,3.435311898294911,15.662029420672543,3.435311898294911,15.804129420672544,3.435311898294911C16.799029420672543,3.435311898294911,16.855829420672542,3.5402118982949107,17.282229420672543,3.5402118982949107C17.367529420672543,3.5402118982949107,17.509629420672542,3.5402118982949107,17.65172942067254,3.5139818982949107C17.793829420672544,3.487761898294911,17.992829420672543,3.487761898294911,18.220229420672542,3.461541898294911C18.305529420672542,3.435311898294911,18.419229420672544,3.435311898294911,18.532929420672545,3.435311898294911C19.726729420672545,3.435311898294911,20.579529420672543,4.405591898294911,20.778429420672545,5.139861898294911C20.892129420672543,5.58566189829491,20.920629420672544,5.79545189829491,21.062729420672543,5.9528018982949105C21.261629420672545,6.110141898294911,21.489029420672544,6.188811898294911,21.744929420672545,6.215031898294911C22.597629420672543,6.398601898294911,22.910329420672543,7.080421898294911,22.910329420672543,7.762241898294911C22.910329420672543,9.466781898294911,23.962029420672543,10.72554189829491,25.298029420672542,11.04024189829491C25.354829420672544,11.066441898294912,25.440129420672545,11.066441898294912,25.496929420672544,11.066441898294912C25.553829420672542,11.066441898294912,25.610629420672545,11.066441898294912,25.667529420672544,11.04024189829491C25.781229420672542,11.013941898294911,25.866529420672542,10.935341898294912,25.923329420672545,10.83044189829491C26.093929420672545,10.489541898294911,26.037029420672543,9.886361898294911,26.093929420672545,9.28321189829491C26.150729420672544,8.312931898294911,26.378129420672543,5.533211898294911,25.610629420672545,3.7237718982949106C24.814729420672542,1.7832118982949108,24.416829420672542,1.5209818982949108,24.132529420672544,1.0489518982949109C23.876729420672543,0.6031468982949107,24.644229420672545,0.1311188982949108,25.241129420672543,0.1311188982949108ZM25.241129420672543,-1.7050892113165683e-9C24.757929420672543,-1.7050892113165683e-9,24.303129420672544,0.2097898982949108,24.018829420672542,0.5769228982949108C23.905129420672544,0.7342658982949107,23.905129420672544,0.9440558982949108,23.990429420672545,1.1014018982949108C24.075729420672545,1.2325218982949109,24.161029420672545,1.3636318982949107,24.24622942067254,1.4685318982949107C24.757929420672543,2.176571898294911,25.184329420672544,2.9632818982949107,25.468529420672542,3.776221898294911C26.179129420672542,5.480771898294911,26.008629420672545,8.155591898294912,25.951729420672542,9.17832189829491C25.951729420672542,9.17832189829491,25.951729420672542,9.28321189829491,25.951729420672542,9.28321189829491C25.951729420672542,9.466781898294911,25.923329420672545,9.624121898294911,25.923329420672545,9.78147189829491C25.951729420672542,10.122341898294911,25.894929420672543,10.46324189829491,25.781229420672542,10.77794189829491C25.752829420672544,10.85664189829491,25.69592942067254,10.90904189829491,25.610629420672545,10.935341898294912C25.582229420672544,10.935341898294912,25.525429420672545,10.96154189829491,25.496929420672544,10.96154189829491C25.440129420672545,10.96154189829491,25.383229420672542,10.96154189829491,25.326429420672543,10.935341898294912C23.962029420672543,10.59444189829491,23.052429420672542,9.33566189829491,23.052429420672542,7.762241898294911C23.052429420672542,6.870631898294911,22.569229420672542,6.2674818982949105,21.773329420672543,6.083911898294911C21.545929420672543,6.057691898294911,21.346929420672545,5.979021898294911,21.176429420672545,5.874121898294911C21.091129420672544,5.743001898294911,21.03432942067254,5.58566189829491,21.005829420672544,5.4021018982949105C20.977429420672543,5.323421898294911,20.94902942067254,5.218531898294911,20.920629420672544,5.113631898294911C20.721629420672542,4.37937189829491,19.840429420672542,3.304191898294911,18.532929420672545,3.304191898294911C18.419229420672544,3.304191898294911,18.305529420672542,3.304191898294911,18.220229420672542,3.3304218982949108C17.992829420672543,3.3566418982949107,17.822329420672542,3.3828618982949106,17.65172942067254,3.3828618982949106C17.509629420672542,3.3828618982949106,17.395929420672545,3.409091898294911,17.310629420672544,3.409091898294911C17.16852942067254,3.409091898294911,17.054829420672544,3.409091898294911,16.912729420672544,3.3828618982949106C16.543129420672543,3.3304218982949108,16.20202942067254,3.304191898294911,15.832529420672543,3.304191898294911C15.690429420672544,3.304191898294911,15.519929420672543,3.304191898294911,15.349329420672543,3.304191898294911C13.587029420672543,3.409091898294911,10.318129420672543,4.72028189829491,5.372259420672544,7.3688818982949105C3.8088994206725433,8.181821898294912,2.4160894206725434,9.256991898294912,1.3075194206725433,10.54194189829491C-0.36953457932745665,12.58744189829491,-0.42638357932745663,14.60664189829491,1.1085494206725433,16.206341898294912C1.9328694206725434,17.124141898294912,3.1551294206725435,17.67484189829491,4.462669420672543,17.67484189829491C5.542809420672543,17.648641898294912,6.594519420672543,17.36014189829491,7.5609594206725435,16.88814189829491C7.958909420672543,16.70454189829491,8.385279420672543,16.49474189829491,8.754799420672544,16.25874189829491C11.369829420672543,14.73774189829491,12.904829420672543,12.08914189829491,13.416429420672543,10.751741898294911C13.643829420672544,10.174841898294911,13.984929420672543,9.912591898294911,14.468129420672543,9.57168189829491C15.065129420672543,9.15210189829491,15.576729420672544,8.65384189829491,16.059929420672542,8.129371898294911C16.486329420672543,7.631121898294911,16.799029420672543,7.080421898294911,16.997929420672545,6.503491898294911C17.196929420672543,6.031471898294911,17.282229420672543,5.847901898294911,17.594929420672543,5.79545189829491C17.623329420672544,5.79545189829491,17.65172942067254,5.79545189829491,17.680129420672543,5.79545189829491C17.907529420672542,5.79545189829491,17.992829420672543,5.979021898294911,18.191829420672544,6.319931898294911C18.333929420672543,6.660841898294911,18.561329420672543,6.949301898294911,18.817129420672543,7.211541898294911C19.072929420672544,7.447551898294911,19.357229420672542,7.604891898294911,19.698329420672543,7.6835618982949105C19.812029420672545,7.7097918982949105,19.925729420672543,7.736011898294911,20.011029420672543,7.762241898294911C20.352129420672544,7.814681898294911,20.664729420672543,7.91958189829491,20.94902942067254,8.103141898294911C21.318529420672544,8.339161898294911,21.460629420672543,8.758741898294911,21.631229420672543,9.30944189829491C21.773329420672543,9.912591898294911,22.057529420672545,10.489541898294911,22.398629420672542,11.013941898294911C22.967129420672542,11.80074189829491,24.047329420672543,12.27274189829491,24.786329420672544,12.58744189829491C25.013729420672544,12.66604189829491,25.21272942067254,12.770941898294911,25.440129420672545,12.90214189829491C25.440129420672545,12.90214189829491,25.440129420672545,12.90214189829491,25.440129420672545,12.92834189829491C25.440129420672545,12.92834189829491,25.440129420672545,12.954541898294911,25.440129420672545,12.954541898294911C25.752829420672544,13.269241898294911,25.582229420672544,15.209741898294912,24.161029420672545,17.67484189829491C23.564129420672543,18.75004189829491,23.194529420672545,20.06114189829491,22.825029420672543,21.31994189829491C22.569229420672542,22.36884189829491,22.228129420672545,23.36534189829491,21.801729420672544,24.361841898294912C21.744929420672545,24.46674189829491,21.716429420672544,24.57164189829491,21.659629420672545,24.67654189829491C20.721629420672542,26.59094189829491,19.414029420672545,27.63984189829491,18.447629420672545,28.42654189829491C18.447629420672545,28.42654189829491,18.277129420672544,28.55764189829491,18.277129420672544,28.55764189829491C18.049729420672545,28.79374189829491,18.021229420672544,29.10834189829491,18.163429420672543,29.396841898294912C18.277129420672544,29.71154189829491,18.561329420672543,29.94754189829491,18.930829420672545,30.00004189829491C19.016129420672545,30.00004189829491,19.072929420672544,30.00004189829491,19.158229420672544,29.97374189829491C20.437329420672544,29.58044189829491,21.545929420672543,28.84614189829491,22.313429420672545,27.82344189829491C22.427129420672543,27.66604189829491,22.569229420672542,27.53494189829491,22.711329420672545,27.40384189829491C23.990429420672545,26.22374189829491,27.031929420672544,25.253541898294912,27.969929420672543,25.148641898294912C28.424729420672545,25.09614189829491,28.652129420672544,24.67654189829491,28.623629420672543,24.25694189829491C28.652129420672544,23.837441898294912,28.311029420672543,23.49654189829491,27.856229420672545,23.49654189829491C27.856229420672545,23.49654189829491,27.827829420672543,23.49654189829491,27.827829420672543,23.49654189829491C26.463429420672544,23.52274189829491,25.099029420672544,24.12584189829491,24.331529420672542,24.51924189829491C24.615829420672544,23.837441898294912,24.843229420672543,23.15554189829491,24.985329420672542,22.44754189829491C25.354829420672544,20.79544189829491,25.667529420672544,20.11364189829491,26.378129420672543,18.48774189829491C26.378129420672543,18.48774189829491,26.434929420672542,18.33044189829491,26.434929420672542,18.33044189829491C27.259329420672543,16.468541898294912,27.770929420672545,13.662541898294911,27.856229420672545,11.95804189829491C27.856229420672545,11.74824189829491,27.884629420672542,11.51224189829491,27.884629420672542,11.25004189829491C27.941529420672545,10.568141898294911,27.998329420672544,9.75524189829491,28.083629420672544,8.91608189829491C28.197329420672542,7.473771898294911,28.339429420672545,6.005241898294911,28.339429420672545,5.113631898294911C28.424729420672545,3.8811218982949107,28.99322942067254,2.701051898294911,29.95962942067254,1.8356618982949109C30.187029420672545,1.6521018982949107,30.243929420672544,1.3636318982949107,30.130229420672542,1.1276218982949109C29.95962942067254,0.7342658982949107,29.533229420672544,0.4458038982949108,29.078429420672542,0.41957989829491077C28.964729420672544,0.41957989829491077,28.822629420672545,0.4458038982949108,28.708929420672543,0.4982518982949108C27.969929420672543,0.8653848982949108,27.373029420672545,1.4160818982949108,27.003429420672543,2.0979018982949107C27.003429420672543,2.1241218982949106,26.975029420672545,2.1241218982949106,26.946629420672544,2.1241218982949106C26.918229420672542,2.1241218982949106,26.889729420672545,2.0979018982949107,26.889729420672545,2.0979018982949107C26.605529420672543,1.5472018982949107,26.292829420672543,0.9965028982949108,25.951729420672542,0.47202789829491076C25.951729420672542,0.47202789829491076,25.809629420672543,0.2622378982949108,25.809629420672543,0.2622378982949108C25.752829420672544,0.10489489829491079,25.496929420672544,-0.02622380170508921,25.241129420672543,-1.7050892113165683e-9Z" fill="#1B4826" fill-opacity="1"/></g></g><g><g><path d="M21.830182371111995,24.729019260575186C20.806892371111996,26.774473860575185,19.357232371111998,27.875873860575183,18.419220371111997,28.662583860575182C18.021274371111996,28.977273860575185,18.504493371111998,30.052443860575185,19.158262371111995,29.842653860575183C21.375392371111996,29.134613860575186,22.057582371111998,27.849643860575185,22.654502371111995,27.325173860575184C22.853472371111998,26.276223860575186,23.478822371111995,25.332164860575183,24.416832371111997,24.702793860575184C23.876762371111997,24.912583860575186,22.284982371111997,25.305942860575183,21.830182371111995,24.729019260575186Z" fill="#DD8B8A" fill-opacity="1"/></g><g style="opacity:0.5;"><path d="M22.029453308612,27.272998360575183C21.034583308611996,28.295721360575186,19.783893308611997,29.056211360575183,18.391083308611996,29.475791360575183C18.504782308611997,29.764261360575183,18.845880308611996,29.921601360575185,19.158552308611995,29.842931360575186C21.375683308611997,29.134891360575185,22.057873308611995,27.849921360575184,22.654793308611996,27.325444360575183C22.711643308611997,27.063207360575184,22.796913308611998,26.800969360575184,22.910613308611996,26.538731360575184C22.597943308611995,26.774745360575185,22.285273308612,27.010760360575183,22.029453308612,27.272998360575183Z" fill="#4B4C23" fill-opacity="1"/></g><g><path d="M21.919620791811397,24.773902048075183Q21.930180791811395,24.752779448075184,21.930180791811395,24.729161048075184Q21.930180791811395,24.709269848075184,21.922570791811395,24.690892748075186Q21.914960791811396,24.672515648075183,21.900890791811396,24.658450348075185Q21.886830791811395,24.644385148075184,21.868450791811394,24.636773148075186Q21.850080791811394,24.629161048075183,21.830180791811394,24.629161048075183Q21.801780791811396,24.629161048075183,21.777620791811394,24.644090148075183Q21.753460791811396,24.659019248075186,21.740750791811394,24.684419848075184Q21.126450791811394,25.912351048075184,20.161770791811396,26.949731048075183Q19.605110791811395,27.548341048075184,18.583706791811395,28.395671048075183Q18.428342791811396,28.524561048075185,18.354957691811396,28.586111048075185Q18.175745891811395,28.739631048075182,18.174874691811397,29.020121048075183Q18.174111791811395,29.265621048075182,18.306663791811395,29.507351048075186Q18.444643791811394,29.758991048075185,18.661754791811394,29.881881048075186Q18.915732791811394,30.025641048075183,19.188815791811393,29.938011048075182Q20.353170791811394,29.579951048075184,21.213870791811395,28.916941048075184Q21.707410791811395,28.536751048075185,22.325090791811395,27.827351048075183Q22.599810791811393,27.511821048075184,22.722310791811395,27.398811048075185Q22.754500791811395,27.369111048075183,22.754500791811395,27.325311048075186Q22.754500791811395,27.305421048075186,22.746890791811396,27.287041048075185Q22.739270791811396,27.268671048075184,22.725210791811396,27.254601048075184Q22.711140791811395,27.240541048075183,22.692770791811395,27.232921048075184Q22.674390791811394,27.225311048075184,22.654500791811394,27.225311048075184Q22.615420791811395,27.225311048075184,22.586690791811396,27.251811048075183Q22.456160791811396,27.372231048075186,22.174250791811396,27.696011048075185Q21.569620791811396,28.390431048075186,21.091820791811394,28.758501048075185Q20.259790791811394,29.399431048075186,19.127705791811394,29.747581048075183Q18.735495791811395,29.873441048075186,18.482029791811396,29.411191048075185Q18.374271391811394,29.214681048075185,18.374873791811396,29.020751048075184Q18.375460791811395,28.831891048075185,18.483478791811397,28.739351048075186Q18.556416791811394,28.678171048075185,18.711401791811394,28.549601048075186Q19.742760791811396,27.694011048075183,20.308230791811397,27.085921048075186Q21.292460791811394,26.027511048075183,21.919620791811397,24.773902048075183Z" fill-rule="evenodd" fill="#1B4826" fill-opacity="1"/></g></g><g><g><path d="M22.65439850941766,27.325174000461747C23.96193850941766,26.118884000461748,27.088658509417662,25.148604000461745,27.99824850941766,25.043704000461744C28.73728850941766,24.965034000461745,28.708868509417663,23.627620800461745,27.884548509417662,23.653844592461745C26.49173850941766,23.680068400461746,25.04207850941766,24.361887000461746,24.41672850941766,24.702794000461747C23.478716509417662,25.332164000461745,22.85337150941766,26.276224000461745,22.65439850941766,27.325174000461747Z" fill="#DD8B8A" fill-opacity="1"/></g><g style="opacity:0.5;"><path d="M27.969927688656153,25.043705534708486C28.339447688656154,24.965034534708487,28.566847688656154,24.650349534708486,28.509997688656153,24.335664534708485C28.083627688656154,24.388112134708486,27.685677688656153,24.493007534708486,27.287727688656155,24.597902534708485C25.326427688656153,25.174825534708486,24.018887688656154,25.699294534708486,22.881900688656152,26.538464534708485C22.768201688656152,26.800694534708484,22.682927088656154,27.062934534708486,22.626077688656153,27.325174534708484C23.962037688656153,26.092654534708487,27.088757688656152,25.122377534708484,27.969927688656153,25.043705534708486Z" fill="#4B4C23" fill-opacity="1"/></g><g><path d="M22.559142796917662,27.250874102884755L22.55906119691766,27.250954102884755Q22.52607819691766,27.280734102884754,22.52607819691766,27.325174102884755Q22.52607819691766,27.345064102884756,22.53369019691766,27.363444102884756Q22.54130229691766,27.381814102884753,22.55536749691766,27.395884102884754Q22.56943279691766,27.409944102884754,22.587809896917662,27.417564102884754Q22.60618699691766,27.425174102884753,22.62607819691766,27.425174102884753Q22.66454469691766,27.425174102884753,22.69309499691766,27.399394102884756Q23.57356519691766,26.604384102884755,25.49383819691766,25.864734102884753Q27.105118196917662,25.244094102884755,27.98137819691766,25.143044102884755Q28.290928196917662,25.110104102884755,28.46371819691766,24.844144102884755Q28.61518819691766,24.611009102884754,28.599198196917662,24.304235102884753Q28.58292819691766,23.992040102884754,28.40109819691766,23.783215102884753Q28.19201819691766,23.543112102884756,27.853048196917662,23.553895502884753Q26.92238819691766,23.571409102884754,25.80131819691766,23.965985102884755Q25.03877819691766,24.234370102884753,24.34074819691766,24.614884102884755L24.34054819691766,24.614995102884755Q24.316448196917662,24.628135102884755,24.30242819691766,24.651739102884754Q24.28840819691766,24.675344102884754,24.28840819691766,24.702794102884756Q24.28840819691766,24.722684102884756,24.29602819691766,24.741064102884753Q24.30363819691766,24.759444102884753,24.31769819691766,24.773504102884754Q24.33176819691766,24.787574102884754,24.35014819691766,24.795184102884754Q24.36851819691766,24.802794102884754,24.38840819691766,24.802794102884754Q24.41389819691766,24.802794102884754,24.436278196917662,24.790594102884754L24.43629819691766,24.790584102884754L24.43657819691766,24.790434102884756Q25.12042819691766,24.417662102884755,25.86771819691766,24.154641102884753Q26.95838819691766,23.770767102884754,27.85940819691766,23.753794102884754Q28.103518196917662,23.746028502884755,28.25026819691766,23.914553102884753Q28.38678819691766,24.071347102884754,28.39946819691766,24.314644102884756Q28.412078196917662,24.556531102884755,28.29600819691766,24.735184102884755Q28.17508819691766,24.921304102884754,27.95846819691766,24.944364102884755Q27.05694819691766,25.048324102884756,25.42194819691766,25.678094102884756Q23.46715019691766,26.431044102884755,22.559142796917662,27.250874102884755Z" fill-rule="evenodd" fill="#1B4826" fill-opacity="1"/></g></g><g><g><path d="M25.667520322772152,11.066430857950673C25.553820322772154,11.092660857950673,25.411700322772152,11.092660857950673,25.298000322772154,11.066430857950673C23.962040322772154,10.751750857950672,22.91032032277215,9.493010857950672,22.91032032277215,7.788460857950673C22.91032032277215,7.106640857950673,22.597650322772154,6.424824857950672,21.744910322772153,6.2412588579506725C21.489090322772153,6.2150348579506725,21.261690322772154,6.1363638579506725,21.06272032277215,5.9790208579506725C20.437372322772152,6.2412588579506725,19.698330822772153,7.0541908579506725,19.726755586772153,7.552450857950673C20.124701322772154,7.657340857950673,20.551072322772153,7.683570857950673,21.034290322772154,7.9720308579506725C21.830180322772154,8.496500857950672,21.60279032277215,9.650350857950674,22.512380322772152,10.909090857950673C23.25142032277215,11.958040857950673,25.013750322772154,12.456290857950673,25.496970322772153,12.770980857950672C25.525400322772153,12.797200857950672,25.525400322772153,12.797200857950672,25.553820322772154,12.823430857950672C26.122320322772154,12.377620857950673,26.17917032277215,11.590910857950671,25.695950322772152,11.092660857950673C25.695950322772152,11.092660857950673,25.667520322772152,11.092660857950673,25.667520322772152,11.066430857950673Z" fill="#DD8B8A" fill-opacity="1"/></g><g style="opacity:0.5;"><path d="M19.726936885272153,7.552555076700672C20.124882885272154,7.657455076700673,20.551253885272153,7.6836750767006725,21.034476885272152,7.972145076700673C21.830366885272152,8.496615076700673,21.602966885272153,9.650465076700673,22.512556885272154,10.909205076700673C23.251596885272154,11.958155076700672,25.01393688527215,12.456405076700673,25.497156885272155,12.771095076700671C25.52557688527215,12.797315076700674,25.52557688527215,12.797315076700674,25.554006885272152,12.823535076700672C25.752976885272155,12.692425076700673,25.895106885272153,12.482625076700671,25.951946885272154,12.272835076700673C25.838256885272152,12.167945076700672,25.696126885272154,12.115495076700672,25.52557688527215,12.063045076700671C24.786536885272152,11.853255076700673,23.791666885272154,11.591025076700673,23.166326885272152,10.961655076700673C22.540986885272154,10.332275076700672,22.171466885272153,9.545565076700672,22.143036885272153,8.680185076700672C22.171466885272153,7.814795076700673,22.000916885272154,7.762355076700673,21.403996885272154,7.447665076700672C20.778656885272152,7.106756076700672,20.97762688527215,6.5036090767006725,20.721801885272153,6.320042776700673C20.664952885272154,6.2938190767006725,20.608103885272154,6.2675950767006725,20.551253885272153,6.2675950767006725C20.12488388527215,6.6609520767006725,19.726936885272153,7.211651076700672,19.726936885272153,7.552555076700672Z" fill="#4B4C23" fill-opacity="1"/></g><g><path d="M19.750826385272152,7.481566740946278Q19.854711885272152,7.507124440946278,20.061603885272152,7.545945940946278Q20.710001885272153,7.667612240946278,21.089046885272154,7.914454240946278Q21.393426885272152,8.104989240946278,21.57934688527215,8.474168240946279Q21.690356885272152,8.694601240946279,21.852096885272154,9.226531240946278Q22.173336885272153,10.283021240946278,22.59417688527215,10.877541240946279Q22.93445688527215,11.360501240946277,23.66306688527215,11.791651240946278Q24.085776885272153,12.041791240946278,24.899986885272153,12.398321240946277Q25.412526885272154,12.622751240946279,25.551726885272153,12.713401240946279Q25.558776885272152,12.718001240946279,25.564956885272153,12.723701240946278L25.621806885272154,12.776151240946277Q25.654006885272153,12.805851240946279,25.654006885272153,12.849651240946278Q25.654006885272153,12.869541240946278,25.646396885272154,12.887921240946277Q25.63877688527215,12.906291240946278,25.624716885272154,12.920361240946278Q25.610646885272153,12.934421240946278,25.592266885272153,12.942041240946278Q25.573896885272152,12.949651240946277,25.554006885272152,12.949651240946277Q25.514926885272153,12.949651240946277,25.486196885272154,12.923151240946279L25.48608688527215,12.923051240946279L25.457776885272153,12.896921240946277L25.435796885272154,12.876651240946277Q25.304236885272154,12.793671240946278,24.819766885272152,12.581521240946277Q23.994406885272152,12.220111240946277,23.561216885272152,11.96377124094628Q22.79567688527215,11.510771240946278,22.430936885272153,10.993091240946278Q21.991406885272152,10.372161240946278,21.660746885272154,9.284711240946278Q21.50400688527215,8.769211240946278,21.400716885272153,8.564125240946279Q21.23993688527215,8.244857240946278,20.979906885272154,8.082049240946278Q20.634113885272154,7.856863240946278,20.024718885272154,7.742515240946278Q19.812346685272153,7.702665240946278,19.703047385272153,7.675775740946278Q19.669526885272152,7.667529140946278,19.648231885272153,7.640360140946278Q19.62693688527215,7.613191240946278,19.62693688527215,7.578671240946278Q19.62693688527215,7.558780040946278,19.634548885272153,7.540402940946278Q19.642160985272152,7.522025840946278,19.656226185272153,7.507960540946278Q19.670291485272152,7.493895340946278,19.688668585272154,7.486283340946278Q19.707045685272153,7.478671240946278,19.726936885272153,7.478671240946278Q19.73905708527215,7.478671240946278,19.750826385272152,7.481566740946278Z" fill-rule="evenodd" fill="#1B4826" fill-opacity="1"/></g><g><path d="M21.15323124568475,5.900630997868742Q21.40977324568475,6.103466797868742,21.78353324568475,6.141779797868742Q21.78900424568475,6.142340797868742,21.79438024568475,6.143497797868742Q22.433072245684752,6.280985797868742,22.75916224568475,6.772750797868742Q23.03875224568475,7.194380797868742,23.03875224568475,7.788460797868742Q23.03875224568475,9.001120797868742,23.71129224568475,9.888230797868742Q24.35275224568475,10.734350797868743,25.34890224568475,10.968990797868742Q25.51119224568475,11.006420797868742,25.67347224568475,10.968990797868742Q25.684562245684752,10.966430797868743,25.69595224568475,10.966430797868743Q25.71584224568475,10.966430797868743,25.734212245684752,10.974050797868742Q25.752592245684752,10.981660797868741,25.76666224568475,10.995720797868742Q25.78072224568475,11.009790797868742,25.78833224568475,11.028160797868743Q25.795952245684752,11.046540797868742,25.795952245684752,11.066430797868742Q25.795952245684752,11.101360797868743,25.77420224568475,11.128690797868742Q25.75245224568475,11.156020797868742,25.71842224568475,11.163870797868743Q25.51118224568475,11.211670797868742,25.30395224568475,11.163880797868742Q24.23685224568475,10.912520797868742,23.55191224568475,10.009060797868742Q22.838752245684752,9.068360797868742,22.838752245684752,7.788460797868742Q22.838752245684752,7.254670797868742,22.59248224568475,6.883280797868742Q22.31270224568475,6.461355797868742,21.75751724568475,6.340151797868742Q21.32940524568475,6.294920797868742,21.02911494568475,6.057459497868742Q20.99114224568475,6.027431597868742,20.99114224568475,5.979020797868742Q20.99114224568475,5.959129597868742,20.99875424568475,5.940752497868742Q21.00636634568475,5.922375397868742,21.02043154568475,5.908310097868742Q21.03449684568475,5.894244897868742,21.052873945684752,5.886632897868742Q21.07125104568475,5.879020797868742,21.09114224568475,5.879020797868742Q21.12590334568475,5.879020797868742,21.15316944568475,5.9005820978687415L21.15323124568475,5.900630997868742Z" fill-rule="evenodd" fill="#1B4826" fill-opacity="1"/></g></g><g><g><path d="M25.923347388812193,10.85664346232079C25.866497388812192,10.96153846232079,25.78122738881219,11.04020946232079,25.667527388812193,11.06643346232079C26.179167388812193,11.56468546232079,26.122317388812192,12.35140346232079,25.582247388812192,12.82342346232079C25.582247388812192,12.82342346232079,25.55382738881219,12.84965346232079,25.55382738881219,12.84965346232079C25.951767388812193,13.29545346232079,25.639097388812193,15.393353462320789,24.303137388812193,17.727273462320788C23.194577388812192,19.641603462320788,22.938747388812192,22.290243462320788,21.97231138881219,24.41434346232079C21.915461588812192,24.519243462320787,21.887036788812193,24.624143462320788,21.830187388812192,24.72904346232079C22.31340738881219,25.279743462320788,23.90518738881219,24.91254346232079,24.41683738881219,24.67654346232079C24.359987388812193,24.70284346232079,24.303137388812193,24.67654346232079,24.246287388812192,24.65034346232079C24.21786738881219,24.624143462320788,24.21786738881219,24.597943462320792,24.246287388812192,24.54544346232079C24.530537388812192,23.863643462320788,24.757927388812192,23.15564346232079,24.92847738881219,22.42134346232079C25.326427388812192,20.71678346232079,25.639097388812193,20.03496346232079,26.37814738881219,18.27797346232079C27.11718738881219,16.52097346232079,27.68567738881219,13.74125346232079,27.770947388812193,11.95804346232079C27.770947388812193,11.74825146232079,27.799377388812193,11.51223746232079,27.799377388812193,11.25000046232079C26.690817388812192,11.82692346232079,25.923347388812193,10.85664346232079,25.923347388812193,10.85664346232079Z" fill="#DD8B8A" fill-opacity="1"/></g><g style="opacity:0.5;"><path d="M25.55420157631219,12.84986946232079C25.838448576312192,13.16455446232079,25.753173576312193,14.34462346232079,25.184679576312192,15.86560346232079C25.49735157631219,15.28868346232079,25.753173576312193,14.659313462320789,25.895297576312192,14.029943462320789C26.122695576312193,13.00721146232079,26.20796957631219,12.56140746232079,25.95214857631219,12.32539346232079C25.895298576312193,12.50895946232079,25.75317457631219,12.71875046232079,25.55420157631219,12.84986946232079Z" fill="#4B4C23" fill-opacity="1"/></g><g style="opacity:0.5;"><path d="M27.57166301381219,11.35509214982079C27.51481301381219,11.87956814982079,27.48638301381219,12.35159814982079,27.45796301381219,12.64005814982079C27.315833013812192,14.003698149820789,26.91789301381219,15.94424814982079,26.12200301381219,17.49145814982079C25.41138301381219,18.88131814982079,24.89973301381219,20.34984814982079,24.672340013812192,21.87079814982079C24.672340013812192,21.897098149820792,24.672340013812192,21.923298149820788,24.672340013812192,21.94949814982079C24.530216013812193,22.60509814982079,24.30281701381219,23.208198149820788,24.01857001381219,23.81139814982079C23.649049013812192,24.67679814982079,24.046995013812193,24.83409814982079,24.416517013812193,24.70299814982079C24.359667013812192,24.72919814982079,24.302818013812193,24.70299814982079,24.27439301381219,24.65049814982079C24.245968013812192,24.62429814982079,24.245968013812192,24.59809814982079,24.27439301381219,24.54569814982079C24.55864001381219,23.863798149820788,24.786039013812193,23.15579814982079,24.956583013812192,22.421498149820792C24.956583013812192,22.39529814982079,24.956583013812192,22.36909814982079,24.985013013812193,22.34289814982079C25.35453301381219,20.690758149820788,25.66720301381219,20.00893814982079,26.43467301381219,18.27816814982079C27.20214301381219,16.52117814982079,27.74221301381219,13.74145814982079,27.82748301381219,11.95823914982079C27.82748301381219,11.74844914982079,27.855903013812192,11.51243614982079,27.855903013812192,11.25019814982079C27.74221301381219,11.27642194982079,27.656933013812193,11.32886884982079,27.57166301381219,11.35509214982079Z" fill="#4B4C23" fill-opacity="1"/></g><g><path d="M25.658707078305074,12.758971362717519Q26.016907078305074,13.183856462717518,25.69031707830507,14.589937462717518Q25.339857078305073,16.098787462717517,24.390157078305073,17.776537462717517Q23.986277078305072,18.473987462717517,23.641557078305073,19.48695746271752Q23.433517078305073,20.09828746271752,23.079717078305073,21.38562746271752Q22.501411078305072,23.489827462717518,22.066531078305072,24.448727462717518Q22.033218078305072,24.56422746271752,21.918213178305074,24.776427462717518L21.918105178305073,24.77662746271752Q21.904993278305074,24.800827462717518,21.881349278305073,24.81492746271752Q21.857705378305074,24.82902746271752,21.830187078305073,24.82902746271752Q21.810295878305073,24.82902746271752,21.791918778305075,24.821427462717516Q21.773541678305072,24.81382746271752,21.759476378305074,24.79972746271752Q21.745411178305073,24.785627462717517,21.737799178305075,24.767327462717518Q21.73018707830507,24.748927462717518,21.73018707830507,24.729027462717518Q21.73018707830507,24.70362746271752,21.742268778305075,24.68132746271752L21.742382078305074,24.68112746271752Q21.850426378305073,24.48182746271752,21.875791678305074,24.388227462717516Q21.877919678305073,24.380327462717517,21.881288978305072,24.37292746271752Q22.310653078305073,23.42922746271752,22.886867078305073,21.332627462717518Q23.242257078305073,20.03951746271752,23.45222707830507,19.42251746271752Q23.803307078305075,18.39086746271752,24.216107078305072,17.678007462717517Q25.151577078305074,16.025397462717518,25.49549707830507,14.544687462717519Q25.799287078305074,13.236768462717519,25.506057078305073,12.888196562717518L25.505797078305072,12.887883562717517Q25.482247078305072,12.859955762717519,25.482247078305072,12.823427462717518Q25.482247078305072,12.803536262717518,25.48985707830507,12.785159162717518Q25.497477078305074,12.766782062717517,25.511537078305075,12.752716762717519Q25.52560707830507,12.738651562717518,25.543977078305073,12.731039562717518Q25.562357078305073,12.723427462717519,25.582247078305073,12.723427462717519Q25.628737078305072,12.723427462717519,25.658707078305074,12.758971362717519Z" fill-rule="evenodd" fill="#1B4826" fill-opacity="1"/></g><g><path d="M27.927650513812193,11.26097434982079Q27.928230513812192,11.25560196982079,27.928230513812192,11.25019814982079Q27.928230513812192,11.23030694982079,27.920620513812192,11.21192984982079Q27.913010513812193,11.193552749820789,27.898940513812192,11.17948744982079Q27.884880513812192,11.16542224982079,27.86650051381219,11.15781024982079Q27.84812051381219,11.15019814982079,27.82823051381219,11.15019814982079Q27.80974051381219,11.15019814982079,27.79247051381219,11.15681104982079Q27.77520051381219,11.16342384982079,27.761440513812193,11.17577494982079Q27.747680513812192,11.18812604982079,27.73924051381219,11.20458194982079Q27.73081051381219,11.22103774982079,27.728810513812192,11.23942194982079L27.728800513812192,11.23958554982079Q27.699880513812193,11.50646114982079,27.699810513812192,11.95584614982079Q27.63208051381219,13.36699814982079,27.26139051381219,15.117148149820789Q26.86097051381219,17.00767814982079,26.315580513812193,18.23762814982079Q26.26318051381219,18.35580814982079,26.164340513812192,18.57814814982079Q25.58544051381219,19.88038814982079,25.37475051381219,20.44909814982079Q25.05981351381219,21.29919814982079,24.803103513812193,22.39879814982079Q24.80266951381219,22.40069814982079,24.802307513812192,22.40249814982079Q24.59167551381219,23.49069814982079,24.128595213812194,24.50129814982079Q24.08642851381219,24.58219814982079,24.124047413812193,24.66319814982079Q24.153769113812192,24.72719814982079,24.22273601381219,24.76249814982079Q24.27937121381219,24.80069814982079,24.377747513812192,24.779598149820792L24.388841513812192,24.77679814982079Q24.408732513812193,24.77679814982079,24.42710951381219,24.769198149820788Q24.44548651381219,24.76149814982079,24.45955251381219,24.74749814982079Q24.47361751381219,24.73339814982079,24.481229513812192,24.71499814982079Q24.48884151381219,24.69669814982079,24.48884151381219,24.67679814982079Q24.48884151381219,24.65689814982079,24.481229513812192,24.63849814982079Q24.47361751381219,24.62009814982079,24.45955251381219,24.606098149820788Q24.44548651381219,24.59199814982079,24.42710951381219,24.58439814982079Q24.408732513812193,24.57679814982079,24.388841513812192,24.57679814982079L24.38773451381219,24.57679814982079Q24.36867451381219,24.57699814982079,24.335818513812193,24.58399814982079Q24.32589851381219,24.586198149820788,24.319705513812192,24.58729814982079Q24.318376513812193,24.586598149820787,24.31702951381219,24.58599814982079L24.31375951381219,24.58819814982079L24.310930513812192,24.58839814982079L24.31333451381219,24.58849814982079L24.306209513812192,24.59329814982079Q24.30779851381219,24.59039814982079,24.309189513812193,24.58729814982079Q24.782794513812192,23.55459814982079,24.99829551381219,22.44239814982079Q25.251980513812192,21.35619814982079,25.562300513812193,20.51857814982079Q25.77079051381219,19.95578814982079,26.34709051381219,18.659398149820788Q26.445950513812193,18.43700814982079,26.498410513812193,18.31870814982079Q27.052290513812192,17.06960814982079,27.45705051381219,15.15858814982079Q27.83140051381219,13.391178149820789,27.899690513812192,11.96301414982079L27.89981051381219,11.95823914982079L27.89981051381219,11.958230149820789Q27.89981051381219,11.51782914982079,27.927650513812193,11.26097434982079Z" fill-rule="evenodd" fill="#1B4826" fill-opacity="1"/></g><g><path d="M26.01084045131219,10.904292310647518Q26.02292245131219,10.881999710647518,26.02292245131219,10.856643710647518Q26.02292245131219,10.836752510647518,26.015310451312192,10.818375410647517Q26.00769845131219,10.799998310647517,25.99363245131219,10.785933010647518Q25.979567451312192,10.771867810647517,25.96119045131219,10.764255810647517Q25.94281345131219,10.756643710647518,25.922922451312193,10.756643710647518Q25.89540345131219,10.756643710647518,25.87176045131219,10.770722610647518Q25.84811645131219,10.784801610647518,25.835003451312193,10.808995110647517Q25.763100551312192,10.941666910647518,25.64462725131219,10.968991710647519Q25.61059315131219,10.976841710647518,25.588847351312193,11.004173710647517Q25.56710145131219,11.031505710647517,25.56710145131219,11.066433710647518Q25.56710145131219,11.086324710647517,25.574713451312192,11.104701710647518Q25.58232555131219,11.123078710647517,25.596390751312192,11.137144710647517Q25.61045605131219,11.151209710647517,25.628833151312193,11.158821710647517Q25.647210251312192,11.166433710647517,25.667101451312192,11.166433710647517Q25.67848415131219,11.166433710647517,25.689575651312193,11.163875710647519L25.689587751312192,11.163872710647517L25.68966055131219,11.163855710647518Q25.79582245131219,11.139349710647517,25.88090445131219,11.067396710647518Q25.957593451312192,11.002540710647517,26.01084045131219,10.904292310647518Z" fill-rule="evenodd" fill="#1B4826" fill-opacity="1"/></g><g style="opacity:0.5;"><g><path d="M23.819800525778135,19.74650330997957C23.706101625778135,20.11363330997957,23.905074325778134,19.98251330997957,23.990348325778132,19.66783330997957C24.189321325778135,18.95979330997957,24.473569325778133,18.25174730997957,24.814663325778135,17.59615330997957C24.416719325778136,18.27797130997957,24.075623325778135,18.98601330997957,23.819800525778135,19.74650330997957Z" fill="#FFFFFF" fill-opacity="1"/></g><g><path d="M23.791103200778135,20.37587240638207C23.762679200778134,20.16608200638207,23.705829300778134,20.13985980638207,23.648979900778134,20.40209740638207C23.506856200778135,20.87412540638207,23.819528200778134,20.63811040638207,23.791103200778135,20.37587240638207Z" fill="#FFFFFF" fill-opacity="1"/></g><g><path d="M23.62080546748216,20.742709923590322C23.592609967482158,20.79515746359032,23.59261126748216,20.847604763590322,23.677197667482158,20.90005176359032C23.78997976748216,20.97872376359032,23.67719636748216,20.69026236359032,23.62080546748216,20.742709923590322Z" fill="#FFFFFF" fill-opacity="1"/></g></g></g><g><g><path d="M28.851095043206826,0.6293708289444297C28.140475043206827,0.9965038289444298,27.571975043206827,1.5209798289444298,27.202455043206825,2.1765698289444297C27.145605043206828,2.28146982894443,27.031905043206827,2.30768982894443,26.918205043206825,2.2552498289444296C26.861355043206828,2.2290198289444296,26.832935043206827,2.2027998289444297,26.832935043206827,2.15034982894443C26.520265043206827,1.5209798289444298,26.179165043206826,0.9178318289444297,25.781225043206828,0.34090882894442975C25.383275043206826,-0.26223817105557023,23.791491043206825,0.4195808289444298,24.132587643206826,1.0227268289444298C24.416835043206827,1.4947598289444297,24.814780043206827,1.7569898289444297,25.610675043206825,3.69754982894443C26.349715043206828,5.5069898289444295,26.150745043206825,8.28670982894443,26.093895043206828,9.25698982894443C26.065465043206828,9.86013982894443,26.093895043206828,10.489479828944429,25.923345043206826,10.804179828944429C25.923345043206826,10.804179828944429,26.690815043206825,11.774479828944429,27.827805043206826,11.19757982894443C27.96992504320683,9.309439828944429,28.25417504320683,6.45104982894443,28.282595043206825,5.06118982894443C28.311025043206826,3.5139898289444296,29.362735043206825,2.1765698289444297,29.959655043206826,1.7045498289444299C30.499725043206826,1.2849698289444298,29.533285043206828,0.31468582894442976,28.851095043206826,0.6293708289444297Z" fill="#DD8B8A" fill-opacity="1"/></g><g style="opacity:0.5;"><path d="M30.016958799945005,1.0751747728791088C29.675858799945004,1.3636367728791088,29.363188799945004,1.6783217728791087,29.050518799945003,1.9930067728791088C28.112501799945004,3.015734772879109,27.856679799945006,3.854894772879109,27.885104799945005,5.585664772879109C27.913529799945003,6.687064772879109,27.714556799945004,9.49300477287911,27.544008799945004,11.32867477287911C27.629282999945005,11.302474772879108,27.714557799945005,11.27617477287911,27.799831799945004,11.223774772879109C27.941955799945003,9.33566477287911,28.226201799945006,6.477274772879109,28.254626799945004,5.087414772879109C28.283051799945003,3.540204772879109,29.334768799945003,2.202794772879109,29.931688799945004,1.7307687728791088C30.130658799945003,1.5734267728791087,30.159078799945004,1.2849647728791087,30.016958799945005,1.0751747728791088Z" fill="#4B4C23" fill-opacity="1"/></g><g><path d="M27.728165043206882,11.267761161371693L27.72808504320688,11.268861161371692L27.72808504320688,11.268861161371692L27.927515043206885,11.283861161371693Q27.971875043206882,10.694661161371693,28.090095043206883,9.300561161371693Q28.362975043206884,6.082961161371693,28.382575043206884,5.142101161371693Q28.401175043206884,4.129211161371693,28.994395043206882,3.1087611613716932Q29.461985043206884,2.304401161371693,30.021685043206883,1.861811161371693Q30.277765043206884,1.659311161371693,30.241965043206882,1.352221161371693Q30.211455043206882,1.090447161371693,29.981495043206884,0.854716161371693Q29.758175043206883,0.625795161371693,29.460625043206882,0.536983161371693Q29.126175043206885,0.437157161371693,28.83902504320688,0.5643161613716929Q28.837635043206884,0.564932161371693,28.836265043206883,0.5655901613716929Q27.750915043206884,1.0862711613716929,27.151935043206883,2.139441161371693Q27.117325043206883,2.169491161371693,27.084335043206885,2.186411161371693Q26.965835043206884,2.210031161371693,26.921595043206885,2.130441161371693Q26.413235043206882,1.107433161371693,25.863535043206884,0.310510161371693Q25.69608504320688,0.05668096137169301,25.313505043206884,0.03471876137169301Q24.991344043206883,0.01622516137169301,24.640975043206883,0.16366836137169302Q24.288896043206883,0.311831161371693,24.111149743206884,0.542220161371693Q23.891819043206883,0.826511161371693,24.045543043206884,1.098335161371693Q24.116951543206884,1.230131161371693,24.300730043206883,1.487081161371693Q24.942333043206883,2.384131161371693,25.51815504320688,3.788101161371693Q26.231905043206883,5.470911161371693,26.005605043206884,9.114761161371693Q25.997535043206884,9.244721161371693,25.994165043206884,9.302001161371694Q25.975515043206883,9.501051161371693,25.962835043206884,9.885521161371694Q25.939245043206885,10.600961161371693,25.834075043206884,10.811761161371694L25.833915043206883,10.812061161371693Q25.823345043206885,10.833161161371693,25.823345043206885,10.856761161371693Q25.823345043206885,10.876661161371693,25.830955043206885,10.895061161371693Q25.838565043206884,10.913461161371693,25.852635043206885,10.927561161371694Q25.86669504320688,10.941561161371693,25.885075043206882,10.949161161371693Q25.903455043206883,10.956761161371693,25.923345043206883,10.956761161371693Q25.951745043206884,10.956761161371693,25.975905043206883,10.941861161371692Q26.000065043206884,10.926961161371693,26.012775043206883,10.901561161371694Q26.137675043206883,10.651861161371693,26.162725043206883,9.892121161371692Q26.17525504320688,9.512021161371694,26.193455043206882,9.318981161371694L26.193725043206882,9.315451161371692Q26.197045043206884,9.258751161371693,26.205215043206884,9.127151161371692Q26.434435043206882,5.436231161371693,25.703195043206883,3.712211161371693Q25.118545043206883,2.286711161371693,24.463404043206882,1.370731161371693Q24.286861043206883,1.123894161371693,24.219632043206882,0.999883161371693Q24.131245143206883,0.843591161371693,24.269501043206883,0.664388161371693Q24.415051043206883,0.475730161371693,24.718550043206882,0.34801016137169305Q25.026178043206883,0.218554361371693,25.302045043206885,0.234390161371693Q25.584425043206885,0.250600161371693,25.698905043206885,0.424070161371693Q26.240965043206884,1.209921161371693,26.743375043206882,2.2212211613716932Q26.744175043206884,2.222821161371693,26.745015043206884,2.224381161371693Q26.863385043206883,2.442791161371693,27.139655043206883,2.379071161371693Q27.149705043206882,2.376751161371693,27.159075043206883,2.372431161371693Q27.230245043206885,2.339601161371693,27.298695043206884,2.276451161371693Q27.310265043206883,2.265771161371693,27.317995043206885,2.252061161371693Q27.886415043206885,1.243591161371693,28.921355043206884,0.746591161371693Q29.140495043206883,0.650150161371693,29.403415043206884,0.7286281613716931Q29.651245043206885,0.8025991613716931,29.838335043206882,0.994375161371693Q30.020695043206885,1.1813111613716931,30.04331504320688,1.375371161371693Q30.066185043206882,1.571641161371693,29.897625043206883,1.704931161371693Q29.308155043206884,2.171071161371693,28.821485043206884,3.008251161371693Q28.202175043206882,4.073601161371693,28.182615043206884,5.137931161371693Q28.163135043206882,6.072441161371693,27.890815043206885,9.283661161371693Q27.772625043206883,10.677361161371692,27.728165043206882,11.267761161371693Z" fill-rule="evenodd" fill="#1B4826" fill-opacity="1"/></g><g style="opacity:0.5;"><path d="M25.723967287445003,0.6031467665247768C25.638693187445003,0.7867127665247768,25.667117487445005,0.8391607665247768,25.894514987445003,1.1800697665247768C26.178761987445004,1.5996477665247768,26.434585987445004,2.045457766524777,26.661983987445005,2.4912577665247766C26.889380987445005,2.910837766524777,27.088350987445004,2.333917766524777,27.202050987445006,2.176577766524777C27.145200987445005,2.2814677665247767,27.031500987445003,2.307687766524777,26.917800987445005,2.2552477665247768C26.860950987445005,2.229017766524777,26.832530987445004,2.202797766524777,26.832530987445004,2.150347766524777C26.519859987445003,1.5209777665247768,26.178761987445004,0.9178317665247768,25.780815987445003,0.3409090665247768C25.752391187445003,0.3146852665247768,25.752392087445003,0.28846156652477684,25.723967287445003,0.2622377665247768C25.780816987445004,0.3933567665247768,25.780816987445004,0.5244757665247768,25.723967287445003,0.6031467665247768Z" fill="#4B4C23" fill-opacity="1"/></g><g transform="matrix(0.9269962310791016,-0.37503352761268616,0.42929306626319885,0.9031498432159424,1.5142966335610986,9.118325421484972)" style="opacity:0.5;"><path d="M25.454889424945005,0.9007570497650952Q25.454889424945005,0.9321850497650952,25.442479424945006,0.9630090497650952Q25.430069424945003,0.9938330497650951,25.405729424945005,1.0228690497650952Q25.381389424945006,1.051904049765095,25.346039424945005,1.0780360497650952Q25.310699424945003,1.104167049765095,25.265719424945004,1.1263900497650952Q25.220739424945005,1.1486130497650953,25.167849424945004,1.166073049765095Q25.114956424945003,1.183533049765095,25.056186424945004,1.1955600497650951Q24.997415424945004,1.2075870497650951,24.935024424945006,1.2137190497650951Q24.872634424945005,1.2198500497650953,24.809021424945005,1.2198500497650953Q24.745408424945005,1.2198500497650953,24.683018424945004,1.2137190497650951Q24.620627424945003,1.2075870497650951,24.561857424945003,1.1955600497650951Q24.503086424945003,1.183533049765095,24.450194424945003,1.166073049765095Q24.397302424945003,1.1486130497650953,24.352321424945004,1.1263900497650952Q24.307339424945003,1.104167049765095,24.271998424945004,1.0780360497650952Q24.236657124945005,1.051904049765095,24.212313524945003,1.0228690497650952Q24.187969924945005,0.9938330497650951,24.175559624945006,0.9630090497650952Q24.163149424945004,0.9321850497650952,24.163149424945004,0.9007570497650952Q24.163149424945004,0.8693290497650952,24.175559624945006,0.8385050497650951Q24.187969924945005,0.8076810497650951,24.212313524945003,0.7786450497650951Q24.236657124945005,0.7496100497650952,24.271998424945004,0.7234780497650951Q24.307339424945003,0.6973470497650951,24.352321424945004,0.6751242497650951Q24.397302424945003,0.6529013497650951,24.450194424945003,0.6354409497650951Q24.503086424945003,0.6179804497650951,24.561857424945003,0.6059535497650951Q24.620627424945003,0.5939266497650951,24.683018424945004,0.5877953297650951Q24.745408424945005,0.5816640497650951,24.809021424945005,0.5816640497650951Q24.872634424945005,0.5816640497650951,24.935024424945006,0.5877953297650951Q24.997415424945004,0.5939266497650951,25.056186424945004,0.6059535497650951Q25.114956424945003,0.6179804497650951,25.167849424945004,0.6354409497650951Q25.220739424945005,0.6529013497650951,25.265719424945004,0.6751242497650951Q25.310699424945003,0.6973470497650951,25.346039424945005,0.7234780497650951Q25.381389424945006,0.7496100497650952,25.405729424945005,0.7786450497650951Q25.430069424945003,0.8076810497650951,25.442479424945006,0.8385050497650951Q25.454889424945005,0.8693290497650952,25.454889424945005,0.9007570497650952Z" fill="#4B4C23" fill-opacity="1"/></g><g style="opacity:0.5;"><path d="M25.156017612445005,0.5244750877976269C25.269716612445006,0.47202808779762684,25.383411612445006,0.41958038779762685,25.468691612445003,0.34090908779762685C25.497111612445003,0.3671328877976269,25.525541612445004,0.39335668779762684,25.525541612445004,0.41958038779762685C25.553961612445004,0.6031470877976268,25.326571612445004,0.8129370877976269,24.985470612445006,0.9440560877976268C24.644373612445005,1.0489510877976267,24.331701112445003,1.0227270877976269,24.303276422445006,0.8391610877976268C24.274851712445006,0.7342660877976268,24.388551412445004,0.6031470877976268,24.530674612445004,0.49825208779762686C24.701223612445006,0.6031470877976268,24.957044612445003,0.6293710877976268,25.156017612445005,0.5244750877976269Z" fill="#4B4C23" fill-opacity="1"/></g><g style="opacity:0.5;"><path d="M24.359646462445003,0.786713423971638C24.388071162445005,0.9440564239716381,24.672319862445004,0.996503423971638,24.984991862445003,0.8916084239716381C25.297663862445006,0.786713423971638,25.525057862445003,0.5769234239716381,25.496637862445006,0.4195804239716381C25.496637862445006,0.4195804239716381,25.525057862445003,0.4458042239716381,25.525057862445003,0.4458042239716381C25.553487862445003,0.6293704239716381,25.326087862445004,0.8391604239716381,24.984991862445003,0.9702794239716381C24.643894862445006,1.075174423971638,24.331222562445003,1.048951423971638,24.302797862445004,0.8653844239716381C24.302797862445004,0.7342654239716381,24.359646862445004,0.6293704239716381,24.473345862445004,0.5506994239716381C24.388071562445003,0.6031464239716381,24.331221762445004,0.681818423971638,24.359646462445003,0.786713423971638Z" fill="#4B4C23" fill-opacity="1"/></g></g><g><g><path d="M1.4208277733050658,10.646852703369348C-0.08568722669493406,12.482512703369348,-0.39835922669493407,14.449302703369348,1.2218477733050659,16.127622703369347C3.041027773305066,18.01573270336935,5.286587773305066,17.805942703369347,7.503717773305066,16.783212703369347C5.030757773305066,15.839162703369347,2.415687773305066,13.216782703369347,1.4208277733050658,10.646852703369348Z" fill="#DD8B8A" fill-opacity="1"/></g><g style="opacity:0.5;"><path d="M4.6618908983050655,15.104891283556446C2.814280898305066,15.236011283556447,0.34133189830506594,14.213291283556446,0.34133189830506594,12.508741283556446C-0.1134641016949341,13.767481283556446,0.22763299830506595,15.157341283556446,1.222500898305066,16.127621283556447C3.041680898305066,18.01573128355645,5.287230898305066,17.805941283556447,7.504360898305066,16.783221283556447C6.509500898305066,16.363631283556447,5.571480898305066,15.812931283556447,4.775590898305066,15.104891283556446C4.718740898305066,15.104891283556446,4.690310898305066,15.104891283556446,4.6618908983050655,15.104891283556446Z" fill="#4B4C23" fill-opacity="1"/></g><g><path d="M1.470251835805066,10.71011527884911Q1.492811835805066,10.68250437884911,1.492811835805066,10.64685227884911Q1.492811835805066,10.62696107884911,1.485201835805066,10.60858397884911Q1.477591835805066,10.59020687884911,1.463521835805066,10.57614157884911Q1.4494518358050659,10.56207637884911,1.4310818358050659,10.55446437884911Q1.412701835805066,10.54685227884911,1.3928118358050658,10.54685227884911Q1.345371835805066,10.54685227884911,1.3153618358050658,10.58358917884911L1.315291835805066,10.58367497884911Q0.13856536580506593,12.02424227884911,0.042357135805065935,13.42957227884911Q-0.06167216419493407,14.94917227884911,1.1212818358050658,16.196442278849112Q3.557181835805066,18.72463227884911,7.518031835805066,16.87381227884911Q7.544421835805066,16.86148227884911,7.560061835805066,16.83691227884911Q7.575701835805066,16.81234227884911,7.575701835805066,16.78321227884911Q7.575701835805066,16.76332227884911,7.568091835805066,16.74494227884911Q7.560471835805066,16.726572278849112,7.546411835805066,16.712502278849108Q7.532341835805066,16.69844227884911,7.513971835805066,16.69083227884911Q7.495591835805066,16.683212278849112,7.475701835805066,16.683212278849112Q7.453481835805066,16.683212278849112,7.433361835805066,16.69262227884911L1.470251835805066,10.71011527884911Z" fill-rule="evenodd" fill="#1B4826" fill-opacity="1"/></g><g><path d="M2.472530898305066,13.243010453526004C2.643080898305066,13.295450453526005,2.842050898305066,13.347900453526005,3.041030898305066,13.374130453526005C2.415680898305066,12.613640453526004,1.9040388983050658,11.800698453526005,1.5345168983050659,10.909090453526005C1.051296898305066,11.774475453526005,1.022871898305066,12.744750453526006,2.472530898305066,13.243010453526004Z" fill="url(#master_svg1_0_27753)" fill-opacity="1"/></g></g><g><g><path d="M21.091140521746762,5.9790205627693975C20.94902052174676,5.821680562769398,20.92059052174676,5.611890562769398,20.806890521746762,5.166080562769398C20.607920521746763,4.379370562769398,19.61306052174676,3.304195562769398,18.277095521746762,3.487762362769398C18.049698521746762,3.513986062769398,17.85072352174676,3.540209862769398,17.708600521746764,3.540209862769398C17.14010552174676,4.012237562769398,17.168530521746764,5.061190562769398,17.708600521746764,5.611890562769398C18.27709452174676,5.611890562769398,18.27709452174676,6.477270562769398,18.930860521746762,7.0804205627693975C19.15826052174676,7.290210562769398,19.44251052174676,7.447550562769399,19.755180521746762,7.526220562769398C19.726760521746762,7.0804205627693975,20.46580052174676,6.267480562769398,21.091140521746762,5.9790205627693975Z" fill="#DD8B8A" fill-opacity="1"/></g><g style="opacity:0.5;"><path d="M18.930608646746762,7.106875250269399C19.15800864674676,7.3166652502693985,19.442248646746762,7.474015250269398,19.754928646746762,7.552685250269398C19.754928646746762,7.185555250269398,20.15286864674676,6.661075250269398,20.607668646746763,6.293945250269398C20.323418646746763,6.267715250269398,19.840198646746764,6.529955250269398,19.41382864674676,6.4512852502693985C18.04944164674676,6.215275250269398,18.504238646746764,4.641845250269398,17.56622064674676,4.641845250269398C17.480946646746762,4.641845250269398,17.367248046746763,4.668068850269398,17.310398646746762,4.720516350269398C17.33882334674676,5.061425250269398,17.480946646746762,5.376111250269398,17.708343646746762,5.638348250269398C18.27683864674676,5.638348250269398,18.248413646746762,6.503735250269398,18.930608646746762,7.106875250269399Z" fill="#4B4C23" fill-opacity="1"/></g><g><path d="M17.67614558424676,5.538600100269398L17.676126884246763,5.538600900269398Q17.65682413424676,5.539448900269398,17.63922663424676,5.547426500269398Q17.621629134246763,5.555404100269398,17.608270134246762,5.569363000269398Q17.594911034246763,5.583321800269398,17.587713434246762,5.601252500269398Q17.58051583424676,5.619183200269398,17.58051583424676,5.638504507269398Q17.58051583424676,5.6583957002693985,17.588127834246762,5.676772800269398Q17.59573993424676,5.695150000269398,17.609805134246763,5.709215200269398Q17.62387043424676,5.723280400269398,17.642247534246764,5.730892400269398Q17.660624634246762,5.738505000269398,17.680515834246762,5.738505000269398L17.68490487424676,5.7384080002693985L17.68497386424676,5.738405000269398Q17.862758834246762,5.730623300269398,17.989576834246762,5.872468000269398Q18.079227834246762,5.972741000269398,18.240319834246762,6.291081000269398Q18.387474834246763,6.581880000269398,18.48586783424676,6.734109000269398Q18.65580383424676,6.997029000269398,18.86496583424676,7.181949000269398Q19.237345834246764,7.525529000269398,19.73092583424676,7.649769000269398L19.731105834246762,7.649809000269398L19.73111583424676,7.649819000269398Q19.74313583424676,7.652839000269398,19.75551583424676,7.652839000269398Q19.77541583424676,7.652839000269398,19.793785834246762,7.6452290002693974Q19.812165834246763,7.637619000269398,19.826235834246763,7.623549000269398Q19.840295834246763,7.609489000269398,19.847905834246763,7.591109000269398Q19.855515834246763,7.572729000269398,19.855515834246763,7.552839000269398Q19.855515834246763,7.518469000269398,19.834385834246763,7.491359000269398Q19.81325583424676,7.464249000269398,19.77992583424676,7.455859000269398Q19.335605834246763,7.344069000269398,18.99743583424676,7.0321190002693985Q18.711555834246763,6.779359000269398,18.418771834246762,6.200778000269398Q18.24582483424676,5.8590110002693985,18.13867483424676,5.739164000269398Q17.94867683424676,5.5266540002693985,17.67619384424676,5.538597900269398L17.67614558424676,5.538600100269398Z" fill-rule="evenodd" fill="#1B4826" fill-opacity="1"/></g><g><path d="M20.764176146746763,5.4083606812443845Q20.883636146746763,5.898220681244384,21.017166146746764,6.046050681244385Q21.046946146746762,6.079020681244384,21.09137614674676,6.079020681244384Q21.11126614674676,6.079020681244384,21.12964614674676,6.071410681244384Q21.148026146746762,6.063800681244384,21.162086146746763,6.049730681244384Q21.176156146746763,6.035670681244385,21.183766146746763,6.0172906812443845Q21.191376146746762,5.998910681244384,21.191376146746762,5.979020681244384Q21.191376146746762,5.940540681244384,21.16558614674676,5.911990681244385Q21.065956146746764,5.801700681244384,20.95848614674676,5.360980681244384Q20.92459614674676,5.222000681244385,20.904026146746762,5.141370681244385Q20.72170614674676,4.420501681244384,20.041136146746762,3.884507681244384Q19.244096146746763,3.2567916812443842,18.26399714674676,3.3886557812443843Q18.259389146746763,3.3892754812443844,18.25485714674676,3.390320581244384Q18.122463146746764,3.420856381244384,17.889670146746763,3.4435231812443843Q17.750479246746764,3.457076191244384,17.69082974674676,3.4680682812443844L17.69069104674676,3.4680938512443844Q17.655118846746763,3.4746574212443844,17.631977446746763,3.502459281244384Q17.60883614674676,3.5302610812443844,17.60883614674676,3.5664337812443843Q17.60883614674676,3.5863246812443843,17.616448146746762,3.6047016812443844Q17.62406024674676,3.623079681244384,17.638125446746763,3.637144681244384Q17.65219074674676,3.651209681244384,17.670567846746764,3.6588216812443846Q17.688944946746762,3.6664336812443845,17.708836146746762,3.6664336812443845Q17.717984626746762,3.6664336812443845,17.726981246746764,3.6647736812443843Q17.778204146746763,3.6553226812443844,17.90905314674676,3.6425816812443843Q18.150833146746763,3.6190396812443844,18.295139146746763,3.5862716812443844Q19.18868614674676,3.4677310442443843,19.91738614674676,4.041629681244384Q20.544496146746763,4.5355206812443845,20.710236146746762,5.190800681244385Q20.73054614674676,5.270440681244384,20.764176146746763,5.4083606812443845Z" fill-rule="evenodd" fill="#1B4826" fill-opacity="1"/></g><g style="opacity:0.5;"><g><path d="M19.10097923066247,3.7504897161928983C18.816732230662474,3.645594616192898,18.902007830662473,3.802937116192898,19.129405230662474,3.855384516192898C19.555776230662474,3.960279516192898,19.925294230662473,4.222517516192898,20.152694230662473,4.589650516192898C19.925294230662473,4.170070516192898,19.555774230662472,3.881608516192898,19.10097923066247,3.7504897161928983Z" fill="#FFFFFF" fill-opacity="1"/></g><g><path d="M18.70371535566247,3.750488516192898C18.845838355662472,3.724264716192898,18.84583735566247,3.698040916192898,18.675288355662474,3.671817096192898C18.36261635566247,3.645593316192898,18.53316675566247,3.776712516192898,18.70371535566247,3.750488516192898Z" fill="#FFFFFF" fill-opacity="1"/></g><g><path d="M18.44686110358942,3.697746503692898C18.41866560358942,3.671522703692898,18.36227370358942,3.6977463036928984,18.36227370358942,3.7239701036928983C18.30588270358942,3.802641203692898,18.47505670358942,3.697746503692898,18.44686110358942,3.697746503692898Z" fill="#FFFFFF" fill-opacity="1"/></g></g></g><g><g><path d="M17.708636106310973,3.566921631736073C16.79903610631097,3.6455933317360727,17.14013610631097,3.435802731736073,15.377736106310971,3.488250281736073C13.444936106310971,3.540697831736073,9.80652610631097,5.140351331736073,5.457546106310971,7.500491331736073C3.894186106310971,8.287201331736073,2.529796106310971,9.362371331736073,1.421236106310971,10.647341331736072C2.416101106310971,13.217271331736073,5.031176106310971,15.839621331736073,7.475696106310971,16.783721331736075C7.8736461063109715,16.600121331736073,8.271596106310971,16.390321331736075,8.669536106310971,16.15432133173607C11.369886106310972,14.554721331736072,12.847936106310971,11.853631331736073,13.27433610631097,10.726011331736073C13.700736106310972,9.598391331736073,14.581836106310972,9.624611331736073,15.917836106310972,8.051191331736073C17.054836106310972,6.687551331736072,16.77053610631097,5.795941331736072,17.538036106310972,5.664821331736073C17.56643610631097,5.664821331736073,17.623336106310973,5.664821331736073,17.68013610631097,5.664821331736073C17.14013610631097,5.087901331736073,17.11163610631097,4.038949331736073,17.708636106310973,3.566921631736073Z" fill="#DD8B8A" fill-opacity="1"/></g><g style="opacity:0.5;"><path d="M15.34980798131097,6.870941175486073C13.189547981310971,8.811501175486072,11.768317981310972,7.500311175486073,11.14296798131097,9.598211175486073C10.29022798131097,12.456601175486073,7.788857981310971,14.843011175486073,4.747407981310971,15.105211175486073C5.543299981310971,15.813211175486073,6.481317981310971,16.363911175486074,7.476177981310971,16.783511175486073C7.874127981310972,16.59991117548607,8.272077981310971,16.390211175486073,8.670017981310972,16.154111175486072C11.37036798131097,14.554501175486072,12.848457981310972,11.853451175486072,13.27482798131097,10.725831175486073C13.70119798131097,9.598211175486073,14.58235798131097,9.624431175486073,15.91830798131097,8.051011175486073C17.05530798131097,6.6873711754860725,16.77110798131097,5.7957611754860725,17.53850798131097,5.664643175486073C17.56690798131097,5.664643175486073,17.62380798131097,5.664643175486073,17.68060798131097,5.664643175486073C17.45320798131097,5.402405175486073,17.311107981310972,5.087720175486073,17.28270798131097,4.746811175486073C16.913207981310972,4.982825175486073,16.57210798131097,5.769541175486073,15.34980798131097,6.870941175486073Z" fill="#4B4C23" fill-opacity="1"/></g><g><path d="M7.4060774938109715,16.69251273798607L7.405917393810971,16.692612737986074L7.405716693810971,16.69271273798607L7.489489893810971,16.874312737986074Q7.516058993810971,16.862112737986074,7.531831093810971,16.83741273798607Q7.547603293810971,16.81281273798607,7.547603293810971,16.783512737986072Q7.547603293810971,16.763612737986072,7.539991293810971,16.745212737986073Q7.532379193810971,16.726912737986073,7.518313993810971,16.712812737986074Q7.504248693810971,16.69871273798607,7.4858715938109714,16.691112737986074Q7.467494493810971,16.68351273798607,7.447603293810971,16.68351273798607Q7.4258587938109715,16.68351273798607,7.406077793810971,16.69251273798607L7.4060774938109715,16.69251273798607Z" fill-rule="evenodd" fill="#1B4826" fill-opacity="1"/></g><g><path d="M16.90283610631097,3.646120331736073Q17.27943610631097,3.703265331736073,17.71693610631097,3.666571331736073Q17.73573610631097,3.665000331736073,17.75253610631097,3.656727331736073Q17.76943610631097,3.648455331736073,17.78223610631097,3.6346133317360727Q17.79493610631097,3.620770331736073,17.801736106310972,3.6032493317360728Q17.80863610631097,3.5857273317360727,17.80863610631097,3.566921631736073Q17.80863610631097,3.547030431736073,17.80093610631097,3.528653331736073Q17.79333610631097,3.5102762317360727,17.77933610631097,3.496210931736073Q17.765236106310972,3.482145751736073,17.746836106310973,3.474533701736073Q17.728536106310973,3.466921631736073,17.708636106310973,3.466921631736073Q17.704436106310972,3.466921631736073,17.70023610631097,3.4672715317360727Q17.28613610631097,3.5019986317360727,16.932836106310972,3.448382931736073Q16.346236106310972,3.359385331736073,15.37483610631097,3.388294431736073Q12.74153610631097,3.459746431736073,5.411366106310972,7.411781331736073Q3.059176106310971,8.595741331736072,1.345676606310971,10.581841331736072L1.3455710063109712,10.581961331736073L1.345519506310971,10.582021331736073L1.496952706310971,10.712661331736072Q3.184966106310971,8.756051331736073,5.502496106310971,7.5898113317360725Q5.503756106310971,7.589181331736073,5.505006106310971,7.588511331736073Q12.79423610631097,3.658388331736073,15.380736106310971,3.588206331736073Q16.334036106310972,3.559834531736073,16.90283610631097,3.646120331736073Z" fill-rule="evenodd" fill="#1B4826" fill-opacity="1"/></g><g><path d="M15.547917356310972,4.405906737986073C15.462617356310972,3.8027597379860727,13.95611735631097,3.645417737986073,11.426317356310971,4.746816737986073C7.901657356310971,6.2940177379860724,3.666367356310971,8.313247737986073,2.0177373563109713,10.227587737986074C1.8187643563109712,10.437377737986072,1.676641356310971,10.673387737986072,1.534517356310971,10.909407737986072C1.9324633563109712,11.774787737986074,2.444108356310971,12.613947737986074,3.041027356310971,13.374437737986073C4.831787356310971,13.662897737986073,6.821517356310971,12.640167737986072,7.759527356310971,9.991567737986074C8.868097356310972,6.949617737986073,9.465017356310971,6.792267737986073,11.881117356310972,6.530037737986072C14.211917356310972,6.267797737986073,15.63321735631097,5.1926177379860725,15.547917356310972,4.405906737986073Z" fill="url(#master_svg2_0_27770)" fill-opacity="1"/></g><g><path d="M4.263865043810971,8.837672112986073C3.865919043810971,9.099912112986074,4.150166243810971,9.099912112986074,4.462838043810971,8.863892112986072C5.230307043810971,8.286972112986073,6.054627043810971,7.736274112986073,6.9073670438109716,7.238022112986073C5.997777043810971,7.710050112986073,5.116607043810971,8.260752112986072,4.263865043810971,8.837672112986073Z" fill="#FFFFFF" fill-opacity="1"/></g><g><path d="M3.7806252938109712,9.388377581736073C3.951173293810971,9.178587381736072,3.922748293810971,9.126139581736073,3.638501293810971,9.335929581736073C3.155281293810971,9.650615581736073,3.581652293810971,9.624391581736074,3.7806252938109712,9.388377581736073Z" fill="#FFFFFF" fill-opacity="1"/></g><g><path d="M3.3249183691558195,9.597901606699452C3.2403318691558196,9.624125406699452,3.21213636915582,9.702797606699452,3.2403318691558196,9.755244606699453C3.26852736915582,9.938811606699451,3.40950456915582,9.597901606699452,3.3249183691558195,9.597901606699452Z" fill="#FFFFFF" fill-opacity="1"/></g></g></g></g></svg>