<svg xmlns="http://www.w3.org/2000/svg" xmlns:xlink="http://www.w3.org/1999/xlink" fill="none" version="1.1" width="16" height="16" viewBox="0 0 16 16"><defs><clipPath id="master_svg0_0_16846"><rect x="0" y="0" width="16" height="16" rx="0"/></clipPath></defs><g clip-path="url(#master_svg0_0_16846)"><g><path d="M11,2.5000000638842628C11.1024,2.499819338744263,11.2024,2.5310827847442625,11.2864,2.589564384744263C11.3705,2.6480462847442627,11.4346,2.730925284744263,11.47,2.827000284744263C11.47,2.827000284744263,14.97,12.326999284744263,14.97,12.326999284744263C15.0159,12.451519284744263,15.0104,12.589199284744263,14.9548,12.709699284744262C14.8992,12.830099284744263,14.798,12.923599284744263,14.6735,12.969499284744263C14.549,13.015399284744262,14.4113,13.009899284744263,14.2908,12.954299284744263C14.1704,12.898699284744263,14.0769,12.797499284744262,14.031,12.672999284744263C14.031,12.672999284744263,13.046,9.999999284744263,13.046,9.999999284744263C13.046,9.999999284744263,8.954,9.999999284744263,8.954,9.999999284744263C8.954,9.999999284744263,7.969,12.672999284744263,7.969,12.672999284744263C7.92117,12.794699284744263,7.82755,12.892899284744262,7.70821,12.946399284744263C7.58886,12.999899284744263,7.4533,13.004499284744263,7.33059,12.959299284744263C7.20788,12.913999284744262,7.10779,12.822499284744262,7.05179,12.704299284744263C6.99578,12.586099284744263,6.98832,12.450629284744263,7.031,12.326999284744263C7.031,12.326999284744263,10.531,2.827000284744263,10.531,2.827000284744263C10.56643,2.730925284744263,10.6305,2.6480462847442627,10.71456,2.589564384744263C10.79862,2.5310827847442625,10.8986,2.499819338744263,11.001,2.5000000638842628M11.001,4.445999284744262C11.001,4.445999284744262,9.322,8.999999284744263,9.322,8.999999284744263C9.322,8.999999284744263,12.678,8.999999284744263,12.678,8.999999284744263C12.678,8.999999284744263,11.001,4.445999284744262,11.001,4.445999284744262ZM5.997,8.696999284744262C5.997,8.696999284744262,6,8.833999284744262,6,8.833999284744262C6,8.833999284744262,6,12.508999284744263,6,12.508999284744263C5.998,12.628399284744262,5.95335,12.743099284744263,5.87411,12.832399284744263C5.79488,12.921799284744262,5.68629,12.979799284744262,5.568,12.995999284744263C5.568,12.995999284744263,5.5,12.999999284744263,5.5,12.999999284744263C5.37923,12.999899284744263,5.26258,12.956099284744262,5.17159,12.876699284744262C5.0806,12.797299284744263,5.02142,12.687599284744262,5.005,12.567999284744262C5.005,12.567999284744262,5,12.499999284744263,5,12.499999284744263C5,12.499999284744263,5,12.429999284744262,5,12.429999284744262C4.34,12.807999284744263,3.732,12.999999284744263,3.167,12.999999284744263C1.94,12.999999284744263,1,12.136999284744263,1,10.833999284744262C1,9.683999284744264,1.792,8.829999284744263,3.106,8.670999284744262C3.74042,8.595909284744263,4.3833400000000005,8.643099284744263,5,8.809999284744261C4.993,8.070999284744262,4.63,7.705999284744263,3.81,7.664999284744263C3.168,7.633999284744263,2.717,7.723999284744263,2.4530000000000003,7.9089992847442625C2.3992199999999997,7.946689284744263,2.3385499999999997,7.973419284744263,2.2744400000000002,7.987659284744263C2.21034,8.001899284744262,2.14406,8.003379284744263,2.07938,7.991999284744263C2.0147,7.980629284744262,1.952901,7.956619284744263,1.897501,7.921359284744263C1.8421020000000001,7.886099284744263,1.794189,7.840279284744263,1.7565,7.786499284744263C1.718811,7.732719284744262,1.692082,7.672049284744262,1.677841,7.6079492847442625C1.6636,7.543839284744263,1.662125,7.477559284744263,1.6735,7.412879284744263C1.6964730000000001,7.282259284744263,1.770394,7.166119284744263,1.879,7.0899992847442626C2.318,6.782999284744263,2.915,6.645999284744263,3.668,6.659999284744263C3.668,6.659999284744263,3.859,6.6669992847442625,3.859,6.6669992847442625C5.166,6.731999284744263,5.943,7.483999284744263,5.997,8.696999284744262ZM4.798,9.815999284744262C4.288320000000001,9.669689284744262,3.75464,9.626179284744262,3.228,9.687999284744262C2.4059999999999997,9.787999284744263,2.001,10.223999284744263,2.001,10.857999284744263C2.001,11.588999284744263,2.476,12.024999284744263,3.168,12.024999284744263C3.621,12.024999284744263,4.18,11.814999284744262,4.835,11.381999284744262C4.835,11.381999284744262,5,11.269999284744262,5,11.269999284744262C5,11.269999284744262,5,9.875999284744264,5,9.875999284744264C5,9.875999284744264,4.798,9.815999284744262,4.798,9.815999284744262Z" fill="#000000" fill-opacity="1"/></g></g></svg>