<svg xmlns="http://www.w3.org/2000/svg" xmlns:xlink="http://www.w3.org/1999/xlink" fill="none" version="1.1" width="16" height="16" viewBox="0 0 16 16"><defs><clipPath id="master_svg0_0_16915"><rect x="0" y="0" width="16" height="16" rx="0"/></clipPath></defs><g clip-path="url(#master_svg0_0_16915)"><g><path d="M2,3.5L14,3.5Q14.0492,3.5,14.0975,3.509607Q14.1458,3.519215,14.1913,3.5380599999999998Q14.2368,3.556906,14.2778,3.584265Q14.3187,3.611625,14.3536,3.646447Q14.3884,3.681269,14.4157,3.722215Q14.4431,3.763161,14.4619,3.808658Q14.4808,3.854155,14.4904,3.9024549Q14.5,3.9507543,14.5,4Q14.5,4.0492457,14.4904,4.0975451Q14.4808,4.145845,14.4619,4.191342Q14.4431,4.236839,14.4157,4.277785Q14.3884,4.318731,14.3536,4.353553Q14.3187,4.388375,14.2778,4.415735Q14.2368,4.443094,14.1913,4.46194Q14.1458,4.480785,14.0975,4.490393Q14.0492,4.5,14,4.5L2,4.5Q1.9507543,4.5,1.9024549,4.490393Q1.854155,4.480785,1.8086579999999999,4.46194Q1.763161,4.443094,1.722215,4.415735Q1.681269,4.388375,1.646447,4.353553Q1.611625,4.318731,1.584265,4.277785Q1.5569060000000001,4.236839,1.53806,4.191342Q1.519215,4.145845,1.509607,4.0975451Q1.5,4.0492457,1.5,4Q1.5,3.9507543,1.509607,3.9024549Q1.519215,3.854155,1.53806,3.808658Q1.5569060000000001,3.763161,1.584265,3.722215Q1.611625,3.681269,1.646447,3.646447Q1.681269,3.611625,1.722215,3.584265Q1.763161,3.556906,1.8086579999999999,3.5380599999999998Q1.854155,3.519215,1.9024549,3.509607Q1.9507543,3.5,2,3.5ZM4.66667,6.16667L14,6.16667Q14.0492,6.16667,14.0975,6.176270000000001Q14.1458,6.18588,14.1913,6.20473Q14.2368,6.2235700000000005,14.2778,6.25093Q14.3187,6.27829,14.3536,6.31311Q14.3884,6.34793,14.4157,6.38888Q14.4431,6.42983,14.4619,6.47532Q14.4808,6.5208200000000005,14.4904,6.56912Q14.5,6.61742,14.5,6.66667Q14.5,6.71591,14.4904,6.76421Q14.4808,6.81251,14.4619,6.85801Q14.4431,6.90351,14.4157,6.94445Q14.3884,6.9854,14.3536,7.02022Q14.3187,7.05504,14.2778,7.0824Q14.2368,7.10976,14.1913,7.12861Q14.1458,7.14745,14.0975,7.1570599999999995Q14.0492,7.16667,14,7.16667L4.66667,7.16667Q4.61742,7.16667,4.56912,7.1570599999999995Q4.5208200000000005,7.14745,4.47532,7.12861Q4.42983,7.10976,4.38888,7.0824Q4.34793,7.05504,4.31311,7.02022Q4.27829,6.9854,4.25093,6.94445Q4.2235700000000005,6.90351,4.20473,6.85801Q4.18588,6.81251,4.176270000000001,6.76421Q4.16667,6.71591,4.16667,6.66667Q4.16667,6.61742,4.176270000000001,6.56912Q4.18588,6.5208200000000005,4.20473,6.47532Q4.2235700000000005,6.42983,4.25093,6.38888Q4.27829,6.34793,4.31311,6.31311Q4.34793,6.27829,4.38888,6.25093Q4.42983,6.2235700000000005,4.47532,6.20473Q4.5208200000000005,6.18588,4.56912,6.176270000000001Q4.61742,6.16667,4.66667,6.16667ZM2,8.83333L14,8.83333Q14.0492,8.83333,14.0975,8.842939999999999Q14.1458,8.85255,14.1913,8.87139Q14.2368,8.89024,14.2778,8.9176Q14.3187,8.94496,14.3536,8.97978Q14.3884,9.0146,14.4157,9.05555Q14.4431,9.09649,14.4619,9.14199Q14.4808,9.18749,14.4904,9.23579Q14.5,9.284089999999999,14.5,9.33333Q14.5,9.38258,14.4904,9.43088Q14.4808,9.47918,14.4619,9.52467Q14.4431,9.570170000000001,14.4157,9.61112Q14.3884,9.652059999999999,14.3536,9.68689Q14.3187,9.72171,14.2778,9.74907Q14.2368,9.776430000000001,14.1913,9.79527Q14.1458,9.814119999999999,14.0975,9.823730000000001Q14.0492,9.83333,14,9.83333L2,9.83333Q1.9507543,9.83333,1.9024549,9.823730000000001Q1.854155,9.814119999999999,1.8086579999999999,9.79527Q1.763161,9.776430000000001,1.722215,9.74907Q1.681269,9.72171,1.646447,9.68689Q1.611625,9.652059999999999,1.584265,9.61112Q1.5569060000000001,9.570170000000001,1.53806,9.52467Q1.519215,9.47918,1.509607,9.43088Q1.5,9.38258,1.5,9.33333Q1.5,9.284089999999999,1.509607,9.23579Q1.519215,9.18749,1.53806,9.14199Q1.5569060000000001,9.09649,1.584265,9.05555Q1.611625,9.0146,1.646447,8.97978Q1.681269,8.94496,1.722215,8.9176Q1.763161,8.89024,1.8086579999999999,8.87139Q1.854155,8.85255,1.9024549,8.842939999999999Q1.9507543,8.83333,2,8.83333ZM4.66667,11.5L14,11.5Q14.0492,11.5,14.0975,11.50961Q14.1458,11.519210000000001,14.1913,11.53806Q14.2368,11.556899999999999,14.2778,11.58426Q14.3187,11.61162,14.3536,11.64645Q14.3884,11.68127,14.4157,11.72221Q14.4431,11.76316,14.4619,11.80866Q14.4808,11.85415,14.4904,11.90245Q14.5,11.95075,14.5,12Q14.5,12.04924,14.4904,12.09754Q14.4808,12.14584,14.4619,12.19134Q14.4431,12.23684,14.4157,12.27778Q14.3884,12.31873,14.3536,12.35355Q14.3187,12.38837,14.2778,12.41573Q14.2368,12.44309,14.1913,12.46194Q14.1458,12.48078,14.0975,12.49039Q14.0492,12.5,14,12.5L4.66667,12.5Q4.61742,12.5,4.56912,12.49039Q4.5208200000000005,12.48078,4.47532,12.46194Q4.42983,12.44309,4.38888,12.41573Q4.34793,12.38837,4.31311,12.35355Q4.27829,12.31873,4.25093,12.27778Q4.2235700000000005,12.23684,4.20473,12.19134Q4.18588,12.14584,4.176270000000001,12.09754Q4.16667,12.04924,4.16667,12Q4.16667,11.95075,4.176270000000001,11.90245Q4.18588,11.85415,4.20473,11.80866Q4.2235700000000005,11.76316,4.25093,11.72221Q4.27829,11.68127,4.31311,11.64645Q4.34793,11.61162,4.38888,11.58426Q4.42983,11.556899999999999,4.47532,11.53806Q4.5208200000000005,11.519210000000001,4.56912,11.50961Q4.61742,11.5,4.66667,11.5Z" fill-rule="evenodd" fill="#000000" fill-opacity="1"/></g></g></svg>