<svg xmlns="http://www.w3.org/2000/svg" xmlns:xlink="http://www.w3.org/1999/xlink" fill="none" version="1.1" width="16" height="16" viewBox="0 0 16 16"><defs><clipPath id="master_svg0_0_16917"><rect x="0" y="0" width="16" height="16" rx="0"/></clipPath></defs><g clip-path="url(#master_svg0_0_16917)"><g><path d="M2,3.5L14,3.5Q14.0492,3.5,14.0975,3.509607Q14.1458,3.519215,14.1913,3.5380599999999998Q14.2368,3.556906,14.2778,3.584265Q14.3187,3.611625,14.3536,3.646447Q14.3884,3.681269,14.4157,3.722215Q14.4431,3.763161,14.4619,3.808658Q14.4808,3.854155,14.4904,3.9024549Q14.5,3.9507543,14.5,4Q14.5,4.0492457,14.4904,4.0975451Q14.4808,4.145845,14.4619,4.191342Q14.4431,4.236839,14.4157,4.277785Q14.3884,4.318731,14.3536,4.353553Q14.3187,4.388375,14.2778,4.415735Q14.2368,4.443094,14.1913,4.46194Q14.1458,4.480785,14.0975,4.490393Q14.0492,4.5,14,4.5L2,4.5Q1.9507543,4.5,1.9024549,4.490393Q1.854155,4.480785,1.8086579999999999,4.46194Q1.763161,4.443094,1.722215,4.415735Q1.681269,4.388375,1.646447,4.353553Q1.611625,4.318731,1.584265,4.277785Q1.5569060000000001,4.236839,1.53806,4.191342Q1.519215,4.145845,1.509607,4.0975451Q1.5,4.0492457,1.5,4Q1.5,3.9507543,1.509607,3.9024549Q1.519215,3.854155,1.53806,3.808658Q1.5569060000000001,3.763161,1.584265,3.722215Q1.611625,3.681269,1.646447,3.646447Q1.681269,3.611625,1.722215,3.584265Q1.763161,3.556906,1.8086579999999999,3.5380599999999998Q1.854155,3.519215,1.9024549,3.509607Q1.9507543,3.5,2,3.5ZM4,6.16667L12,6.16667Q12.0492,6.16667,12.0975,6.176270000000001Q12.1458,6.18588,12.1913,6.20473Q12.2368,6.2235700000000005,12.2778,6.25093Q12.3187,6.27829,12.3536,6.31311Q12.3884,6.34793,12.4157,6.38888Q12.4431,6.42983,12.4619,6.47532Q12.4808,6.5208200000000005,12.4904,6.56912Q12.5,6.61742,12.5,6.66667Q12.5,6.71591,12.4904,6.76421Q12.4808,6.81251,12.4619,6.85801Q12.4431,6.90351,12.4157,6.94445Q12.3884,6.9854,12.3536,7.02022Q12.3187,7.05504,12.2778,7.0824Q12.2368,7.10976,12.1913,7.12861Q12.1458,7.14745,12.0975,7.1570599999999995Q12.0492,7.16667,12,7.16667L4,7.16667Q3.95075,7.16667,3.90245,7.1570599999999995Q3.8541600000000003,7.14745,3.8086599999999997,7.12861Q3.76316,7.10976,3.72221,7.0824Q3.68127,7.05504,3.6464499999999997,7.02022Q3.6116200000000003,6.9854,3.58426,6.94445Q3.5569100000000002,6.90351,3.5380599999999998,6.85801Q3.51921,6.81251,3.50961,6.76421Q3.5,6.71591,3.5,6.66667Q3.5,6.61742,3.50961,6.56912Q3.51921,6.5208200000000005,3.5380599999999998,6.47532Q3.5569100000000002,6.42983,3.58426,6.38888Q3.6116200000000003,6.34793,3.6464499999999997,6.31311Q3.68127,6.27829,3.72221,6.25093Q3.76316,6.2235700000000005,3.8086599999999997,6.20473Q3.8541600000000003,6.18588,3.90245,6.176270000000001Q3.95075,6.16667,4,6.16667ZM2,8.83333L14,8.83333Q14.0492,8.83333,14.0975,8.842939999999999Q14.1458,8.85255,14.1913,8.87139Q14.2368,8.89024,14.2778,8.9176Q14.3187,8.94496,14.3536,8.97978Q14.3884,9.0146,14.4157,9.05555Q14.4431,9.09649,14.4619,9.14199Q14.4808,9.18749,14.4904,9.23579Q14.5,9.284089999999999,14.5,9.33333Q14.5,9.38258,14.4904,9.43088Q14.4808,9.47918,14.4619,9.52467Q14.4431,9.570170000000001,14.4157,9.61112Q14.3884,9.652059999999999,14.3536,9.68689Q14.3187,9.72171,14.2778,9.74907Q14.2368,9.776430000000001,14.1913,9.79527Q14.1458,9.814119999999999,14.0975,9.823730000000001Q14.0492,9.83333,14,9.83333L2,9.83333Q1.9507543,9.83333,1.9024549,9.823730000000001Q1.854155,9.814119999999999,1.8086579999999999,9.79527Q1.763161,9.776430000000001,1.722215,9.74907Q1.681269,9.72171,1.646447,9.68689Q1.611625,9.652059999999999,1.584265,9.61112Q1.5569060000000001,9.570170000000001,1.53806,9.52467Q1.519215,9.47918,1.509607,9.43088Q1.5,9.38258,1.5,9.33333Q1.5,9.284089999999999,1.509607,9.23579Q1.519215,9.18749,1.53806,9.14199Q1.5569060000000001,9.09649,1.584265,9.05555Q1.611625,9.0146,1.646447,8.97978Q1.681269,8.94496,1.722215,8.9176Q1.763161,8.89024,1.8086579999999999,8.87139Q1.854155,8.85255,1.9024549,8.842939999999999Q1.9507543,8.83333,2,8.83333ZM4,11.5L12,11.5Q12.0492,11.5,12.0975,11.50961Q12.1458,11.519210000000001,12.1913,11.53806Q12.2368,11.556899999999999,12.2778,11.58426Q12.3187,11.61162,12.3536,11.64645Q12.3884,11.68127,12.4157,11.72221Q12.4431,11.76316,12.4619,11.80866Q12.4808,11.85415,12.4904,11.90245Q12.5,11.95075,12.5,12Q12.5,12.04924,12.4904,12.09754Q12.4808,12.14584,12.4619,12.19134Q12.4431,12.23684,12.4157,12.27778Q12.3884,12.31873,12.3536,12.35355Q12.3187,12.38837,12.2778,12.41573Q12.2368,12.44309,12.1913,12.46194Q12.1458,12.48078,12.0975,12.49039Q12.0492,12.5,12,12.5L4,12.5Q3.95075,12.5,3.90245,12.49039Q3.8541600000000003,12.48078,3.8086599999999997,12.46194Q3.76316,12.44309,3.72221,12.41573Q3.68127,12.38837,3.6464499999999997,12.35355Q3.6116200000000003,12.31873,3.58426,12.27778Q3.5569100000000002,12.23684,3.5380599999999998,12.19134Q3.51921,12.14584,3.50961,12.09754Q3.5,12.04924,3.5,12Q3.5,11.95075,3.50961,11.90245Q3.51921,11.85415,3.5380599999999998,11.80866Q3.5569100000000002,11.76316,3.58426,11.72221Q3.6116200000000003,11.68127,3.6464499999999997,11.64645Q3.68127,11.61162,3.72221,11.58426Q3.76316,11.556899999999999,3.8086599999999997,11.53806Q3.8541600000000003,11.519210000000001,3.90245,11.50961Q3.95075,11.5,4,11.5Z" fill-rule="evenodd" fill="#000000" fill-opacity="1"/></g></g></svg>