<svg xmlns="http://www.w3.org/2000/svg" xmlns:xlink="http://www.w3.org/1999/xlink" fill="none" version="1.1" width="24" height="24" viewBox="0 0 24 24"><defs><clipPath id="master_svg0_0_32314"><rect x="0" y="0" width="24" height="24" rx="5"/></clipPath></defs><g clip-path="url(#master_svg0_0_32314)"><rect x="0" y="0" width="24" height="24" rx="5" fill="#E6E6E6" fill-opacity="1"/><g><g><path d="M13,9C13,9,17,9,17,9C17,9,17,15,17,15C17,15,13,15,13,15C13,15,13,9,13,9Z" fill="#1CA6C5" fill-opacity="0.5"/></g><g><path d="M7,6C7,6,11,6,11,6C11,6,11,18,11,18C11,18,7,18,7,18C7,18,7,6,7,6Z" fill="#1CA6C5" fill-opacity="1"/></g></g></g></svg>