<svg xmlns="http://www.w3.org/2000/svg" xmlns:xlink="http://www.w3.org/1999/xlink" fill="none" version="1.1" width="24" height="24" viewBox="0 0 24 24"><defs><clipPath id="master_svg0_0_32292"><rect x="0" y="0" width="24" height="24" rx="5"/></clipPath></defs><g clip-path="url(#master_svg0_0_32292)"><rect x="0" y="0" width="24" height="24" rx="5" fill="#E6E6E6" fill-opacity="1"/><g><g><path d="M15.999999532699585,13.003999675476074C15.999999532699585,13.003999675476074,9.999999732699585,12.991000175476074,9.999999732699585,12.991000175476074C9.999999732699585,12.991000175476074,9.989999532699585,16.991000175476074,9.989999532699585,16.991000175476074C9.989999532699585,16.991000175476074,15.989999532699585,17.004000175476072,15.989999532699585,17.004000175476072C15.989999532699585,17.004000175476072,15.999999532699585,13.003999675476074,15.999999532699585,13.003999675476074Z" fill-rule="evenodd" fill="#1CA6C5" fill-opacity="0.5"/></g><g><path d="M19.978000051498412,18.002000144958494C19.978000051498412,18.002000144958494,20.004000051498412,6.0019998549584965,20.004000051498412,6.0019998549584965C20.004000051498412,6.0019998549584965,18.004000051498412,5.998000144958496,18.004000051498412,5.998000144958496C18.004000051498412,5.998000144958496,17.978000051498412,17.998000144958496,17.978000051498412,17.998000144958496C17.978000051498412,17.998000144958496,19.978000051498412,18.002000144958494,19.978000051498412,18.002000144958494ZM3.996000051498413,10.985000144958496C3.996000051498413,10.985000144958496,15.996000051498413,11.011000144958496,15.996000051498413,11.011000144958496C15.996000051498413,11.011000144958496,16.005000051498413,7.011000144958496,16.005000051498413,7.011000144958496C16.005000051498413,7.011000144958496,4.005000111498413,6.985000144958496,4.005000111498413,6.985000144958496C4.005000111498413,6.985000144958496,3.996000051498413,10.985000144958496,3.996000051498413,10.985000144958496Z" fill-rule="evenodd" fill="#1CA6C5" fill-opacity="1"/></g></g></g></svg>