<svg xmlns="http://www.w3.org/2000/svg" xmlns:xlink="http://www.w3.org/1999/xlink" fill="none" version="1.1" width="16" height="16" viewBox="0 0 16 16"><defs><clipPath id="master_svg0_0_16913"><rect x="0" y="0" width="16" height="16" rx="0"/></clipPath></defs><g clip-path="url(#master_svg0_0_16913)"><g><path d="M2,3.5L14,3.5Q14.0492,3.5,14.0975,3.509607Q14.1458,3.519215,14.1913,3.5380599999999998Q14.2368,3.556906,14.2778,3.584265Q14.3187,3.611625,14.3536,3.646447Q14.3884,3.681269,14.4157,3.722215Q14.4431,3.763161,14.4619,3.808658Q14.4808,3.854155,14.4904,3.9024549Q14.5,3.9507543,14.5,4Q14.5,4.0492457,14.4904,4.0975451Q14.4808,4.145845,14.4619,4.191342Q14.4431,4.236839,14.4157,4.277785Q14.3884,4.318731,14.3536,4.353553Q14.3187,4.388375,14.2778,4.415735Q14.2368,4.443094,14.1913,4.46194Q14.1458,4.480785,14.0975,4.490393Q14.0492,4.5,14,4.5L2,4.5Q1.9507543,4.5,1.9024549,4.490393Q1.854155,4.480785,1.8086579999999999,4.46194Q1.763161,4.443094,1.722215,4.415735Q1.681269,4.388375,1.646447,4.353553Q1.611625,4.318731,1.584265,4.277785Q1.5569060000000001,4.236839,1.53806,4.191342Q1.519215,4.145845,1.509607,4.0975451Q1.5,4.0492457,1.5,4Q1.5,3.9507543,1.509607,3.9024549Q1.519215,3.854155,1.53806,3.808658Q1.5569060000000001,3.763161,1.584265,3.722215Q1.611625,3.681269,1.646447,3.646447Q1.681269,3.611625,1.722215,3.584265Q1.763161,3.556906,1.8086579999999999,3.5380599999999998Q1.854155,3.519215,1.9024549,3.509607Q1.9507543,3.5,2,3.5ZM2,6.16667L11.33333,6.16667Q11.38258,6.16667,11.43088,6.176270000000001Q11.47918,6.18588,11.52467,6.20473Q11.57017,6.2235700000000005,11.61112,6.25093Q11.65206,6.27829,11.68688,6.31311Q11.72171,6.34793,11.74907,6.38888Q11.77642,6.42983,11.79527,6.47532Q11.81412,6.5208200000000005,11.82372,6.56912Q11.83333,6.61742,11.83333,6.66667Q11.83333,6.71591,11.82372,6.76421Q11.81412,6.81251,11.79527,6.85801Q11.77642,6.90351,11.74907,6.94445Q11.72171,6.9854,11.68688,7.02022Q11.65206,7.05504,11.61112,7.0824Q11.57017,7.10976,11.52467,7.12861Q11.47918,7.14745,11.43088,7.1570599999999995Q11.38258,7.16667,11.33333,7.16667L2,7.16667Q1.9507543,7.16667,1.9024549,7.1570599999999995Q1.854155,7.14745,1.8086579999999999,7.12861Q1.763161,7.10976,1.722215,7.0824Q1.681269,7.05504,1.646447,7.02022Q1.611625,6.9854,1.584265,6.94445Q1.5569060000000001,6.90351,1.53806,6.85801Q1.519215,6.81251,1.509607,6.76421Q1.5,6.71591,1.5,6.66667Q1.5,6.61742,1.509607,6.56912Q1.519215,6.5208200000000005,1.53806,6.47532Q1.5569060000000001,6.42983,1.584265,6.38888Q1.611625,6.34793,1.646447,6.31311Q1.681269,6.27829,1.722215,6.25093Q1.763161,6.2235700000000005,1.8086579999999999,6.20473Q1.854155,6.18588,1.9024549,6.176270000000001Q1.9507543,6.16667,2,6.16667ZM2,8.83333L14,8.83333Q14.0492,8.83333,14.0975,8.842939999999999Q14.1458,8.85255,14.1913,8.87139Q14.2368,8.89024,14.2778,8.9176Q14.3187,8.94496,14.3536,8.97978Q14.3884,9.0146,14.4157,9.05555Q14.4431,9.09649,14.4619,9.14199Q14.4808,9.18749,14.4904,9.23579Q14.5,9.284089999999999,14.5,9.33333Q14.5,9.38258,14.4904,9.43088Q14.4808,9.47918,14.4619,9.52467Q14.4431,9.570170000000001,14.4157,9.61112Q14.3884,9.652059999999999,14.3536,9.68689Q14.3187,9.72171,14.2778,9.74907Q14.2368,9.776430000000001,14.1913,9.79527Q14.1458,9.814119999999999,14.0975,9.823730000000001Q14.0492,9.83333,14,9.83333L2,9.83333Q1.9507543,9.83333,1.9024549,9.823730000000001Q1.854155,9.814119999999999,1.8086579999999999,9.79527Q1.763161,9.776430000000001,1.722215,9.74907Q1.681269,9.72171,1.646447,9.68689Q1.611625,9.652059999999999,1.584265,9.61112Q1.5569060000000001,9.570170000000001,1.53806,9.52467Q1.519215,9.47918,1.509607,9.43088Q1.5,9.38258,1.5,9.33333Q1.5,9.284089999999999,1.509607,9.23579Q1.519215,9.18749,1.53806,9.14199Q1.5569060000000001,9.09649,1.584265,9.05555Q1.611625,9.0146,1.646447,8.97978Q1.681269,8.94496,1.722215,8.9176Q1.763161,8.89024,1.8086579999999999,8.87139Q1.854155,8.85255,1.9024549,8.842939999999999Q1.9507543,8.83333,2,8.83333ZM2,11.5L11.33333,11.5Q11.38258,11.5,11.43088,11.50961Q11.47918,11.519210000000001,11.52467,11.53806Q11.57017,11.556899999999999,11.61112,11.58426Q11.65206,11.61162,11.68688,11.64645Q11.72171,11.68127,11.74907,11.72221Q11.77642,11.76316,11.79527,11.80866Q11.81412,11.85415,11.82372,11.90245Q11.83333,11.95075,11.83333,12Q11.83333,12.04924,11.82372,12.09754Q11.81412,12.14584,11.79527,12.19134Q11.77642,12.23684,11.74907,12.27778Q11.72171,12.31873,11.68688,12.35355Q11.65206,12.38837,11.61112,12.41573Q11.57017,12.44309,11.52467,12.46194Q11.47918,12.48078,11.43088,12.49039Q11.38258,12.5,11.33333,12.5L2,12.5Q1.9507543,12.5,1.9024549,12.49039Q1.854155,12.48078,1.8086579999999999,12.46194Q1.763161,12.44309,1.722215,12.41573Q1.681269,12.38837,1.646447,12.35355Q1.611625,12.31873,1.584265,12.27778Q1.5569060000000001,12.23684,1.53806,12.19134Q1.519215,12.14584,1.509607,12.09754Q1.5,12.04924,1.5,12Q1.5,11.95075,1.509607,11.90245Q1.519215,11.85415,1.53806,11.80866Q1.5569060000000001,11.76316,1.584265,11.72221Q1.611625,11.68127,1.646447,11.64645Q1.681269,11.61162,1.722215,11.58426Q1.763161,11.556899999999999,1.8086579999999999,11.53806Q1.854155,11.519210000000001,1.9024549,11.50961Q1.9507543,11.5,2,11.5Z" fill-rule="evenodd" fill="#000000" fill-opacity="1"/></g></g></svg>