<svg xmlns="http://www.w3.org/2000/svg" xmlns:xlink="http://www.w3.org/1999/xlink" fill="none" version="1.1" width="24" height="24" viewBox="0 0 24 24"><defs><clipPath id="master_svg0_0_32303"><rect x="0" y="0" width="24" height="24" rx="5"/></clipPath></defs><g clip-path="url(#master_svg0_0_32303)"><rect x="0" y="0" width="24" height="24" rx="5" fill="#E6E6E6" fill-opacity="1"/><g><g><path d="M13.03499984741211,7.987999921035156C13.03499984741211,7.987999921035156,13.03699970741211,13.988000061035155,13.03699970741211,13.988000061035155C13.03699970741211,13.988000061035155,17.03699984741211,13.986000061035156,17.03699984741211,13.986000061035156C17.03699984741211,13.986000061035156,17.03499984741211,7.986000061035156,17.03499984741211,7.986000061035156C17.03499984741211,7.986000061035156,13.03499984741211,7.987999921035156,13.03499984741211,7.987999921035156Z" fill-rule="evenodd" fill="#1CA6C5" fill-opacity="0.5"/></g><g><path d="M18,4.01200008392334C18,4.01200008392334,6,4.01800012392334,6,4.01800012392334C6,4.01800012392334,6,6.01800008392334,6,6.01800008392334C6,6.01800008392334,18,6.01200008392334,18,6.01200008392334C18,6.01200008392334,18,4.01200008392334,18,4.01200008392334ZM11.036999999999999,19.98600008392334C11.036999999999999,19.98600008392334,11.032,7.98600008392334,11.032,7.98600008392334C11.032,7.98600008392334,7.032,7.98800008392334,7.032,7.98800008392334C7.032,7.98800008392334,7.037,19.98800008392334,7.037,19.98800008392334C7.037,19.98800008392334,11.036999999999999,19.98600008392334,11.036999999999999,19.98600008392334Z" fill-rule="evenodd" fill="#1CA6C5" fill-opacity="1"/></g></g></g></svg>