<svg xmlns="http://www.w3.org/2000/svg" xmlns:xlink="http://www.w3.org/1999/xlink" fill="none" version="1.1" width="24" height="24" viewBox="0 0 24 24"><defs><clipPath id="master_svg0_0_32325"><rect x="0" y="0" width="24" height="24" rx="5"/></clipPath></defs><g clip-path="url(#master_svg0_0_32325)"><rect x="0" y="0" width="24" height="24" rx="5" fill="#E6E6E6" fill-opacity="1"/><g><g><path d="M13,10C13,10,17,10,17,10C17,10,17,16,17,16C17,16,13,16,13,16C13,16,13,10,13,10Z" fill="#1CA6C5" fill-opacity="0.5"/></g><g><path d="M11,4C11,4,7,4,7,4C7,4,7,16,7,16C7,16,11,16,11,16C11,16,11,4,11,4ZM18,18C18,18,6,18,6,18C6,18,6,20,6,20C6,20,18,20,18,20C18,20,18,18,18,18Z" fill="#1CA6C5" fill-opacity="1"/></g></g></g></svg>