<svg xmlns="http://www.w3.org/2000/svg" xmlns:xlink="http://www.w3.org/1999/xlink" fill="none" version="1.1" width="24" height="24" viewBox="0 0 24 24"><defs><clipPath id="master_svg0_0_32269"><rect x="0" y="0" width="24" height="24" rx="5"/></clipPath></defs><g clip-path="url(#master_svg0_0_32269)"><rect x="0" y="0" width="24" height="24" rx="5" fill="#E6E6E6" fill-opacity="1"/><g><g><path d="M8,13C8,13,14,13,14,13C14,13,14,17,14,17C14,17,8,17,8,17C8,17,8,13,8,13Z" fill="#1CA6C5" fill-opacity="0.5"/></g><g><path d="M6,6C6,6,4,6,4,6C4,6,4,18,4,18C4,18,6,18,6,18C6,18,6,6,6,6ZM20,7C20,7,8,7,8,7C8,7,8,11,8,11C8,11,20,11,20,11C20,11,20,7,20,7Z" fill="#1CA6C5" fill-opacity="1"/></g></g></g></svg>