<svg xmlns="http://www.w3.org/2000/svg" xmlns:xlink="http://www.w3.org/1999/xlink" fill="none" version="1.1" width="16" height="16" viewBox="0 0 16 16"><defs><clipPath id="master_svg0_0_15198"><rect x="0" y="16" width="16" height="16" rx="0"/></clipPath></defs><g transform="matrix(0,-1,1,0,-16,16)" clip-path="url(#master_svg0_0_15198)"><g><path d="M14.666633373069763,28.833333373069763L14.666633373069763,19.166663373069763Q14.666633373069763,18.409560373069763,14.128533373069763,17.871446973069762Q13.590433373069763,17.333333373069763,12.833333373069763,17.333333373069763L3.1666633730697633,17.333333373069763Q2.4095593730697633,17.333333373069763,1.8714465730697631,17.871446573069765Q1.3333333730697632,18.409560373069763,1.3333333730697632,19.166663373069763L1.3333333730697632,28.833333373069763Q1.3333333730697632,29.590433373069764,1.8714466730697632,30.128533373069764Q2.4095603730697635,30.666633373069764,3.1666633730697633,30.666633373069764L12.833333373069763,30.666633373069764Q13.590433373069763,30.666633373069764,14.128533373069763,30.128533373069764Q14.666633373069763,29.590433373069764,14.666633373069763,28.833333373069763ZM13.421433373069764,18.578553373069763Q13.666633373069763,18.823774373069764,13.666633373069763,19.166663373069763L13.666633373069763,28.833333373069763Q13.666633373069763,29.176233373069763,13.421433373069764,29.421433373069764Q13.176233373069763,29.666633373069764,12.833333373069763,29.666633373069764L3.1666633730697633,29.666633373069764Q2.823773373069763,29.666633373069764,2.578553373069763,29.421433373069764Q2.333333373069763,29.176233373069763,2.333333373069763,28.833333373069763L2.333333373069763,19.166663373069763Q2.333333373069763,18.823773373069763,2.578553373069763,18.578553373069763Q2.823773373069763,18.333333373069763,3.1666633730697633,18.333333373069763L12.833333373069763,18.333333373069763Q13.176233373069763,18.333333373069763,13.421433373069764,18.578553373069763Z" fill-rule="evenodd" fill="#000000" fill-opacity="1"/></g><g transform="matrix(-0.7071067690849304,0.7071067690849304,-0.7071067690849304,-0.7071067690849304,41.61762211631003,35.31365268868251)"><path d="M15.77115432647705,26.98322227850342L17.69361432647705,28.905628278503418L18.40071432647705,28.198508278503418L15.77113432647705,25.569014278503417L13.141558326477051,28.198638278503417L13.84867032647705,28.905738278503417L15.77115432647705,26.98322227850342Z" fill-rule="evenodd" fill="#000000" fill-opacity="1"/></g><g transform="matrix(0.7071066498756409,-0.70710688829422,0.70710688829422,0.7071066498756409,-14.694306445667777,8.29572241812592)"><path d="M4.942706746139526,22.592558177856446L6.8651667461395265,24.514964177856445L7.572266746139526,23.807844177856445L4.942686746139526,21.178350177856444L2.313110746139526,23.807974177856444L3.0202227461395266,24.515074177856444L4.942706746139526,22.592558177856446Z" fill-rule="evenodd" fill="#000000" fill-opacity="1"/></g></g></svg>