<?xml version="1.0" standalone="no"?><!DOCTYPE svg PUBLIC "-//W3C//DTD SVG 1.1//EN" "http://www.w3.org/Graphics/SVG/1.1/DTD/svg11.dtd"><svg t="1747017729307" class="icon" viewBox="0 0 1024 1024" version="1.1" xmlns="http://www.w3.org/2000/svg" p-id="4652" xmlns:xlink="http://www.w3.org/1999/xlink" width="48" height="48"><path d="M960 809.9l-0.8-101.6H821.3V333.9c0-25.5-9.1-51.1-25.3-72.1l131-131.1L891.3 95l-134 134.1c-17.2-9.2-37.3-14.6-59.7-14.6-13.1 0-220.1-0.1-394-0.2V75.4H202.7v138.8c-80.8 0-138.7-0.1-138.7-0.1l0.8 101.6h137.9v374.4c0 59.1 48.8 119.4 123.7 119.4 13.1 0 220.1 0.1 394 0.2v138.8h100.9V809.8c80.8 0.1 138.7 0.1 138.7 0.1zM593.6 315.8c25.6 0 48.9 2.1 68.3 8.7L319.1 667.3c-10-15.7-15.5-37.2-15.5-66.2V315.8h290zM430.4 708.3c-26.9 0-51.3-2.3-71.3-9.7l344.1-344.1c11 15.9 17.1 38.1 17.1 68.6v285.3l-289.9-0.1z"  p-id="4653"></path></svg>