<svg xmlns="http://www.w3.org/2000/svg" xmlns:xlink="http://www.w3.org/1999/xlink" fill="none" version="1.1" width="14" height="14" viewBox="0 0 14 14"><g><path d="M7.67742,0.677419C7.67742,0.497757,7.60605,0.325452,7.47901,0.198412C7.35197,0.0713708,7.17966,1.06546e-16,7,0C6.82034,1.25348e-16,6.64803,0.0713708,6.52099,0.198412C6.39395,0.325452,6.32258,0.497757,6.32258,0.677419C6.32258,0.677419,6.32258,5.36516,6.32258,5.36516C6.32258,5.36516,3.96606,3.00774,3.96606,3.00774C3.90354,2.94307,3.82877,2.8915,3.74611,2.85604C3.66344,2.82057,3.57454,2.80193,3.48459,2.80119C3.39465,2.80045,3.30545,2.81763,3.22222,2.85173C3.13898,2.88583,3.06337,2.93617,2.9998,2.9998C2.93622,3.06344,2.88596,3.1391,2.85193,3.22236C2.81791,3.30563,2.80081,3.39484,2.80164,3.48479C2.80246,3.57474,2.82119,3.66362,2.85673,3.74625C2.89227,3.82888,2.94392,3.9036,3.00865,3.96606C3.00865,3.96606,5.36426,6.32258,5.36426,6.32258C5.36426,6.32258,0.677419,6.32258,0.677419,6.32258C0.497757,6.32258,0.325452,6.39395,0.198412,6.52099C0.0713708,6.64803,1.88022e-16,6.82034,0,7C1.25348e-16,7.17966,0.0713708,7.35197,0.198412,7.47901C0.325452,7.60605,0.497757,7.67742,0.677419,7.67742C0.677419,7.67742,5.36516,7.67742,5.36516,7.67742C5.36516,7.67742,3.00774,10.0339,3.00774,10.0339C2.94307,10.0965,2.8915,10.1712,2.85604,10.2539C2.82057,10.3366,2.80193,10.4255,2.80119,10.5154C2.80045,10.6054,2.81763,10.6945,2.85173,10.7778C2.88583,10.861,2.93617,10.9366,2.9998,11.0002C3.06344,11.0638,3.1391,11.114,3.22236,11.1481C3.30563,11.1821,3.39484,11.1992,3.48479,11.1984C3.57474,11.1975,3.66362,11.1788,3.74625,11.1433C3.82888,11.1077,3.9036,11.0561,3.96606,10.9914C3.96606,10.9914,6.32258,8.63574,6.32258,8.63574C6.32258,8.63574,6.32258,13.3226,6.32258,13.3226C6.32258,13.5022,6.39395,13.6745,6.52099,13.8016C6.64803,13.9286,6.82034,14,7,14C7.17966,14,7.35197,13.9286,7.47901,13.8016C7.60605,13.6745,7.67742,13.5022,7.67742,13.3226C7.67742,13.3226,7.67742,8.63484,7.67742,8.63484C7.67742,8.63484,10.0339,10.9923,10.0339,10.9923C10.0965,11.0569,10.1712,11.1085,10.2539,11.144C10.3366,11.1794,10.4255,11.1981,10.5154,11.1988C10.6054,11.1995,10.6945,11.1824,10.7778,11.1483C10.861,11.1142,10.9366,11.0638,11.0002,11.0002C11.0638,10.9366,11.114,10.8609,11.1481,10.7776C11.1821,10.6944,11.1992,10.6052,11.1984,10.5152C11.1975,10.4253,11.1788,10.3364,11.1433,10.2538C11.1077,10.1711,11.0561,10.0964,10.9914,10.0339C10.9914,10.0339,8.63574,7.67742,8.63574,7.67742C8.63574,7.67742,13.3226,7.67742,13.3226,7.67742C13.5022,7.67742,13.6745,7.60605,13.8016,7.47901C13.9286,7.35197,14,7.17966,14,7C14,6.82034,13.9286,6.64803,13.8016,6.52099C13.6745,6.39395,13.5022,6.32258,13.3226,6.32258C13.3226,6.32258,8.63484,6.32258,8.63484,6.32258C8.63484,6.32258,10.9923,3.96606,10.9923,3.96606C11.1156,3.83824,11.1838,3.66709,11.1822,3.48948C11.1805,3.31186,11.1092,3.14199,10.9836,3.01645C10.8579,2.89091,10.688,2.81974,10.5103,2.81828C10.3327,2.81682,10.1616,2.88519,10.0339,3.00865C10.0339,3.00865,7.67742,5.36426,7.67742,5.36426C7.67742,5.36426,7.67742,0.677419,7.67742,0.677419Z" fill="#939393" fill-opacity="1"/></g></svg>