<svg width="20" height="20" viewBox="0 0 20 20" fill="none" xmlns="http://www.w3.org/2000/svg">
<path d="M17.5 3.125C17.5 3.29076 17.4342 3.44973 17.3169 3.56694C17.1997 3.68415 17.0408 3.75 16.875 3.75H3.125C2.95924 3.75 2.80027 3.68415 2.68306 3.56694C2.56585 3.44973 2.5 3.29076 2.5 3.125C2.5 2.95924 2.56585 2.80027 2.68306 2.68306C2.80027 2.56585 2.95924 2.5 3.125 2.5H16.875C17.0408 2.5 17.1997 2.56585 17.3169 2.68306C17.4342 2.80027 17.5 2.95924 17.5 3.125ZM17.5 16.875C17.5 17.0408 17.4342 17.1997 17.3169 17.3169C17.1997 17.4342 17.0408 17.5 16.875 17.5H3.125C2.95924 17.5 2.80027 17.4342 2.68306 17.3169C2.56585 17.1997 2.5 17.0408 2.5 16.875C2.5 16.7092 2.56585 16.5503 2.68306 16.4331C2.80027 16.3158 2.95924 16.25 3.125 16.25H16.875C17.0408 16.25 17.1997 16.3158 17.3169 16.4331C17.4342 16.5503 17.5 16.7092 17.5 16.875ZM6.04167 6.66667C5.54439 6.66667 5.06747 6.86421 4.71584 7.21584C4.36421 7.56747 4.16667 8.04439 4.16667 8.54167V11.4583C4.16667 11.9556 4.36421 12.4325 4.71584 12.7842C5.06747 13.1358 5.54439 13.3333 6.04167 13.3333H13.9583C14.2046 13.3333 14.4484 13.2848 14.6759 13.1906C14.9033 13.0964 15.11 12.9583 15.2842 12.7842C15.4583 12.61 15.5964 12.4033 15.6906 12.1759C15.7848 11.9484 15.8333 11.7046 15.8333 11.4583V8.54167C15.8333 8.29544 15.7848 8.05162 15.6906 7.82414C15.5964 7.59665 15.4583 7.38995 15.2842 7.21584C15.11 7.04173 14.9033 6.90362 14.6759 6.80939C14.4484 6.71517 14.2046 6.66667 13.9583 6.66667H6.04167Z" fill="black"/>
</svg>
