<svg xmlns="http://www.w3.org/2000/svg" xmlns:xlink="http://www.w3.org/1999/xlink" fill="none" version="1.1" width="24" height="24" viewBox="0 0 24 24"><defs><clipPath id="master_svg0_0_32343"><rect x="0" y="0" width="24" height="24" rx="5"/></clipPath></defs><g clip-path="url(#master_svg0_0_32343)"><rect x="0" y="0" width="24" height="24" rx="5" fill="#E6E6E6" fill-opacity="1"/><g><path d="M4.666667,4C4.843478,4,5.01305,4.0702378,5.13807,4.195262C5.2631,4.320286,5.33333,4.489856,5.33333,4.666667L5.33333,19.3333C5.33333,19.5101,5.2631,19.6797,5.13807,19.8047C5.01305,19.9298,4.843478,20,4.666667,20C4.489856,20,4.320286,19.9298,4.195262,19.8047C4.0702378,19.6797,4,19.5101,4,19.3333L4,4.666667C4,4.489856,4.0702378,4.320286,4.195262,4.195262C4.320286,4.0702378,4.489856,4,4.666667,4ZM19.3333,4C19.5101,4,19.6797,4.0702378,19.8047,4.195262C19.9298,4.320286,20,4.489856,20,4.666667L20,19.3333C20,19.5101,19.9298,19.6797,19.8047,19.8047C19.6797,19.9298,19.5101,20,19.3333,20C19.1565,20,18.987000000000002,19.9298,18.8619,19.8047C18.7369,19.6797,18.6667,19.5101,18.6667,19.3333L18.6667,4.666667C18.6667,4.489856,18.7369,4.320286,18.8619,4.195262C18.987000000000002,4.0702378,19.1565,4,19.3333,4ZM9.03023,6.36356C9.4053,5.9884900000000005,9.914010000000001,5.77778,10.44444,5.77778L13.55556,5.77778C14.086,5.77778,14.5947,5.9884900000000005,14.9698,6.36356C15.3448,6.73864,15.5556,7.2473399999999994,15.5556,7.77778L15.5556,16.2222C15.5556,16.4849,15.5038,16.7449,15.4033,16.9876C15.3028,17.2302,15.1555,17.450699999999998,14.9698,17.636400000000002C14.7841,17.822200000000002,14.5636,17.9695,14.3209,18.07C14.0783,18.1705,13.8182,18.2222,13.55556,18.2222L10.44444,18.2222C10.181799999999999,18.2222,9.92173,18.1705,9.679079999999999,18.07C9.43643,17.9695,9.21595,17.822200000000002,9.03023,17.636400000000002C8.84451,17.450699999999998,8.697199999999999,17.2302,8.596689999999999,16.9876C8.496179999999999,16.7449,8.44444,16.4849,8.44444,16.2222L8.44444,7.77778C8.44444,7.2473399999999994,8.65516,6.73864,9.03023,6.36356Z" fill-rule="evenodd" fill="#1CA6C5" fill-opacity="1"/></g></g></svg>