<svg xmlns="http://www.w3.org/2000/svg" xmlns:xlink="http://www.w3.org/1999/xlink" fill="none" version="1.1" width="24" height="24" viewBox="0 0 24 24"><defs><clipPath id="master_svg0_0_32336"><rect x="0" y="0" width="24" height="24" rx="5"/></clipPath></defs><g clip-path="url(#master_svg0_0_32336)"><rect x="0" y="0" width="24" height="24" rx="5" fill="#E6E6E6" fill-opacity="1"/><g><path d="M20,4.666667C20,4.843478,19.9298,5.01305,19.8047,5.13807C19.6797,5.2631,19.5101,5.33333,19.3333,5.33333L4.666667,5.33333C4.489856,5.33333,4.320286,5.2631,4.195262,5.13807C4.0702378,5.01305,4,4.843478,4,4.666667C4,4.489856,4.0702378,4.320286,4.195262,4.195262C4.320286,4.0702378,4.489856,4,4.666667,4L19.3333,4C19.5101,4,19.6797,4.0702378,19.8047,4.195262C19.9298,4.320286,20,4.489856,20,4.666667ZM6.36356,9.03023C6.73864,8.65516,7.2473399999999994,8.44444,7.77778,8.44444L16.2222,8.44444C16.4849,8.44444,16.7449,8.496179999999999,16.9876,8.596689999999999C17.2302,8.697199999999999,17.450699999999998,8.84451,17.636400000000002,9.03023C17.822200000000002,9.21595,17.9695,9.43643,18.07,9.679079999999999C18.1705,9.92173,18.2222,10.181799999999999,18.2222,10.44444L18.2222,13.55556C18.2222,13.8182,18.1705,14.0783,18.07,14.3209C17.9695,14.5636,17.822200000000002,14.7841,17.636400000000002,14.9698C17.450699999999998,15.1555,17.2302,15.3028,16.9876,15.4033C16.7449,15.5038,16.4849,15.5556,16.2222,15.5556L7.77778,15.5556C7.2473399999999994,15.5556,6.73864,15.3448,6.36356,14.9698C5.9884900000000005,14.5947,5.77778,14.086,5.77778,13.55556L5.77778,10.44444C5.77778,9.914010000000001,5.9884900000000005,9.4053,6.36356,9.03023ZM20,19.3333C20,19.5101,19.9298,19.6797,19.8047,19.8047C19.6797,19.9298,19.5101,20,19.3333,20L4.666667,20C4.489856,20,4.320286,19.9298,4.195262,19.8047C4.0702378,19.6797,4,19.5101,4,19.3333C4,19.1565,4.0702378,18.987000000000002,4.195262,18.8619C4.320286,18.7369,4.489856,18.6667,4.666667,18.6667L19.3333,18.6667C19.5101,18.6667,19.6797,18.7369,19.8047,18.8619C19.9298,18.987000000000002,20,19.1565,20,19.3333Z" fill-rule="evenodd" fill="#1CA6C5" fill-opacity="1"/></g></g></svg>