<svg width="20" height="20" viewBox="0 0 20 20" fill="none" xmlns="http://www.w3.org/2000/svg">
<path d="M3.125 2.5C3.29076 2.5 3.44973 2.56585 3.56694 2.68306C3.68415 2.80027 3.75 2.95924 3.75 3.125V16.875C3.75 17.0408 3.68415 17.1997 3.56694 17.3169C3.44973 17.4342 3.29076 17.5 3.125 17.5C2.95924 17.5 2.80027 17.4342 2.68306 17.3169C2.56585 17.1997 2.5 17.0408 2.5 16.875V3.125C2.5 2.95924 2.56585 2.80027 2.68306 2.68306C2.80027 2.56585 2.95924 2.5 3.125 2.5ZM16.875 2.5C17.0408 2.5 17.1997 2.56585 17.3169 2.68306C17.4342 2.80027 17.5 2.95924 17.5 3.125V16.875C17.5 17.0408 17.4342 17.1997 17.3169 17.3169C17.1997 17.4342 17.0408 17.5 16.875 17.5C16.7092 17.5 16.5503 17.4342 16.4331 17.3169C16.3158 17.1997 16.25 17.0408 16.25 16.875V3.125C16.25 2.95924 16.3158 2.80027 16.4331 2.68306C16.5503 2.56585 16.7092 2.5 16.875 2.5ZM8.54167 4.16667C8.04439 4.16667 7.56747 4.36421 7.21584 4.71584C6.86421 5.06747 6.66667 5.54439 6.66667 6.04167V13.9583C6.66667 14.2046 6.71517 14.4484 6.80939 14.6759C6.90362 14.9033 7.04173 15.11 7.21584 15.2842C7.38995 15.4583 7.59665 15.5964 7.82414 15.6906C8.05162 15.7848 8.29544 15.8333 8.54167 15.8333H11.4583C11.7046 15.8333 11.9484 15.7848 12.1759 15.6906C12.4033 15.5964 12.61 15.4583 12.7842 15.2842C12.9583 15.11 13.0964 14.9033 13.1906 14.6759C13.2848 14.4484 13.3333 14.2046 13.3333 13.9583V6.04167C13.3333 5.54439 13.1358 5.06747 12.7842 4.71584C12.4325 4.36421 11.9556 4.16667 11.4583 4.16667H8.54167Z" fill="black"/>
</svg>
