<svg xmlns="http://www.w3.org/2000/svg" xmlns:xlink="http://www.w3.org/1999/xlink" fill="none" version="1.1" width="16" height="16" viewBox="0 0 16 16"><defs><clipPath id="master_svg0_0_16923"><rect x="0" y="0" width="16" height="16" rx="0"/></clipPath></defs><g clip-path="url(#master_svg0_0_16923)"><g><path d="M3.6666669623260497,13.333361977767945C3.57199996232605,13.333361977767945,3.4928889623260497,13.301361977767945,3.42933356232605,13.237361977767945C3.36577806232605,13.173361977767945,3.33377797332605,13.093961977767945,3.3333335285260497,12.999361977767945C3.33288908432605,12.904661977767944,3.3648891623260497,12.825561977767943,3.42933356232605,12.761961977767944C3.4937779623260496,12.698461977767945,3.57288896232605,12.666661977767944,3.6666669623260497,12.666661977767944C3.6666669623260497,12.666661977767944,12.33332896232605,12.666661977767944,12.33332896232605,12.666661977767944C12.42799896232605,12.666661977767944,12.50710896232605,12.698661977767944,12.57066896232605,12.762661977767944C12.63421896232605,12.826661977767944,12.66621896232605,12.905961977767944,12.66666896232605,13.000661977767944C12.66710896232605,13.095361977767944,12.63510896232605,13.174461977767944,12.57066896232605,13.237961977767945C12.50621896232605,13.301561977767944,12.42710896232605,13.333361977767945,12.33332896232605,13.333361977767945C12.33332896232605,13.333361977767945,3.6666669623260497,13.333361977767945,3.6666669623260497,13.333361977767945ZM7.998668962326049,10.652661977767945C7.927558962326049,10.652661977767945,7.86177896232605,10.640891977767945,7.80132896232605,10.617331977767943C7.74044896232605,10.593781977767945,7.6808889623260495,10.552891977767946,7.62266896232605,10.494661977767944C7.62266896232605,10.494661977767944,5.3639989623260504,8.236001977767945,5.3639989623260504,8.236001977767945C5.30177896232605,8.173781977767945,5.268448962326049,8.097331977767944,5.26399896232605,8.006661977767944C5.25955896232605,7.9160019777679445,5.2928889623260496,7.835111977767944,5.3639989623260504,7.764001977767944C5.43510896232605,7.692891977767944,5.51377896232605,7.657331977767944,5.599998962326049,7.657331977767944C5.68621896232605,7.657331977767944,5.76488896232605,7.692891977767944,5.83599896232605,7.764001977767944C5.83599896232605,7.764001977767944,7.6666689623260496,9.594661977767945,7.6666689623260496,9.594661977767945C7.6666689623260496,9.594661977767945,7.6666689623260496,2.9999999777679442,7.6666689623260496,2.9999999777679442C7.6666689623260496,2.9053329777679444,7.69866896232605,2.8262219777679443,7.76266896232605,2.7626665777679444C7.82666896232605,2.6991110777679443,7.905998962326049,2.6671109887679445,8.00066896232605,2.6666665439679442C8.09532896232605,2.6662220997679444,8.17444896232605,2.6982221777679443,8.23799896232605,2.7626665777679444C8.30155896232605,2.827110977767944,8.33332896232605,2.9062219777679443,8.33332896232605,2.9999999777679442C8.33332896232605,2.9999999777679442,8.33332896232605,9.594661977767945,8.33332896232605,9.594661977767945C8.33332896232605,9.594661977767945,10.16399896232605,7.764001977767944,10.16399896232605,7.764001977767944C10.226218962326051,7.701781977767944,10.302668962326049,7.6684419777679445,10.393328962326049,7.664001977767945C10.48399896232605,7.659551977767944,10.56488896232605,7.692891977767944,10.635998962326049,7.764001977767944C10.70710896232605,7.835111977767944,10.74266896232605,7.913781977767944,10.74266896232605,8.000001977767944C10.74266896232605,8.086221977767945,10.70710896232605,8.164891977767944,10.635998962326049,8.236001977767945C10.635998962326049,8.236001977767945,8.37666896232605,10.494661977767944,8.37666896232605,10.494661977767944C8.31888896232605,10.552891977767946,8.25888896232605,10.593781977767945,8.19666896232605,10.617331977767943C8.13532896232605,10.640891977767945,8.06932896232605,10.652661977767945,7.998668962326049,10.652661977767945Z" fill="#000000" fill-opacity="1"/></g></g></svg>