<?xml version="1.0" standalone="no"?><!DOCTYPE svg PUBLIC "-//W3C//DTD SVG 1.1//EN" "http://www.w3.org/Graphics/SVG/1.1/DTD/svg11.dtd"><svg t="1750321008414" class="icon" viewBox="0 0 1024 1024" version="1.1" xmlns="http://www.w3.org/2000/svg" p-id="13778" xmlns:xlink="http://www.w3.org/1999/xlink" width="32" height="32"><path d="M510.6 983.9c-63.9 0-126-12.5-184.4-37.2-56.4-23.9-107.1-58-150.6-101.5S97.9 751 74.1 694.6c-24.7-58.4-37.2-120.5-37.2-184.4s12.5-126 37.2-184.4c23.9-56.4 58-107.1 101.5-150.6s94.2-77.7 150.6-101.5C384.6 49 446.7 36.5 510.6 36.5c63.9 0 126 12.5 184.4 37.2 56.4 23.9 107.1 58 150.6 101.5s77.7 94.2 101.5 150.6c24.7 58.4 37.2 120.5 37.2 184.4s-12.5 126-37.2 184.4c-23.9 56.4-58 107.1-101.5 150.6S751.4 922.8 695 946.7c-58.4 24.7-120.5 37.2-184.4 37.2z m0-897.5c-233.7 0-423.8 190.1-423.8 423.8S276.9 934 510.6 934s423.8-190.1 423.8-423.8S744.2 86.4 510.6 86.4z" fill="#1CA6C5" p-id="13779"></path></svg>