<svg xmlns="http://www.w3.org/2000/svg" xmlns:xlink="http://www.w3.org/1999/xlink" fill="none" version="1.1" width="16" height="16" viewBox="0 0 16 16"><defs><clipPath id="master_svg0_0_16925"><rect x="0" y="0" width="16" height="16" rx="0"/></clipPath></defs><g clip-path="url(#master_svg0_0_16925)"><g><path d="M1.3333333730697632,3.8333332538604736C1.3333333730697632,3.700725253860474,1.3860117730697632,3.5735482538604737,1.4797803730697632,3.479780253860474C1.5735483730697633,3.3860116538604736,1.7007253730697631,3.333333253860474,1.8333333730697632,3.3333332538604736C1.8333333730697632,3.3333332538604736,14.166633373069763,3.3333332538604736,14.166633373069763,3.3333332538604736C14.299233373069763,3.333333253860474,14.426433373069763,3.3860116538604736,14.520233373069763,3.479780253860474C14.614033373069763,3.5735482538604737,14.666633373069763,3.700725253860474,14.666633373069763,3.8333332538604736C14.666633373069763,3.9659412538604735,14.614033373069763,4.093118253860474,14.520233373069763,4.186886253860473C14.426433373069763,4.280655253860473,14.299233373069763,4.333333253860474,14.166633373069763,4.333333253860474C14.166633373069763,4.333333253860474,1.8333333730697632,4.333333253860474,1.8333333730697632,4.333333253860474C1.7007253730697631,4.333333253860474,1.5735483730697633,4.280655253860473,1.4797803730697632,4.186886253860473C1.3860117730697632,4.093118253860474,1.3333333730697632,3.9659412538604735,1.3333333730697632,3.8333332538604736ZM3.520003373069763,13.480033253860473C3.520003373069763,13.480033253860473,3.040003373069763,13.000003253860474,3.040003373069763,13.000003253860474C3.040003373069763,13.000003253860474,12.960033373069763,13.000003253860474,12.960033373069763,13.000003253860474C12.960033373069763,13.000003253860474,12.480033373069762,13.480033253860473,12.480033373069762,13.480033253860473C12.430833373069763,13.525733253860473,12.391433373069763,13.580933253860474,12.364133373069762,13.642333253860473C12.336833373069764,13.703633253860474,12.322133373069763,13.769833253860474,12.320933373069764,13.837033253860474C12.319733373069763,13.904133253860474,12.332133373069762,13.970833253860473,12.357233373069763,14.033033253860474C12.382433373069762,14.095333253860474,12.419833373069762,14.151833253860474,12.467333373069764,14.199333253860473C12.514833373069763,14.246833253860474,12.571333373069763,14.284233253860474,12.633633373069763,14.309433253860474C12.695833373069764,14.334533253860474,12.762533373069763,14.346933253860474,12.829633373069763,14.345733253860473C12.896833373069763,14.344533253860474,12.963033373069763,14.329833253860473,13.024333373069764,14.302533253860474C13.085733373069763,14.275233253860474,13.140933373069764,14.235833253860473,13.186633373069764,14.186633253860474C13.186633373069764,14.186633253860474,14.520033373069763,12.853333253860473,14.520033373069763,12.853333253860473C14.613633373069764,12.759583253860473,14.666233373069764,12.632503253860474,14.666233373069764,12.500003253860474C14.666233373069764,12.367503253860473,14.613633373069764,12.240413253860474,14.520033373069763,12.146663253860474C14.520033373069763,12.146663253860474,13.186633373069764,10.813333253860474,13.186633373069764,10.813333253860474C13.140933373069764,10.764203253860472,13.085733373069763,10.724803253860474,13.024333373069764,10.697483253860474C12.963033373069763,10.670153253860473,12.896833373069763,10.655453253860474,12.829633373069763,10.654273253860474C12.762533373069763,10.653083253860473,12.695833373069764,10.665433253860474,12.633633373069763,10.690583253860474C12.571333373069763,10.715733253860474,12.514833373069763,10.753163253860475,12.467333373069764,10.800643253860475C12.419833373069762,10.848123253860473,12.382433373069762,10.904673253860473,12.357233373069763,10.966933253860475C12.332133373069762,11.029193253860473,12.319733373069763,11.095883253860475,12.320933373069764,11.163013253860473C12.322133373069763,11.230153253860474,12.336833373069764,11.296363253860473,12.364133373069762,11.357693253860473C12.391433373069763,11.419023253860473,12.430833373069763,11.474223253860474,12.480033373069762,11.520003253860473C12.480033373069762,11.520003253860473,12.960033373069763,12.000003253860474,12.960033373069763,12.000003253860474C12.960033373069763,12.000003253860474,3.040003373069763,12.000003253860474,3.040003373069763,12.000003253860474C3.040003373069763,12.000003253860474,3.520003373069763,11.520003253860473,3.520003373069763,11.520003253860473C3.5691233730697633,11.474223253860474,3.608523373069763,11.419023253860473,3.635853373069763,11.357693253860473C3.663183373069763,11.296363253860473,3.677873373069763,11.230153253860474,3.6790633730697633,11.163013253860473C3.680243373069763,11.095883253860475,3.6678933730697634,11.029193253860473,3.642753373069763,10.966933253860475C3.617603373069763,10.904673253860473,3.5801733730697634,10.848123253860473,3.532693373069763,10.800643253860475C3.485213373069763,10.753163253860475,3.4286533730697633,10.715733253860474,3.366403373069763,10.690583253860474C3.3041433730697634,10.665433253860474,3.237453373069763,10.653083253860473,3.1703133730697632,10.654273253860474C3.103183373069763,10.655453253860474,3.0369733730697632,10.670153253860473,2.9756433730697633,10.697483253860474C2.914303373069763,10.724803253860474,2.8591033730697633,10.764203253860472,2.813333373069763,10.813333253860474C2.813333373069763,10.813333253860474,1.480000373069763,12.146663253860474,1.480000373069763,12.146663253860474C1.3863663730697633,12.240413253860474,1.3337733350697631,12.367503253860473,1.3337733350697631,12.500003253860474C1.3337733350697631,12.632503253860474,1.3863663730697633,12.759583253860473,1.480000373069763,12.853333253860473C1.480000373069763,12.853333253860473,2.813333373069763,14.186633253860474,2.813333373069763,14.186633253860474C2.9081133730697633,14.275033253860475,3.033483373069763,14.323033253860473,3.163013373069763,14.320733253860473C3.2925533730697634,14.318533253860474,3.416143373069763,14.266033253860474,3.507743373069763,14.174433253860474C3.5993533730697633,14.082833253860473,3.651833373069763,13.959233253860473,3.6541133730697632,13.829633253860473C3.656403373069763,13.700133253860473,3.608323373069763,13.574733253860474,3.520003373069763,13.480033253860473ZM1.8333333730697632,7.666663253860474C1.7007253730697631,7.666663253860474,1.5735483730697633,7.719343253860473,1.4797803730697632,7.8131132538604735C1.3860117730697632,7.906883253860474,1.3333333730697632,8.034063253860474,1.3333333730697632,8.166663253860474C1.3333333730697632,8.299273253860473,1.3860117730697632,8.426453253860473,1.4797803730697632,8.520223253860474C1.5735483730697633,8.613983253860473,1.7007253730697631,8.666663253860474,1.8333333730697632,8.666663253860474C1.8333333730697632,8.666663253860474,14.166633373069763,8.666663253860474,14.166633373069763,8.666663253860474C14.299233373069763,8.666663253860474,14.426433373069763,8.613983253860473,14.520233373069763,8.520223253860474C14.614033373069763,8.426453253860473,14.666633373069763,8.299273253860473,14.666633373069763,8.166663253860474C14.666633373069763,8.034063253860474,14.614033373069763,7.906883253860474,14.520233373069763,7.8131132538604735C14.426433373069763,7.719343253860473,14.299233373069763,7.666663253860474,14.166633373069763,7.666663253860474C14.166633373069763,7.666663253860474,1.8333333730697632,7.666663253860474,1.8333333730697632,7.666663253860474Z" fill="#000000" fill-opacity="1"/></g></g></svg>