<svg width="20" height="20" viewBox="0 0 20 20" fill="none" xmlns="http://www.w3.org/2000/svg">
<path d="M2.5 5.83333V4.16667C2.5 3.25 3.25 2.5 4.16667 2.5H5.83333M14.1667 2.5H15.8333C16.75 2.5 17.5 3.25 17.5 4.16667V5.83333M17.5 14.1667V15.8333C17.5 16.75 16.75 17.5 15.8333 17.5H14.1667M5.83333 17.5H4.16667C3.25 17.5 2.5 16.75 2.5 15.8333V14.1667" stroke="#6B6B6B" stroke-width="1.5" stroke-linecap="round" stroke-linejoin="round"/>
<path d="M10.8335 5.83333H6.66683C6.20659 5.83333 5.8335 6.20642 5.8335 6.66666V9.16666C5.8335 9.6269 6.20659 9.99999 6.66683 9.99999H10.8335C11.2937 9.99999 11.6668 9.6269 11.6668 9.16666V6.66666C11.6668 6.20642 11.2937 5.83333 10.8335 5.83333Z" stroke="#6B6B6B" stroke-width="1.5" stroke-linecap="round" stroke-linejoin="round"/>
<path d="M13.3335 10H9.16683C8.70659 10 8.3335 10.3731 8.3335 10.8333V13.3333C8.3335 13.7936 8.70659 14.1667 9.16683 14.1667H13.3335C13.7937 14.1667 14.1668 13.7936 14.1668 13.3333V10.8333C14.1668 10.3731 13.7937 10 13.3335 10Z" stroke="#6B6B6B" stroke-width="1.5" stroke-linecap="round" stroke-linejoin="round"/>
</svg>
