<svg xmlns="http://www.w3.org/2000/svg" xmlns:xlink="http://www.w3.org/1999/xlink" fill="none" version="1.1" width="16" height="16" viewBox="0 0 16 16"><defs><clipPath id="master_svg0_0_16840"><rect x="0" y="0" width="16" height="16" rx="0"/></clipPath></defs><g clip-path="url(#master_svg0_0_16840)"><g><path d="M8.63281,6.60938Q9.225010000000001,6.60938,9.64375,6.1906300000000005Q10.0625,5.7718799999999995,10.0625,5.17969Q10.0625,4.58749,9.64375,4.16875Q9.225010000000001,3.75,8.63281,3.75L5.75,3.75L5.75,6.60938L8.63281,6.60938ZM5.75,8.10938L5.75,11.55L8.92344,11.55Q9.636009999999999,11.55,10.13988,11.04613Q10.64375,10.542259999999999,10.64375,9.82969Q10.64375,9.11711,10.13988,8.613240000000001Q9.636009999999999,8.10938,8.92344,8.10938L5.75,8.10938ZM10.768989999999999,7.18492Q10.994119999999999,7.34616,11.20054,7.55258Q12.14375,8.49579,12.14375,9.82969Q12.14375,11.16358,11.20054,12.10679Q10.25733,13.05,8.92344,13.05L5,13.05Q4.9261315,13.05,4.853682,13.0356Q4.781233,13.0212,4.712987,12.99291Q4.644742,12.96464,4.583322,12.9236Q4.521903,12.88256,4.46967,12.83033Q4.417437,12.7781,4.376398,12.71668Q4.335359,12.65526,4.30709,12.58701Q4.278822,12.51877,4.264411,12.44632Q4.25,12.37387,4.25,12.3L4.25,3Q4.25,2.9261315,4.264411,2.853682Q4.278822,2.781233,4.30709,2.712987Q4.335359,2.644742,4.376398,2.583322Q4.417437,2.521903,4.46967,2.46967Q4.521903,2.417437,4.583322,2.376398Q4.644742,2.335359,4.712987,2.30709Q4.781233,2.278822,4.853682,2.264411Q4.9261315,2.25,5,2.25L8.63281,2.25Q9.84633,2.25,10.70441,3.108085Q11.5625,3.966171,11.5625,5.17969Q11.5625,6.34665,10.768989999999999,7.18492Z" fill-rule="evenodd" fill="#000000" fill-opacity="1"/></g></g></svg>