<svg xmlns="http://www.w3.org/2000/svg" xmlns:xlink="http://www.w3.org/1999/xlink" fill="none" version="1.1" width="16" height="16" viewBox="0 0 16 16"><defs><clipPath id="master_svg0_0_16832"><rect x="0" y="0" width="16" height="16" rx="0"/></clipPath></defs><g clip-path="url(#master_svg0_0_16832)"><g><path d="M7.333336984558105,2.8333332538604736L11.333336984558105,2.8333332538604736Q11.382576984558106,2.8333332538604736,11.430876984558106,2.8429402538604736Q11.479176984558105,2.8525482538604736,11.524676984558106,2.8713932538604734Q11.570166984558107,2.8902392538604738,11.611116984558105,2.9175982538604734Q11.652066984558106,2.9449582538604737,11.686886984558106,2.979780253860474Q11.721706984558105,3.0146022538604735,11.749066984558105,3.0555482538604735Q11.776426984558105,3.096494253860474,11.795266984558104,3.1419912538604735Q11.814116984558105,3.1874882538604736,11.823726984558107,3.2357881538604736Q11.833336984558105,3.2840875538604735,11.833336984558105,3.3333332538604736Q11.833336984558105,3.382578953860474,11.823726984558107,3.4308783538604737Q11.814116984558105,3.4791782538604736,11.795266984558104,3.5246752538604738Q11.776426984558105,3.5701722538604734,11.749066984558105,3.611118253860474Q11.721706984558105,3.6520642538604737,11.686886984558106,3.6868862538604734Q11.652066984558106,3.7217082538604735,11.611116984558105,3.749068253860474Q11.570166984558107,3.7764272538604735,11.524676984558106,3.795273253860474Q11.479176984558105,3.8141182538604737,11.430876984558106,3.8237262538604737Q11.382576984558106,3.8333332538604736,11.333336984558105,3.8333332538604736L9.710486984558106,3.8333332538604736L7.329536984558105,12.166663253860474L8.666666984558105,12.166663253860474Q8.715916984558106,12.166663253860474,8.764216984558105,12.176273253860474Q8.812506984558105,12.185883253860474,8.858006984558106,12.204723253860474Q8.903506984558106,12.223573253860474,8.944446984558105,12.250933253860474Q8.985396984558106,12.278293253860474,9.020216984558106,12.313113253860474Q9.055036984558106,12.347933253860473,9.082396984558105,12.388883253860474Q9.109756984558105,12.429823253860473,9.128606984558106,12.475323253860473Q9.147446984558105,12.520823253860474,9.157056984558105,12.569123253860473Q9.166666984558105,12.617423253860474,9.166666984558105,12.666663253860474Q9.166666984558105,12.715913253860474,9.157056984558105,12.764213253860474Q9.147446984558105,12.812513253860473,9.128606984558106,12.858013253860474Q9.109756984558105,12.903503253860473,9.082396984558105,12.944453253860473Q9.055036984558106,12.985403253860474,9.020216984558106,13.020223253860474Q8.985396984558106,13.055043253860473,8.944446984558105,13.082403253860473Q8.903506984558106,13.109763253860473,8.858006984558106,13.128603253860474Q8.812506984558105,13.147453253860474,8.764216984558105,13.157053253860473Q8.715916984558106,13.166663253860474,8.666666984558105,13.166663253860474L4.6666669845581055,13.166663253860474Q4.617421284558105,13.166663253860474,4.569121884558106,13.157053253860473Q4.520821984558106,13.147453253860474,4.475324984558106,13.128603253860474Q4.429827984558106,13.109763253860473,4.388881984558106,13.082403253860473Q4.347935984558106,13.055043253860473,4.313113984558106,13.020223253860474Q4.2782919845581056,12.985403253860474,4.250931984558106,12.944453253860473Q4.223572984558105,12.903503253860473,4.204726984558105,12.858013253860474Q4.1858819845581055,12.812513253860473,4.176273984558105,12.764213253860474Q4.1666669845581055,12.715913253860474,4.1666669845581055,12.666663253860474Q4.1666669845581055,12.617423253860474,4.176273984558105,12.569123253860473Q4.1858819845581055,12.520823253860474,4.204726984558105,12.475323253860473Q4.223572984558105,12.429823253860473,4.250931984558106,12.388883253860474Q4.2782919845581056,12.347933253860473,4.313113984558106,12.313113253860474Q4.347935984558106,12.278293253860474,4.388881984558106,12.250933253860474Q4.429827984558106,12.223573253860474,4.475324984558106,12.204723253860474Q4.520821984558106,12.185883253860474,4.569121884558106,12.176273253860474Q4.617421284558105,12.166663253860474,4.6666669845581055,12.166663253860474L6.289516984558105,12.166663253860474L8.670466984558105,3.8333332538604736L7.333336984558105,3.8333332538604736Q7.2840869845581055,3.8333332538604736,7.235786984558105,3.8237262538604737Q7.187486984558106,3.8141182538604737,7.141986984558105,3.795273253860474Q7.096496984558105,3.7764272538604735,7.055546984558106,3.749068253860474Q7.014596984558105,3.7217082538604735,6.9797769845581055,3.6868862538604734Q6.944956984558106,3.6520642538604737,6.917596984558106,3.611118253860474Q6.890236984558106,3.5701722538604734,6.871396984558105,3.5246752538604738Q6.8525469845581055,3.4791782538604736,6.842936984558106,3.4308783538604737Q6.833336984558105,3.382578953860474,6.833336984558105,3.3333332538604736Q6.833336984558105,3.2840875538604735,6.842936984558106,3.2357881538604736Q6.8525469845581055,3.1874882538604736,6.871396984558105,3.1419912538604735Q6.890236984558106,3.096494253860474,6.917596984558106,3.0555482538604735Q6.944956984558106,3.0146022538604735,6.9797769845581055,2.979780253860474Q7.014596984558105,2.9449582538604737,7.055546984558106,2.9175982538604734Q7.096496984558105,2.8902392538604738,7.141986984558105,2.8713932538604734Q7.187486984558106,2.8525482538604736,7.235786984558105,2.8429402538604736Q7.2840869845581055,2.8333332538604736,7.333336984558105,2.8333332538604736Z" fill-rule="evenodd" fill="#000000" fill-opacity="1"/></g></g></svg>