<svg xmlns="http://www.w3.org/2000/svg" xmlns:xlink="http://www.w3.org/1999/xlink" fill="none" version="1.1" width="16" height="16" viewBox="0 0 16 16"><defs><clipPath id="master_svg0_0_16838"><rect x="0" y="0" width="16" height="16" rx="0"/></clipPath></defs><g clip-path="url(#master_svg0_0_16838)"><g><path d="M7.75,8.25L3,8.25Q2.9507543,8.25,2.9024549,8.24039Q2.854155,8.23078,2.808658,8.21194Q2.763161,8.19309,2.722215,8.16573Q2.681269,8.13837,2.646447,8.10355Q2.611625,8.06873,2.584265,8.02778Q2.556906,7.98684,2.5380599999999998,7.94134Q2.519215,7.89584,2.509607,7.84755Q2.5,7.79925,2.5,7.75Q2.5,7.70075,2.509607,7.65245Q2.519215,7.60416,2.5380599999999998,7.55866Q2.556906,7.51316,2.584265,7.47221Q2.611625,7.43127,2.646447,7.39645Q2.681269,7.36162,2.722215,7.33426Q2.763161,7.30691,2.808658,7.28806Q2.854155,7.26921,2.9024549,7.25961Q2.9507543,7.25,3,7.25L5.11476,7.25Q4.7319700000000005,6.9566099999999995,4.46606,6.5170200000000005Q3.962204,5.684060000000001,4.1181,4.72312Q4.2739899999999995,3.76218,5.01534,3.131227Q5.75669,2.500274,6.73019,2.5L10.01206,2.5Q10.0613,2.5,10.1096,2.509607Q10.1579,2.519215,10.2034,2.5380599999999998Q10.24889,2.556906,10.28984,2.584265Q10.33079,2.611625,10.36561,2.646447Q10.40043,2.681269,10.42779,2.722215Q10.45515,2.763161,10.47399,2.808658Q10.492840000000001,2.854155,10.50245,2.9024549Q10.51205,2.9507543,10.51206,3Q10.51205,3.0492457,10.50245,3.0975451Q10.492840000000001,3.145845,10.47399,3.191342Q10.45515,3.236839,10.42779,3.277785Q10.40043,3.318731,10.36561,3.353553Q10.33079,3.388375,10.28984,3.415735Q10.24889,3.443094,10.2034,3.4619400000000002Q10.1579,3.480785,10.1096,3.490393Q10.0613,3.5,10.01206,3.5L6.73047,3.5Q6.124750000000001,3.50017,5.66347,3.892758Q5.20219,4.28535,5.10519,4.88325Q5.00819,5.48116,5.3217,5.99944Q5.63521,6.51773,6.20977,6.70937L7.83116,7.25L12.5,7.25Q12.54924,7.25,12.59754,7.25961Q12.64584,7.26921,12.69134,7.28806Q12.73684,7.30691,12.77778,7.33426Q12.81873,7.36162,12.85355,7.39645Q12.88837,7.43127,12.91573,7.47221Q12.94309,7.51316,12.96194,7.55866Q12.98078,7.60416,12.99039,7.65245Q13,7.70075,13,7.75Q13,7.79925,12.99039,7.84755Q12.98078,7.89584,12.96194,7.94134Q12.94309,7.98684,12.91573,8.02778Q12.88837,8.06873,12.85355,8.10355Q12.81873,8.13837,12.77778,8.16573Q12.73684,8.19309,12.69134,8.21194Q12.64584,8.23078,12.59754,8.24039Q12.54924,8.25,12.5,8.25L7.75,8.25ZM11.10003,9.09756Q11.43112,9.71205,11.41608,10.41002Q11.40102,11.10895,11.04282,11.70929Q10.68461,12.30964,10.07668,12.65483Q9.46876,13,8.76966,13L4.58333,13Q4.53409,13,4.48579,12.99039Q4.43749,12.98078,4.39199,12.96194Q4.34649,12.94309,4.30555,12.91573Q4.2646,12.88837,4.22978,12.85355Q4.19496,12.81873,4.1676,12.77778Q4.14024,12.73684,4.12139,12.69134Q4.10255,12.64584,4.0929400000000005,12.59754Q4.08333,12.54924,4.08333,12.5Q4.08333,12.45075,4.0929400000000005,12.40245Q4.10255,12.35415,4.12139,12.30866Q4.14024,12.26316,4.1676,12.22221Q4.19496,12.18127,4.22978,12.14645Q4.2646,12.11162,4.30555,12.08426Q4.34649,12.0569,4.39199,12.03806Q4.43749,12.01921,4.48579,12.00961Q4.53409,12,4.58333,12L8.76967,12Q9.20466,12.00001,9.58292,11.78523Q9.961179999999999,11.57045,10.184059999999999,11.1969Q10.406939999999999,10.823360000000001,10.41631,10.388480000000001Q10.42568,9.95392,10.21941,9.57137L10.219100000000001,9.57081L10.219100000000001,9.5708L11.09912,9.09587L11.09928,9.09617L11.10003,9.09756Z" fill-rule="evenodd" fill="#000000" fill-opacity="1"/></g></g></svg>