<svg xmlns="http://www.w3.org/2000/svg" xmlns:xlink="http://www.w3.org/1999/xlink" fill="none" version="1.1" width="16" height="16" viewBox="0 0 16 16"><defs><clipPath id="master_svg0_0_16836"><rect x="0" y="0" width="16" height="16" rx="0"/></clipPath></defs><g clip-path="url(#master_svg0_0_16836)"><g><path d="M4.833333,3.3333332538604736Q4.833333,3.2840875538604735,4.842941,3.2357881538604736Q4.852548,3.1874882538604736,4.8713940000000004,3.1419912538604735Q4.890239,3.096494253860474,4.917598,3.0555482538604735Q4.944958,3.0146022538604735,4.97978,2.979780253860474Q5.0146,2.9449582538604737,5.05555,2.9175982538604734Q5.09649,2.8902392538604738,5.14199,2.8713932538604734Q5.18749,2.8525482538604736,5.23579,2.8429402538604736Q5.28409,2.8333332538604736,5.33333,2.8333332538604736Q5.38258,2.8333332538604736,5.43088,2.8429402538604736Q5.4791799999999995,2.8525482538604736,5.52468,2.8713932538604734Q5.57017,2.8902392538604738,5.61112,2.9175982538604734Q5.6520600000000005,2.9449582538604737,5.68689,2.979780253860474Q5.72171,3.0146022538604735,5.74907,3.0555482538604735Q5.7764299999999995,3.096494253860474,5.79527,3.1419912538604735Q5.81412,3.1874882538604736,5.82373,3.2357881538604736Q5.83333,3.2840875538604735,5.83333,3.3333332538604736L5.83333,7.333333253860474Q5.83333,8.230793253860472,6.4679400000000005,8.865393253860475Q7.102539999999999,9.500003253860474,8,9.500003253860474Q8.897459999999999,9.500003253860474,9.532060000000001,8.865393253860475Q10.16667,8.230793253860472,10.16667,7.333333253860474L10.16667,3.3333332538604736Q10.16667,3.2840875538604735,10.176269999999999,3.2357881538604736Q10.185880000000001,3.1874882538604736,10.20473,3.1419912538604735Q10.223569999999999,3.096494253860474,10.25093,3.0555482538604735Q10.27829,3.0146022538604735,10.31311,2.979780253860474Q10.347940000000001,2.9449582538604737,10.38888,2.9175982538604734Q10.429829999999999,2.8902392538604738,10.47532,2.8713932538604734Q10.52082,2.8525482538604736,10.56912,2.8429402538604736Q10.61742,2.8333332538604736,10.66667,2.8333332538604736Q10.715910000000001,2.8333332538604736,10.76421,2.8429402538604736Q10.81251,2.8525482538604736,10.85801,2.8713932538604734Q10.903500000000001,2.8902392538604738,10.94445,2.9175982538604734Q10.9854,2.9449582538604737,11.02022,2.979780253860474Q11.05504,3.0146022538604735,11.0824,3.0555482538604735Q11.10976,3.096494253860474,11.12861,3.1419912538604735Q11.14745,3.1874882538604736,11.157060000000001,3.2357881538604736Q11.16667,3.2840875538604735,11.16667,3.3333332538604736L11.16667,7.333333253860474Q11.16667,8.645013253860473,10.23917,9.572503253860473Q9.311679999999999,10.500003253860474,8,10.500003253860474Q6.68832,10.500003253860474,5.76083,9.572503253860473Q4.833333,8.645013253860473,4.833333,7.333333253860474L4.833333,3.3333332538604736ZM11,14.000333253860473Q11.79405,14.000333253860473,12.4307,12.920633253860474Q12.5,12.803103253860474,12.5,12.666663253860474Q12.5,12.617423253860474,12.49039,12.569123253860473Q12.48078,12.520823253860474,12.46194,12.475323253860473Q12.44309,12.429823253860473,12.41573,12.388883253860474Q12.38837,12.347933253860473,12.35355,12.313113253860474Q12.31873,12.278293253860474,12.27778,12.250933253860474Q12.23684,12.223573253860474,12.19134,12.204723253860474Q12.14584,12.185883253860474,12.09754,12.176273253860474Q12.04924,12.166663253860474,12,12.166663253860474Q11.93476,12.166663253860474,11.8717,12.183403253860474Q11.80864,12.200143253860473,11.75199,12.232513253860473Q11.69534,12.264873253860474,11.64889,12.310683253860473Q11.60244,12.356503253860474,11.5693,12.412703253860474L11.569289999999999,12.412723253860474L11.56888,12.413413253860474Q11.22267,13.000323253860474,11,13.000323253860474Q10.777190000000001,13.000323253860474,10.4307,12.412703253860474Q10.416599999999999,12.388783253860474,10.399930000000001,12.366573253860473Q9.749929999999999,11.500323253860474,9,11.500323253860474Q8.250070000000001,11.500323253860474,7.6000700000000005,12.366573253860473Q7.5834,12.388783253860474,7.5693,12.412703253860474Q7.22281,13.000323253860474,7,13.000323253860474Q6.777229999999999,13.000323253860474,6.4307,12.412703253860474L6.43069,12.412683253860473Q6.41291,12.382533253860474,6.391109999999999,12.355163253860473Q5.71026,11.500323253860474,5,11.500323253860474Q4.289753,11.500323253860474,3.608913,12.355133253860474L3.608893,12.355163253860473Q3.5,12.491873253860474,3.5,12.666663253860474Q3.5,12.715913253860474,3.509607,12.764213253860474Q3.519215,12.812513253860473,3.5380599999999998,12.858003253860474Q3.556906,12.903503253860473,3.584265,12.944453253860473Q3.611625,12.985393253860474,3.646447,13.020213253860474Q3.681269,13.055043253860473,3.722215,13.082403253860473Q3.763161,13.109753253860474,3.808658,13.128603253860474Q3.854155,13.147453253860474,3.9024549,13.157053253860473Q3.9507543,13.166663253860474,4,13.166663253860474Q4.114199,13.166663253860474,4.217074,13.117083253860473Q4.31995,13.067503253860474,4.391099,12.978183253860474L4.391209,12.978043253860474L4.392214,12.976783253860473Q4.772028,12.500323253860474,5,12.500323253860474Q5.22208,12.500323253860474,5.58825,12.952463253860474Q6.2178,14.000333253860473,7,14.000333253860473Q7.784660000000001,14.000333253860473,8.415610000000001,12.946023253860474Q8.75555,12.500323253860474,9,12.500323253860474Q9.24445,12.500323253860474,9.584389999999999,12.946023253860474Q10.215340000000001,14.000333253860473,11,14.000333253860473Z" fill-rule="evenodd" fill="#000000" fill-opacity="1"/></g></g></svg>