<svg width="52" height="5" viewBox="0 0 52 5" fill="none" xmlns="http://www.w3.org/2000/svg">
<path d="M51 3.94301C51 3.94301 50.442 1.49706 49.69 1.06623C48.6264 0.456955 48.3871 4.26007 47.2882 3.94301C46.3923 3.68452 46.4374 1.32473 45.5415 1.06623C44.4426 0.749176 44.2466 4.14008 43.1398 3.94301C42.1719 3.77068 42.1457 1.15827 41.1747 1.06623C40.1352 0.967699 40.0163 4.28347 38.9913 3.94301C38.16 3.6669 38.2792 1.47057 37.4629 1.06623C36.3173 0.498803 35.9884 4.51044 34.8428 3.94301C34.0265 3.53867 34.1384 1.41089 33.3144 1.06623C32.2292 0.612289 32.0116 4.26007 30.9127 3.94301C30.0168 3.68452 30.0559 1.3897 29.166 1.06623C28.0029 0.64349 27.6915 4.51044 26.5459 3.94301C25.7296 3.53867 25.8415 1.41089 25.0175 1.06623C23.9322 0.612289 23.7011 4.39695 22.6158 3.94301C21.7918 3.59835 21.9037 1.47057 21.0874 1.06623C19.9418 0.498803 19.6129 4.51044 18.4673 3.94301C17.651 3.53867 17.7629 1.41089 16.9389 1.06623C15.8537 0.612289 15.644 4.14008 14.5372 3.94301C13.5693 3.77068 13.54 1.23856 12.5721 1.06623C11.4653 0.869166 11.0438 3.94301 10.1704 3.94301C9.29703 3.94301 9.07869 1.06632 8.20533 1.06623C7.33197 1.06615 7.35094 4.03505 6.24027 3.94301C5.20046 3.85685 5.30894 1.2945 4.27521 1.06623C3.02483 0.790122 3.1834 3.94301 2.52838 3.943C1.87336 3.94299 1.43668 1.06623 1 1.06623" stroke="black"/>
</svg>
