<svg width="52" height="7" viewBox="0 0 52 7" fill="none" xmlns="http://www.w3.org/2000/svg">
<path d="M1 4.41294C1 4.41294 2.84339 6.21742 4.05677 5.90941C5.27014 5.6014 5.69612 3.44085 6.8952 2.91648C8.15419 2.3659 8.88953 3.29546 10.1703 3.4153C12.215 3.60662 13.3647 6.02798 15.4105 5.90941C17.2025 5.80554 18.203 2.91648 19.9956 2.91648C21.7883 2.91648 21.5061 0.698764 23.2707 1.42002C24.7581 2.02793 26.7901 6.27364 28.2926 5.90941C29.8491 5.53207 30.2653 2.26709 31.786 1.42002C33.7897 0.303964 35.0431 1.62317 37.0262 2.91648C38.3508 3.78034 38.9364 5.48419 40.3013 5.90941C42.3914 6.56054 43.4481 3.50839 45.5415 2.91648C47.657 2.31831 51 2.91648 51 2.91648" stroke="black"/>
</svg>
