<svg width="20" height="20" viewBox="0 0 20 20" fill="none" xmlns="http://www.w3.org/2000/svg">
<path d="M6.6665 8.33333V5.83333C6.6665 4.94928 7.01769 4.10143 7.64281 3.47631C8.26794 2.85119 9.11578 2.5 9.99984 2.5C10.8839 2.5 11.7317 2.85119 12.3569 3.47631C12.982 4.10143 13.3332 4.94928 13.3332 5.83333V8.33333" stroke="#6B6B6B" stroke-width="1.5" stroke-linecap="round"/>
<path d="M4.1665 8.33334H15.8332V15.8333C15.8332 16.2754 15.6576 16.6993 15.345 17.0119C15.0325 17.3244 14.6085 17.5 14.1665 17.5H5.83317C5.39114 17.5 4.96722 17.3244 4.65466 17.0119C4.3421 16.6993 4.1665 16.2754 4.1665 15.8333V8.33334Z" stroke="#6B6B6B" stroke-width="1.5" stroke-linejoin="round"/>
<path d="M12.083 12.9167H12.0913V12.925H12.083V12.9167Z" stroke="#6B6B6B" stroke-width="2.25" stroke-linejoin="round"/>
</svg>
