<svg width="20" height="20" viewBox="0 0 20 20" fill="none" xmlns="http://www.w3.org/2000/svg">
<path d="M4.149 5.26251C2.494 5.92418 1.6665 6.25501 1.6665 6.66668C1.6665 7.07834 2.494 7.40834 4.149 8.07084L6.489 9.00751C8.144 9.66918 8.97234 10 9.99984 10C11.0273 10 11.8557 9.66918 13.5107 9.00751L15.8507 8.07084C17.5057 7.40918 18.3332 7.07834 18.3332 6.66668C18.3332 6.25501 17.5057 5.92501 15.8507 5.26251L13.5107 4.32668C11.8557 3.66418 11.0273 3.33334 9.99984 3.33334C9.20484 3.33334 8.52984 3.53084 7.49984 3.92668" stroke="#6B6B6B" stroke-width="1.5" stroke-linecap="round"/>
<path d="M4.80484 8.33334L4.149 8.59584C2.494 9.25751 1.6665 9.58918 1.6665 10C1.6665 10.4108 2.494 10.7417 4.149 11.4042L6.489 12.3408C8.144 13.0025 8.97234 13.3333 9.99984 13.3333C11.0273 13.3333 11.8557 13.0025 13.5107 12.3408L15.8507 11.4042C17.5057 10.7425 18.3332 10.4108 18.3332 10C18.3332 9.58918 17.5057 9.25834 15.8507 8.59584L15.1948 8.33334" stroke="#6B6B6B" stroke-width="1.5"/>
<path d="M15.8507 14.7375C17.5057 14.0758 18.3332 13.745 18.3332 13.3333C18.3332 12.9225 17.5057 12.5917 15.8507 11.9292L15.1948 11.6667M4.80484 11.6667L4.149 11.9292C2.494 12.5908 1.6665 12.9225 1.6665 13.3333C1.6665 13.7442 2.494 14.075 4.149 14.7375L6.489 15.6742C8.144 16.3358 8.97234 16.6667 9.99984 16.6667C10.7948 16.6667 11.4698 16.4692 12.4998 16.0733" stroke="#6B6B6B" stroke-width="1.5" stroke-linecap="round"/>
</svg>
