<svg xmlns="http://www.w3.org/2000/svg" xmlns:xlink="http://www.w3.org/1999/xlink" fill="none" version="1.1" width="16.5" height="18.16650390625" viewBox="0 0 16.5 18.16650390625"><g><g><path d="M4.08349609375,3.973643103449831e-8L12.00016609375,3.973643103449831e-8Q12.14934609375,3.973643103449831e-8,12.28717609375,0.05709003973643101Q12.42500609375,0.11418103973643101,12.53049609375,0.21967003973643107L16.28049609375,3.969670039736431Q16.385996093750002,4.075160039736431,16.44309609375,4.212990039736431Q16.50019609375,4.350820039736432,16.50019609375,4.500000039736431L16.50019609375,14.916700039736432Q16.50019609375,14.990500039736432,16.48579609375,15.063000039736432Q16.47129609375,15.135400039736432,16.44309609375,15.20370003973643Q16.41479609375,15.271900039736432,16.373796093750002,15.33330003973643Q16.332696093750002,15.394800039736431,16.28049609375,15.44700003973643Q16.22829609375,15.499200039736431,16.16679609375,15.540300039736431Q16.105396093750002,15.581300039736432,16.037196093749998,15.609600039736431Q15.96889609375,15.637800039736431,15.89649609375,15.652300039736431Q15.82399609375,15.666700039736432,15.75019609375,15.666700039736432Q15.67629609375,15.666700039736432,15.60379609375,15.652300039736431Q15.53139609375,15.637800039736431,15.46319609375,15.609600039736431Q15.39489609375,15.581300039736432,15.33349609375,15.540300039736431Q15.27209609375,15.499200039736431,15.21979609375,15.44700003973643Q15.16759609375,15.394800039736431,15.12659609375,15.33330003973643Q15.08549609375,15.271900039736432,15.05729609375,15.20370003973643Q15.02899609375,15.135400039736432,15.01459609375,15.063000039736432Q15.00019609375,14.990500039736432,15.00019609375,14.916700039736432L15.00019609375,4.810660039736431L11.689506093750001,1.500000039736431L4.08349609375,1.500000039736431Q4.00962759375,1.500000039736431,3.93717809375,1.485589039736431Q3.86472909375,1.4711780397364311,3.79648309375,1.442910039736431Q3.72823809375,1.414641039736431,3.66681809375,1.373602039736431Q3.60539909375,1.332563039736431,3.55316609375,1.280330039736431Q3.50093309375,1.228097039736431,3.45989409375,1.1666780397364311Q3.41885509375,1.105258039736431,3.39058609375,1.037013039736431Q3.36231809375,0.968767039736431,3.34790709375,0.896318039736431Q3.33349609375,0.823868539736431,3.33349609375,0.750000039736431Q3.33349609375,0.676131539736431,3.34790709375,0.6036820397364311Q3.36231809375,0.5312330397364311,3.39058609375,0.462987039736431Q3.41885509375,0.394742039736431,3.45989409375,0.33332203973643104Q3.50093309375,0.27190303973643104,3.55316609375,0.21967003973643107Q3.60539909375,0.16743703973643098,3.66681809375,0.12639803973643104Q3.72823809375,0.085359039736431,3.79648309375,0.05709003973643101Q3.86472909375,0.02882203973643105,3.93717809375,0.014411039736430986Q4.00962759375,3.973643103449831e-8,4.08349609375,3.973643103449831e-8Z" fill-rule="evenodd" fill="#6B6B6B" fill-opacity="1"/></g><g><path d="M0,16.1667Q0,16.9951,0.585785,17.5809Q1.171571,18.1667,2,18.1667L12,18.1667Q12.8284,18.1667,13.4142,17.5809Q14,16.9951,14,16.1667L14,6.37683Q14.0006,6.127190000000001,13.9053,5.89647Q13.81,5.66575,13.6337,5.48967L11.0107,2.866667Q10.64491,2.500456,10.12667,2.5L2,2.5Q1.171573,2.5,0.5857870000000001,3.085786Q0,3.671573,0,4.5L0,16.1667ZM2,16.6667Q1.79289,16.6667,1.646447,16.520200000000003Q1.5,16.3738,1.5,16.1667L1.5,4.5Q1.5,4.29289,1.646446,4.146447Q1.79289,4,2,4L10.02267,4L12.5,6.47733L12.5,16.1667Q12.5,16.3738,12.3536,16.520200000000003Q12.2071,16.6667,12,16.6667L2,16.6667Z" fill-rule="evenodd" fill="#6B6B6B" fill-opacity="1"/></g><g><path d="M9.16650390625,3.25Q9.16650390625,3.1761315,9.180914906249999,3.103682Q9.19532590625,3.031233,9.22359390625,2.962987Q9.25186290625,2.894742,9.29290190625,2.833322Q9.33394090625,2.771903,9.38617390625,2.71967Q9.43840690625,2.667437,9.49982590625,2.626398Q9.56124590625,2.585359,9.62949090625,2.55709Q9.69773690625,2.528822,9.77018590625,2.514411Q9.84263540625,2.5,9.91650390625,2.5Q9.99037240625,2.5,10.06282190625,2.514411Q10.13527090625,2.528822,10.20351690625,2.55709Q10.27176190625,2.585359,10.33318190625,2.626398Q10.39460090625,2.667437,10.44683390625,2.71967Q10.49906690625,2.771903,10.54010590625,2.833322Q10.58114490625,2.894742,10.60941390625,2.962987Q10.63768190625,3.031233,10.652092906250001,3.103682Q10.66650390625,3.1761315,10.66650390625,3.25L10.66650390625,5.83333L13.24983390625,5.83333Q13.32370390625,5.83333,13.39615390625,5.84774Q13.46860390625,5.862159999999999,13.53685390625,5.890420000000001Q13.60509390625,5.91869,13.66651390625,5.95973Q13.72793390625,6.00077,13.78016390625,6.053Q13.83240390625,6.10524,13.87343390625,6.16666Q13.91447390625,6.228070000000001,13.94274390625,6.29632Q13.97101390625,6.3645700000000005,13.98542390625,6.43701Q13.99983390625,6.50946,13.99983390625,6.58333Q13.99983390625,6.6572,13.98542390625,6.7296499999999995Q13.97101390625,6.802099999999999,13.94274390625,6.87035Q13.91447390625,6.93859,13.87343390625,7.00001Q13.83240390625,7.06143,13.78016390625,7.113659999999999Q13.72793390625,7.165900000000001,13.66651390625,7.20693Q13.60509390625,7.2479700000000005,13.53685390625,7.27624Q13.46860390625,7.30451,13.39615390625,7.31892Q13.32370390625,7.33333,13.24983390625,7.33333L10.41650390625,7.33333Q9.89873740625,7.33333,9.53262190625,6.96722Q9.16650390625,6.601100000000001,9.16650390625,6.08333L9.16650390625,3.25Z" fill-rule="evenodd" fill="#6B6B6B" fill-opacity="1"/></g></g></svg>