<svg xmlns="http://www.w3.org/2000/svg" xmlns:xlink="http://www.w3.org/1999/xlink" fill="none" version="1.1" width="16.5" height="18.16668701171875" viewBox="0 0 16.5 18.16668701171875"><g><g><path d="M4.083333253860474,3.973643103449831e-8L12.000003253860474,3.973643103449831e-8Q12.149183253860473,3.973643103449831e-8,12.287013253860474,0.05709003973643101Q12.424843253860473,0.11418103973643101,12.530333253860473,0.21967003973643107L16.280333253860473,3.969670039736431Q16.385833253860476,4.075160039736431,16.442933253860474,4.212990039736431Q16.500033253860472,4.350820039736432,16.500033253860472,4.500000039736431L16.500033253860472,14.916700039736432Q16.500033253860472,14.990500039736432,16.485633253860474,15.063000039736432Q16.471133253860472,15.135400039736432,16.442933253860474,15.20370003973643Q16.414633253860472,15.271900039736432,16.373633253860476,15.33330003973643Q16.332533253860475,15.394800039736431,16.280333253860473,15.44700003973643Q16.228133253860474,15.499200039736431,16.166633253860475,15.540300039736431Q16.105233253860476,15.581300039736432,16.03703325386047,15.609600039736431Q15.968733253860474,15.637800039736431,15.896333253860474,15.652300039736431Q15.823833253860474,15.666700039736432,15.750033253860474,15.666700039736432Q15.676133253860474,15.666700039736432,15.603633253860474,15.652300039736431Q15.531233253860474,15.637800039736431,15.463033253860473,15.609600039736431Q15.394733253860474,15.581300039736432,15.333333253860474,15.540300039736431Q15.271933253860473,15.499200039736431,15.219633253860474,15.44700003973643Q15.167433253860473,15.394800039736431,15.126433253860474,15.33330003973643Q15.085333253860474,15.271900039736432,15.057133253860474,15.20370003973643Q15.028833253860473,15.135400039736432,15.014433253860474,15.063000039736432Q15.000033253860474,14.990500039736432,15.000033253860474,14.916700039736432L15.000033253860474,4.810660039736431L11.689343253860475,1.500000039736431L4.083333253860474,1.500000039736431Q4.009464753860474,1.500000039736431,3.9370152538604737,1.485589039736431Q3.8645662538604735,1.4711780397364311,3.7963202538604737,1.442910039736431Q3.7280752538604736,1.414641039736431,3.6666552538604735,1.373602039736431Q3.6052362538604736,1.332563039736431,3.5530032538604734,1.280330039736431Q3.5007702538604737,1.228097039736431,3.4597312538604736,1.1666780397364311Q3.4186922538604736,1.105258039736431,3.3904232538604737,1.037013039736431Q3.3621552538604735,0.968767039736431,3.3477442538604736,0.896318039736431Q3.3333332538604736,0.823868539736431,3.3333332538604736,0.750000039736431Q3.3333332538604736,0.676131539736431,3.3477442538604736,0.6036820397364311Q3.3621552538604735,0.5312330397364311,3.3904232538604737,0.462987039736431Q3.4186922538604736,0.394742039736431,3.4597312538604736,0.33332203973643104Q3.5007702538604737,0.27190303973643104,3.5530032538604734,0.21967003973643107Q3.6052362538604736,0.16743703973643098,3.6666552538604735,0.12639803973643104Q3.7280752538604736,0.085359039736431,3.7963202538604737,0.05709003973643101Q3.8645662538604735,0.02882203973643105,3.9370152538604737,0.014411039736430986Q4.009464753860474,3.973643103449831e-8,4.083333253860474,3.973643103449831e-8Z" fill-rule="evenodd" fill="#1CA6C5" fill-opacity="1"/></g><g><path d="M0.75,16.1667C0.75,16.1667,0.75,4.5,0.75,4.5C0.75,4.168479,0.881696,3.850537,1.116117,3.616116C1.350537,3.381696,1.668479,3.250000000000001,2,3.25C2,3.25,10.12667,3.25,10.12667,3.25C10.25923,3.250116701,10.38632,3.3028718,10.48,3.396667C10.48,3.396667,13.1033,6.02,13.1033,6.02C13.15,6.06658,13.1869,6.12193,13.2121,6.18285C13.2373,6.24378,13.2502,6.30908,13.25,6.375C13.25,6.375,13.25,16.1667,13.25,16.1667C13.25,16.4982,13.1183,16.8161,12.8839,17.0506C12.6495,17.285,12.3315,17.4167,12,17.4167C12,17.4167,2,17.4167,2,17.4167C1.668479,17.4167,1.350537,17.285,1.116117,17.0506C0.881696,16.8161,0.75,16.4982,0.75,16.1667Z" fill="#1CA6C5" fill-opacity="1"/><path d="M0,16.1667Q0,16.9951,0.585785,17.5809Q1.171571,18.1667,2,18.1667L12,18.1667Q12.8284,18.1667,13.4142,17.5809Q14,16.9951,14,16.1667L14,6.37683Q14.0006,6.127190000000001,13.9053,5.89647Q13.81,5.66575,13.6337,5.48967L11.0107,2.866667Q10.64491,2.500456,10.12667,2.5L2,2.5Q1.171573,2.5,0.5857870000000001,3.085786Q0,3.671573,0,4.5L0,16.1667ZM2,16.6667Q1.79289,16.6667,1.646447,16.520200000000003Q1.5,16.3738,1.5,16.1667L1.5,4.5Q1.5,4.29289,1.646446,4.146447Q1.79289,4,2,4L10.02267,4L12.5,6.47733L12.5,16.1667Q12.5,16.3738,12.3536,16.520200000000003Q12.2071,16.6667,12,16.6667L2,16.6667Z" fill-rule="evenodd" fill="#1CA6C5" fill-opacity="1"/></g><g><path d="M9.916666984558105,3.25C9.916666984558105,3.25,9.916666984558105,6.08333,9.916666984558105,6.08333C9.916666984558104,6.21594,9.969344984558106,6.34312,10.063112984558105,6.43689C10.156880984558105,6.53066,10.284058984558106,6.58333,10.416666984558105,6.58333C10.416666984558105,6.58333,13.249996984558106,6.58333,13.249996984558106,6.58333C13.249996984558106,6.58333,9.916666984558105,3.25,9.916666984558105,3.25Z" fill="#FFFFFF" fill-opacity="1"/><path d="M13.499996984558106,6.58333Q13.499996984558106,6.47978,13.426776984558106,6.40656L10.093443984558105,3.073223Q10.058280984558106,3.03806,10.012337784558106,3.01903Q9.966395084558105,3,9.916666984558105,3Q9.866938884558106,3,9.820996184558105,3.01903Q9.775052984558105,3.03806,9.739889984558106,3.073223Q9.666666984558105,3.146447,9.666666984558105,3.25L9.666666984558105,6.08333Q9.666666984558105,6.3939900000000005,9.886336684558106,6.613659999999999Q10.106005984558106,6.83333,10.416666984558105,6.83333L13.249996984558106,6.83333Q13.299726984558106,6.83333,13.345666984558106,6.814299999999999Q13.391616984558105,6.79527,13.426776984558106,6.76011Q13.461936984558106,6.72495,13.480966984558105,6.679Q13.499996984558106,6.63306,13.499996984558106,6.58333ZM12.646446984558105,6.33333L10.166666984558105,3.853553L10.166666984558105,6.08333Q10.166666984558105,6.18689,10.239889984558106,6.26011Q10.313112984558105,6.33333,10.416666984558105,6.33333L12.646446984558105,6.33333Z" fill-rule="evenodd" fill="#FFFFFF" fill-opacity="1"/></g></g></svg>