<svg xmlns="http://www.w3.org/2000/svg" xmlns:xlink="http://www.w3.org/1999/xlink" fill="none" version="1.1" width="16" height="16" viewBox="0 0 16 16"><defs><clipPath id="master_svg0_0_16911"><rect x="0" y="0" width="16" height="16" rx="0"/></clipPath></defs><g clip-path="url(#master_svg0_0_16911)"><g><path d="M2.5,3L13.5,3Q13.5492,3,13.5975,3.009607Q13.6458,3.019215,13.6913,3.0380599999999998Q13.7368,3.056906,13.7778,3.084265Q13.8187,3.111625,13.8536,3.146447Q13.8884,3.181269,13.9157,3.222215Q13.9431,3.263161,13.9619,3.308658Q13.9808,3.354155,13.9904,3.4024549Q14,3.4507543,14,3.5Q14,3.5492457,13.9904,3.5975451Q13.9808,3.645845,13.9619,3.691342Q13.9431,3.736839,13.9157,3.777785Q13.8884,3.818731,13.8536,3.853553Q13.8187,3.888375,13.7778,3.915735Q13.7368,3.943094,13.6913,3.9619400000000002Q13.6458,3.980785,13.5975,3.990393Q13.5492,4,13.5,4L2.5,4Q2.4507543,4,2.4024549,3.990393Q2.354155,3.980785,2.308658,3.9619400000000002Q2.263161,3.943094,2.222215,3.915735Q2.181269,3.888375,2.146447,3.853553Q2.111625,3.818731,2.084265,3.777785Q2.056906,3.736839,2.0380599999999998,3.691342Q2.019215,3.645845,2.009607,3.5975451Q2,3.5492457,2,3.5Q2,3.4507543,2.009607,3.4024549Q2.019215,3.354155,2.0380599999999998,3.308658Q2.056906,3.263161,2.084265,3.222215Q2.111625,3.181269,2.146447,3.146447Q2.181269,3.111625,2.222215,3.084265Q2.263161,3.056906,2.308658,3.0380599999999998Q2.354155,3.019215,2.4024549,3.009607Q2.4507543,3,2.5,3ZM2.5,6L13.5,6Q13.5492,6,13.5975,6.00961Q13.6458,6.01921,13.6913,6.03806Q13.7368,6.05691,13.7778,6.0842600000000004Q13.8187,6.11162,13.8536,6.14645Q13.8884,6.18127,13.9157,6.2222100000000005Q13.9431,6.26316,13.9619,6.30866Q13.9808,6.354150000000001,13.9904,6.40245Q14,6.45075,14,6.5Q14,6.54925,13.9904,6.59754Q13.9808,6.64584,13.9619,6.69134Q13.9431,6.73684,13.9157,6.77778Q13.8884,6.81873,13.8536,6.85355Q13.8187,6.88837,13.7778,6.91573Q13.7368,6.94309,13.6913,6.96194Q13.6458,6.98078,13.5975,6.99039Q13.5492,7,13.5,7L2.5,7Q2.4507543,7,2.4024549,6.99039Q2.354155,6.98078,2.308658,6.96194Q2.263161,6.94309,2.222215,6.91573Q2.181269,6.88837,2.146447,6.85355Q2.111625,6.81873,2.084265,6.77778Q2.056906,6.73684,2.0380599999999998,6.69134Q2.019215,6.64584,2.009607,6.59754Q2,6.54925,2,6.5Q2,6.45075,2.009607,6.40245Q2.019215,6.354150000000001,2.0380599999999998,6.30866Q2.056906,6.26316,2.084265,6.2222100000000005Q2.111625,6.18127,2.146447,6.14645Q2.181269,6.11162,2.222215,6.0842600000000004Q2.263161,6.05691,2.308658,6.03806Q2.354155,6.01921,2.4024549,6.00961Q2.4507543,6,2.5,6ZM2.5,9L13.5,9Q13.5492,9,13.5975,9.00961Q13.6458,9.019210000000001,13.6913,9.03806Q13.7368,9.05691,13.7778,9.08426Q13.8187,9.11162,13.8536,9.14645Q13.8884,9.18127,13.9157,9.22221Q13.9431,9.26316,13.9619,9.30866Q13.9808,9.35415,13.9904,9.40245Q14,9.45075,14,9.5Q14,9.54925,13.9904,9.59755Q13.9808,9.64584,13.9619,9.69134Q13.9431,9.73684,13.9157,9.77778Q13.8884,9.81873,13.8536,9.85355Q13.8187,9.88837,13.7778,9.91573Q13.7368,9.94309,13.6913,9.96194Q13.6458,9.98078,13.5975,9.99039Q13.5492,10,13.5,10L2.5,10Q2.4507543,10,2.4024549,9.99039Q2.354155,9.98078,2.308658,9.96194Q2.263161,9.94309,2.222215,9.91573Q2.181269,9.88837,2.146447,9.85355Q2.111625,9.81873,2.084265,9.77778Q2.056906,9.73684,2.0380599999999998,9.69134Q2.019215,9.64584,2.009607,9.59755Q2,9.54925,2,9.5Q2,9.45075,2.009607,9.40245Q2.019215,9.35415,2.0380599999999998,9.30866Q2.056906,9.26316,2.084265,9.22221Q2.111625,9.18127,2.146447,9.14645Q2.181269,9.11162,2.222215,9.08426Q2.263161,9.05691,2.308658,9.03806Q2.354155,9.019210000000001,2.4024549,9.00961Q2.4507543,9,2.5,9ZM2.5,12L13.5,12Q13.5492,12,13.5975,12.00961Q13.6458,12.01921,13.6913,12.03806Q13.7368,12.0569,13.7778,12.08426Q13.8187,12.11162,13.8536,12.14645Q13.8884,12.18127,13.9157,12.22221Q13.9431,12.26316,13.9619,12.30866Q13.9808,12.35415,13.9904,12.40245Q14,12.45075,14,12.5Q14,12.54924,13.9904,12.59754Q13.9808,12.64584,13.9619,12.69134Q13.9431,12.73684,13.9157,12.77778Q13.8884,12.81873,13.8536,12.85355Q13.8187,12.88837,13.7778,12.91573Q13.7368,12.94309,13.6913,12.96194Q13.6458,12.98078,13.5975,12.99039Q13.5492,13,13.5,13L2.5,13Q2.4507543,13,2.4024549,12.99039Q2.354155,12.98078,2.308658,12.96194Q2.263161,12.94309,2.222215,12.91573Q2.181269,12.88837,2.146447,12.85355Q2.111625,12.81873,2.084265,12.77778Q2.056906,12.73684,2.0380599999999998,12.69134Q2.019215,12.64584,2.009607,12.59754Q2,12.54924,2,12.5Q2,12.45075,2.009607,12.40245Q2.019215,12.35415,2.0380599999999998,12.30866Q2.056906,12.26316,2.084265,12.22221Q2.111625,12.18127,2.146447,12.14645Q2.181269,12.11162,2.222215,12.08426Q2.263161,12.0569,2.308658,12.03806Q2.354155,12.01921,2.4024549,12.00961Q2.4507543,12,2.5,12Z" fill-rule="evenodd" fill="#000000" fill-opacity="1"/></g></g></svg>