<?xml version="1.0" standalone="no"?><!DOCTYPE svg PUBLIC "-//W3C//DTD SVG 1.1//EN" "http://www.w3.org/Graphics/SVG/1.1/DTD/svg11.dtd"><svg t="1750057707928" class="icon" viewBox="0 0 1024 1024" version="1.1" xmlns="http://www.w3.org/2000/svg" p-id="17658" width="32" height="32" xmlns:xlink="http://www.w3.org/1999/xlink"><path d="M64 384h64V224C128 170.88 170.88 128 224 128H384V64H224A160 160 0 0 0 64 224V384z m576-256h160c53.12 0 96 42.88 96 96V384h64V224A160 160 0 0 0 800 64H640v64z m-576 512v160A160 160 0 0 0 224 960H384v-64H224c-53.12 0-96-42.88-96-96V640H64z m832 0v160c0 53.12-42.88 96-96 96H640v64h160a160 160 0 0 0 160-160V640h-64z" fill="#939393" p-id="17659"></path></svg>