<svg width="15" height="14" viewBox="0 0 15 14" fill="none" xmlns="http://www.w3.org/2000/svg">
<mask id="path-1-inside-1_5509_16987" fill="white">
<path d="M14.4394 11.5863C13.6813 12.3198 12.7865 12.8976 11.8058 13.2869C10.8252 13.6761 9.77802 13.8691 8.72406 13.8549C7.67011 13.8406 6.63004 13.6194 5.66323 13.2039C4.69642 12.7883 3.8218 12.1866 3.08931 11.433C2.35683 10.6794 1.78082 9.78876 1.39417 8.81186C1.00753 7.83496 0.817821 6.79095 0.83588 5.73946C0.85394 4.68796 1.07941 3.64956 1.49943 2.68356C1.91944 1.71755 2.52577 0.842846 3.2838 0.109392L6.07269 2.97862C5.69368 3.34535 5.39051 3.7827 5.18051 4.26571C4.9705 4.74871 4.85776 5.26791 4.84873 5.79366C4.8397 6.3194 4.93456 6.84141 5.12788 7.32986C5.3212 7.81831 5.60921 8.26364 5.97545 8.64044C6.34169 9.01723 6.779 9.3181 7.26241 9.52587C7.74581 9.73364 8.26585 9.84424 8.79282 9.85136C9.3198 9.85848 9.84339 9.76197 10.3337 9.56735C10.824 9.37274 11.2715 9.08382 11.6505 8.71709L14.4394 11.5863Z"/>
</mask>
<path d="M14.4394 11.5863C13.6813 12.3198 12.7865 12.8976 11.8058 13.2869C10.8252 13.6761 9.77802 13.8691 8.72406 13.8549C7.67011 13.8406 6.63004 13.6194 5.66323 13.2039C4.69642 12.7883 3.8218 12.1866 3.08931 11.433C2.35683 10.6794 1.78082 9.78876 1.39417 8.81186C1.00753 7.83496 0.817821 6.79095 0.83588 5.73946C0.85394 4.68796 1.07941 3.64956 1.49943 2.68356C1.91944 1.71755 2.52577 0.842846 3.2838 0.109392L6.07269 2.97862C5.69368 3.34535 5.39051 3.7827 5.18051 4.26571C4.9705 4.74871 4.85776 5.26791 4.84873 5.79366C4.8397 6.3194 4.93456 6.84141 5.12788 7.32986C5.3212 7.81831 5.60921 8.26364 5.97545 8.64044C6.34169 9.01723 6.779 9.3181 7.26241 9.52587C7.74581 9.73364 8.26585 9.84424 8.79282 9.85136C9.3198 9.85848 9.84339 9.76197 10.3337 9.56735C10.824 9.37274 11.2715 9.08382 11.6505 8.71709L14.4394 11.5863Z" stroke="#939393" stroke-width="2" mask="url(#path-1-inside-1_5509_16987)"/>
</svg>
