<?xml version="1.0" standalone="no"?><!DOCTYPE svg PUBLIC "-//W3C//DTD SVG 1.1//EN" "http://www.w3.org/Graphics/SVG/1.1/DTD/svg11.dtd"><svg t="1750320725231" class="icon" viewBox="0 0 1024 1024" version="1.1" xmlns="http://www.w3.org/2000/svg" p-id="5148" width="32" height="32" xmlns:xlink="http://www.w3.org/1999/xlink"><path d="M810.666667 138.666667H213.333333A74.666667 74.666667 0 0 0 138.666667 213.333333v597.333334c0 41.216 33.450667 74.666667 74.666666 74.666666h597.333334A74.666667 74.666667 0 0 0 885.333333 810.666667V213.333333A74.666667 74.666667 0 0 0 810.666667 138.666667zM213.333333 202.666667h597.333334a10.666667 10.666667 0 0 1 10.666666 10.666666v597.333334a10.666667 10.666667 0 0 1-10.666666 10.666666H213.333333a10.666667 10.666667 0 0 1-10.666666-10.666666V213.333333A10.666667 10.666667 0 0 1 213.333333 202.666667z" fill="#8a8a8a" p-id="5149"></path></svg>