<svg xmlns="http://www.w3.org/2000/svg" xmlns:xlink="http://www.w3.org/1999/xlink" fill="none" version="1.1" width="16" height="16" viewBox="0 0 16 16"><defs><clipPath id="master_svg0_0_16942"><rect x="0" y="0" width="16" height="16" rx="0"/></clipPath></defs><g clip-path="url(#master_svg0_0_16942)"><g><path d="M5.02022,2.353553Q5.09055,2.283227,5.12861,2.191342Q5.16667,2.0994562,5.16667,2Q5.16667,1.9507543,5.1570599999999995,1.9024549Q5.14745,1.854155,5.12861,1.8086579999999999Q5.10976,1.763161,5.0824,1.722215Q5.05504,1.681269,5.02022,1.646447Q4.9854,1.611625,4.94445,1.584265Q4.90351,1.5569060000000001,4.85801,1.53806Q4.81251,1.519215,4.76421,1.509607Q4.71591,1.5,4.66667,1.5Q4.56721,1.5,4.47532,1.53806Q4.38344,1.57612,4.31311,1.646447L4.31293,1.646634L1.646447,4.31311Q1.611625,4.3479399999999995,1.584265,4.38888Q1.5569060000000001,4.42983,1.53806,4.47533Q1.519215,4.5208200000000005,1.509607,4.56912Q1.5,4.61742,1.5,4.66667Q1.5,4.71591,1.509607,4.76421Q1.519215,4.81251,1.53806,4.85801Q1.5569060000000001,4.90351,1.584265,4.94445Q1.611625,4.9854,1.646447,5.02022L4.31311,7.68689Q4.38344,7.75721,4.47533,7.79527Q4.56721,7.83333,4.66667,7.83333Q4.71591,7.83333,4.76421,7.82373Q4.81251,7.81412,4.85801,7.79527Q4.90351,7.77643,4.94445,7.74907Q4.9854,7.72171,5.02022,7.68689Q5.05504,7.65206,5.0824,7.61112Q5.10976,7.57017,5.12861,7.52467Q5.14745,7.47918,5.1570599999999995,7.43088Q5.16667,7.38258,5.16667,7.33333Q5.16667,7.23388,5.12861,7.14199Q5.09055,7.05011,5.02022,6.97978L3.20711,5.16667L14,5.16667Q14.0492,5.16667,14.0975,5.1570599999999995Q14.1458,5.14745,14.1913,5.12861Q14.2368,5.10976,14.2778,5.0824Q14.3187,5.05504,14.3536,5.02022Q14.3884,4.9854,14.4157,4.94445Q14.4431,4.90351,14.4619,4.85801Q14.4808,4.81251,14.4904,4.76421Q14.5,4.71591,14.5,4.66667Q14.5,4.61742,14.4904,4.56912Q14.4808,4.5208200000000005,14.4619,4.47532Q14.4431,4.42983,14.4157,4.38888Q14.3884,4.34793,14.3536,4.31311Q14.3187,4.27829,14.2778,4.25093Q14.2368,4.2235700000000005,14.1913,4.20473Q14.1458,4.18588,14.0975,4.176270000000001Q14.0492,4.16667,14,4.16667L3.20711,4.16667L5.02022,2.353553L5.02022,2.353553ZM11.68737,8.313600000000001L14.3536,10.97978Q14.3884,11.0146,14.4157,11.05555Q14.4431,11.09649,14.4619,11.14199Q14.4808,11.18749,14.4904,11.23579Q14.5,11.28409,14.5,11.33333Q14.5,11.38258,14.4904,11.43088Q14.4808,11.47918,14.4619,11.52467Q14.4431,11.57017,14.4157,11.61112Q14.3884,11.65206,14.3536,11.68689L11.68689,14.3536Q11.61656,14.4239,11.52467,14.4619Q11.43279,14.5,11.33333,14.5Q11.28409,14.5,11.23579,14.4904Q11.18749,14.4808,11.14199,14.4619Q11.09649,14.4431,11.05555,14.4157Q11.0146,14.3884,10.97978,14.3536Q10.94496,14.3187,10.9176,14.2778Q10.89024,14.2368,10.87139,14.1913Q10.85255,14.1458,10.84294,14.0975Q10.83333,14.0492,10.83333,14Q10.83333,13.9005,10.87139,13.8087Q10.90945,13.7168,10.97978,13.6464L10.98042,13.6458L12.7929,11.83333L2,11.83333Q1.9507543,11.83333,1.9024549,11.82372Q1.854155,11.81412,1.8086579999999999,11.79527Q1.763161,11.77643,1.722215,11.74907Q1.681269,11.72171,1.646447,11.68689Q1.611625,11.65206,1.584265,11.61112Q1.5569060000000001,11.57017,1.53806,11.52467Q1.519215,11.47918,1.509607,11.43088Q1.5,11.38258,1.5,11.33333Q1.5,11.28409,1.509607,11.23579Q1.519215,11.18749,1.53806,11.14199Q1.5569060000000001,11.09649,1.584265,11.05555Q1.611625,11.0146,1.646447,10.97978Q1.681269,10.94496,1.722215,10.9176Q1.763161,10.89024,1.8086579999999999,10.87139Q1.854155,10.85255,1.9024549,10.84294Q1.9507543,10.83333,2,10.83333L12.7929,10.83333L10.98026,9.0207L10.97978,9.02022Q10.90945,8.94989,10.87139,8.85801Q10.83333,8.76612,10.83333,8.66667Q10.83333,8.61742,10.84294,8.56912Q10.85255,8.52082,10.87139,8.47532Q10.89024,8.429829999999999,10.9176,8.38888Q10.94496,8.34793,10.97978,8.31311Q11.0146,8.27829,11.05555,8.25093Q11.09649,8.223569999999999,11.14199,8.20473Q11.18749,8.185880000000001,11.23579,8.176269999999999Q11.28409,8.16667,11.33333,8.16667Q11.43279,8.16667,11.52468,8.20473Q11.61656,8.24279,11.68689,8.31311L11.68737,8.313600000000001Z" fill-rule="evenodd" fill="#000000" fill-opacity="1"/></g></g></svg>