<svg xmlns="http://www.w3.org/2000/svg" xmlns:xlink="http://www.w3.org/1999/xlink" fill="none" version="1.1" width="16.711454391479492" height="16.711454391479492" viewBox="0 0 16.711454391479492 16.711454391479492"><defs><clipPath id="master_svg0_0_27896/0_36704"><rect x="0" y="0" width="16.711454391479492" height="16.711454391479492" rx="0"/></clipPath></defs><g clip-path="url(#master_svg0_0_27896/0_36704)"><g><path d="M8.784471798934938,3.042490557525635Q8.855731798934936,2.9237345575256346,8.855731798934936,2.7852425575256348Q8.855721798934937,2.7359968575256346,8.846121798934936,2.6876974575256347Q8.836511798934936,2.6393975575256348,8.817661798934935,2.5939005575256346Q8.798821798934936,2.548403557525635,8.771461798934936,2.5074575575256346Q8.744101798934937,2.4665115575256347,8.709281798934937,2.431689557525635Q8.674461798934937,2.396867557525635,8.633511798934936,2.3695075575256346Q8.592561798934938,2.342148557525635,8.547071798934937,2.3233025575256345Q8.501571798934936,2.3044575575256347,8.453271798934937,2.2948495575256347Q8.404971798934938,2.2852425575256348,8.355731798934936,2.2852425575256348Q8.290971798934937,2.2852425575256348,8.228351798934938,2.301739557525635Q8.165731798934937,2.3182365575256347,8.109381798934937,2.350142557525635Q8.053021798934935,2.3820485575256347,8.006661798934935,2.4272575575256345Q7.960301798934936,2.472466557525635,7.9269817989349365,2.5279945575256346L1.6601857989349365,12.972642557525635Q1.6090157989349365,13.057942557525635,1.5943767989349364,13.156342557525635Q1.5797387989349365,13.254642557525635,1.6038607989349365,13.351142557525634Q1.6279827989349365,13.447642557525635,1.6871917989349365,13.527542557525635Q1.7464007989349366,13.607442557525635,1.8316837989349366,13.658642557525635Q1.9504397989349365,13.729942557525634,2.0889317989349365,13.729942557525634L14.622531798934936,13.729942557525634Q14.671731798934937,13.729942557525634,14.720031798934937,13.720342557525635Q14.768331798934936,13.710642557525635,14.813831798934936,13.691842557525634Q14.859331798934937,13.673042557525635,14.900331798934937,13.645642557525635Q14.941231798934936,13.618242557525635,14.976031798934937,13.583442557525634Q15.010931798934937,13.548642557525636,15.038231798934936,13.507642557525635Q15.065631798934936,13.466742557525635,15.084431798934936,13.421242557525634Q15.103331798934937,13.375742557525635,15.112931798934936,13.327442557525634Q15.122531798934936,13.279142557525635,15.122531798934936,13.229942557525634Q15.122531798934936,13.180642557525635,15.112931798934936,13.132342557525634Q15.103331798934937,13.084042557525635,15.084431798934936,13.038542557525634Q15.065631798934936,12.993042557525635,15.038231798934936,12.952142557525635Q15.010931798934937,12.911142557525634,14.976031798934937,12.876342557525636Q14.941231798934936,12.841542557525635,14.900331798934937,12.814142557525635Q14.859331798934937,12.786842557525635,14.813831798934936,12.767962557525635Q14.768331798934936,12.749112557525635,14.720031798934937,12.739512557525634Q14.671731798934937,12.729902557525635,14.622531798934936,12.729902557525635L2.9720267989349365,12.729902557525635L8.784471798934938,3.042490557525635L8.784471798934938,3.042490557525635ZM10.733871798934937,3.657670557525635L10.744071798934936,3.657670557525635Q10.793321798934937,3.657670557525635,10.841621798934936,3.667278557525635Q10.889911798934936,3.676885557525635,10.935411798934936,3.6957305575256347Q10.980911798934937,3.7145765575256346,11.021861798934937,3.741936557525635Q11.062801798934936,3.7692955575256346,11.097621798934936,3.804122557525635Q11.132451798934936,3.838942557525635,11.159801798934936,3.879882557525635Q11.187161798934936,3.920832557525635,11.206011798934936,3.966332557525635Q11.224861798934937,4.011822557525635,11.234461798934937,4.060122557525634Q11.244071798934936,4.108422557525635,11.244071798934936,4.157672557525634Q11.244071798934936,4.2069125575256345,11.234461798934937,4.255212557525635Q11.224861798934937,4.303512557525635,11.206011798934936,4.349012557525635Q11.187161798934936,4.394512557525635,11.159801798934936,4.435452557525634Q11.132451798934936,4.476402557525635,11.097621798934936,4.511222557525635Q11.062801798934936,4.5460425575256345,11.021861798934937,4.573402557525634Q10.980911798934937,4.600762557525635,10.935411798934936,4.619612557525635Q10.889911798934936,4.638452557525635,10.841621798934936,4.648062557525635Q10.793321798934937,4.657672557525634,10.744071798934936,4.657672557525634L10.733631798934937,4.657672557525634Q10.684381798934936,4.657672557525634,10.636081798934937,4.648062557525635Q10.587781798934936,4.638452557525635,10.542281798934937,4.619612557525635Q10.496791798934936,4.600762557525635,10.455841798934937,4.573402557525634Q10.414891798934937,4.5460425575256345,10.380071798934937,4.511222557525635Q10.345251798934937,4.476402557525635,10.317891798934937,4.435452557525634Q10.290531798934936,4.394512557525635,10.271681798934937,4.349012557525635Q10.252841798934936,4.303512557525635,10.243231798934936,4.255212557525635Q10.233631798934937,4.2069125575256345,10.233631798934937,4.157672557525634Q10.233631798934937,4.108422557525635,10.243231798934936,4.060122557525634Q10.252841798934936,4.011822557525635,10.271681798934937,3.966332557525635Q10.290531798934936,3.920832557525635,10.317891798934937,3.879882557525635Q10.345251798934937,3.838942557525635,10.380071798934937,3.8041125575256345Q10.414891798934937,3.7692955575256346,10.455841798934937,3.741936557525635Q10.496791798934936,3.7145765575256346,10.542281798934937,3.6957305575256347Q10.587781798934936,3.676885557525635,10.636081798934937,3.667278557525635Q10.684381798934936,3.657670557525635,10.733631798934937,3.657670557525635L10.733871798934937,3.657670557525635ZM12.335131798934936,6.537712557525635Q12.285931798934936,6.537712557525635,12.237631798934936,6.528102557525635Q12.189331798934937,6.518492557525635,12.143831798934936,6.499652557525635Q12.098331798934936,6.480802557525635,12.057351798934937,6.453442557525635Q12.016411798934936,6.426082557525635,11.981591798934936,6.391262557525635Q11.946761798934936,6.356442557525635,11.919401798934937,6.315492557525635Q11.892041798934937,6.274542557525635,11.873201798934936,6.229052557525635Q11.854351798934937,6.183552557525635,11.844751798934936,6.135252557525635Q11.835141798934936,6.086952557525635,11.835141798934936,6.037712557525635Q11.835141798934936,5.988462557525635,11.844751798934936,5.940162557525635Q11.854351798934937,5.891862557525634,11.873201798934936,5.846362557525635Q11.892041798934937,5.800872557525635,11.919401798934937,5.759922557525635Q11.946761798934936,5.718972557525635,11.981591798934936,5.684152557525635Q12.016411798934936,5.649332557525635,12.057351798934937,5.621972557525635Q12.098331798934936,5.594612557525634,12.143831798934936,5.575772557525635Q12.189331798934937,5.556922557525635,12.237631798934936,5.547312557525634Q12.285931798934936,5.537712557525635,12.335131798934936,5.537712557525635L12.345631798934937,5.537712557525635Q12.394831798934936,5.537712557525635,12.443131798934937,5.547312557525634Q12.491431798934936,5.556922557525635,12.536931798934937,5.575772557525635Q12.582431798934936,5.594612557525634,12.623331798934936,5.621972557525635Q12.664331798934937,5.649332557525635,12.699131798934937,5.684152557525635Q12.733931798934936,5.718972557525635,12.761331798934936,5.759922557525635Q12.788631798934937,5.800872557525635,12.807531798934937,5.846362557525635Q12.826331798934936,5.891862557525634,12.835931798934936,5.940162557525635Q12.845631798934937,5.988462557525635,12.845631798934937,6.037712557525635Q12.845631798934937,6.086952557525635,12.835931798934936,6.135252557525635Q12.826331798934936,6.183552557525635,12.807531798934937,6.229052557525635Q12.788631798934937,6.274542557525635,12.761331798934936,6.315492557525635Q12.733931798934936,6.356442557525635,12.699131798934937,6.391262557525635Q12.664331798934937,6.426082557525635,12.623331798934936,6.453442557525635Q12.582431798934936,6.480802557525635,12.536931798934937,6.499652557525635Q12.491431798934936,6.518492557525635,12.443131798934937,6.528102557525635Q12.394831798934936,6.537712557525635,12.345631798934937,6.537712557525635L12.345131798934936,6.537712557525635L12.335131798934936,6.537712557525635L12.335131798934936,6.537712557525635ZM14.354431798934936,10.063732557525634Q14.305231798934937,10.063732557525634,14.256931798934936,10.073332557525635Q14.208631798934936,10.082942557525634,14.163131798934936,10.101792557525634Q14.117631798934937,10.120632557525635,14.076631798934937,10.147992557525635Q14.035731798934936,10.175352557525635,14.000931798934937,10.210172557525635Q13.966031798934937,10.244992557525634,13.938731798934937,10.285942557525635Q13.911331798934937,10.326892557525635,13.892531798934936,10.372382557525635Q13.873631798934937,10.417882557525635,13.864031798934937,10.466182557525634Q13.854431798934936,10.514482557525636,13.854431798934936,10.563732557525634Q13.854431798934936,10.612972557525634,13.864031798934937,10.661272557525635Q13.873631798934937,10.709572557525636,13.892531798934936,10.755072557525635Q13.911331798934937,10.800562557525634,13.938731798934937,10.841512557525634Q13.966031798934937,10.882462557525635,14.000931798934937,10.917282557525635Q14.035731798934936,10.952102557525635,14.076631798934937,10.979462557525634Q14.117631798934937,11.006822557525634,14.163131798934936,11.025672557525635Q14.208631798934936,11.044512557525636,14.256931798934936,11.054122557525634Q14.305231798934937,11.063732557525634,14.354431798934936,11.063732557525634L14.364931798934936,11.063732557525634Q14.414131798934937,11.063732557525634,14.462431798934936,11.054122557525634Q14.510731798934936,11.044512557525636,14.556231798934936,11.025672557525635Q14.601731798934937,11.006822557525634,14.642631798934936,10.979462557525634Q14.683631798934936,10.952102557525635,14.718431798934937,10.917282557525635Q14.753231798934937,10.882462557525635,14.780631798934937,10.841512557525634Q14.807931798934936,10.800562557525634,14.826831798934936,10.755072557525635Q14.845631798934937,10.709572557525636,14.855231798934936,10.661272557525635Q14.864931798934936,10.612972557525634,14.864931798934936,10.563732557525634Q14.864931798934936,10.514482557525636,14.855231798934936,10.466182557525634Q14.845631798934937,10.417882557525635,14.826831798934936,10.372382557525635Q14.807931798934936,10.326892557525635,14.780631798934937,10.285942557525635Q14.753231798934937,10.244992557525634,14.718431798934937,10.210172557525635Q14.683631798934936,10.175352557525635,14.642631798934936,10.147992557525635Q14.601731798934937,10.120632557525635,14.556231798934936,10.101792557525634Q14.510731798934936,10.082942557525634,14.462431798934936,10.073332557525635Q14.414131798934937,10.063732557525634,14.364931798934936,10.063732557525634L14.354431798934936,10.063732557525634ZM13.588531798934936,7.696272557525635Q13.539231798934937,7.696272557525635,13.490931798934936,7.7058825575256344Q13.442631798934936,7.715482557525635,13.397131798934936,7.734332557525635Q13.351631798934937,7.753172557525635,13.310731798934937,7.7805325575256346Q13.269731798934936,7.807892557525634,13.234931798934937,7.842722557525635Q13.200131798934937,7.877542557525635,13.172731798934937,7.918482557525635Q13.145431798934936,7.959432557525635,13.126531798934936,8.004932557525635Q13.107731798934937,8.050422557525636,13.098131798934936,8.098722557525635Q13.088531798934936,8.147022557525634,13.088531798934936,8.196272557525635Q13.088531798934936,8.245522557525636,13.098131798934936,8.293812557525634Q13.107731798934937,8.342112557525635,13.126531798934936,8.387612557525635Q13.145431798934936,8.433112557525636,13.172731798934937,8.474062557525635Q13.200131798934937,8.515002557525634,13.234931798934937,8.549822557525633Q13.269731798934936,8.584642557525635,13.310731798934937,8.612002557525635Q13.351631798934937,8.639362557525635,13.397131798934936,8.658212557525633Q13.442631798934936,8.677052557525634,13.490931798934936,8.686662557525635Q13.539231798934937,8.696272557525635,13.588531798934936,8.696272557525635L13.589231798934936,8.696272557525635L13.598931798934936,8.696272557525635Q13.648231798934937,8.696272557525635,13.696531798934936,8.686662557525635Q13.744831798934937,8.677052557525634,13.790331798934936,8.658212557525633Q13.835831798934937,8.639362557525635,13.876731798934937,8.612002557525635Q13.917631798934936,8.584642557525635,13.952531798934936,8.549822557525633Q13.987331798934937,8.515002557525634,14.014631798934937,8.474052557525635Q14.042031798934936,8.433112557525636,14.060931798934936,8.387612557525635Q14.079731798934937,8.342112557525635,14.089331798934937,8.293812557525634Q14.098931798934936,8.245522557525636,14.098931798934936,8.196272557525635Q14.098931798934936,8.147022557525634,14.089331798934937,8.098722557525635Q14.079731798934937,8.050422557525636,14.060931798934936,8.004932557525635Q14.042031798934936,7.959432557525635,14.014631798934937,7.918482557525635Q13.987331798934937,7.877542557525635,13.952531798934936,7.842722557525635Q13.917631798934936,7.807892557525634,13.876731798934937,7.7805325575256346Q13.835831798934937,7.753172557525635,13.790331798934936,7.734332557525635Q13.744831798934937,7.715482557525635,13.696531798934936,7.7058825575256344Q13.648231798934937,7.696272557525635,13.598931798934936,7.696272557525635L13.588531798934936,7.696272557525635Z" fill-rule="evenodd" fill="#939393" fill-opacity="1"/></g></g></svg>