<svg width="24" height="24" viewBox="0 0 24 24" fill="none" xmlns="http://www.w3.org/2000/svg">
<g clip-path="url(#clip0_150_70)">
<path d="M1.97769 1.00098H8.82153C8.82153 1.00098 9.79922 1.00098 9.79922 1.97871V8.82285C9.79922 8.82285 9.79922 9.80059 8.82153 9.80059H1.97769C1.97769 9.80059 1 9.80059 1 8.82285V1.97871C1 1.97871 1 1.00098 1.97769 1.00098ZM14.1988 5.40078C14.1988 6.56794 14.6625 7.6873 15.4877 8.51261C16.313 9.33791 17.4323 9.80157 18.5994 9.80157C19.7665 9.80157 20.8858 9.33791 21.7111 8.51261C22.5364 7.6873 23 6.56794 23 5.40078C23 4.23362 22.5364 3.11427 21.7111 2.28896C20.8858 1.46365 19.7665 1 18.5994 1C17.4323 1 16.313 1.46365 15.4877 2.28896C14.6625 3.11427 14.1988 4.23362 14.1988 5.40078ZM18.6336 13.9335C18.5605 13.7928 18.4501 13.675 18.3146 13.5927C18.1791 13.5105 18.0237 13.467 17.8652 13.467C17.7067 13.467 17.5512 13.5105 17.4157 13.5927C17.2802 13.675 17.1699 13.7928 17.0967 13.9335L12.8565 21.5666C12.7765 21.7127 12.734 21.8764 12.7328 22.0429C12.7316 22.2095 12.7718 22.3737 12.8496 22.5209C12.9228 22.6639 13.0337 22.7842 13.1704 22.8687C13.3071 22.9531 13.4643 22.9985 13.6249 23H22.1054C22.2658 22.9975 22.4226 22.9516 22.5591 22.8673C22.6956 22.7829 22.8067 22.6633 22.8807 22.5209C22.9586 22.3737 22.9987 22.2095 22.9975 22.0429C22.9963 21.8764 22.9538 21.7127 22.8739 21.5666L18.6336 13.9335ZM5.9872 13.0115C5.91583 12.925 5.82624 12.8554 5.72483 12.8076C5.62342 12.7598 5.51269 12.735 5.40059 12.735C5.28848 12.735 5.17776 12.7598 5.07634 12.8076C4.97493 12.8554 4.88534 12.925 4.81397 13.0115L1.18674 17.3497C1.0664 17.4952 1.00056 17.6781 1.00056 17.8669C1.00056 18.0557 1.0664 18.2386 1.18674 18.3841L4.81202 22.7223C4.88358 22.8085 4.97324 22.8778 5.07463 22.9254C5.17601 22.973 5.28663 22.9977 5.39863 22.9977C5.51063 22.9977 5.62125 22.973 5.72264 22.9254C5.82402 22.8778 5.91368 22.8085 5.98525 22.7223L9.61052 18.3841C9.73086 18.2386 9.7967 18.0557 9.7967 17.8669C9.7967 17.6781 9.73086 17.4952 9.61052 17.3497L5.9872 13.0115Z" stroke="black" stroke-width="1.5" stroke-linecap="round" stroke-linejoin="round"/>
</g>
<defs>
<clipPath id="clip0_150_70">
<rect width="24" height="24" fill="white"/>
</clipPath>
</defs>
</svg>
