<svg xmlns="http://www.w3.org/2000/svg" xmlns:xlink="http://www.w3.org/1999/xlink" fill="none" version="1.1" width="16" height="16" viewBox="0 0 16 16"><defs><clipPath id="master_svg0_0_27143/0_28096"><rect x="0" y="0" width="16" height="16" rx="0"/></clipPath></defs><g clip-path="url(#master_svg0_0_27143/0_28096)"><g><path d="M8.74666616317749,11.34869592475891C8.74666616317749,11.34869592475891,5.94733616317749,9.82199592475891,5.94733616317749,9.82199592475891C5.58186616317749,10.212705924758911,5.10732616317749,10.484455924758912,4.585386163177491,10.60192592475891C4.0634361631774905,10.719395924758912,3.51823616317749,10.67715592475891,3.02061616317749,10.480695924758912C2.52299616317749,10.284235924758912,2.09597416317749,9.94263592475891,1.7950451631774902,9.50029592475891C1.4941171631774903,9.057955924758911,1.3331961631774902,8.535325924758911,1.3331961631774902,8.000335924758911C1.3331961631774898,7.465335924758911,1.4941171631774903,6.942705924758911,1.7950451631774902,6.500365924758911C2.09597416317749,6.0580359247589115,2.52299616317749,5.716435924758911,3.02061616317749,5.519975924758911C3.51823616317749,5.323515924758912,4.0634361631774905,5.281275924758911,4.585386163177491,5.398745924758911C5.10732616317749,5.516215924758911,5.58186616317749,5.787955924758911,5.94733616317749,6.178665924758911C5.94733616317749,6.178665924758911,8.74733616317749,4.651995924758911,8.74733616317749,4.651995924758911C8.588606163177491,4.022645924758911,8.66486616317749,3.356995924758911,8.96181616317749,2.779845924758911C9.25876616317749,2.202692924758911,9.75602616317749,1.753656924758911,10.36036616317749,1.5169119247589111C10.96471616317749,1.2801670247589112,11.634696163177491,1.2719673247589112,12.24459616317749,1.4938499247589112C12.85459616317749,1.7157329247589113,13.36269616317749,2.1524639247589112,13.67369616317749,2.7221759247589112C13.98469616317749,3.291885924758911,14.07719616317749,3.955465924758911,13.93389616317749,4.588515924758911C13.79059616317749,5.221575924758911,13.42139616317749,5.780635924758911,12.895396163177491,6.160915924758911C12.36939616317749,6.541195924758911,11.72279616317749,6.716575924758911,11.07669616317749,6.654175924758911C10.43063616317749,6.591785924758911,9.82950616317749,6.2959059247589115,9.38599616317749,5.8219959247589115C9.38599616317749,5.8219959247589115,6.58599616317749,7.348665924758911,6.58599616317749,7.348665924758911C6.693686163177491,7.776215924758911,6.693686163177491,8.22378592475891,6.58599616317749,8.65133592475891C6.58599616317749,8.65133592475891,9.38599616317749,10.17799592475891,9.38599616317749,10.17799592475891C9.82973616317749,9.704325924758912,10.43099616317749,9.408745924758911,11.07706616317749,9.34667592475891C11.723096163177491,9.28459592475891,12.36969616317749,9.46027592475891,12.89549616317749,9.840795924758911C13.421296163177491,10.22130592475891,13.79029616317749,10.780535924758912,13.93329616317749,11.41359592475891C14.07629616317749,12.046695924758911,13.98339616317749,12.710295924758912,13.67219616317749,13.279795924758911C13.36099616317749,13.84939592475891,12.852696163177491,14.285895924758911,12.24269616317749,14.507495924758912C11.63259616317749,14.72909592475891,10.96268616317749,14.72069592475891,10.35844616317749,14.48369592475891C9.754206163177491,14.246695924758912,9.25713616317749,13.79749592475891,8.960426163177491,13.220195924758912C8.66370616317749,12.64289592475891,8.58770616317749,11.977295924758911,8.74666616317749,11.34799592475891M3.99999616317749,9.333335924758911C4.35362616317749,9.333335924758911,4.69275616317749,9.192855924758911,4.94280616317749,8.942805924758911C5.19285616317749,8.692755924758911,5.33333616317749,8.353625924758912,5.33333616317749,7.999995924758911C5.33333616317749,7.646375924758911,5.19285616317749,7.307235924758911,4.94280616317749,7.057195924758911C4.69275616317749,6.8071459247589114,4.35362616317749,6.666665924758911,3.99999616317749,6.666665924758911C3.6463761631774902,6.666665924758911,3.3072361631774903,6.8071459247589114,3.05718616317749,7.057195924758911C2.8071461631774905,7.307235924758911,2.6666661631774904,7.646375924758911,2.6666661631774904,7.999995924758911C2.6666661631774904,8.353625924758912,2.8071461631774905,8.692755924758911,3.05718616317749,8.942805924758911C3.3072361631774903,9.192855924758911,3.6463761631774902,9.333335924758911,3.99999616317749,9.333335924758911ZM11.33329616317749,5.333335924758911C11.68699616317749,5.333335924758911,12.02609616317749,5.192855924758911,12.27609616317749,4.942805924758911C12.52619616317749,4.692765924758911,12.666696163177491,4.353625924758911,12.666696163177491,3.999995924758911C12.666696163177491,3.646375924758911,12.52619616317749,3.307235924758911,12.27609616317749,3.0571959247589113C12.02609616317749,2.8071459247589114,11.68699616317749,2.6666659247589113,11.33329616317749,2.6666659247589113C10.97971616317749,2.6666659247589113,10.64057616317749,2.8071459247589114,10.39052616317749,3.0571959247589113C10.14047616317749,3.307235924758911,9.99999616317749,3.646375924758911,9.99999616317749,3.999995924758911C9.99999616317749,4.353625924758911,10.14047616317749,4.692765924758911,10.39052616317749,4.942805924758911C10.64057616317749,5.192855924758911,10.97971616317749,5.333335924758911,11.33329616317749,5.333335924758911ZM11.33329616317749,13.333295924758911C11.68699616317749,13.333295924758911,12.02609616317749,13.192895924758911,12.27609616317749,12.942795924758911C12.52619616317749,12.692795924758911,12.666696163177491,12.353595924758912,12.666696163177491,11.999995924758911C12.666696163177491,11.646395924758911,12.52619616317749,11.307235924758912,12.27609616317749,11.057195924758911C12.02609616317749,10.807145924758911,11.68699616317749,10.666665924758911,11.33329616317749,10.666665924758911C10.97971616317749,10.666665924758911,10.64057616317749,10.807145924758911,10.39052616317749,11.057195924758911C10.14047616317749,11.307235924758912,9.99999616317749,11.646395924758911,9.99999616317749,11.999995924758911C9.99999616317749,12.353595924758912,10.14047616317749,12.692795924758911,10.39052616317749,12.942795924758911C10.64057616317749,13.192895924758911,10.97971616317749,13.333295924758911,11.33329616317749,13.333295924758911Z" fill="#FFFFFF" fill-opacity="1"/></g></g></svg>