<svg width="22" height="22" viewBox="0 0 22 22" fill="none" xmlns="http://www.w3.org/2000/svg">
<path d="M10.9274 4.00035C10.8886 4.0007 10.85 4.00124 10.8111 4.00222C9.68253 4.0312 8.54522 4.33407 7.49979 4.9376C4.15419 6.86895 3.00634 11.1547 4.93787 14.4999C6.86939 17.8451 11.1555 18.9938 14.501 17.0625C16.8131 15.7277 18.0748 13.2684 17.9966 10.7722C17.8905 12.7315 16.9283 14.5978 15.2887 15.8118C14.9604 16.1036 14.6033 16.3612 14.223 16.5808C11.1378 18.3619 7.20083 17.3068 5.4196 14.2218C3.63835 11.1369 4.69264 7.20029 7.77784 5.4192C8.83838 4.80698 9.9998 4.53015 11.1394 4.55544C13.0232 4.5971 14.8478 5.46503 16.0624 7.01106L15.0925 7.69636C14.1024 6.42183 12.5926 5.71472 11.0436 5.70282C11.0151 5.70258 10.9868 5.70247 10.9581 5.70282C10.9294 5.70312 10.9003 5.70395 10.8716 5.70467C10.0382 5.726 9.19862 5.9491 8.4269 6.39461C5.95737 7.82025 5.10876 10.9863 6.53454 13.4556C7.96031 15.9249 11.1266 16.7735 13.5963 15.3478C15.1249 14.4653 16.0322 12.9162 16.1637 11.2781C15.7908 12.628 14.9044 13.8591 13.6213 14.6756C13.6207 14.676 13.62 14.6761 13.6195 14.6765L13.6092 14.683C13.5145 14.7476 13.4174 14.8087 13.3182 14.8662C11.1089 16.1416 8.29172 15.3867 7.01621 13.1776C5.74071 10.9686 6.49567 8.15163 8.70492 6.87627C9.39528 6.47768 10.1449 6.27755 10.8883 6.25792C12.3153 6.22025 13.7194 6.84878 14.6368 8.01806L13.4511 8.85582C12.8491 8.1322 11.9616 7.73141 11.0529 7.72427C11.0181 7.72397 10.9836 7.72427 10.9487 7.72516C10.4418 7.73801 9.93177 7.87378 9.46274 8.14451C7.96195 9.01096 7.44504 10.9378 8.31153 12.4384C9.17806 13.9391 11.106 14.456 12.6068 13.5895C13.239 13.2245 13.6966 12.6716 13.9495 12.0414C13.3897 12.6681 12.6294 13.139 11.7494 13.3552C11.7482 13.3556 11.7469 13.3558 11.7456 13.3562C10.6295 13.6771 9.40091 13.2129 8.79324 12.1604C8.07699 10.92 8.50028 9.34233 9.74079 8.6262C10.1285 8.40236 10.5485 8.28957 10.9655 8.27838C11.729 8.258 12.48 8.57884 12.9945 9.17844L11.7745 10.0404C11.6109 9.89772 11.3977 9.81072 11.1636 9.81072C10.6495 9.81072 10.2327 10.2275 10.2327 10.7415C10.2327 11.2555 10.6494 11.6723 11.1636 11.6723C11.6777 11.6723 12.0944 11.2555 12.0944 10.7415C12.0944 10.7061 12.0926 10.6716 12.0888 10.6373L15.6624 8.93205L15.7823 8.87998L15.7805 8.87534L17.6329 7.99104L17.9082 7.85899L17.751 7.5968L17.1567 6.60375L17.0033 6.34712L16.7578 6.52008L16.517 6.69022C15.1511 4.93876 13.061 3.98106 10.9274 4.00035Z" fill="#939393"/>
</svg>
