<svg xmlns="http://www.w3.org/2000/svg" xmlns:xlink="http://www.w3.org/1999/xlink" fill="none" version="1.1" width="16" height="16" viewBox="0 0 16 16"><defs><clipPath id="master_svg0_0_16844"><rect x="0" y="0" width="16" height="16" rx="0"/></clipPath></defs><g clip-path="url(#master_svg0_0_16844)"><g><path d="M2.39054,2.687784L4.86154,5.77653L7.33242,2.687925L7.33264,2.687652Q7.40381,2.598697,7.50648,2.549348Q7.60916,2.5,7.72308,2.5Q7.77232,2.5,7.82062,2.509607Q7.86892,2.519215,7.91442,2.5380599999999998Q7.95991,2.556906,8.00086,2.584265Q8.04181,2.611625,8.07663,2.646447Q8.11145,2.681269,8.13881,2.722215Q8.166170000000001,2.763161,8.18502,2.808658Q8.203859999999999,2.854155,8.213470000000001,2.9024549Q8.22308,2.9507543,8.22308,3Q8.22308,3.175391,8.11351,3.312348L8.11329,3.31262L5.50185,6.576919999999999L8.11351,9.8415Q8.22308,9.97846,8.22308,10.15385Q8.22308,10.20309,8.213470000000001,10.25139Q8.203859999999999,10.29969,8.18502,10.345189999999999Q8.166170000000001,10.39068,8.13881,10.43163Q8.11145,10.47258,8.07663,10.5074Q8.04181,10.54222,8.00086,10.56958Q7.95991,10.59694,7.91442,10.61579Q7.86892,10.63463,7.82062,10.64424Q7.77232,10.65385,7.72308,10.65385Q7.60916,10.65385,7.50648,10.6045Q7.40381,10.555150000000001,7.33264,10.466190000000001L7.33221,10.46566L4.86154,7.37731L2.39082,10.46571L2.390434,10.466190000000001Q2.31927,10.555150000000001,2.216594,10.6045Q2.113919,10.65385,2,10.65385Q1.9507543,10.65385,1.9024549,10.64424Q1.854155,10.63463,1.8086579999999999,10.61579Q1.763161,10.59694,1.722215,10.56958Q1.681269,10.54222,1.646447,10.5074Q1.611625,10.47258,1.584265,10.43163Q1.5569060000000001,10.39068,1.53806,10.345189999999999Q1.519215,10.29969,1.509607,10.25139Q1.5,10.20309,1.5,10.15385Q1.5,9.97846,1.609566,9.8415L4.22123,6.576919999999999L1.609671,3.312479L1.609566,3.312348Q1.5,3.175391,1.5,3Q1.5,2.9507543,1.509607,2.9024549Q1.519215,2.854155,1.53806,2.808658Q1.5569060000000001,2.763161,1.584265,2.722215Q1.611625,2.681269,1.646447,2.646447Q1.681269,2.611625,1.722215,2.584265Q1.763161,2.556906,1.8086579999999999,2.5380599999999998Q1.854155,2.519215,1.9024549,2.509607Q1.9507543,2.5,2,2.5Q2.113919,2.5,2.216594,2.549348Q2.31927,2.598697,2.390434,2.687652L2.39054,2.687784ZM10.64753,7.18774Q10.34214,7.42425,10.15049,7.75962Q10.08462,7.87491,10.08462,8.00769Q10.08462,8.05694,10.09422,8.10524Q10.10383,8.15354,10.12267,8.19903Q10.14152,8.244530000000001,10.16888,8.28548Q10.19624,8.326419999999999,10.23106,8.36125Q10.26588,8.39607,10.30683,8.42343Q10.34778,8.45079,10.39327,8.46963Q10.43877,8.48848,10.48707,8.49808Q10.53537,8.50769,10.58462,8.50769Q10.65072,8.50769,10.71456,8.49051Q10.7784,8.47333,10.83558,8.44015Q10.89276,8.40696,10.93935,8.36006Q10.98594,8.31316,11.01874,8.25576L11.01908,8.25517Q11.11196,8.092880000000001,11.25982,7.97837Q11.40795,7.86366,11.58871,7.81436Q11.76946,7.76507,11.95532,7.78869Q12.1412,7.81232,12.3039,7.90528Q12.4665,7.99823,12.5812,8.14636Q12.696,8.29449,12.7453,8.475249999999999Q12.7945,8.655999999999999,12.7709,8.84186Q12.7501,9.00533,12.6757,9.15085L10.20833,11.97075Q10.14283,12.0456,10.11097,12.13981Q10.07911,12.23402,10.08572,12.33326Q10.09234,12.4325,10.13643,12.52165Q10.18051,12.6108,10.25536,12.67629Q10.32372,12.7361,10.40875,12.76805Q10.49378,12.8,10.58462,12.8L13.4462,12.8Q13.4954,12.8,13.5437,12.79039Q13.592,12.78078,13.6375,12.76194Q13.683,12.74309,13.7239,12.71573Q13.7649,12.68837,13.7997,12.65355Q13.8345,12.61873,13.8619,12.57778Q13.8892,12.53684,13.9081,12.49134Q13.9269,12.44584,13.9365,12.39754Q13.9462,12.34925,13.9462,12.3Q13.9462,12.25075,13.9365,12.20245Q13.9269,12.15415,13.9081,12.10866Q13.8892,12.06316,13.8619,12.02221Q13.8345,11.98127,13.7997,11.94645Q13.7649,11.91162,13.7239,11.88426Q13.683,11.8569,13.6375,11.83806Q13.592,11.81921,13.5437,11.80961Q13.4954,11.8,13.4462,11.8L11.6865,11.8L13.4647,9.767710000000001Q13.4977,9.73002,13.5226,9.686530000000001Q13.7142,9.35117,13.7629,8.967970000000001Q13.8117,8.58478,13.71,8.21213Q13.6084,7.83947,13.3719,7.53407Q13.1354,7.22868,12.8,7.03703Q12.4646,6.84539,12.0814,6.79668Q11.69825,6.74796,11.32559,6.849600000000001Q10.95293,6.95123,10.64753,7.18774Z" fill-rule="evenodd" fill="#000000" fill-opacity="1"/></g></g></svg>