<svg xmlns="http://www.w3.org/2000/svg" xmlns:xlink="http://www.w3.org/1999/xlink" fill="none" version="1.1" width="16" height="16" viewBox="0 0 16 16"><defs><clipPath id="master_svg0_0_16842"><rect x="0" y="0" width="16" height="16" rx="0"/></clipPath></defs><g clip-path="url(#master_svg0_0_16842)"><g><path d="M11.31428,2.568368Q10.53895,2.779822,10.14022,3.477585Q10.07435,3.592872,10.07435,3.725654Q10.07435,3.774899,10.08395,3.823199Q10.09356,3.871498,10.11241,3.916995Q10.13125,3.962492,10.15861,4.00344Q10.18597,4.04438,10.22079,4.07921Q10.25561,4.11403,10.29656,4.1413899999999995Q10.33751,4.16875,10.383,4.18759Q10.4285,4.20644,10.4768,4.21605Q10.5251,4.22565,10.57435,4.22565Q10.64046,4.22565,10.70429,4.20847Q10.76813,4.19129,10.82531,4.15811Q10.88249,4.12493,10.92908,4.07802Q10.97567,4.03112,11.00847,3.973723L11.00905,3.972711Q11.20224,3.635445,11.57739,3.533132Q11.95311,3.430665,12.2912,3.623879Q12.4536,3.7166639999999997,12.5681,3.864522Q12.6826,4.01238,12.7318,4.19281Q12.781,4.3732299999999995,12.7574,4.55875Q12.7367,4.7218800000000005,12.6625,4.86711L10.19806,7.68357Q10.16563,7.72064,10.14105,7.76331Q10.11648,7.80599,10.1007,7.85264Q10.08492,7.89929,10.07855,7.94812Q10.07218,7.99695,10.07545,8.04609Q10.07873,8.095220000000001,10.09153,8.14278Q10.10433,8.19033,10.12616,8.23447Q10.14799,8.27861,10.17801,8.31765Q10.20803,8.35669,10.24509,8.389109999999999Q10.31345,8.44893,10.39848,8.480879999999999Q10.48351,8.512830000000001,10.57435,8.512830000000001L13.4325,8.512830000000001Q13.4817,8.512830000000001,13.53,8.503219999999999Q13.5783,8.49361,13.6238,8.47477Q13.6693,8.455919999999999,13.7102,8.428560000000001Q13.7512,8.4012,13.786,8.36638Q13.8208,8.33156,13.8482,8.290610000000001Q13.8756,8.24966,13.8944,8.204170000000001Q13.9132,8.15867,13.9229,8.11037Q13.9325,8.06207,13.9325,8.012830000000001Q13.9325,7.96358,13.9229,7.91528Q13.9132,7.86698,13.8944,7.82148Q13.8756,7.77599,13.8482,7.73504Q13.8208,7.69409,13.786,7.65927Q13.7512,7.62445,13.7102,7.59709Q13.6693,7.56973,13.6238,7.55089Q13.5783,7.53204,13.53,7.52243Q13.4817,7.51283,13.4325,7.51283L11.67623,7.51283L13.4515,5.48396Q13.4845,5.44627,13.5093,5.40278Q13.7008,5.0677,13.7495,4.6848600000000005Q13.7981,4.30201,13.6966,3.929685Q13.595,3.557356,13.3587,3.2522349999999998Q13.1224,2.9471076,12.7874,2.755635Q12.0896,2.3569139999999997,11.31428,2.568368ZM1.609566,5.46706Q1.5,5.3301,1.5,5.15471Q1.5,5.10547,1.509607,5.05717Q1.519215,5.00887,1.53806,4.96337Q1.5569060000000001,4.91787,1.584265,4.87693Q1.611625,4.83598,1.646447,4.80116Q1.681269,4.76634,1.722215,4.73898Q1.763161,4.71162,1.8086579999999999,4.69277Q1.854155,4.67393,1.9024549,4.66432Q1.9507543,4.65471,2,4.65471Q2.113919,4.65471,2.216594,4.70406Q2.31927,4.75341,2.390434,4.84236L4.8581199999999995,7.92697L7.3258,4.84236Q7.39696,4.75341,7.49964,4.70406Q7.60231,4.65471,7.71623,4.65471Q7.76548,4.65471,7.81378,4.66432Q7.86207,4.67393,7.90757,4.69277Q7.95307,4.71162,7.99402,4.73898Q8.03496,4.76634,8.06978,4.80116Q8.104610000000001,4.83598,8.13196,4.87693Q8.159320000000001,4.91787,8.17817,4.96337Q8.19702,5.00887,8.206620000000001,5.05717Q8.21623,5.10547,8.21623,5.15471Q8.21623,5.3301,8.106670000000001,5.46706L5.49843,8.727360000000001L8.106670000000001,11.98765Q8.21623,12.12461,8.21623,12.3Q8.21623,12.34925,8.206620000000001,12.39754Q8.19702,12.44584,8.17817,12.49134Q8.159320000000001,12.53684,8.13196,12.57778Q8.104610000000001,12.61873,8.06978,12.65355Q8.03496,12.68837,7.99402,12.71573Q7.95307,12.74309,7.90757,12.76194Q7.86207,12.78078,7.81378,12.79039Q7.76548,12.8,7.71623,12.8Q7.60231,12.8,7.49964,12.75065Q7.39696,12.7013,7.3258,12.61235L4.8581199999999995,9.527750000000001L2.390434,12.61235Q2.31927,12.7013,2.216594,12.75065Q2.113919,12.8,2,12.8Q1.9507543,12.8,1.9024549,12.79039Q1.854155,12.78078,1.8086579999999999,12.76194Q1.763161,12.74309,1.722215,12.71573Q1.681269,12.68837,1.646447,12.65355Q1.611625,12.61873,1.584265,12.57778Q1.5569060000000001,12.53684,1.53806,12.49134Q1.519215,12.44584,1.509607,12.39754Q1.5,12.34925,1.5,12.3Q1.5,12.12461,1.609566,11.98765L1.60972,11.98746L4.2178,8.727360000000001L1.609566,5.46706L1.609566,5.46706Z" fill-rule="evenodd" fill="#000000" fill-opacity="1"/></g></g></svg>