<svg xmlns="http://www.w3.org/2000/svg" xmlns:xlink="http://www.w3.org/1999/xlink" fill="none" version="1.1" width="16" height="16" viewBox="0 0 16 16"><defs><clipPath id="master_svg0_0_16921"><rect x="0" y="0" width="16" height="16" rx="0"/></clipPath></defs><g clip-path="url(#master_svg0_0_16921)"><g><path d="M7.6666689623260496,10.533335350837708C7.6666689623260496,10.533335350837708,6.50266896232605,11.697335350837708,6.50266896232605,11.697335350837708C6.44044896232605,11.759555350837708,6.3639989623260504,11.792885350837707,6.273328962326049,11.797335350837708C6.18266896232605,11.801775350837708,6.101778962326049,11.768445350837707,6.03066896232605,11.697335350837708C5.959558962326049,11.626225350837707,5.923998962326049,11.547555350837708,5.923998962326049,11.461335350837707C5.923998962326049,11.375115350837708,5.959558962326049,11.296665350837708,6.03066896232605,11.225995350837708C6.03066896232605,11.225995350837708,7.6186689623260495,9.637995350837707,7.6186689623260495,9.637995350837707C7.67955896232605,9.576665350837708,7.74088896232605,9.534445350837707,7.80266896232605,9.511335350837708C7.86488896232605,9.487335350837707,7.93110896232605,9.475335350837707,8.001328962326049,9.475335350837707C8.07155896232605,9.475335350837707,8.13732896232605,9.487115350837708,8.19866896232605,9.510665350837709C8.25999896232605,9.534225350837708,8.32088896232605,9.576445350837709,8.38132896232605,9.637335350837708C8.38132896232605,9.637335350837708,9.969328962326049,11.225995350837708,9.969328962326049,11.225995350837708C10.031558962326049,11.288225350837708,10.06488896232605,11.364665350837708,10.06932896232605,11.455335350837707C10.073778962326049,11.545995350837707,10.04044896232605,11.626665350837708,9.969328962326049,11.697335350837708C9.89821896232605,11.767995350837708,9.819558962326049,11.803555350837707,9.73332896232605,11.803995350837708C9.647108962326051,11.804445350837707,9.56844896232605,11.768885350837708,9.49732896232605,11.697335350837708C9.49732896232605,11.697335350837708,8.33332896232605,10.533335350837708,8.33332896232605,10.533335350837708C8.33332896232605,10.533335350837708,8.33332896232605,13.666695350837708,8.33332896232605,13.666695350837708C8.33332896232605,13.761295350837708,8.30132896232605,13.840495350837708,8.23732896232605,13.903995350837707C8.17332896232605,13.967595350837707,8.09399896232605,13.999595350837707,7.99932896232605,13.999995350837708C7.90466896232605,14.000395350837708,7.82555896232605,13.968395350837708,7.76199896232605,13.903995350837707C7.69844896232605,13.839595350837708,7.6666689623260496,13.760395350837708,7.6666689623260496,13.666695350837708C7.6666689623260496,13.666695350837708,7.6666689623260496,10.533335350837708,7.6666689623260496,10.533335350837708ZM3.6666669623260497,8.333335350837707C3.57199996232605,8.333335350837707,3.4928889623260497,8.301335350837707,3.42933356232605,8.237335350837707C3.36577806232605,8.173335350837707,3.33377797332605,8.093995350837709,3.3333335285260497,7.999335350837708C3.33288908432605,7.904665350837708,3.3648891623260497,7.825555350837708,3.42933356232605,7.761995350837707C3.4937779623260496,7.698445350837708,3.57288896232605,7.666665350837707,3.6666669623260497,7.666665350837707C3.6666669623260497,7.666665350837707,12.33332896232605,7.666665350837707,12.33332896232605,7.666665350837707C12.42799896232605,7.666665350837707,12.50710896232605,7.698665350837707,12.57066896232605,7.7626653508377075C12.63421896232605,7.8266653508377075,12.66621896232605,7.905995350837707,12.66666896232605,8.000665350837707C12.66710896232605,8.095335350837708,12.63510896232605,8.174445350837708,12.57066896232605,8.237995350837707C12.50621896232605,8.301555350837708,12.42710896232605,8.333335350837707,12.33332896232605,8.333335350837707C12.33332896232605,8.333335350837707,3.6666669623260497,8.333335350837707,3.6666669623260497,8.333335350837707ZM7.6666689623260496,5.466665350837708C7.6666689623260496,5.466665350837708,7.6666689623260496,2.3333333508377074,7.6666689623260496,2.3333333508377074C7.6666689623260496,2.2386663508377076,7.69866896232605,2.1595553508377074,7.76266896232605,2.0959999508377076C7.82666896232605,2.0324444508377075,7.905998962326049,2.0004443618377077,8.00066896232605,1.9999999170377074C8.09532896232605,1.9995554728377076,8.17444896232605,2.0315555508377074,8.23799896232605,2.0959999508377076C8.30155896232605,2.1604443508377074,8.33332896232605,2.2395553508377075,8.33332896232605,2.3333333508377074C8.33332896232605,2.3333333508377074,8.33332896232605,5.466665350837708,8.33332896232605,5.466665350837708C8.33332896232605,5.466665350837708,9.49732896232605,4.3026653508377075,9.49732896232605,4.3026653508377075C9.55955896232605,4.240445350837708,9.635998962326049,4.207115350837707,9.72666896232605,4.202665350837707C9.81732896232605,4.198225350837708,9.89821896232605,4.2315553508377075,9.969328962326049,4.3026653508377075C10.04044896232605,4.3737753508377075,10.07599896232605,4.452445350837707,10.07599896232605,4.538665350837707C10.07599896232605,4.624885350837708,10.04044896232605,4.703335350837707,9.969328962326049,4.7739953508377075C9.969328962326049,4.7739953508377075,8.38132896232605,6.361995350837708,8.38132896232605,6.361995350837708C8.32044896232605,6.423335350837707,8.25910896232605,6.4655553508377075,8.19732896232605,6.4886653508377075C8.13510896232605,6.512225350837707,8.06888896232605,6.5239953508377075,7.998668962326049,6.5239953508377075C7.9284489623260495,6.5239953508377075,7.86266896232605,6.512445350837708,7.80132896232605,6.489335350837708C7.74088896232605,6.465775350837707,7.679998962326049,6.423555350837708,7.6186689623260495,6.362665350837707C7.6186689623260495,6.362665350837707,6.03066896232605,4.773335350837708,6.03066896232605,4.773335350837708C5.96844896232605,4.711115350837708,5.93510896232605,4.634665350837707,5.93066896232605,4.543995350837708C5.92621896232605,4.453335350837707,5.959558962326049,4.372665350837707,6.03066896232605,4.301995350837707C6.101778962326049,4.231335350837707,6.18044896232605,4.195775350837708,6.266668962326049,4.195335350837707C6.35288896232605,4.1948853508377075,6.43155896232605,4.230445350837707,6.50266896232605,4.301995350837707C6.50266896232605,4.301995350837707,7.6666689623260496,5.466665350837708,7.6666689623260496,5.466665350837708Z" fill="#000000" fill-opacity="1"/></g></g></svg>