<svg xmlns="http://www.w3.org/2000/svg" xmlns:xlink="http://www.w3.org/1999/xlink" fill="none" version="1.1" width="16" height="16" viewBox="0 0 16 16"><defs><clipPath id="master_svg0_0_16919"><rect x="0" y="0" width="16" height="16" rx="0"/></clipPath></defs><g clip-path="url(#master_svg0_0_16919)"><g><path d="M3.6666669623260497,3.3333337461395263C3.57199996232605,3.3333337461395263,3.4928889623260497,3.3013337461395262,3.42933356232605,3.2373337461395266C3.36577806232605,3.1733337461395266,3.33377797332605,3.0939997461395263,3.3333335285260497,2.999333746139526C3.33288908432605,2.9046667461395264,3.3648891623260497,2.825555746139526,3.42933356232605,2.7620001461395263C3.4937779623260496,2.698444646139526,3.57288896232605,2.6666667461395264,3.6666669623260497,2.6666667461395264C3.6666669623260497,2.6666667461395264,12.33332896232605,2.6666667461395264,12.33332896232605,2.6666667461395264C12.42799896232605,2.6666667461395264,12.50710896232605,2.6986667461395264,12.57066896232605,2.7626667461395265C12.63421896232605,2.8266667461395265,12.66621896232605,2.905999746139526,12.66666896232605,3.0006667461395264C12.66710896232605,3.0953337461395263,12.63510896232605,3.1744447461395264,12.57066896232605,3.2379997461395265C12.50621896232605,3.3015557461395266,12.42710896232605,3.3333337461395263,12.33332896232605,3.3333337461395263C12.33332896232605,3.3333337461395263,3.6666669623260497,3.3333337461395263,3.6666669623260497,3.3333337461395263ZM7.99999896232605,13.333366746139527C7.90488896232605,13.333366746139527,7.82555896232605,13.301366746139527,7.76199896232605,13.237366746139527C7.69844896232605,13.173366746139527,7.6666689623260496,13.094266746139526,7.6666689623260496,12.999966746139526C7.6666689623260496,12.999966746139526,7.6666689623260496,6.405336746139526,7.6666689623260496,6.405336746139526C7.6666689623260496,6.405336746139526,5.83599896232605,8.235996746139527,5.83599896232605,8.235996746139527C5.76488896232605,8.307106746139526,5.68621896232605,8.342666746139527,5.599998962326049,8.342666746139527C5.51377896232605,8.342666746139527,5.43510896232605,8.307106746139526,5.3639989623260504,8.235996746139527C5.2928889623260496,8.164886746139526,5.25955896232605,8.084226746139526,5.26399896232605,7.993996746139526C5.268448962326049,7.902886746139527,5.30177896232605,7.826226746139526,5.3639989623260504,7.763996746139527C5.3639989623260504,7.763996746139527,7.62332896232605,5.505336746139527,7.62332896232605,5.505336746139527C7.68110896232605,5.447106746139527,7.74110896232605,5.406226746139526,7.80332896232605,5.382666746139527C7.86466896232605,5.359106746139526,7.93066896232605,5.3473367461395265,8.001328962326049,5.3473367461395265C8.071998962326049,5.3473367461395265,8.137778962326049,5.359106746139526,8.19866896232605,5.382666746139527C8.25955896232605,5.406226746139526,8.31910896232605,5.447106746139527,8.37732896232605,5.505336746139527C8.37732896232605,5.505336746139527,10.635998962326049,7.763996746139527,10.635998962326049,7.763996746139527C10.70710896232605,7.835106746139527,10.74266896232605,7.9137767461395265,10.74266896232605,7.9999967461395265C10.74266896232605,8.086226746139527,10.70710896232605,8.164886746139526,10.635998962326049,8.235996746139527C10.56488896232605,8.307106746139526,10.48399896232605,8.340446746139527,10.393328962326049,8.335996746139527C10.302668962326049,8.331556746139526,10.226218962326051,8.298226746139527,10.16399896232605,8.235996746139527C10.16399896232605,8.235996746139527,8.33332896232605,6.405336746139526,8.33332896232605,6.405336746139526C8.33332896232605,6.405336746139526,8.33332896232605,12.999966746139526,8.33332896232605,12.999966746139526C8.33332896232605,13.094666746139527,8.30132896232605,13.173766746139526,8.23732896232605,13.237366746139527C8.17332896232605,13.300866746139526,8.09399896232605,13.332866746139526,7.99932896232605,13.333366746139527" fill="#000000" fill-opacity="1"/></g></g></svg>