<svg width="20" height="20" viewBox="0 0 20 20" fill="none" xmlns="http://www.w3.org/2000/svg">
<path d="M9.99984 3.33333H4.99984C4.5396 3.33333 4.1665 3.70642 4.1665 4.16666V7.49999C4.1665 7.96023 4.5396 8.33333 4.99984 8.33333H9.99984C10.4601 8.33333 10.8332 7.96023 10.8332 7.49999V4.16666C10.8332 3.70642 10.4601 3.33333 9.99984 3.33333Z" stroke="#6B6B6B" stroke-width="1.5" stroke-linecap="round" stroke-linejoin="round"/>
<path d="M14.9998 11.6667H9.99984C9.5396 11.6667 9.1665 12.0398 9.1665 12.5V15.8333C9.1665 16.2936 9.5396 16.6667 9.99984 16.6667H14.9998C15.4601 16.6667 15.8332 16.2936 15.8332 15.8333V12.5C15.8332 12.0398 15.4601 11.6667 14.9998 11.6667Z" stroke="#6B6B6B" stroke-width="1.5" stroke-linecap="round" stroke-linejoin="round"/>
</svg>
