<svg xmlns="http://www.w3.org/2000/svg" viewBox="0 0 105.61484 94.35738">
  <title>资源 5privacy26</title>
  <g id="图层_2" data-name="图层 2">
    <g id="图层_1-2" data-name="图层 1">
      <g>
        <path d="M105.61484,53.69846c0,.08583-.01719.18885-.01719.27468C106.1815,73.03273,90.848,88.12578,66.517,93.03659c-23.35217,4.70477-49.7436-3.7604-58.62085-15.88294a1.93359,1.93359,0,0,1-.17177-.22323A32.541,32.541,0,0,1,2.35,67.48651a44.41282,44.41282,0,0,1-1.6827-6.61069C-2.08,45.04433,3.74078,27.68474,16.56738,16.23188,31.98667,2.47809,54.53944-2.1776,70.79262.9156a.10344.10344,0,0,0,.06865.01708C77.8438,2.79171,82.38288,7.83536,82.38288,14.738c0,.78979-.189,8.83373-.189,8.83373,0,9.00133,6.11278,10.08836,12.569,13.24782a5.38776,5.38776,0,0,1,.63531.30907A18.50706,18.50706,0,0,1,105.529,52.4793h.03437c.01709.206.03427.41208.03427.601C105.61484,53.28638,105.61484,53.49242,105.61484,53.69846Z" style="fill: #276eb0"/>
        <path d="M56.7746,36.562C57.616,39.97905,69.584,43.87674,69.18912,54.52262a15.7845,15.7845,0,0,1-.58385,3.60581.12878.12878,0,0,1-.01719.08594c-1.88874,6.71372-8.27631,13.53056-19.83219,17.13637-10.11359,3.17655-13.29014,2.69582-14.5093,2.19791-1.21906-.48083,1.06458-2.55853-3.48561-2.43832-4.80779.1202-12.50035.498-13.11847-.97875-.60094-1.45947,7.57225-4.87643,15.62533-9.01464,8.05309-4.15529,11.659-7.96715,11.83067-10.59432.18886-3.02207-6.439-5.49466-10.78317-10.88619A12.95552,12.95552,0,0,1,30.761,34.7248,12.72341,12.72341,0,0,1,31.963,29.316a.53037.53037,0,0,1,.103-.22323c.41208-.75552.87562-1.511,1.37363-2.24936C39.39781,17.84593,50.782,9.56962,63.52269,7.81817l-.06865.05156a9.3357,9.3357,0,0,1,.97875-.05156,10.74294,10.74294,0,0,1,10.7489,10.7489,11.30263,11.30263,0,0,1-7.55517,10.28526C60.4354,31.6195,56.37971,34.94793,56.7746,36.562Z" style="fill: #fff"/>
      </g>
    </g>
  </g>
</svg>
