<svg xmlns="http://www.w3.org/2000/svg" xmlns:xlink="http://www.w3.org/1999/xlink" viewBox="0 0 22.9355 113.3859"><defs><style>.cls-1{fill:url(#未命名的渐变_665);}.cls-2{fill:#50556e;}.cls-3{fill:url(#未命名的渐变_627);}.cls-4{fill:#b9daf4;}.cls-5{fill:#6a80bf;opacity:0.3;}.cls-6{fill:#fff;opacity:0.5;}</style><linearGradient id="未命名的渐变_665" x1="-0.1667" y1="56.6932" x2="22.3996" y2="56.6932" gradientUnits="userSpaceOnUse"><stop offset="0" stop-color="#95a9c2" stop-opacity="0.5"/><stop offset="0.3721" stop-color="#fff" stop-opacity="0.5"/><stop offset="0.5697" stop-color="#e1e5e9" stop-opacity="0.5432"/><stop offset="0.9013" stop-color="#929fae" stop-opacity="0.6595"/><stop offset="1" stop-color="#768699" stop-opacity="0.7"/></linearGradient><linearGradient id="未命名的渐变_627" x1="20.5146" y1="82.5947" x2="2.0934" y2="82.5947" gradientUnits="userSpaceOnUse"><stop offset="0" stop-color="#5d7bbc"/><stop offset="0.6648" stop-color="#b6dbf2"/><stop offset="0.7588" stop-color="#afd3ee"/><stop offset="0.901" stop-color="#9bbfe2"/><stop offset="1" stop-color="#8aacd7"/></linearGradient></defs><g id="图层_2" data-name="图层 2"><g id="图层_1-2" data-name="图层 1"><path class="cls-1" d="M11.4678,113.2865c-6.623,0-11.2959-4.0459-11.3642-9.8389A.0753.0753,0,0,0,.1,103.4213V46.1244c0-4.0449,4.9287-6.876,4.9785-6.9043a.1.1,0,0,0,.01-.168c-3.2715-2.3369-3.8174-7.39-1.5391-14.2265,2.4316-7.293,4.125-16.9512,4.125-21.0577A3.5191,3.5191,0,0,1,11.3692.1029L11.5469.1a3.39,3.39,0,0,1,3.7149,3.5312c0,4.1065,1.6933,13.7647,4.125,21.0586,2.2793,6.8369,1.7324,11.89-1.5391,14.2256a.0984.0984,0,0,0-.041.0859.1.1,0,0,0,.0508.0821c.05.0283,4.9785,2.8613,4.9785,6.9043v57.4316a.07.07,0,0,0-.0049.0283C22.7637,109.2406,18.0919,113.2865,11.4678,113.2865Z"/><path class="cls-2" d="M11.5464.2A3.2969,3.2969,0,0,1,15.161,3.6314c0,4.1139,1.6965,13.7871,4.1308,21.09,2.2639,6.7917,1.7305,11.8036-1.5019,14.1125a.2.2,0,0,0,.0178.3369c.0492.0279,4.9278,2.8328,4.9278,6.8171v57.4183a.1983.1983,0,0,0-.0043.04c-.0677,5.8259-4.5942,9.74-11.2635,9.74S.272,109.2717.2043,103.4458A.1867.1867,0,0,0,.2,103.4074V46.1243c0-3.9843,4.8786-6.7892,4.9278-6.8171a.2.2,0,0,0,.0178-.3369C1.9132,36.6614,1.38,31.65,3.6437,24.8578c2.4343-7.303,4.1308-16.9761,4.1308-21.09a3.2088,3.2088,0,0,1,1.65-3.08,4.4436,4.4436,0,0,1,1.991-.4848c.0033,0,.05-.0029.1307-.0029m0-.2c-.0914,0-.143.0033-.143.0033l-.0339,0A3.6158,3.6158,0,0,0,7.5745,3.7678c0,3.8781-1.5755,13.3917-4.1206,21.0268S2.06,37.0122,5.0294,39.1331c0,0-5.0294,2.84-5.0294,6.9912v57.3238H.0043c.0729,6.27,5.1759,9.9378,11.4634,9.9378h0c6.2875,0,11.3905-3.6675,11.4634-9.9378h.0043V45.988c0-4.1508-5.0294-6.9912-5.0294-6.9912,2.9691-2.1209,4.1205-6.7035,1.5755-14.3386S15.361,7.51,15.361,3.6314A3.5168,3.5168,0,0,0,11.5463,0Z"/><path class="cls-3" d="M11.3484,55.6445c-5.0764,0-9.3081-1.1066-10.2716-2.5754l-.0242,50.5863c0,.9394-.36,8.4649,9.9586,8.4649s10.5922-7.6589,10.5922-8.6738l.0045-50.3584C20.6206,54.5475,16.403,55.6445,11.3484,55.6445Z"/><ellipse class="cls-4" cx="11.2717" cy="53.2703" rx="10.3363" ry="2.4847"/><path class="cls-5" d="M2.47,103.3632H2.4655V46.1176c0-2.6494,2.0546-4.7642,3.5374-5.9455.6806-.5422-.253-2.3169-.801-2.993-1.9842-2.4481-2.499-5.9235-.3529-12.3529A84.5,84.5,0,0,0,8.6431,3.2967C8.6431.7772,11.6419.518,12.7744.244A5.7437,5.7437,0,0,0,11.5083.0814S7.6767-.0541,7.6767,3.8188s-1.5755,13.3734-4.12,20.9981-1.3937,12.201,1.5755,14.319c0,0-5.03,2.8365-5.03,6.9817v57.2456H.1066c.059,5.0733,3.42,8.44,8.0376,9.5356,1.0817.2566-.0128-.5827-1.7493-1.8244A9.2872,9.2872,0,0,1,2.47,103.3632Z"/><path class="cls-5" d="M17.8113,39.0876c2.9692-2.1208,4.1205-6.7034,1.5755-14.3385S15.2662,7.6005,15.2662,3.7223a3.7846,3.7846,0,0,0-.5353-2.08c-1.081-1.6964-.1761,1.1453-.1761,2.8011,0,3.8781-.4273,12.4826,2.1177,20.1177a14.0245,14.0245,0,0,1-1.8267,12.8178,2.5465,2.5465,0,0,0,.4752,3.2731c1.3754,1.2352,2.9144,3.13,2.9144,5.4265v57.46h-.0043c-.0638,5.4837-3.9761,8.7829-9.1621,9.573a15.04,15.04,0,0,0,2.3216.1743c6.2875,0,11.3729-3.477,11.4458-9.7473h.0043v-57.46C22.8407,41.9281,17.8113,39.0876,17.8113,39.0876Z"/><path class="cls-6" d="M14.3208,2.3578C14.3187,1.6807,13.0682.359,11.4741.3639s-2.928,1.3349-2.9259,2.012,1.1524.3143,2.7465.3093S14.3229,3.035,14.3208,2.3578Z"/><rect class="cls-6" x="1.7019" y="44.6203" width="3.0662" height="62.3529" rx="1.5331"/><path class="cls-6" d="M9.6137,7.885C8.79,16.8262,4.9078,27.65,4.79,32.12S6.9078,37.1791,7.7313,35.65s-1.647-3.2941.2353-13.2941S9.6137,7.885,9.6137,7.885Z"/></g></g></svg>