<?xml version="1.0" encoding="utf-8"?>
<!-- Generator: Adobe Illustrator 27.5.0, SVG Export Plug-In . SVG Version: 6.00 Build 0)  -->
<svg version="1.1" id="图层_1" xmlns="http://www.w3.org/2000/svg" xmlns:xlink="http://www.w3.org/1999/xlink" x="0px" y="0px"
	 viewBox="0 0 113.8 113.8" style="enable-background:new 0 0 113.8 113.8;" xml:space="preserve">
<style type="text/css">
	.st0{fill:url(#dev5_00000173124517692596832470000005423294195185022396_);}
	.st1{fill:#CE7429;}
	.st2{opacity:0.5;fill:url(#dev3_00000140016667483401314440000010482994233094653321_);enable-background:new    ;}
	.st3{fill:#FFFFFF;}
</style>
<g>
	<g id="图层_2_00000088819708078496951580000006994793869467895727_">
		<g id="图层_1-2">
			
				<linearGradient id="dev5_00000120550777690319205850000018334606272531140765_" gradientUnits="userSpaceOnUse" x1="56.8938" y1="119.07" x2="56.8938" y2="-0.69" gradientTransform="matrix(1 0 0 -1 -9.202365e-03 115.9962)">
				<stop  offset="0" style="stop-color:#FFC992"/>
				<stop  offset="1" style="stop-color:#FFE9D0"/>
			</linearGradient>
			<circle id="dev5" style="fill:url(#dev5_00000120550777690319205850000018334606272531140765_);" cx="56.9" cy="56.9" r="56.8"/>
			<path id="dev4" class="st1" d="M56.9,0.2c31.3,0,56.7,25.4,56.7,56.7s-25.4,56.7-56.7,56.7S0.2,88.2,0.2,56.9c0,0,0,0,0,0
				C0.2,25.6,25.6,0.2,56.9,0.2 M56.9,0C25.5,0,0,25.5,0,56.9s25.5,56.9,56.9,56.9s56.9-25.5,56.9-56.9c0,0,0,0,0,0
				C113.7,25.5,88.3,0.1,56.9,0z"/>
			
				<linearGradient id="dev3_00000046323921500248665400000004040031786243233959_" gradientUnits="userSpaceOnUse" x1="56.9027" y1="118.87" x2="56.9027" y2="-0.58" gradientTransform="matrix(1 0 0 -1 0 116)">
				<stop  offset="0" style="stop-color:#FFC992"/>
				<stop  offset="1" style="stop-color:#FFE9D0"/>
			</linearGradient>
			
				<path id="dev3" style="opacity:0.5;fill:url(#dev3_00000046323921500248665400000004040031786243233959_);enable-background:new    ;" d="
				M113.6,56.9c0-30.6-24.4-55.7-55-56.6c2,0.6,4.1,1.1,6,1.8c5.3,1.8,10.3,4.2,15,7.2C90.1,16,98.4,27.6,97.9,40
				c-0.4,9.8-6.1,19.5-3.2,28.8c0.8,2.6,2.2,5,2.5,7.6c0.8,7.7-8,13-15.8,13.8s-16-0.5-22.8,3.2c-2.5,1.3-4.7,3.3-7.4,4.1
				c-5,1.3-10-1.8-14.1-4.8c-8-5.7-16-11.5-22.5-18.8S3,57.5,2.3,47.7c-0.1-2.1-0.1-4.2,0.1-6.3c-8.5,30.1,9,61.5,39.1,70
				s61.5-9,70-39.1C112.9,67.3,113.6,62.1,113.6,56.9z"/>
			<circle id="dev2" class="st3" cx="28.8" cy="22.7" r="3.8"/>
			<circle id="dev221" class="st3" cx="19.1" cy="33.8" r="2.9"/>
		</g>
	</g>
</g>
</svg>
