<svg xmlns="http://www.w3.org/2000/svg" xmlns:xlink="http://www.w3.org/1999/xlink" width="273.83" height="533.59"
	preserveAspectRatio="none" viewBox="0 0 273.83 533.59">
	<metadata>
		<rdf:RDF xmlns:rdf="http://www.w3.org/1999/02/22-rdf-syntax-ns#">
			<rdf:Description>
				<schema:license xmlns:schema="http://schema.org/">Copyright BioRender.com</schema:license>
			</rdf:Description>
		</rdf:RDF>
	</metadata>
	<defs>
		<clipPath id="clip-path">
			<path
				d="M138.77,517.23c-85.87,0-105.46-19.48-109.36-22.75l-.2-.19a45.07,45.07,0,0,1-13.69-32.37V207.71a112.74,112.74,0,0,1,5.42-34.56c2.46-7.67,35.24-53.74,47.1-69.53A21.08,21.08,0,0,0,72.28,91V51.85H205.73V93a14.7,14.7,0,0,0,3,8.9c10.87,14.35,46,63.4,48.33,71.23a120.14,120.14,0,0,1,5.42,34.56V464.07c0,7.92-4.42,19.73-9.64,25.8a32,32,0,0,1-15,9.81C218.86,505.36,183.76,517.23,138.77,517.23Z"
				fill="#e0e1e1" />
		</clipPath>
		<clipPath id="clip-path-2">
			<path
				d="M261.77,209.6l-1.93,255.8c0,4.76-3.14,14.82-7.43,20.77a35.47,35.47,0,0,1-15.09,11.35c-17.61,7-53.09,16.8-97.62,16.54-86.4-.51-103.46-18-106-19.54-12.11-8-17.32-25.45-17.28-33L18,208.14"
				fill="#9473b3" stroke="#5f407f" stroke-miterlimit="10" stroke-width="1.33" />
		</clipPath>
		<clipPath id="clip-path-3">
			<path
				d="M60.28,21.72,59.2,25.38a17.59,17.59,0,0,0-.72,5V65.3c0,5.19,35.76,9.4,79.89,9.4s79.88-4.21,79.88-9.4V30.36a17.59,17.59,0,0,0-.72-5l-1.08-3.66Z"
				fill="none" stroke="#04475e" stroke-linecap="round" stroke-linejoin="round" stroke-width="1.56" />
		</clipPath>
	</defs>
	<g id="bottle">
		<path
			d="M138.77,517.23c-85.87,0-105.46-19.48-109.36-22.75l-.2-.19a45.07,45.07,0,0,1-13.69-32.37V207.71a112.74,112.74,0,0,1,5.42-34.56c2.46-7.67,35.24-53.74,47.1-69.53A21.08,21.08,0,0,0,72.28,91V51.85H205.73V93a14.7,14.7,0,0,0,3,8.9c10.87,14.35,46,63.4,48.33,71.23a120.14,120.14,0,0,1,5.42,34.56V464.07c0,7.92-4.42,19.73-9.64,25.8a32,32,0,0,1-15,9.81C218.86,505.36,183.76,517.23,138.77,517.23Z"
			fill="#e0e1e1" />
		<g clip-path="url(#clip-path)">
			<path
				d="M236.67,488c0,12.28-44.39,26.18-99.16,26.18s-99.15-12.12-99.15-24.4,43.23-20.21,98-20.21S236.67,475.73,236.67,488Z"
				fill="#bcbcbc" />
			<path
				d="M187,47.67q-.43,14.34-.19,28.69c.13,7.45.42,15,3,22.06a70.23,70.23,0,0,0,5.65,11c6.13,10.38,13.44,22,19.76,32.34L225,157.55c2.75,4.48,6,8.07,9,12.3,6.16,8.81,11.06,18.8,11.06,29.66V461.8c0,16.15-11.92,31.3-28.27,34-48.18,8.08-115,18.52-211.87-12.31v39.26L302,521.49V69.36L179.61,48.57"
				fill="#d1d1d1" />
			<path
				d="M71.24,66.48,70.1,88a29.8,29.8,0,0,1-1.28,8.52,30.56,30.56,0,0,1-5,8.12,434.5,434.5,0,0,0-35.91,54c-7,12.59-13.62,25.3-13.62,40V456.53a61.57,61.57,0,0,0,2.38,17l2.3,8c.52,1.83,2.86,10.43,3.83,12,3,5,6.53,1.71,12.5,3L29,473.83a58.62,58.62,0,0,1-2.11-15.57V206.13c0-17.48,7.69-31,16.65-45.42,9.49-15.29,19-32.59,28.45-47.88a56.92,56.92,0,0,0,6-11.58c1.75-5.14,2-10.63,2.06-16q.14-9.36-.31-18.7Z"
				fill="#d1d1d1" />
			<path
				d="M79.27,188.17S70.63,190.08,69,212.64V430c0,16.56-2.12,35.15,2.75,51.08a19,19,0,0,0,3.18,6.73c2.64,3.2,6.88,4.64,10.9,5.93,5.7,1.83,11.66,3.69,17.59,2.82C98.84,485,100.25,473.1,100.25,461V215.55s-1.53-17.93,7-25.47Z"
				fill="#fff" opacity="0.75" />
			<path
				d="M173.51,49.91V96.35a71.21,71.21,0,0,0,8.18,33.14c3.94,7.48,8.1,15.7,9.79,18.46l.35.56a4.45,4.45,0,0,1-3.37,6.8h0a4.65,4.65,0,0,1-4.32-1.88c-2.44-3.42-18.87-23.85-19.64-48.1-.64-20,0-53.48,0-53.48Z"
				fill="#fff" opacity="0.75" />
		</g>
		<path id="white"
			d="M139,516.24c-85.9,0-105.7-18.5-109.6-21.77l-.18-.17a45.06,45.06,0,0,1-13.7-32.38V207.71c0-11.74,1.21-23.57,5.42-34.56,5.51-14.36,35.69-55.36,47-69.74a19.93,19.93,0,0,0,4.31-12.36V51.85H205.73V91.66A18.24,18.24,0,0,0,209.65,103c11,14,41.71,55.88,47.42,70.2,4.35,10.94,5.42,22.82,5.42,34.56V464.07c0,7.92-4.42,19.73-9.64,25.8a32,32,0,0,1-15,9.81C218.86,505.36,184,516.24,139,516.24Z"
			fill="none" stroke="#fff" stroke-miterlimit="10" stroke-width="1.32" />
		<path d="M147.8,107.94c-2.88,0-5.81.07-8.8.07-12.42,0-24-.4-33.95-1.09" fill="none" stroke="#fff"
			stroke-linecap="round" stroke-linejoin="round" stroke-width="4.08" />
		<path id="base_outline" data-name="base outline"
			d="M208,49.83V93.12a14.93,14.93,0,0,0,2.58,7.2c8.72,11,43.37,58.14,48.53,72.18a114.63,114.63,0,0,1,5.51,35.13V464c0,8.42-4.55,20.59-10.11,27a35.77,35.77,0,0,1-16,10.43c-19.06,6.34-52.29,15.76-99.78,15.76-60.77,0-97.72-10.73-110.52-21.34l-.37-.34a47.26,47.26,0,0,1-14.23-33.7V207.63a114.93,114.93,0,0,1,5.51-35.13c7-16.88,38.26-58.57,48.12-70.88a13.5,13.5,0,0,0,3-8.46V49.83H208m1.32-1.31H69V93.16a12.24,12.24,0,0,1-2.7,7.64C56.27,113.26,25,155,18,172l0,0,0,.05a116.08,116.08,0,0,0-5.58,35.54V461.85A48.3,48.3,0,0,0,27,496.49a5.74,5.74,0,0,0,.45.41c12.62,10.47,48.5,21.65,111.36,21.65,52.66,0,88.44-11.92,100.19-15.83a37.19,37.19,0,0,0,16.55-10.82c5.75-6.67,10.43-19.19,10.43-27.9V207.63a116.38,116.38,0,0,0-5.57-35.54V172c-5.48-14.87-41.74-63.7-48.73-72.54a13.56,13.56,0,0,1-2.3-6.38V48.52Z"
			fill="#666766" />
	</g>
	<g id="liquid">
		<path
			d="M192.54,188.46c-.77-.92,32.57-4.57,38.51-5.73a1.77,1.77,0,0,1,1.85,1.16c1.4,3.47,5.41,18.17,4,49.33V469.47s-3,15.42-19,20.33c0,0-20.23,3.68-25.36,3.06,0,0,6.22-5.52,6.22-23.31V232.06S202.08,199.86,192.54,188.46Z"
			fill="#fff" opacity="0.75" />
		<path
			d="M261.77,209.6l-1.93,255.8c0,4.76-3.14,14.82-7.43,20.77a35.47,35.47,0,0,1-15.09,11.35c-17.61,7-53.09,16.8-97.62,16.54-86.4-.51-103.46-18-106-19.54-12.11-8-17.32-25.45-17.28-33L18,208.14"
			fill="#9473b3" />
		<g clip-path="url(#clip-path-2)">
			<path
				d="M189,37q-.51,14.73-.36,29.47c.08,7.65.33,15.46,2.9,22.67a74.22,74.22,0,0,0,5.58,11.31c6.07,10.69,13.31,20.64,19.56,31.28l9.59,16.3c2.72,4.62,5.94,8.32,8.87,12.68,6.1,9.09,10.93,19.38,10.87,30.54l-1.6,269.39c-.1,16.59-10.23,39.43-26.59,42.15-48.19,8-142.68,15.82-197-14.51L4.13,521.89l296.87.42L303.73,60,181.61,37.92"
				fill="#855fa8" />
			<path
				d="M252.71,485.74c-.07,12.62-58.42,28.45-113.14,28.12s-112.92-16.39-112.84-29S84,460.71,138.73,461,252.79,473.13,252.71,485.74Z"
				fill="#855fa8" />
			<ellipse cx="138.84" cy="487.21" rx="12.91" ry="76.3" transform="translate(-349.19 623.17) rotate(-89.66)"
				fill="#9473b3" />
			<path
				d="M72.94,56.75,71.68,78.89a31.38,31.38,0,0,1-1.34,8.74,31.4,31.4,0,0,1-5,8.31C52,113.45,39.64,130,29.09,149.17c-7.08,12.9-13.76,25.91-13.85,41L13.68,455A64.91,64.91,0,0,0,16,472.4l2.25,8.26C18.71,482.55,21,491.4,22,493c3,5.11,6.51,1.79,12.47,3.11l-6.1-23.33a61.25,61.25,0,0,1-2-16l1.53-259c.1-18,7.87-31.75,16.91-46.55l28.7-46.95A59.36,59.36,0,0,0,79.54,92.5c1.77-5.27,2-10.91,2.15-16.46q.19-9.62-.19-19.21Z"
				fill="#855fa8" />
		</g>
		<path
			d="M261.77,209.6l-1.93,255.8c0,4.76-3.14,14.82-7.43,20.77a35.47,35.47,0,0,1-15.09,11.35c-17.61,7-53.09,16.8-97.62,16.54-86.4-.51-103.46-18-106-19.54-12.11-8-17.32-25.45-17.28-33L18,208.14"
			fill="none" stroke="#5f407f" stroke-miterlimit="10" stroke-width="1.33" />
		<path
			d="M261.88,209.58c-.05,8.61-54.66,15.26-122,14.86s-121.83-7.7-121.78-16.3,54.66-15.27,122-14.87,121.83,7.7,121.78,16.31"
			fill="#c1afd5" stroke="#855fa8" stroke-miterlimit="10" stroke-width="1.33" />
		<path
			d="M18.88,208.14a2.75,2.75,0,0,1,.75-1.75,7.11,7.11,0,0,1,1.48-1.26,19.5,19.5,0,0,1,3.47-1.76A58.53,58.53,0,0,1,32,201c5-1.29,10.14-2.23,15.26-3,10.26-1.56,20.58-2.58,30.92-3.38,20.68-1.56,41.42-2,62.15-2s41.47.93,62.13,2.72c10.33.92,20.64,2.07,30.87,3.75,5.12.87,10.21,1.87,15.23,3.22a59.58,59.58,0,0,1,7.38,2.44,19.91,19.91,0,0,1,3.45,1.81,7.1,7.1,0,0,1,1.46,1.28,2.7,2.7,0,0,1,.73,1.76,2.77,2.77,0,0,0-.76-1.74,7,7,0,0,0-1.48-1.23,20.33,20.33,0,0,0-3.46-1.73,59.31,59.31,0,0,0-7.41-2.28c-5-1.23-10.12-2.12-15.24-2.88-10.23-1.55-20.54-2.58-30.86-3.38-20.64-1.58-41.34-2.32-62.05-2.4s-41.41.33-62.07,1.67c-10.33.67-20.65,1.58-30.9,3-5.12.7-10.23,1.53-15.27,2.7a58.11,58.11,0,0,0-7.43,2.2,18.6,18.6,0,0,0-3.48,1.68,6.79,6.79,0,0,0-1.5,1.22A2.77,2.77,0,0,0,18.88,208.14Z"
			fill="#9473b3" />
		<path
			d="M261.16,208.86a2.72,2.72,0,0,1-.75,1.75,7.11,7.11,0,0,1-1.48,1.25,19.37,19.37,0,0,1-3.47,1.73,56.65,56.65,0,0,1-7.41,2.29c-5,1.24-10.12,2.14-15.24,2.91-10.23,1.49-20.53,2.44-30.85,3.18-20.62,1.44-41.31,1.86-62,1.81s-41.34-.81-62-2.4c-10.3-.82-20.6-1.83-30.83-3.36-5.11-.8-10.2-1.71-15.22-3a58.3,58.3,0,0,1-7.41-2.31A19.09,19.09,0,0,1,21.09,211a7.33,7.33,0,0,1-1.48-1.25,2.68,2.68,0,0,1-.73-1.75,2.77,2.77,0,0,0,.76,1.73,8,8,0,0,0,1.5,1.21,20.15,20.15,0,0,0,3.48,1.65A59.91,59.91,0,0,0,32,214.74c5,1.14,10.13,1.94,15.25,2.63,10.22,1.4,20.51,2.29,30.81,3,20.6,1.37,41.24,2,61.89,2.08s41.3-.27,61.91-1.49c10.3-.62,20.59-1.46,30.82-2.8,5.12-.67,10.22-1.45,15.26-2.58a59.33,59.33,0,0,0,7.42-2.13,19.9,19.9,0,0,0,3.49-1.65,6.93,6.93,0,0,0,1.49-1.21A2.69,2.69,0,0,0,261.16,208.86Z"
			fill="#e6e0f0" />
	</g>
	<g id="labels-hidden">
		<path d="M90.32,246.17c-31-1.74-54.93-5-64.95-9.1" fill="none" stroke="#fff" stroke-linecap="round"
			stroke-linejoin="round" stroke-width="1.95" />
		<path d="M90.32,295.6c-31-1.74-54.93-5.05-64.95-9.1" fill="none" stroke="#fff" stroke-linecap="round"
			stroke-linejoin="round" stroke-width="1.95" />
		<path d="M90.32,345c-31-1.74-54.93-5.06-64.95-9.1" fill="none" stroke="#fff" stroke-linecap="round"
			stroke-linejoin="round" stroke-width="1.95" />
		<path d="M90.32,394.46c-31-1.75-54.93-5.06-64.95-9.11" fill="none" stroke="#fff" stroke-linecap="round"
			stroke-linejoin="round" stroke-width="1.95" />
		<path d="M90.32,446.08c-31-1.74-54.93-5.05-64.95-9.1" fill="none" stroke="#fff" stroke-linecap="round"
			stroke-linejoin="round" stroke-width="1.95" />
		<path d="M77.53,271.41c-14.21-1.07-26.46-2.49-35.94-4.16" fill="none" stroke="#fff" stroke-linecap="round"
			stroke-linejoin="round" stroke-width="1.95" />
		<path d="M77.53,320.84a363.29,363.29,0,0,1-37.93-4.52" fill="none" stroke="#fff" stroke-linecap="round"
			stroke-linejoin="round" stroke-width="1.95" />
		<path d="M79.65,370.42a368,368,0,0,1-40.05-4.68" fill="none" stroke="#fff" stroke-linecap="round"
			stroke-linejoin="round" stroke-width="1.95" />
		<path d="M79.7,419.86a371,371,0,0,1-40.1-4.69" fill="none" stroke="#fff" stroke-linecap="round"
			stroke-linejoin="round" stroke-width="1.95" />
		<path
			d="M147.23,190.08q-16.41.71-32.86.49t-32.85-1.26c-10.93-.76-21.86-1.77-32.71-3.42-5.43-.83-10.84-1.81-16.17-3.15a67.71,67.71,0,0,1-7.87-2.47,23.71,23.71,0,0,1-3.72-1.82,8.42,8.42,0,0,1-1.61-1.3,2.77,2.77,0,0,1-.83-1.85,2.68,2.68,0,0,0,.93,1.74,8.25,8.25,0,0,0,1.66,1.16A22.89,22.89,0,0,0,25,179.78a69.33,69.33,0,0,0,7.9,2c5.34,1.1,10.75,1.88,16.17,2.57,10.83,1.33,21.73,2.25,32.63,3s21.83,1.25,32.76,1.69S136.28,189.79,147.23,190.08Z"
			fill="#fff" />
		<path
			d="M214.18,186.84q-8.28,1.38-16.65,2.14c-5.57.55-11.15.9-16.74,1.18s-11.18.39-16.78.39-11.19-.14-16.78-.47q8.37-.65,16.74-1.06l16.73-.81C191.85,187.72,203,187.17,214.18,186.84Z"
			fill="#fff" />
		<path d="M104.15,240.4h0l-2.44,1.29-.37-1.41,3.07-1.61H106v13.72h-1.84Z" fill="#fff" />
		<path
			d="M120.45,245.39c0,4.66-1.78,7.23-4.89,7.23-2.74,0-4.6-2.51-4.64-7s2-7.14,4.88-7.14S120.45,241,120.45,245.39Zm-7.63.21c0,3.56,1.12,5.59,2.85,5.59,2,0,2.88-2.22,2.88-5.72s-.89-5.59-2.86-5.59C114,239.88,112.82,241.86,112.82,245.6Z"
			fill="#fff" />
		<path
			d="M131.53,245.39c0,4.66-1.77,7.23-4.88,7.23-2.74,0-4.6-2.51-4.64-7s2-7.14,4.88-7.14S131.53,241,131.53,245.39Zm-7.62.21c0,3.56,1.12,5.59,2.85,5.59,1.94,0,2.87-2.22,2.87-5.72s-.88-5.59-2.85-5.59C125.12,239.88,123.91,241.86,123.91,245.6Z"
			fill="#fff" />
		<path
			d="M142.62,245.39c0,4.66-1.77,7.23-4.88,7.23-2.75,0-4.6-2.51-4.65-7s2-7.14,4.89-7.14S142.62,241,142.62,245.39Zm-7.63.21c0,3.56,1.13,5.59,2.86,5.59,1.94,0,2.87-2.22,2.87-5.72s-.89-5.59-2.85-5.59C136.2,239.88,135,241.86,135,245.6Z"
			fill="#fff" />
		<path
			d="M145,244.94c0-1.05,0-1.92-.09-2.76h1.67l.08,1.64h.07A3.6,3.6,0,0,1,150,242a3.08,3.08,0,0,1,3,2H153a4.24,4.24,0,0,1,1.16-1.33,3.66,3.66,0,0,1,2.31-.71c1.39,0,3.44.88,3.44,4.43v6h-1.86v-5.78c0-2-.73-3.15-2.27-3.15a2.45,2.45,0,0,0-2.24,1.69,2.91,2.91,0,0,0-.16.93v6.31h-1.85v-6.12c0-1.62-.74-2.81-2.19-2.81a2.59,2.59,0,0,0-2.35,1.86,2.49,2.49,0,0,0-.15.91v6.16H145Z"
			fill="#fff" />
		<path d="M163.07,238.17H165v12.68h6.22v1.54h-8.1Z" fill="#fff" />
	</g>
	<g id="highlight-hidden">
		<path
			d="M192.54,188.46c-.77-.92,32.57-4.57,38.51-5.73a1.77,1.77,0,0,1,1.85,1.16c1.4,3.47,5.41,18.17,4,49.33V465.27a23.53,23.53,0,0,1-3,11.69,27.4,27.4,0,0,1-16,12.84s-20.23,3.68-25.36,3.06c0,0,6.22-5.52,6.22-23.31V232.06S202.08,199.86,192.54,188.46Z"
			fill="#fff" opacity="0.4" />
		<path
			d="M79.27,188.17S70.63,190.08,69,212.64V430c0,16.56-2.12,35.15,2.75,51.08a19,19,0,0,0,3.18,6.73c2.64,3.2,6.88,4.64,10.9,5.93,5.7,1.83,11.66,3.69,17.59,2.82C98.84,485,100.25,473.1,100.25,461V215.55s-1.53-17.93,7-25.47Z"
			fill="#fff" opacity="0.4" />
	</g>
	<g id="cap">
		<path
			d="M216.45,24.62c0-5.2-35-9.4-78.11-9.4s-78.12,4.2-78.12,9.4a.61.61,0,0,0,0,.11l-1,3.54a17.59,17.59,0,0,0-.72,5V68.19c0,5.19,35.76,9.4,79.88,9.4s79.89-4.21,79.89-9.4V33.25a17.59,17.59,0,0,0-.72-5Z"
			fill="#0379af" stroke="#04475e" stroke-miterlimit="10" stroke-width="1.56" />
		<path d="M60.28,21.72l-1.8,8.64V65.3c0,5.19,35.76,9.4,79.89,9.4s79.88-4.21,79.88-9.4V30.36l-1.34-7.08Z"
			fill="#0a658f" />
		<g clip-path="url(#clip-path-3)">
			<line x1="62.67" y1="17.4" x2="62.67" y2="73.91" fill="none" stroke="#0379af" stroke-linecap="round"
				stroke-linejoin="round" stroke-width="1.17" />
			<line x1="79.5" y1="17.4" x2="79.5" y2="73.91" fill="none" stroke="#0379af" stroke-linecap="round"
				stroke-linejoin="round" stroke-width="1.17" />
			<line x1="96.33" y1="17.4" x2="96.33" y2="73.91" fill="none" stroke="#0379af" stroke-linecap="round"
				stroke-linejoin="round" stroke-width="1.17" />
			<line x1="113.16" y1="17.4" x2="113.16" y2="73.91" fill="none" stroke="#0379af" stroke-linecap="round"
				stroke-linejoin="round" stroke-width="1.17" />
			<line x1="129.99" y1="17.4" x2="129.99" y2="73.91" fill="none" stroke="#0379af" stroke-linecap="round"
				stroke-linejoin="round" stroke-width="1.17" />
			<line x1="146.82" y1="17.4" x2="146.82" y2="73.91" fill="none" stroke="#0379af" stroke-linecap="round"
				stroke-linejoin="round" stroke-width="1.17" />
			<line x1="163.64" y1="17.4" x2="163.64" y2="73.91" fill="none" stroke="#0379af" stroke-linecap="round"
				stroke-linejoin="round" stroke-width="1.17" />
			<line x1="180.47" y1="17.4" x2="180.47" y2="73.91" fill="none" stroke="#0379af" stroke-linecap="round"
				stroke-linejoin="round" stroke-width="1.17" />
			<line x1="197.3" y1="17.4" x2="197.3" y2="73.91" fill="none" stroke="#0379af" stroke-linecap="round"
				stroke-linejoin="round" stroke-width="1.17" />
			<line x1="214.13" y1="17.4" x2="214.13" y2="73.91" fill="none" stroke="#0379af" stroke-linecap="round"
				stroke-linejoin="round" stroke-width="1.17" />
			<line x1="71.08" y1="17.4" x2="71.08" y2="73.91" fill="none" stroke="#0379af" stroke-linecap="round"
				stroke-linejoin="round" stroke-width="1.17" />
			<line x1="87.91" y1="17.4" x2="87.91" y2="73.91" fill="none" stroke="#0379af" stroke-linecap="round"
				stroke-linejoin="round" stroke-width="1.17" />
			<line x1="104.74" y1="17.4" x2="104.74" y2="73.91" fill="none" stroke="#0379af" stroke-linecap="round"
				stroke-linejoin="round" stroke-width="1.17" />
			<line x1="121.57" y1="17.4" x2="121.57" y2="73.91" fill="none" stroke="#0379af" stroke-linecap="round"
				stroke-linejoin="round" stroke-width="1.17" />
			<line x1="138.4" y1="17.4" x2="138.4" y2="73.91" fill="none" stroke="#0379af" stroke-linecap="round"
				stroke-linejoin="round" stroke-width="1.17" />
			<line x1="155.23" y1="17.4" x2="155.23" y2="73.91" fill="none" stroke="#0379af" stroke-linecap="round"
				stroke-linejoin="round" stroke-width="1.17" />
			<line x1="172.06" y1="17.4" x2="172.06" y2="73.91" fill="none" stroke="#0379af" stroke-linecap="round"
				stroke-linejoin="round" stroke-width="1.17" />
			<line x1="188.89" y1="17.4" x2="188.89" y2="73.91" fill="none" stroke="#0379af" stroke-linecap="round"
				stroke-linejoin="round" stroke-width="1.17" />
			<line x1="205.72" y1="17.4" x2="205.72" y2="73.91" fill="none" stroke="#0379af" stroke-linecap="round"
				stroke-linejoin="round" stroke-width="1.17" />
			<line x1="222.55" y1="17.4" x2="222.55" y2="73.91" fill="none" stroke="#0379af" stroke-linecap="round"
				stroke-linejoin="round" stroke-width="1.17" />
			<line x1="64.04" y1="17.67" x2="64.04" y2="74.18" fill="none" stroke="#04475e" stroke-linecap="round"
				stroke-linejoin="round" stroke-width="1.17" />
			<line x1="80.86" y1="17.67" x2="80.86" y2="74.18" fill="none" stroke="#04475e" stroke-linecap="round"
				stroke-linejoin="round" stroke-width="1.17" />
			<line x1="97.69" y1="17.67" x2="97.69" y2="74.18" fill="none" stroke="#04475e" stroke-linecap="round"
				stroke-linejoin="round" stroke-width="1.17" />
			<line x1="114.52" y1="17.67" x2="114.52" y2="74.18" fill="none" stroke="#04475e" stroke-linecap="round"
				stroke-linejoin="round" stroke-width="1.17" />
			<line x1="131.35" y1="17.67" x2="131.35" y2="74.18" fill="none" stroke="#04475e" stroke-linecap="round"
				stroke-linejoin="round" stroke-width="1.17" />
			<line x1="148.18" y1="17.67" x2="148.18" y2="74.18" fill="none" stroke="#04475e" stroke-linecap="round"
				stroke-linejoin="round" stroke-width="1.17" />
			<line x1="165.01" y1="17.67" x2="165.01" y2="74.18" fill="none" stroke="#04475e" stroke-linecap="round"
				stroke-linejoin="round" stroke-width="1.17" />
			<line x1="181.84" y1="17.67" x2="181.84" y2="74.18" fill="none" stroke="#04475e" stroke-linecap="round"
				stroke-linejoin="round" stroke-width="1.17" />
			<line x1="198.67" y1="17.67" x2="198.67" y2="74.18" fill="none" stroke="#04475e" stroke-linecap="round"
				stroke-linejoin="round" stroke-width="1.17" />
			<line x1="215.5" y1="17.67" x2="215.5" y2="74.18" fill="none" stroke="#04475e" stroke-linecap="round"
				stroke-linejoin="round" stroke-width="1.17" />
			<line x1="72.45" y1="17.67" x2="72.45" y2="74.18" fill="none" stroke="#04475e" stroke-linecap="round"
				stroke-linejoin="round" stroke-width="1.17" />
			<line x1="89.28" y1="17.67" x2="89.28" y2="74.18" fill="none" stroke="#04475e" stroke-linecap="round"
				stroke-linejoin="round" stroke-width="1.17" />
			<line x1="106.11" y1="17.67" x2="106.11" y2="74.18" fill="none" stroke="#04475e" stroke-linecap="round"
				stroke-linejoin="round" stroke-width="1.17" />
			<line x1="122.94" y1="17.67" x2="122.94" y2="74.18" fill="none" stroke="#04475e" stroke-linecap="round"
				stroke-linejoin="round" stroke-width="1.17" />
			<line x1="139.77" y1="17.67" x2="139.77" y2="74.18" fill="none" stroke="#04475e" stroke-linecap="round"
				stroke-linejoin="round" stroke-width="1.17" />
			<line x1="156.6" y1="17.67" x2="156.6" y2="74.18" fill="none" stroke="#04475e" stroke-linecap="round"
				stroke-linejoin="round" stroke-width="1.17" />
			<line x1="173.43" y1="17.67" x2="173.43" y2="74.18" fill="none" stroke="#04475e" stroke-linecap="round"
				stroke-linejoin="round" stroke-width="1.17" />
			<line x1="190.26" y1="17.67" x2="190.26" y2="74.18" fill="none" stroke="#04475e" stroke-linecap="round"
				stroke-linejoin="round" stroke-width="1.17" />
			<line x1="207.09" y1="17.67" x2="207.09" y2="74.18" fill="none" stroke="#04475e" stroke-linecap="round"
				stroke-linejoin="round" stroke-width="1.17" />
			<line x1="223.92" y1="17.67" x2="223.92" y2="74.18" fill="none" stroke="#04475e" stroke-linecap="round"
				stroke-linejoin="round" stroke-width="1.17" />
		</g>
		<path
			d="M60.28,21.72,59.2,25.38a17.59,17.59,0,0,0-.72,5V65.3c0,5.19,35.76,9.4,79.89,9.4s79.88-4.21,79.88-9.4V30.36a17.59,17.59,0,0,0-.72-5l-1.08-3.66Z"
			fill="none" stroke="#04475e" stroke-linecap="round" stroke-linejoin="round" stroke-width="1.56" />
		<ellipse cx="138.34" cy="24.38" rx="78.11" ry="9.16" fill="#0379af" />
		<path d="M216.05,22.68c-4,4.74-37.27,8.44-77.71,8.44-37.75,0-69.25-3.22-76.53-7.5" fill="#0379af" />
		<path
			d="M216.05,22.68A10.69,10.69,0,0,1,211.81,25a45.73,45.73,0,0,1-4.7,1.35c-3.17.77-6.38,1.34-9.59,1.85-6.45,1-12.93,1.64-19.41,2.17-13,1.05-26,1.41-39,1.49s-26-.39-39-1.38c-6.49-.52-13-1.16-19.42-2.08-3.22-.47-6.43-1.05-9.61-1.74a35.26,35.26,0,0,1-9.24-3.08,23.92,23.92,0,0,0,4.57,1.63c.79.19,1.57.41,2.37.57l2.38.48c3.19.57,6.41,1,9.63,1.38,6.45.76,12.92,1.26,19.4,1.64q19.44,1.11,38.93,1T178,29.22c6.48-.39,12.95-.93,19.39-1.73,3.22-.4,6.43-.85,9.61-1.5a47,47,0,0,0,4.71-1.17A10.64,10.64,0,0,0,216.05,22.68Z"
			fill="#52bae0" />
		<path d="M61.81,23.62c-1-.61-1.59-1.25-1.59-1.9,0-5.19,35-9.4,78.12-9.4s78.11,4.21,78.11,9.4a1.5,1.5,0,0,1-.4,1"
			fill="#0379af" />
		<path
			d="M216.45,21.72c0-5.19-35-9.4-78.11-9.4s-78.12,4.21-78.12,9.4a.53.53,0,0,0,0,.12l-1,3.54a17.59,17.59,0,0,0-.72,5V65.3c0,5.19,35.76,9.4,79.88,9.4s79.89-4.21,79.89-9.4V30.36a17.59,17.59,0,0,0-.72-5Z"
			fill="none" stroke="#04475e" stroke-miterlimit="10" stroke-width="1.56" />
	</g>
</svg>