<svg xmlns="http://www.w3.org/2000/svg" xmlns:xlink="http://www.w3.org/1999/xlink" viewBox="0 0 113.79 102.77"><defs><style>.cls-1{isolation:isolate;}.cls-2{fill:url(#未命名的渐变_85);}.cls-3{fill:#ce7429;}.cls-11,.cls-13,.cls-15,.cls-17,.cls-19,.cls-24,.cls-28,.cls-30,.cls-32,.cls-34,.cls-36,.cls-38,.cls-4,.cls-40,.cls-42,.cls-44,.cls-46,.cls-48,.cls-50,.cls-52,.cls-54,.cls-56,.cls-58,.cls-7,.cls-9{opacity:0.5;mix-blend-mode:multiply;}.cls-4{fill:url(#未命名的渐变_85-2);}.cls-5{fill:#fff;}.cls-6{fill:url(#未命名的渐变_85-3);}.cls-7{fill:url(#未命名的渐变_85-4);}.cls-8{fill:url(#未命名的渐变_85-5);}.cls-9{fill:url(#未命名的渐变_85-6);}.cls-10{fill:url(#未命名的渐变_85-7);}.cls-11{fill:url(#未命名的渐变_85-8);}.cls-12{fill:url(#未命名的渐变_85-9);}.cls-13{fill:url(#未命名的渐变_85-10);}.cls-14{fill:url(#未命名的渐变_85-11);}.cls-15{fill:url(#未命名的渐变_85-12);}.cls-16{fill:url(#未命名的渐变_85-13);}.cls-17{fill:url(#未命名的渐变_85-14);}.cls-18{fill:url(#未命名的渐变_85-15);}.cls-19{fill:url(#未命名的渐变_85-16);}.cls-20{fill:url(#未命名的渐变_453);}.cls-21{fill:#8c334c;}.cls-22{fill:url(#未命名的渐变_445);}.cls-23{fill:#771727;}.cls-25{fill:url(#未命名的渐变_453-2);}.cls-26{fill:url(#未命名的渐变_97);}.cls-27{fill:url(#未命名的渐变_85-17);}.cls-28{fill:url(#未命名的渐变_85-18);}.cls-29{fill:url(#未命名的渐变_85-19);}.cls-30{fill:url(#未命名的渐变_85-20);}.cls-31{fill:url(#未命名的渐变_85-21);}.cls-32{fill:url(#未命名的渐变_85-22);}.cls-33{fill:url(#未命名的渐变_85-23);}.cls-34{fill:url(#未命名的渐变_85-24);}.cls-35{fill:url(#未命名的渐变_85-25);}.cls-36{fill:url(#未命名的渐变_85-26);}.cls-37{fill:url(#未命名的渐变_85-27);}.cls-38{fill:url(#未命名的渐变_85-28);}.cls-39{fill:url(#未命名的渐变_85-29);}.cls-40{fill:url(#未命名的渐变_85-30);}.cls-41{fill:url(#未命名的渐变_85-31);}.cls-42{fill:url(#未命名的渐变_85-32);}.cls-43{fill:url(#未命名的渐变_85-33);}.cls-44{fill:url(#未命名的渐变_85-34);}.cls-45{fill:url(#未命名的渐变_85-35);}.cls-46{fill:url(#未命名的渐变_85-36);}.cls-47{fill:url(#未命名的渐变_85-37);}.cls-48{fill:url(#未命名的渐变_85-38);}.cls-49{fill:url(#未命名的渐变_85-39);}.cls-50{fill:url(#未命名的渐变_85-40);}.cls-51{fill:url(#未命名的渐变_85-41);}.cls-52{fill:url(#未命名的渐变_85-42);}.cls-53{fill:url(#未命名的渐变_85-43);}.cls-54{fill:url(#未命名的渐变_85-44);}.cls-55{fill:url(#未命名的渐变_85-45);}.cls-56{fill:url(#未命名的渐变_85-46);}.cls-57{fill:url(#未命名的渐变_85-47);}.cls-58{fill:url(#未命名的渐变_85-48);}</style><linearGradient id="未命名的渐变_85" x1="21.78" y1="11.28" x2="21.78" y2="19.5" gradientUnits="userSpaceOnUse"><stop offset="0" stop-color="#ffc992"/><stop offset="1" stop-color="#ffe9d0"/></linearGradient><linearGradient id="未命名的渐变_85-2" x1="21.78" y1="11.39" x2="21.78" y2="19.4" xlink:href="#未命名的渐变_85"/><linearGradient id="未命名的渐变_85-3" x1="4" y1="44.66" x2="4" y2="52.88" xlink:href="#未命名的渐变_85"/><linearGradient id="未命名的渐变_85-4" x1="4" y1="44.77" x2="4" y2="52.77" xlink:href="#未命名的渐变_85"/><linearGradient id="未命名的渐变_85-5" x1="19.9" y1="82.29" x2="19.9" y2="90.52" xlink:href="#未命名的渐变_85"/><linearGradient id="未命名的渐变_85-6" x1="19.9" y1="82.41" x2="19.9" y2="90.41" xlink:href="#未命名的渐变_85"/><linearGradient id="未命名的渐变_85-7" x1="57.61" y1="94.65" x2="57.61" y2="102.88" xlink:href="#未命名的渐变_85"/><linearGradient id="未命名的渐变_85-8" x1="57.61" y1="94.76" x2="57.61" y2="102.77" xlink:href="#未命名的渐变_85"/><linearGradient id="未命名的渐变_85-9" x1="93.38" y1="80.94" x2="93.38" y2="89.16" xlink:href="#未命名的渐变_85"/><linearGradient id="未命名的渐变_85-10" x1="93.38" y1="81.05" x2="93.38" y2="89.06" xlink:href="#未命名的渐变_85"/><linearGradient id="未命名的渐变_85-11" x1="109.79" y1="45.51" x2="109.79" y2="53.73" xlink:href="#未命名的渐变_85"/><linearGradient id="未命名的渐变_85-12" x1="109.79" y1="45.62" x2="109.79" y2="53.63" xlink:href="#未命名的渐变_85"/><linearGradient id="未命名的渐变_85-13" x1="94.09" y1="13.05" x2="94.09" y2="21.27" xlink:href="#未命名的渐变_85"/><linearGradient id="未命名的渐变_85-14" x1="94.09" y1="13.16" x2="94.09" y2="21.17" xlink:href="#未命名的渐变_85"/><linearGradient id="未命名的渐变_85-15" x1="57.1" y1="-0.12" x2="57.1" y2="8.11" xlink:href="#未命名的渐变_85"/><linearGradient id="未命名的渐变_85-16" x1="57.1" y1="-0.01" x2="57.1" y2="8" xlink:href="#未命名的渐变_85"/><linearGradient id="未命名的渐变_453" x1="56.96" y1="99.71" x2="56.96" y2="1.38" gradientUnits="userSpaceOnUse"><stop offset="0" stop-color="#ffd8cd"/><stop offset="1" stop-color="#d66"/></linearGradient><linearGradient id="未命名的渐变_445" x1="56.96" y1="82.67" x2="56.96" y2="18.9" gradientUnits="userSpaceOnUse"><stop offset="0" stop-color="#ffb595"/><stop offset="1" stop-color="#c43f3f"/></linearGradient><linearGradient id="未命名的渐变_453-2" x1="56.96" y1="99.6" x2="56.96" y2="1.69" xlink:href="#未命名的渐变_453"/><linearGradient id="未命名的渐变_97" x1="57.04" y1="82.57" x2="57.04" y2="19" gradientUnits="userSpaceOnUse"><stop offset="0" stop-color="#ffac88"/><stop offset="1" stop-color="#d83636"/></linearGradient><linearGradient id="未命名的渐变_85-17" x1="56.96" y1="11.28" x2="56.96" y2="19.5" xlink:href="#未命名的渐变_85"/><linearGradient id="未命名的渐变_85-18" x1="56.96" y1="11.39" x2="56.96" y2="19.39" xlink:href="#未命名的渐变_85"/><linearGradient id="未命名的渐变_85-19" x1="37.85" y1="3.68" x2="37.85" y2="11.91" xlink:href="#未命名的渐变_85"/><linearGradient id="未命名的渐变_85-20" x1="37.85" y1="3.79" x2="37.85" y2="11.8" xlink:href="#未命名的渐变_85"/><linearGradient id="未命名的渐变_85-21" x1="11.06" y1="25.51" x2="11.06" y2="33.74" xlink:href="#未命名的渐变_85"/><linearGradient id="未命名的渐变_85-22" x1="11.06" y1="25.62" x2="11.06" y2="33.63" xlink:href="#未命名的渐变_85"/><linearGradient id="未命名的渐变_85-23" x1="9.43" y1="66.56" x2="9.43" y2="74.78" xlink:href="#未命名的渐变_85"/><linearGradient id="未命名的渐变_85-24" x1="9.43" y1="66.67" x2="9.43" y2="74.67" xlink:href="#未命名的渐变_85"/><linearGradient id="未命名的渐变_85-25" x1="39.25" y1="90.85" x2="39.25" y2="99.08" xlink:href="#未命名的渐变_85"/><linearGradient id="未命名的渐变_85-26" x1="39.25" y1="90.96" x2="39.25" y2="98.97" xlink:href="#未命名的渐变_85"/><linearGradient id="未命名的渐变_85-27" x1="76.73" y1="90.85" x2="76.73" y2="99.08" xlink:href="#未命名的渐变_85"/><linearGradient id="未命名的渐变_85-28" x1="76.73" y1="90.96" x2="76.73" y2="98.97" xlink:href="#未命名的渐变_85"/><linearGradient id="未命名的渐变_85-29" x1="104.78" y1="66.56" x2="104.78" y2="74.78" xlink:href="#未命名的渐变_85"/><linearGradient id="未命名的渐变_85-30" x1="104.78" y1="66.67" x2="104.78" y2="74.68" xlink:href="#未命名的渐变_85"/><linearGradient id="未命名的渐变_85-31" x1="103.15" y1="24.46" x2="103.15" y2="32.68" xlink:href="#未命名的渐变_85"/><linearGradient id="未命名的渐变_85-32" x1="103.15" y1="24.57" x2="103.15" y2="32.58" xlink:href="#未命名的渐变_85"/><linearGradient id="未命名的渐变_85-33" x1="77.83" y1="4.93" x2="77.83" y2="13.15" xlink:href="#未命名的渐变_85"/><linearGradient id="未命名的渐变_85-34" x1="77.83" y1="5.04" x2="77.83" y2="13.05" xlink:href="#未命名的渐变_85"/><linearGradient id="未命名的渐变_85-35" x1="29.38" y1="20.66" x2="29.38" y2="28.89" xlink:href="#未命名的渐变_85"/><linearGradient id="未命名的渐变_85-36" x1="29.38" y1="20.77" x2="29.38" y2="28.78" xlink:href="#未命名的渐变_85"/><linearGradient id="未命名的渐变_85-37" x1="16.74" y1="43.41" x2="16.74" y2="51.63" xlink:href="#未命名的渐变_85"/><linearGradient id="未命名的渐变_85-38" x1="16.74" y1="43.52" x2="16.74" y2="51.53" xlink:href="#未命名的渐变_85"/><linearGradient id="未命名的渐变_85-39" x1="-15.08" y1="20.66" x2="-15.08" y2="28.89" gradientTransform="matrix(-1, 0, 0, 1, 69.47, 0)" xlink:href="#未命名的渐变_85"/><linearGradient id="未命名的渐变_85-40" x1="-15.08" y1="20.77" x2="-15.08" y2="28.78" gradientTransform="matrix(-1, 0, 0, 1, 69.47, 0)" xlink:href="#未命名的渐变_85"/><linearGradient id="未命名的渐变_85-41" x1="-27.72" y1="43.41" x2="-27.72" y2="51.63" gradientTransform="matrix(-1, 0, 0, 1, 69.47, 0)" xlink:href="#未命名的渐变_85"/><linearGradient id="未命名的渐变_85-42" x1="-27.72" y1="43.52" x2="-27.72" y2="51.53" gradientTransform="matrix(-1, 0, 0, 1, 69.47, 0)" xlink:href="#未命名的渐变_85"/><linearGradient id="未命名的渐变_85-43" x1="62.89" y1="-29.86" x2="62.89" y2="-21.64" gradientTransform="matrix(0, 1, 1, 0, 82.71, 23.52)" xlink:href="#未命名的渐变_85"/><linearGradient id="未命名的渐变_85-44" x1="62.89" y1="-29.75" x2="62.89" y2="-21.75" gradientTransform="matrix(0, 1, 1, 0, 82.71, 23.52)" xlink:href="#未命名的渐变_85"/><linearGradient id="未命名的渐变_85-45" x1="29.38" y1="-12.64" x2="29.38" y2="-4.42" gradientTransform="matrix(-0.71, 0.71, 0.71, 0.71, 56.18, 62.28)" xlink:href="#未命名的渐变_85"/><linearGradient id="未命名的渐变_85-46" x1="29.38" y1="-12.53" x2="29.38" y2="-4.52" gradientTransform="matrix(-0.71, 0.71, 0.71, 0.71, 56.18, 62.28)" xlink:href="#未命名的渐变_85"/><linearGradient id="未命名的渐变_85-47" x1="-20.56" y1="-12.64" x2="-20.56" y2="-4.42" gradientTransform="translate(105.11 85.55)" xlink:href="#未命名的渐变_85"/><linearGradient id="未命名的渐变_85-48" x1="-20.56" y1="-12.53" x2="-20.56" y2="-4.52" gradientTransform="translate(105.11 85.55)" xlink:href="#未命名的渐变_85"/></defs><title>资源 6xxxhdpi</title><g class="cls-1"><g id="图层_2" data-name="图层 2"><g id="图层_1-2" data-name="图层 1"><circle class="cls-2" cx="21.78" cy="15.4" r="3.9"/><path class="cls-3" d="M21.78,11.6A3.8,3.8,0,1,1,18,15.4a3.8,3.8,0,0,1,3.8-3.8m0-.2a4,4,0,1,0,4,4,4,4,0,0,0-4-4Z"/><path class="cls-4" d="M25.58,15.4a3.8,3.8,0,0,0-3.68-3.8l.4.12a5.2,5.2,0,0,1,1,.48,2.47,2.47,0,0,1,1.22,2.07c0,.65-.41,1.3-.21,1.93a3,3,0,0,1,.16.51c.06.52-.54.87-1.05.92a4.06,4.06,0,0,0-1.53.22,2.7,2.7,0,0,1-.5.27,1.21,1.21,0,0,1-.95-.32,9.61,9.61,0,0,1-1.51-1.26,3,3,0,0,1-.82-1.76,3,3,0,0,1,0-.42,4,4,0,0,0-.15,1,3.8,3.8,0,1,0,7.6,0Z"/><circle class="cls-5" cx="19.9" cy="13.1" r="0.26"/><circle class="cls-5" cx="19.25" cy="13.85" r="0.2"/><path class="cls-6" d="M4,52.67a3.9,3.9,0,1,1,3.9-3.9A3.91,3.91,0,0,1,4,52.67Z"/><path class="cls-3" d="M4,45a3.8,3.8,0,1,1-3.8,3.8A3.8,3.8,0,0,1,4,45m0-.2a4,4,0,1,0,4,4,4,4,0,0,0-4-4Z"/><path class="cls-7" d="M7.8,48.77A3.79,3.79,0,0,0,4.12,45c.13,0,.27.07.4.12a4.91,4.91,0,0,1,1,.48,2.49,2.49,0,0,1,1.22,2.06c0,.66-.41,1.31-.21,1.94a3,3,0,0,1,.16.51c0,.51-.54.86-1.06.92a3.92,3.92,0,0,0-1.53.21,2.39,2.39,0,0,1-.49.28,1.18,1.18,0,0,1-1-.33,9.1,9.1,0,0,1-1.51-1.26,3,3,0,0,1-.82-1.75,2,2,0,0,1,0-.42,3.52,3.52,0,0,0-.15,1,3.8,3.8,0,0,0,7.6,0Z"/><circle class="cls-5" cx="2.11" cy="46.48" r="0.26"/><circle class="cls-5" cx="1.47" cy="47.22" r="0.2"/><circle class="cls-8" cx="19.9" cy="86.41" r="3.9"/><path class="cls-3" d="M19.9,82.61a3.8,3.8,0,1,1-3.8,3.8,3.8,3.8,0,0,1,3.8-3.8m0-.2a4,4,0,1,0,4,4,4,4,0,0,0-4-4Z"/><path class="cls-9" d="M23.7,86.41A3.79,3.79,0,0,0,20,82.62a3.17,3.17,0,0,1,.41.12,4.18,4.18,0,0,1,1,.48,2.44,2.44,0,0,1,1.22,2.06c0,.65-.4,1.31-.21,1.93a3.05,3.05,0,0,1,.17.51c0,.52-.54.87-1.06.93a3.89,3.89,0,0,0-1.53.21,2.62,2.62,0,0,1-.49.27,1.19,1.19,0,0,1-.95-.32,8.35,8.35,0,0,1-1.51-1.26,3,3,0,0,1-.83-1.75,3,3,0,0,1,0-.42,3.88,3.88,0,0,0-.14,1,3.8,3.8,0,0,0,7.6,0Z"/><circle class="cls-5" cx="18.01" cy="84.12" r="0.26"/><circle class="cls-5" cx="17.36" cy="84.86" r="0.2"/><path class="cls-10" d="M57.61,102.67a3.9,3.9,0,1,1,3.9-3.9A3.91,3.91,0,0,1,57.61,102.67Z"/><path class="cls-3" d="M57.61,95a3.8,3.8,0,1,1-3.8,3.8,3.8,3.8,0,0,1,3.8-3.8m0-.2a4,4,0,1,0,4,4,4,4,0,0,0-4-4Z"/><path class="cls-11" d="M61.41,98.77A3.79,3.79,0,0,0,57.73,95a3,3,0,0,1,.4.12,4.25,4.25,0,0,1,1,.48,2.47,2.47,0,0,1,1.22,2.06c0,.65-.41,1.31-.21,1.93a3,3,0,0,1,.16.51c0,.52-.54.87-1.05.93a3.94,3.94,0,0,0-1.54.21,2.34,2.34,0,0,1-.49.27,1.21,1.21,0,0,1-.95-.32,9.1,9.1,0,0,1-1.51-1.26A3,3,0,0,1,54,98.16a2,2,0,0,1,0-.42,3.52,3.52,0,0,0-.15,1,3.8,3.8,0,0,0,7.6,0Z"/><circle class="cls-5" cx="55.73" cy="96.48" r="0.26"/><circle class="cls-5" cx="55.08" cy="97.22" r="0.2"/><path class="cls-12" d="M93.38,89a3.9,3.9,0,1,1,3.9-3.9A3.91,3.91,0,0,1,93.38,89Z"/><path class="cls-3" d="M93.38,81.26a3.8,3.8,0,1,1-3.8,3.8,3.8,3.8,0,0,1,3.8-3.8m0-.2a4,4,0,1,0,4,4,4,4,0,0,0-4-4Z"/><path class="cls-13" d="M97.18,85.06a3.81,3.81,0,0,0-3.68-3.8l.4.13a4.44,4.44,0,0,1,1,.47,2.47,2.47,0,0,1,1.22,2.07c0,.65-.4,1.3-.21,1.93a2.32,2.32,0,0,1,.16.51c.06.52-.53.87-1,.92a4.06,4.06,0,0,0-1.53.22,2.42,2.42,0,0,1-.5.27,1.18,1.18,0,0,1-.94-.32,9.25,9.25,0,0,1-1.52-1.26,3.1,3.1,0,0,1-.82-1.76,3,3,0,0,1,0-.42,4,4,0,0,0-.15,1,3.8,3.8,0,0,0,7.6,0Z"/><circle class="cls-5" cx="91.5" cy="82.76" r="0.26"/><circle class="cls-5" cx="90.85" cy="83.51" r="0.2"/><circle class="cls-14" cx="109.79" cy="49.63" r="3.9"/><path class="cls-3" d="M109.79,45.83a3.8,3.8,0,1,1-3.8,3.8,3.8,3.8,0,0,1,3.8-3.8m0-.2a4,4,0,1,0,4,4,4,4,0,0,0-4-4Z"/><path class="cls-15" d="M113.59,49.63a3.81,3.81,0,0,0-3.69-3.8l.41.12a5.12,5.12,0,0,1,1,.48,2.47,2.47,0,0,1,1.22,2.07c0,.65-.4,1.3-.21,1.93a3.05,3.05,0,0,1,.17.51c.05.52-.54.87-1.06.92a4.09,4.09,0,0,0-1.53.22,2.62,2.62,0,0,1-.49.27,1.19,1.19,0,0,1-1-.32A9.18,9.18,0,0,1,107,50.77a3,3,0,0,1-.82-1.76,2,2,0,0,1,0-.42,4,4,0,0,0-.14,1,3.8,3.8,0,1,0,7.6,0Z"/><circle class="cls-5" cx="107.9" cy="47.33" r="0.26"/><circle class="cls-5" cx="107.25" cy="48.08" r="0.2"/><circle class="cls-16" cx="94.09" cy="17.17" r="3.9"/><path class="cls-3" d="M94.09,13.37a3.8,3.8,0,1,1-3.8,3.8,3.8,3.8,0,0,1,3.8-3.8m0-.2a4,4,0,1,0,4,4,4,4,0,0,0-4-4Z"/><path class="cls-17" d="M97.89,17.17a3.81,3.81,0,0,0-3.68-3.8l.4.12a5.49,5.49,0,0,1,1,.48A2.5,2.5,0,0,1,96.84,16c0,.65-.41,1.3-.21,1.93a3,3,0,0,1,.16.51c0,.52-.54.87-1.06.92a4.12,4.12,0,0,0-1.53.22,2.34,2.34,0,0,1-.49.27,1.21,1.21,0,0,1-.95-.32,9.61,9.61,0,0,1-1.51-1.26,3,3,0,0,1-.82-1.76,2,2,0,0,1,0-.42,3.58,3.58,0,0,0-.15,1,3.8,3.8,0,0,0,7.6,0Z"/><circle class="cls-5" cx="92.2" cy="14.87" r="0.26"/><circle class="cls-5" cx="91.56" cy="15.62" r="0.2"/><path class="cls-18" d="M57.1,7.9A3.9,3.9,0,1,1,61,4,3.91,3.91,0,0,1,57.1,7.9Z"/><path class="cls-3" d="M57.1.2A3.8,3.8,0,1,1,53.3,4,3.8,3.8,0,0,1,57.1.2m0-.2a4,4,0,1,0,4,4,4,4,0,0,0-4-4Z"/><path class="cls-19" d="M60.9,4A3.79,3.79,0,0,0,57.22.21a3,3,0,0,1,.4.12,4.44,4.44,0,0,1,1,.48,2.47,2.47,0,0,1,1.22,2.06c0,.65-.41,1.31-.21,1.93a3,3,0,0,1,.16.51c.05.52-.54.87-1.06.93a3.92,3.92,0,0,0-1.53.21,2.34,2.34,0,0,1-.49.27,1.21,1.21,0,0,1-.95-.32,9.1,9.1,0,0,1-1.51-1.26,3,3,0,0,1-.82-1.75,1.93,1.93,0,0,1,0-.42,3.47,3.47,0,0,0-.15,1,3.8,3.8,0,1,0,7.6,0Z"/><circle class="cls-5" cx="55.21" cy="1.71" r="0.26"/><circle class="cls-5" cx="54.57" cy="2.45" r="0.2"/><ellipse class="cls-20" cx="56.96" cy="51.23" rx="51.55" ry="45.92"/><path class="cls-21" d="M57,5.4c28.42,0,51.45,20.52,51.45,45.83S85.38,97.05,57,97.05,5.51,76.53,5.51,51.23,28.55,5.4,57,5.4m0-.2c-28.48,0-51.65,20.65-51.65,46s23.17,46,51.65,46,51.65-20.65,51.65-46S85.44,5.2,57,5.2Z"/><ellipse class="cls-22" cx="56.96" cy="51.23" rx="33.43" ry="29.78"/><path class="cls-23" d="M57,21.54c18.41,0,33.33,13.29,33.33,29.69S75.37,80.91,57,80.91,23.63,67.62,23.63,51.23,38.56,21.54,57,21.54m0-.2c-18.48,0-33.53,13.41-33.53,29.89S38.48,81.11,57,81.11,90.49,67.7,90.49,51.23,75.45,21.34,57,21.34Z"/><g class="cls-24"><path class="cls-25" d="M61.61,5.6,71,9.67l1.29.56A12.61,12.61,0,0,1,77,13.17c1.14,1.31,1.68,3,2.64,4.48,2.64,4,8,5.4,10.89,9.18C93.79,31,93.33,37,95.82,41.73c2,3.72,5.83,6.66,6.19,10.87a13.4,13.4,0,0,1-1.32,6A107.37,107.37,0,0,1,88.18,81.33a13.54,13.54,0,0,1-4.26,4.26c-3.13,1.68-7,.82-10.47,1.33-3.86.56-7.32,2.79-11.17,3.37s-7.68-.49-11.4-1.56C42,86.18,33,83.6,24.75,79.27c-3.56-1.88-7.11-4.26-8.9-7.86-1.23-2.46-1.52-5.26-2.28-7.89-1.3-4.48-4-8.47-5.12-13C7.14,45.35,7.94,40.06,9,34.74A41.27,41.27,0,0,0,5.51,51.23c0,25.3,23,45.82,51.45,45.82s51.45-20.52,51.45-45.82C108.41,27.32,87.84,7.69,61.61,5.6Z"/></g><g class="cls-24"><path class="cls-26" d="M57,80.91c18.41,0,33.33-13.29,33.33-29.68S75.37,21.54,57,21.54a38.4,38.4,0,0,0-4.32.26,18.71,18.71,0,0,1,2.91,1.52C59,25.48,61.92,28.4,65.64,30c2.47,1,5.18,1.44,7.66,2.46s4.86,2.92,5.34,5.56c1.07,5.86-7.31,9.77-7.34,15.72,0,2.64,1.69,5.18,1.21,7.78-.6,3.34-4.34,5-7.57,6.05l-14.09,4.7a10.88,10.88,0,0,1-5.4.82,10.42,10.42,0,0,1-4.34-2.4A138.25,138.25,0,0,1,26.3,57.05a25.23,25.23,0,0,1-2.51-3C25.37,69.1,39.62,80.91,57,80.91Z"/></g><circle class="cls-5" cx="31.16" cy="17.17" r="1.78"/><circle class="cls-5" cx="25.35" cy="22.27" r="1.29"/><path class="cls-27" d="M57,19.29a3.9,3.9,0,1,1,3.9-3.9A3.91,3.91,0,0,1,57,19.29Z"/><path class="cls-3" d="M57,11.59a3.8,3.8,0,1,1-3.8,3.8,3.8,3.8,0,0,1,3.8-3.8m0-.2a4,4,0,1,0,4,4,4,4,0,0,0-4-4Z"/><path class="cls-28" d="M60.76,15.39a3.79,3.79,0,0,0-3.68-3.79c.13,0,.27.07.4.12a4.68,4.68,0,0,1,1,.48,2.47,2.47,0,0,1,1.22,2.06c0,.66-.4,1.31-.21,1.93a2.59,2.59,0,0,1,.16.52c.06.51-.54.86-1,.92a3.87,3.87,0,0,0-1.53.21,2.76,2.76,0,0,1-.5.28,1.23,1.23,0,0,1-.95-.33,9.1,9.1,0,0,1-1.51-1.26,3.1,3.1,0,0,1-.82-1.75,3,3,0,0,1,0-.42,3.88,3.88,0,0,0-.15,1,3.8,3.8,0,1,0,7.6,0Z"/><circle class="cls-5" cx="55.08" cy="13.1" r="0.26"/><circle class="cls-5" cx="54.43" cy="13.84" r="0.2"/><circle class="cls-29" cx="37.85" cy="7.8" r="3.9"/><path class="cls-3" d="M37.85,4a3.8,3.8,0,1,1-3.8,3.8A3.8,3.8,0,0,1,37.85,4m0-.2a4,4,0,1,0,4,4,4,4,0,0,0-4-4Z"/><path class="cls-30" d="M41.65,7.8A3.79,3.79,0,0,0,38,4a3,3,0,0,1,.4.12,4.25,4.25,0,0,1,1,.48A2.47,2.47,0,0,1,40.6,6.67c0,.65-.41,1.31-.21,1.93a3,3,0,0,1,.16.51c.05.52-.54.87-1,.92a4.14,4.14,0,0,0-1.54.22,2.34,2.34,0,0,1-.49.27,1.21,1.21,0,0,1-.95-.32A9.1,9.1,0,0,1,35,8.94a3,3,0,0,1-.82-1.75,1.93,1.93,0,0,1,0-.42,3.47,3.47,0,0,0-.15,1,3.8,3.8,0,1,0,7.6,0Z"/><circle class="cls-5" cx="35.96" cy="5.51" r="0.26"/><circle class="cls-5" cx="35.32" cy="6.25" r="0.2"/><path class="cls-31" d="M11.06,33.53a3.9,3.9,0,1,1,3.9-3.9A3.91,3.91,0,0,1,11.06,33.53Z"/><path class="cls-3" d="M11.06,25.83a3.8,3.8,0,1,1-3.8,3.8,3.8,3.8,0,0,1,3.8-3.8m0-.2a4,4,0,1,0,4,4,4,4,0,0,0-4-4Z"/><path class="cls-32" d="M14.86,29.63a3.79,3.79,0,0,0-3.69-3.79,3.17,3.17,0,0,1,.41.12,4.18,4.18,0,0,1,1,.48A2.44,2.44,0,0,1,13.8,28.5c0,.65-.4,1.31-.21,1.93a3.05,3.05,0,0,1,.17.51c.05.52-.54.87-1.06.93a3.89,3.89,0,0,0-1.53.21,2.62,2.62,0,0,1-.49.27A1.19,1.19,0,0,1,9.73,32a8.35,8.35,0,0,1-1.51-1.26A3,3,0,0,1,7.39,29a3,3,0,0,1,0-.42,3.8,3.8,0,1,0,7.46,1Z"/><circle class="cls-5" cx="9.17" cy="27.34" r="0.26"/><circle class="cls-5" cx="8.52" cy="28.08" r="0.2"/><circle class="cls-33" cx="9.43" cy="70.67" r="3.9"/><path class="cls-3" d="M9.43,66.87a3.8,3.8,0,1,1-3.8,3.8,3.8,3.8,0,0,1,3.8-3.8m0-.2a4,4,0,1,0,4,4,4,4,0,0,0-4-4Z"/><path class="cls-34" d="M13.23,70.67a3.79,3.79,0,0,0-3.69-3.79c.14,0,.28.07.41.12a4.6,4.6,0,0,1,1,.48,2.48,2.48,0,0,1,1.23,2.06c0,.66-.41,1.31-.22,1.93a2.63,2.63,0,0,1,.17.52c0,.51-.54.86-1.06.92a3.92,3.92,0,0,0-1.53.21,2.39,2.39,0,0,1-.49.28,1.17,1.17,0,0,1-1-.33,9.1,9.1,0,0,1-1.51-1.26,3,3,0,0,1-.82-1.75,2.94,2.94,0,0,1,0-.42,3.88,3.88,0,0,0-.14,1,3.8,3.8,0,0,0,7.6,0Z"/><circle class="cls-5" cx="7.54" cy="68.38" r="0.26"/><circle class="cls-5" cx="6.89" cy="69.12" r="0.2"/><path class="cls-35" d="M39.25,98.87a3.9,3.9,0,1,1,3.9-3.9A3.91,3.91,0,0,1,39.25,98.87Z"/><path class="cls-3" d="M39.25,91.17a3.8,3.8,0,1,1-3.8,3.8,3.8,3.8,0,0,1,3.8-3.8m0-.2a4,4,0,1,0,4,4,4,4,0,0,0-4-4Z"/><path class="cls-36" d="M43.05,95a3.79,3.79,0,0,0-3.69-3.79,2.77,2.77,0,0,1,.41.12,4.44,4.44,0,0,1,1,.48A2.47,2.47,0,0,1,42,93.84c0,.65-.41,1.31-.22,1.93a2.35,2.35,0,0,1,.17.51c0,.52-.54.87-1.06.93a3.92,3.92,0,0,0-1.53.21,2.34,2.34,0,0,1-.49.27,1.19,1.19,0,0,1-.95-.32,9.1,9.1,0,0,1-1.51-1.26,3,3,0,0,1-.82-1.75,2.94,2.94,0,0,1,0-.42,3.88,3.88,0,0,0-.14,1,3.8,3.8,0,0,0,7.6,0Z"/><circle class="cls-5" cx="37.36" cy="92.68" r="0.26"/><circle class="cls-5" cx="36.71" cy="93.42" r="0.2"/><path class="cls-37" d="M76.73,98.87a3.9,3.9,0,1,1,3.9-3.9A3.91,3.91,0,0,1,76.73,98.87Z"/><path class="cls-3" d="M76.73,91.17a3.8,3.8,0,1,1-3.8,3.8,3.8,3.8,0,0,1,3.8-3.8m0-.2a4,4,0,1,0,4,4,4,4,0,0,0-4-4Z"/><path class="cls-38" d="M80.53,95a3.79,3.79,0,0,0-3.68-3.79,2.64,2.64,0,0,1,.4.12,4.08,4.08,0,0,1,1,.48,2.44,2.44,0,0,1,1.22,2.06c0,.65-.4,1.31-.21,1.93a2.32,2.32,0,0,1,.16.51c.06.52-.53.87-1.05.93a3.87,3.87,0,0,0-1.53.21,2.42,2.42,0,0,1-.5.27,1.18,1.18,0,0,1-.94-.32,8.78,8.78,0,0,1-1.52-1.26,3.1,3.1,0,0,1-.82-1.75,3,3,0,0,1,0-.42,3.88,3.88,0,0,0-.15,1,3.8,3.8,0,1,0,7.6,0Z"/><circle class="cls-5" cx="74.85" cy="92.68" r="0.26"/><circle class="cls-5" cx="74.2" cy="93.42" r="0.2"/><circle class="cls-39" cx="104.78" cy="70.68" r="3.9"/><path class="cls-3" d="M104.78,66.88a3.8,3.8,0,1,1-3.8,3.8,3.8,3.8,0,0,1,3.8-3.8m0-.2a4,4,0,1,0,4,4,4,4,0,0,0-4-4Z"/><path class="cls-40" d="M108.58,70.68a3.8,3.8,0,0,0-3.68-3.8l.4.12a5.2,5.2,0,0,1,1,.48,2.47,2.47,0,0,1,1.22,2.07c0,.65-.4,1.3-.21,1.93a2.32,2.32,0,0,1,.16.51c.06.52-.53.87-1,.92a4.06,4.06,0,0,0-1.53.22,2.7,2.7,0,0,1-.5.27,1.22,1.22,0,0,1-1-.32,9.61,9.61,0,0,1-1.51-1.26,3.1,3.1,0,0,1-.82-1.76,3,3,0,0,1,0-.42,4,4,0,0,0-.15,1,3.8,3.8,0,0,0,7.6,0Z"/><circle class="cls-5" cx="102.9" cy="68.38" r="0.26"/><circle class="cls-5" cx="102.25" cy="69.13" r="0.2"/><path class="cls-41" d="M103.16,32.48a3.9,3.9,0,1,1,3.89-3.9A3.9,3.9,0,0,1,103.16,32.48Z"/><path class="cls-3" d="M103.15,24.78a3.8,3.8,0,1,1-3.79,3.8,3.8,3.8,0,0,1,3.79-3.8m0-.2a4,4,0,1,0,4,4,4,4,0,0,0-4-4Z"/><path class="cls-42" d="M107,28.58a3.78,3.78,0,0,0-3.68-3.79,3.17,3.17,0,0,1,.41.12,4.18,4.18,0,0,1,1,.48,2.44,2.44,0,0,1,1.22,2.06c0,.65-.4,1.31-.21,1.93a3.05,3.05,0,0,1,.17.51c0,.52-.54.87-1.06.92a4.06,4.06,0,0,0-1.53.22,2.42,2.42,0,0,1-.5.27,1.18,1.18,0,0,1-.94-.32,8.35,8.35,0,0,1-1.51-1.26,2.59,2.59,0,0,1-.82-2.18,4,4,0,0,0-.14,1,3.8,3.8,0,1,0,7.59,0Z"/><circle class="cls-5" cx="101.27" cy="26.29" r="0.26"/><circle class="cls-5" cx="100.62" cy="27.03" r="0.2"/><path class="cls-43" d="M77.83,13a3.9,3.9,0,1,1,3.89-3.9A3.9,3.9,0,0,1,77.83,13Z"/><path class="cls-3" d="M77.83,5.25A3.8,3.8,0,1,1,74,9.05a3.8,3.8,0,0,1,3.8-3.8m0-.2a4,4,0,1,0,4,4,4,4,0,0,0-4-4Z"/><path class="cls-44" d="M81.62,9.05a3.8,3.8,0,0,0-3.68-3.8l.41.13a4.18,4.18,0,0,1,1,.48,2.44,2.44,0,0,1,1.22,2.06c0,.65-.4,1.3-.21,1.93a3.05,3.05,0,0,1,.17.51c0,.52-.54.87-1.06.92a4.09,4.09,0,0,0-1.53.22,2.42,2.42,0,0,1-.5.27,1.18,1.18,0,0,1-.94-.32A8.35,8.35,0,0,1,75,10.19a3,3,0,0,1-.83-1.76,3,3,0,0,1,0-.42,4,4,0,0,0-.14,1,3.8,3.8,0,1,0,7.59,0Z"/><circle class="cls-5" cx="75.94" cy="6.75" r="0.26"/><circle class="cls-5" cx="75.29" cy="7.5" r="0.2"/><path class="cls-45" d="M29.38,28.68a3.9,3.9,0,1,1,3.9-3.9A3.91,3.91,0,0,1,29.38,28.68Z"/><path class="cls-3" d="M29.38,21a3.8,3.8,0,1,1-3.8,3.8,3.8,3.8,0,0,1,3.8-3.8m0-.2a4,4,0,1,0,4,4,4,4,0,0,0-4-4Z"/><path class="cls-46" d="M33.18,24.78A3.79,3.79,0,0,0,29.5,21a3,3,0,0,1,.4.12,4.44,4.44,0,0,1,1,.48,2.47,2.47,0,0,1,1.22,2.06c0,.65-.41,1.31-.22,1.93a2.35,2.35,0,0,1,.17.51c.05.52-.54.87-1.06.93a3.92,3.92,0,0,0-1.53.21,2.34,2.34,0,0,1-.49.27,1.21,1.21,0,0,1-.95-.32,9.1,9.1,0,0,1-1.51-1.26,3,3,0,0,1-.82-1.75,1.93,1.93,0,0,1,0-.42,3.47,3.47,0,0,0-.15,1,3.8,3.8,0,1,0,7.6,0Z"/><circle class="cls-5" cx="27.49" cy="22.49" r="0.26"/><circle class="cls-5" cx="26.85" cy="23.23" r="0.2"/><path class="cls-47" d="M16.74,51.42a3.9,3.9,0,1,1,3.9-3.89A3.9,3.9,0,0,1,16.74,51.42Z"/><path class="cls-3" d="M16.74,43.73a3.8,3.8,0,1,1-3.8,3.79,3.8,3.8,0,0,1,3.8-3.79m0-.2a4,4,0,1,0,4,4,4,4,0,0,0-4-4Z"/><path class="cls-48" d="M20.54,47.52a3.8,3.8,0,0,0-3.68-3.79l.4.12a5.2,5.2,0,0,1,1,.48,2.47,2.47,0,0,1,1.22,2.06c0,.66-.41,1.31-.21,1.94a3,3,0,0,1,.16.51c0,.52-.54.87-1.05.92a4.14,4.14,0,0,0-1.54.22,2.34,2.34,0,0,1-.49.27,1.21,1.21,0,0,1-.95-.32,9.68,9.68,0,0,1-1.51-1.27,3,3,0,0,1-.82-1.75,2,2,0,0,1,0-.42,3.57,3.57,0,0,0-.15,1,3.8,3.8,0,0,0,7.6,0Z"/><circle class="cls-5" cx="14.86" cy="45.23" r="0.26"/><circle class="cls-5" cx="14.21" cy="45.98" r="0.2"/><circle class="cls-49" cx="84.55" cy="24.78" r="3.9"/><path class="cls-3" d="M84.55,21a3.8,3.8,0,1,1-3.8,3.8,3.8,3.8,0,0,1,3.8-3.8m0-.2a4,4,0,1,0,4,4,4,4,0,0,0-4-4Z"/><path class="cls-50" d="M80.75,24.78A3.79,3.79,0,0,1,84.43,21a2.64,2.64,0,0,0-.4.12,4.08,4.08,0,0,0-1,.48,2.44,2.44,0,0,0-1.22,2.06c0,.65.4,1.31.21,1.93a3.05,3.05,0,0,0-.17.51c0,.52.54.87,1.06.93a3.87,3.87,0,0,1,1.53.21,2.42,2.42,0,0,0,.5.27,1.18,1.18,0,0,0,.94-.32,8.35,8.35,0,0,0,1.51-1.26,3,3,0,0,0,.83-1.75,2.87,2.87,0,0,0,0-.42,3.8,3.8,0,1,1-7.45,1Z"/><circle class="cls-5" cx="86.43" cy="22.49" r="0.26"/><circle class="cls-5" cx="87.08" cy="23.23" r="0.2"/><circle class="cls-51" cx="97.18" cy="47.53" r="3.9"/><path class="cls-3" d="M97.18,43.73a3.8,3.8,0,1,1-3.8,3.79,3.8,3.8,0,0,1,3.8-3.79m0-.2a4,4,0,1,0,4,4,4,4,0,0,0-4-4Z"/><path class="cls-52" d="M93.38,47.52a3.8,3.8,0,0,1,3.69-3.79l-.41.12a5.12,5.12,0,0,0-1,.48,2.47,2.47,0,0,0-1.22,2.06c0,.66.4,1.31.21,1.94a3.05,3.05,0,0,0-.17.51c0,.52.54.87,1.06.92a4.09,4.09,0,0,1,1.53.22,2.62,2.62,0,0,0,.49.27,1.19,1.19,0,0,0,1-.32A9.24,9.24,0,0,0,100,48.66a2.73,2.73,0,0,0,.82-2.17,3.94,3.94,0,0,1,.14,1,3.8,3.8,0,1,1-7.6,0Z"/><circle class="cls-5" cx="99.07" cy="45.23" r="0.26"/><circle class="cls-5" cx="99.72" cy="45.98" r="0.2"/><path class="cls-53" d="M57,90.31a3.9,3.9,0,1,1,3.9-3.9A3.91,3.91,0,0,1,57,90.31Z"/><path class="cls-3" d="M57,82.61a3.8,3.8,0,1,1-3.8,3.8,3.8,3.8,0,0,1,3.8-3.8m0-.2a4,4,0,1,0,4,4,4,4,0,0,0-4-4Z"/><path class="cls-54" d="M57,90.21a3.79,3.79,0,0,1-3.79-3.68c0,.13.07.27.12.4a4.91,4.91,0,0,0,.48,1,2.49,2.49,0,0,0,2.06,1.22c.66,0,1.31-.41,1.93-.21a3.72,3.72,0,0,0,.51.16c.52,0,.87-.54.93-1a3.94,3.94,0,0,1,.21-1.54,2.39,2.39,0,0,0,.28-.49,1.21,1.21,0,0,0-.33-1,9.1,9.1,0,0,0-1.26-1.51,3,3,0,0,0-1.75-.82,2,2,0,0,0-.42,0,3.52,3.52,0,0,1,1-.15,3.8,3.8,0,0,1,0,7.6Z"/><circle class="cls-5" cx="54.67" cy="84.52" r="0.26"/><circle class="cls-5" cx="55.41" cy="83.88" r="0.2"/><path class="cls-55" d="M29.38,80.92a3.89,3.89,0,1,1,2.76-1.14A3.87,3.87,0,0,1,29.38,80.92Z"/><path class="cls-3" d="M29.38,73.22a3.81,3.81,0,1,1-2.69,1.12,3.83,3.83,0,0,1,2.69-1.12m0-.2a4,4,0,1,0,2.83,1.18A4,4,0,0,0,29.38,73Z"/><path class="cls-56" d="M26.69,79.71a3.81,3.81,0,0,1-.08-5.29c-.07.13-.14.25-.2.38a4.67,4.67,0,0,0-.37,1,2.47,2.47,0,0,0,.6,2.32c.48.44,1.21.64,1.51,1.21a2.73,2.73,0,0,0,.25.48c.33.41,1,.23,1.4-.09s.73-.79,1.23-.93a3.08,3.08,0,0,0,.54-.16,1.21,1.21,0,0,0,.45-.9,9.22,9.22,0,0,0,.17-2A3,3,0,0,0,31.53,74a2.06,2.06,0,0,0-.3-.29,3.85,3.85,0,0,1,.84.63,3.8,3.8,0,1,1-5.38,5.37Z"/><circle class="cls-5" cx="29.09" cy="74.07" r="0.26"/><circle class="cls-5" cx="30.07" cy="74.14" r="0.2"/><circle class="cls-57" cx="84.55" cy="77.02" r="3.9"/><path class="cls-3" d="M84.55,73.22a3.8,3.8,0,1,1-3.8,3.8,3.81,3.81,0,0,1,3.8-3.8m0-.2a4,4,0,1,0,4,4,4,4,0,0,0-4-4Z"/><path class="cls-58" d="M88.35,77a3.79,3.79,0,0,0-3.69-3.79l.41.12a4.6,4.6,0,0,1,1,.48,2.47,2.47,0,0,1,1.22,2.06c0,.66-.4,1.31-.21,1.94a3.05,3.05,0,0,1,.17.51c0,.51-.54.86-1.06.92a3.89,3.89,0,0,0-1.53.21,2.68,2.68,0,0,1-.49.28,1.17,1.17,0,0,1-1-.33,8.35,8.35,0,0,1-1.51-1.26,3,3,0,0,1-.83-1.75,3,3,0,0,1,0-.42,3.88,3.88,0,0,0-.14,1,3.8,3.8,0,0,0,7.6,0Z"/><circle class="cls-5" cx="82.66" cy="74.73" r="0.26"/><circle class="cls-5" cx="82.01" cy="75.47" r="0.2"/></g></g></g></svg>