<?xml version="1.0" encoding="utf-8"?>
<!-- Generator: Adobe Illustrator 25.0.1, SVG Export Plug-In . SVG Version: 6.00 Build 0)  -->
<svg version="1.1" id="图层_1" xmlns="http://www.w3.org/2000/svg" xmlns:xlink="http://www.w3.org/1999/xlink" x="0px" y="0px"
	 viewBox="0 0 106.4 114.4" style="enable-background:new 0 0 106.4 114.4;" xml:space="preserve">
<style type="text/css">
	.st0{fill:#1B4826;}
	.st1{fill:#A5B352;}
	.st2{opacity:0.5;fill:#4B4C23;enable-background:new    ;}
	.st3{fill:none;stroke:#1B4826;stroke-width:0.2;stroke-linecap:round;stroke-linejoin:round;}
	.st4{opacity:0.5;}
	.st5{fill:#FFFFFF;}
	.st6{fill:url(#SVGID_1_);}
	.st7{fill:url(#SVGID_2_);}
</style>
<g id="胆囊">
	<g id="外描边">
		<path class="st0" d="M88.8,0.5c0.7-0.1,1.5,0.3,1.9,0.9c1.4,2.2,2.6,4.5,3.7,6.9c0.1,0.3,0.4,0.4,0.7,0.4c0.3,0,0.5-0.2,0.7-0.4
			c1.3-2.5,3.3-4.6,5.8-5.9c0.3-0.2,0.7-0.2,1.1-0.2c2.2,0,4.5,3,2.8,4.5c-2,1.8-5.8,6.9-5.9,12.8c-0.1,5.2-1.1,16.2-1.6,23.4
			c-0.1,1-0.1,1.9-0.1,2.7c-0.3,6.8-2.2,17.5-4.9,24.1s-4,9.3-5.4,15.8c-0.5,2.8-1.3,5.5-2.4,8.1c-0.1,0.2,0,0.4,0.2,0.5
			c0.1,0.1,0.3,0,0.4,0c2.2-1.3,7.3-3.9,12.2-4l0,0c2.8,0,2.9,5,0.3,5.3c-3.2,0.4-14.1,4.1-18.8,8.7c-2.1,2.1-4.5,7-12.3,9.6
			c-0.2,0.1-0.4,0.1-0.6,0.1c-2,0-3.3-3.4-2-4.6c3.3-3,8.4-7.2,12-15c0.2-0.4,0.4-0.8,0.5-1.2c3.4-8.1,4.3-18.2,8.2-25.5
			c4.7-9,5.8-16.9,4.4-18.6c-0.1-0.1-0.1-0.1-0.2-0.2c-1.7-1.2-7.9-3.1-10.5-7.1c-3.2-4.9-2.4-9.3-5.2-11.2
			c-1.7-1.2-3.1-1.2-4.6-1.6c-1.1-0.3-2.1-0.9-2.9-1.7c-2.4-2.3-2.3-5.6-4.3-5.6l0,0c-0.2,0-0.3,0-0.4,0c-2.8,0.6-1.7,4-5.7,9.1
			c-4.7,6-7.8,5.9-9.3,10.2s-6.7,14.7-16.2,20.7c-1.4,0.9-2.7,1.7-4.2,2.4c-3.3,1.8-6.9,2.8-10.7,2.9c-4.4,0-8.6-2-11.4-5.5
			c-5.6-6.4-4.5-14,0.7-20.9c3.9-4.9,8.7-8.9,14.2-12c15.4-9,28.1-15.1,34.9-15.3c0.6,0,1.2,0,1.7,0c3.5,0,3.7,0.4,5.2,0.4
			c0.3,0,0.8,0,1.3-0.1s1.2-0.1,2-0.2c0.3-0.1,0.7-0.1,1.1-0.1c4.2,0,7.2,3.7,7.9,6.5c0.4,1.7,0.5,2.5,1,3.1c0.7,0.6,1.5,0.9,2.4,1
			c3,0.7,4.1,3.3,4.1,5.9c0,6.5,3.7,11.3,8.4,12.5c0.2,0.1,0.5,0.1,0.7,0.1s0.4,0,0.6-0.1c0.4-0.1,0.7-0.4,0.9-0.8
			c0.6-1.3,0.4-3.6,0.6-5.9c0.2-3.7,1-14.3-1.7-21.2C87.3,6.8,85.9,5.8,84.9,4C84,2.3,86.7,0.5,88.8,0.5 M88.8,0
			c-1.7,0-3.3,0.8-4.3,2.2c-0.4,0.6-0.4,1.4-0.1,2c0.3,0.5,0.6,1,0.9,1.4c1.8,2.7,3.3,5.7,4.3,8.8c2.5,6.5,1.9,16.7,1.7,20.6v0.4
			c0,0.7-0.1,1.3-0.1,1.9c0.1,1.3-0.1,2.6-0.5,3.8c-0.1,0.3-0.3,0.5-0.6,0.6c-0.1,0-0.3,0.1-0.4,0.1c-0.2,0-0.4,0-0.6-0.1
			c-4.8-1.3-8-6.1-8-12.1c0-3.4-1.7-5.7-4.5-6.4c-0.8-0.1-1.5-0.4-2.1-0.8c-0.3-0.5-0.5-1.1-0.6-1.8c-0.1-0.3-0.2-0.7-0.3-1.1
			c-0.7-2.8-3.8-6.9-8.4-6.9c-0.4,0-0.8,0-1.1,0.1c-0.8,0.1-1.4,0.2-2,0.2c-0.5,0-0.9,0.1-1.2,0.1c-0.5,0-0.9,0-1.4-0.1
			c-1.3-0.2-2.5-0.3-3.8-0.3c-0.5,0-1.1,0-1.7,0C47.8,13,36.3,18,18.9,28.1c-5.5,3.1-10.4,7.2-14.3,12.1C-1.3,48-1.5,55.7,3.9,61.8
			c2.9,3.5,7.2,5.6,11.8,5.6c3.8-0.1,7.5-1.2,10.9-3c1.4-0.7,2.9-1.5,4.2-2.4c9.2-5.8,14.6-15.9,16.4-21c0.8-2.2,2-3.2,3.7-4.5
			c2.1-1.6,3.9-3.5,5.6-5.5c1.5-1.9,2.6-4,3.3-6.2c0.7-1.8,1-2.5,2.1-2.7c0.1,0,0.2,0,0.3,0c0.8,0,1.1,0.7,1.8,2
			c0.5,1.3,1.3,2.4,2.2,3.4c0.9,0.9,1.9,1.5,3.1,1.8c0.4,0.1,0.8,0.2,1.1,0.3c1.2,0.2,2.3,0.6,3.3,1.3c1.3,0.9,1.8,2.5,2.4,4.6
			c0.5,2.3,1.5,4.5,2.7,6.5c2,3,5.8,4.8,8.4,6c0.8,0.3,1.5,0.7,2.3,1.2c0,0,0,0,0,0.1v0.1c1.1,1.2,0.5,8.6-4.5,18
			c-2.1,4.1-3.4,9.1-4.7,13.9c-0.9,4-2.1,7.8-3.6,11.6c-0.2,0.4-0.3,0.8-0.5,1.2c-3.3,7.3-7.9,11.3-11.3,14.3l-0.6,0.5
			c-0.8,0.9-0.9,2.1-0.4,3.2c0.4,1.2,1.4,2.1,2.7,2.3c0.3,0,0.5,0,0.8-0.1c4.5-1.5,8.4-4.3,11.1-8.2c0.4-0.6,0.9-1.1,1.4-1.6
			c4.5-4.5,15.2-8.2,18.5-8.6c1.6-0.2,2.4-1.8,2.3-3.4c0.1-1.6-1.1-2.9-2.7-2.9l0,0h-0.1c-4.8,0.1-9.6,2.4-12.3,3.9
			c1-2.6,1.8-5.2,2.3-7.9c1.3-6.3,2.4-8.9,4.9-15.1l0.2-0.6c2.9-7.1,4.7-17.8,5-24.3c0-0.8,0.1-1.7,0.1-2.7c0.2-2.6,0.4-5.7,0.7-8.9
			c0.4-5.5,0.9-11.1,0.9-14.5c0.3-4.7,2.3-9.2,5.7-12.5c0.8-0.7,1-1.8,0.6-2.7c-0.6-1.5-2.1-2.6-3.7-2.7c-0.4,0-0.9,0.1-1.3,0.3
			c-2.6,1.4-4.7,3.5-6,6.1c0,0.1-0.1,0.1-0.2,0.1S94.6,8,94.6,8c-1-2.1-2.1-4.2-3.3-6.2L90.8,1C90.6,0.4,89.7-0.1,88.8,0L88.8,0z"/>
	</g>
	<g id="肝胰壶腹">
		<path class="st1" d="M76.8,94.3L76.8,94.3c-3.6,7.8-8.7,12-12,15c-1.4,1.2,0.3,5.3,2.6,4.5c7.8-2.7,10.2-7.6,12.3-9.6
			c0.7-4,2.9-7.6,6.2-10C84,95,78.4,96.5,76.8,94.3z"/>
		<path class="st2" d="M77.5,104c-3.5,3.9-7.9,6.8-12.8,8.4c0.4,1.1,1.6,1.7,2.7,1.4c7.8-2.7,10.2-7.6,12.3-9.6l0,0
			c0.2-1,0.5-2,0.9-3C79.5,102.1,78.4,103,77.5,104z"/>
		<path class="st3" d="M79.7,104.2c-2.1,2.1-4.5,7-12.3,9.6c-2.3,0.8-4-3.2-2.6-4.5c3.3-3,8.4-7.2,12-15"/>
	</g>
	<g id="胰管">
		<path class="st1" d="M79.7,104.2c4.6-4.6,15.6-8.3,18.8-8.7c2.6-0.3,2.5-5.4-0.4-5.3c-4.9,0.1-10,2.7-12.2,4
			C82.6,96.6,80.4,100.2,79.7,104.2z"/>
		<path class="st2" d="M98.4,95.5c1.3-0.3,2.1-1.5,1.9-2.7c-1.5,0.2-2.9,0.6-4.3,1c-6.9,2.2-11.5,4.2-15.5,7.4c-0.4,1-0.7,2-0.9,3
			C84.3,99.5,95.3,95.8,98.4,95.5z"/>
		<path class="st3" d="M85.8,94.2c2.2-1.3,7.3-3.9,12.2-4c2.9-0.1,3,5,0.4,5.3c-3.2,0.4-14.1,4.1-18.8,8.7"/>
	</g>
	<g id="胆囊管">
		<path class="st1" d="M90.3,42.2L90.3,42.2c-0.4,0.1-0.9,0.1-1.3,0c-4.7-1.2-8.4-6-8.4-12.5c0-2.6-1.1-5.2-4.1-5.9
			c-0.9-0.1-1.7-0.4-2.4-1c-2.2,1-4.8,4.1-4.7,6c1.4,0.4,2.9,0.5,4.6,1.6c2.8,2,2,6.4,5.2,11.2c2.6,4,8.8,5.9,10.5,7.1
			c0.1,0.1,0.1,0.1,0.2,0.2l0,0c2-1.7,2.2-4.7,0.5-6.6C90.4,42.3,90.3,42.3,90.3,42.2z"/>
		<path class="st2" d="M69.4,28.8c1.4,0.4,2.9,0.5,4.6,1.6c2.8,2,2,6.4,5.2,11.2c2.6,4,8.8,5.9,10.5,7.1c0.1,0.1,0.1,0.1,0.2,0.2
			c0.7-0.5,1.2-1.3,1.4-2.1c-0.4-0.4-0.9-0.6-1.5-0.8c-2.6-0.8-6.1-1.8-8.3-4.2c-2.2-2.4-3.5-5.4-3.6-8.7c0.1-3.3-0.5-3.5-2.6-4.7
			c-2.2-1.3-1.5-3.6-2.4-4.3c-0.2-0.1-0.4-0.2-0.6-0.2C70.8,25.4,69.4,27.5,69.4,28.8z"/>
		<path class="st3" d="M89.9,49c-0.1-0.1-0.1-0.1-0.2-0.2c-1.7-1.2-7.9-3.1-10.5-7.1c-3.2-4.9-2.4-9.3-5.2-11.2
			c-1.7-1.2-3.1-1.2-4.6-1.6"/>
		<path class="st3" d="M74.2,22.8c0.7,0.6,1.5,0.9,2.4,1c3,0.7,4.1,3.3,4.1,5.9c0,6.5,3.7,11.3,8.4,12.5c0.4,0.1,0.9,0.1,1.3,0"/>
	</g>
	<g id="胆总管">
		<path class="st1" d="M91.2,41.4c-0.2,0.4-0.5,0.7-0.9,0.8l0,0c1.8,1.9,1.6,4.9-0.3,6.7L89.9,49l0,0c1.4,1.7,0.3,9.7-4.4,18.6
			c-3.9,7.3-4.8,17.4-8.2,25.5c-0.2,0.4-0.3,0.8-0.5,1.2l0,0c1.7,2.1,7.3,0.7,9.1-0.2c-0.2,0.1-0.4,0-0.6-0.1
			c-0.1-0.1-0.1-0.2,0-0.4c1-2.6,1.8-5.3,2.4-8.1c1.4-6.5,2.5-9.1,5.1-15.8s4.6-17.3,4.9-24.1c0-0.8,0.1-1.7,0.1-2.7l0,0
			C93.9,45.1,91.2,41.4,91.2,41.4z"/>
		<path class="st2" d="M89.9,49c1,1.2,0.7,5.7-1.3,11.5c1.1-2.2,2-4.6,2.5-7c0.8-3.9,1.1-5.6,0.2-6.5C91.1,47.7,90.6,48.5,89.9,49z"
			/>
		<path class="st2" d="M97,43.3c-0.2,2-0.3,3.8-0.4,4.9c-0.5,5.2-1.9,12.6-4.7,18.5c-2.5,5.3-4.3,10.9-5.1,16.7c0,0.1,0,0.2,0,0.3
			c-0.5,2.5-1.3,4.8-2.3,7.1c-1.3,3.3,0.1,3.9,1.4,3.4l0,0c-0.2,0.1-0.4,0-0.5-0.2c-0.1-0.1-0.1-0.2,0-0.4c1-2.6,1.8-5.3,2.4-8.1
			c0-0.1,0-0.2,0.1-0.3l0,0c1.3-6.3,2.4-8.9,5.1-15.5c2.7-6.7,4.6-17.3,4.9-24.1c0-0.8,0.1-1.7,0.1-2.7l0,0
			C97.6,43,97.3,43.2,97,43.3z"/>
		<path class="st3" d="M76.8,94.3c0.2-0.4,0.4-0.8,0.5-1.2c3.4-8.1,4.3-18.2,8.2-25.5c4.7-9,5.9-16.9,4.5-18.7"/>
		<path class="st3" d="M97.9,42.9c-0.1,1-0.1,1.9-0.1,2.7c-0.3,6.8-2.2,17.5-4.9,24.1S89,79,87.6,85.5c-0.5,2.8-1.3,5.5-2.4,8.1
			c-0.1,0.2,0,0.4,0.2,0.5c0.1,0.1,0.3,0,0.4,0"/>
		<path class="st3" d="M90.3,42.2c0.4-0.1,0.7-0.4,0.9-0.8"/>
		<g class="st4">
			<path class="st5" d="M83.8,75.3c-0.4,1.4,0.3,0.9,0.6-0.3c0.7-2.7,1.7-5.4,2.9-7.9C85.9,69.7,84.7,72.4,83.8,75.3z"/>
			<path class="st5" d="M83.7,77.7c-0.1-0.8-0.3-0.9-0.5,0.1C82.7,79.6,83.8,78.7,83.7,77.7z"/>
			<path class="st5" d="M83.1,79.1c-0.1,0.2-0.1,0.4,0.2,0.6C83.7,80,83.3,78.9,83.1,79.1z"/>
		</g>
	</g>
	<g id="肝总管">
		<path class="st1" d="M101.5,2.4C99,3.8,97,5.8,95.7,8.3c-0.2,0.4-0.6,0.5-1,0.3c-0.2-0.1-0.3-0.2-0.3-0.4
			c-1.1-2.4-2.3-4.7-3.7-6.9c-1.4-2.3-7,0.3-5.8,2.6c1,1.8,2.4,2.8,5.2,10.2c2.6,6.9,1.9,17.5,1.7,21.2c-0.1,2.3,0,4.7-0.6,5.9
			c0,0,2.7,3.7,6.7,1.5l0,0c0.5-7.2,1.5-18.1,1.6-23.4c0.1-5.9,3.8-11,5.9-12.8C107.3,4.9,103.9,1.2,101.5,2.4z"/>
		<path class="st2" d="M105.6,4.1c-1.2,1.1-2.3,2.3-3.4,3.5c-3.3,3.9-4.2,7.1-4.1,13.7c0.1,4.2-0.6,14.9-1.2,21.9
			c0.3-0.1,0.6-0.2,0.9-0.4l0,0c0.5-7.2,1.5-18.1,1.6-23.4c0.1-5.9,3.8-11,5.9-12.8C106,6,106.1,4.9,105.6,4.1z"/>
		<path class="st3" d="M91.2,41.4c0.6-1.3,0.4-3.6,0.6-5.9c0.2-3.7,1-14.3-1.7-21.2C87.3,6.9,85.8,5.8,84.9,4
			c-1.2-2.3,4.4-4.9,5.8-2.6c1.4,2.2,2.6,4.5,3.7,6.9c0.2,0.4,0.6,0.5,1,0.4c0.2-0.1,0.3-0.2,0.4-0.3c1.3-2.5,3.3-4.6,5.8-5.9
			c2.5-1.2,5.9,2.5,3.8,4.3s-5.8,6.9-5.9,12.8c-0.1,5.2-1.1,16.2-1.6,23.4"/>
		<path class="st2" d="M90.5,2.3c-0.3,0.7-0.2,0.9,0.6,2.2c1,1.6,1.9,3.3,2.7,5c0.8,1.6,1.5-0.6,1.9-1.2c-0.2,0.4-0.6,0.5-1,0.3
			c-0.2-0.1-0.3-0.2-0.3-0.4c-1.1-2.4-2.3-4.7-3.7-6.9c-0.1-0.1-0.1-0.2-0.2-0.3C90.7,1.5,90.7,2,90.5,2.3z"/>
		<ellipse transform="matrix(0.9158 -0.4016 0.4016 0.9158 6.4084 35.3756)" class="st2" cx="87.6" cy="2.4" rx="2.3" ry="1.2"/>
		<path class="st2" d="M88.5,2c0.4-0.2,0.8-0.4,1.1-0.7c0.1,0.1,0.2,0.2,0.2,0.3c0.1,0.7-0.7,1.5-1.9,2c-1.2,0.4-2.3,0.3-2.4-0.4
			c-0.1-0.4,0.3-0.9,0.8-1.3C86.9,2.3,87.8,2.4,88.5,2z"/>
		<path class="st2" d="M85.7,3c0.1,0.6,1.1,0.8,2.2,0.4s1.9-1.2,1.8-1.8l0.1,0.1c0.1,0.7-0.7,1.5-1.9,2c-1.2,0.4-2.3,0.3-2.4-0.4
			c0-0.5,0.2-0.9,0.6-1.2C85.8,2.3,85.6,2.6,85.7,3z"/>
	</g>
	<g id="胆囊底">
		<path class="st1" d="M5,40.6c-5.3,7-6.4,14.5-0.7,20.9c6.4,7.2,14.3,6.4,22.1,2.5C17.7,60.4,8.5,50.4,5,40.6z"/>
		<path class="st2" d="M16.4,57.6c-6.5,0.5-15.2-3.4-15.2-9.9c-1.6,4.8-0.4,10.1,3.1,13.8c6.4,7.2,14.3,6.4,22.1,2.5
			c-3.5-1.6-6.8-3.7-9.6-6.4C16.6,57.6,16.5,57.6,16.4,57.6z"/>
		<path class="st3" d="M26.3,64c-7.7,3.9-15.7,4.7-22.1-2.5c-5.6-6.4-4.5-14,0.7-20.9"/>
		
			<linearGradient id="SVGID_1_" gradientUnits="userSpaceOnUse" x1="19.2997" y1="1017.5636" x2="26.69" y2="1027.4897" gradientTransform="matrix(1 0 0 1 -15.8681 -975.2315)">
			<stop  offset="0" style="stop-color:#FFFFFF;stop-opacity:0.3"/>
			<stop  offset="1" style="stop-color:#FFFFFF;stop-opacity:0"/>
		</linearGradient>
		<path class="st6" d="M8.7,50.5c0.6,0.2,1.3,0.4,2,0.5c-2.2-2.9-4-6-5.3-9.4C3.7,44.9,3.6,48.6,8.7,50.5z"/>
	</g>
	<g id="胆囊颈">
		<path class="st1" d="M74.2,22.8c-0.5-0.6-0.6-1.4-1-3.1c-0.7-3-4.2-7.1-8.9-6.4c-0.8,0.1-1.5,0.2-2,0.2c-2,1.8-1.9,5.8,0,7.9
			c2,0,2,3.3,4.3,5.6c0.8,0.8,1.8,1.4,2.9,1.7C69.4,27,72,23.9,74.2,22.8z"/>
		<path class="st2" d="M66.6,27.1c0.8,0.8,1.8,1.4,2.9,1.7c0-1.4,1.4-3.4,3-4.8c-1-0.1-2.7,0.9-4.2,0.6c-4.8-0.9-3.2-6.9-6.5-6.9
			c-0.3,0-0.7,0.1-0.9,0.3c0.1,1.3,0.6,2.5,1.4,3.5C64.3,21.5,64.2,24.8,66.6,27.1z"/>
		<path class="st3" d="M69.5,28.8c-1.1-0.3-2.1-0.9-2.9-1.7c-2.4-2.3-2.3-5.7-4.4-5.6"/>
		<path class="st3" d="M62.3,13.6c0.5-0.1,1.2-0.1,2-0.3c4.8-0.7,8.2,3.4,8.9,6.4c0.4,1.7,0.5,2.5,1,3.1"/>
		<g class="st4">
			<path class="st5" d="M67.2,14.3c-1-0.4-0.7,0.2,0.1,0.4c1.5,0.4,2.8,1.4,3.6,2.8C70.1,15.9,68.8,14.8,67.2,14.3z"/>
			<path class="st5" d="M65.8,14.3c0.5-0.1,0.5-0.2-0.1-0.3C64.6,13.9,65.2,14.4,65.8,14.3z"/>
			<path class="st5" d="M64.9,14.1c-0.1-0.1-0.3,0-0.3,0.1l0,0C64.4,14.5,65,14.1,64.9,14.1z"/>
		</g>
	</g>
	<g id="胆囊体">
		<path class="st1" d="M62.3,13.6c-3.2,0.3-2-0.5-8.2-0.3c-6.8,0.2-19.6,6.3-34.9,15.3c-5.5,3-10.3,7.1-14.2,12
			C8.5,50.4,17.7,60.4,26.3,64c1.4-0.7,2.8-1.5,4.2-2.4c9.5-6.1,14.7-16.4,16.2-20.7s4.6-4.2,9.3-10.2c4-5.2,3-8.6,5.7-9.1
			c0.1,0,0.3,0,0.5,0C60.3,19.4,60.2,15.4,62.3,13.6z"/>
		<path class="st2" d="M54,26.2c-7.6,7.4-12.6,2.4-14.8,10.4c-3,10.9-11.8,20-22.5,21c2.8,2.7,6.1,4.8,9.6,6.4
			c1.4-0.7,2.8-1.5,4.2-2.4c9.5-6.1,14.7-16.4,16.2-20.7s4.6-4.2,9.3-10.2c4-5.2,3-8.6,5.7-9.1c0.1,0,0.3,0,0.5,0
			c-0.8-1-1.3-2.2-1.4-3.5C59.5,19,58.3,22,54,26.2z"/>
		<path class="st3" d="M62.2,21.5c-0.1,0-0.3,0-0.4,0c-2.8,0.6-1.7,4-5.7,9.1c-4.7,6-7.8,5.9-9.3,10.2S40,55.6,30.5,61.6
			c-1.4,0.9-2.9,1.7-4.3,2.4"/>
		<path class="st3" d="M5,40.6c3.9-4.9,8.7-9,14.2-12c15.4-9,28.1-15.1,34.9-15.3c6.2-0.2,4.9,0.6,8.2,0.3"/>
		
			<linearGradient id="SVGID_2_" gradientUnits="userSpaceOnUse" x1="42.2455" y1="1000.4799" x2="49.6358" y2="1010.4061" gradientTransform="matrix(1 0 0 1 -15.8681 -975.2315)">
			<stop  offset="0" style="stop-color:#FFFFFF;stop-opacity:0.3"/>
			<stop  offset="1" style="stop-color:#FFFFFF;stop-opacity:0"/>
		</linearGradient>
		<path class="st7" d="M54.7,16.8c-0.3-2.3-5.6-2.9-14.5,1.3C27.8,24,12.9,31.7,7.1,39c-0.7,0.8-1.2,1.7-1.7,2.6
			c1.4,3.3,3.2,6.5,5.3,9.4C17,52.1,24,48.2,27.3,38.1c3.9-11.6,6-12.2,14.5-13.2C50,23.9,55,19.8,54.7,16.8z"/>
		<path class="st5" d="M15,33.7c-1.4,1-0.4,1,0.7,0.1c2.7-2.2,5.6-4.3,8.6-6.2C21.1,29.4,18,31.5,15,33.7z"/>
		<path class="st5" d="M13.3,35.8c0.6-0.8,0.5-1-0.5-0.2C11.1,36.8,12.6,36.7,13.3,35.8z"/>
		<path class="st5" d="M11.7,36.6c-0.3,0.1-0.4,0.4-0.3,0.6l0,0C11.5,37.9,12,36.6,11.7,36.6z"/>
	</g>
</g>
</svg>
