<?xml version="1.0" encoding="utf-8"?>
<!-- Generator: Adobe Illustrator 24.0.0, SVG Export Plug-In . SVG Version: 6.00 Build 0)  -->
<svg version="1.1" id="图层_1" xmlns="http://www.w3.org/2000/svg" xmlns:xlink="http://www.w3.org/1999/xlink" x="0px" y="0px"
	 viewBox="0 0 120.4 86.2" style="enable-background:new 0 0 120.4 86.2;" xml:space="preserve">
<style type="text/css">
	.st0{fill:#4D2B27;}
	.st1{fill:#973938;}
	.st2{opacity:0.3;fill:#391011;}
	.st3{fill:none;stroke:#4D2B27;stroke-width:0.2;stroke-linecap:round;stroke-linejoin:round;stroke-miterlimit:10;}
	.st4{opacity:0.5;fill:#391011;}
	.st5{fill:url(#SVGID_1_);}
	.st6{fill:url(#SVGID_2_);}
	.st7{fill:#FFFFFF;}
	.st8{fill:url(#SVGID_3_);}
	.st9{fill:url(#SVGID_4_);}
	.st10{fill:url(#SVGID_5_);}
	.st11{fill:url(#SVGID_6_);}
	.st12{fill:url(#SVGID_7_);}
	.st13{fill:#EFE1DF;}
	.st14{opacity:0.3;fill:#BF7370;}
	.st15{opacity:0.5;fill:#BF7370;}
</style>
<g id="肝脏正面观">
	<g id="外描边">
		<path class="st0" d="M45.9,3.9c7.8,0,17.2,3.9,20.2,7.7c0.6,0.8,1.2,1.7,1.6,2.8c0,0,0,0,0,0c1.2,0.3,2.3,0.5,3.8,0.5
			c0.1,0,0.1,0,0.2,0c0.1,0,0.1,0,0.2,0c0,0,0,0,0,0c0.8-1.2,1.8-2.2,2.8-3.1c2.3-1.9,4.9-2.9,7.5-2.9c0.5,0,1.1,0,1.6,0.1
			c2.9,0.5,5.2,0.8,7.3,0.8c2.7,0,5.2-0.5,8.7-1.9c1.4-0.5,2.8-0.8,4.1-0.8c6.2,0,11.3,5,12.9,7.9c0.1,0.1,0,0.3-0.1,0.4
			c0,0-0.1,0-0.1,0c-0.1,0-0.2-0.1-0.3-0.1c-0.5-0.7-1.7-1-2.9-1c-0.9,0-1.8,0.2-2.2,0.7c0.7,1,0.7,2.7,0.3,5.1
			c-1.8,10.2-6.6,10.1-14.9,23.6C89.8,55,77.4,58,66.7,59.1c-0.6,0.4-0.2,2.7,0.5,3.6c1.3,1.8,2.5,3.9,1.4,8.3
			c-0.2,0.7-0.9,2-1.6,2.9c0,0,0,0.1-0.1,0.1c-0.6,0.8-1.2,1.4-1,2.4c0.1,0.5-0.5,0.9-1.3,1c-0.1,0-0.2,0-0.3,0
			c-0.6,0-1.2-0.3-1.2-0.7c-0.4-5.7,0.7-4.3,0.4-9.3c-0.2-4.6-1.9-6.8-2.2-7.1c-2.3,1.1-4.6,2.9-9.5,5.7c-7.6,4.4-12.1,0.6-19.4,8.5
			c-4.5,4.9-10.1,6.9-13.4,6.9c-1.5,0-2.5-0.4-2.8-1.1c-1.2-3.1-0.1-9.3-3-26.4c-0.6-3.8-0.7-10.4-0.7-10.4
			c-1.4,1.1-3.7,1.6-5.7,1.6c-1.4,0-2.7-0.3-3.2-0.8c-0.1-0.1-0.2-0.3-0.1-0.4c2.3-3.1,3.3-7.7,4.4-12.6c1.5-6.8,3.1-13.9,8.3-18.5
			c5.3-4.7,9.7-5.1,13.9-5.5C33.3,7.2,36,6.9,39,5.4C40.9,4.4,43.3,3.9,45.9,3.9 M45.9,3.4l0,0.5L45.9,3.4c-2.9,0-5.3,0.5-7.1,1.5
			c-2.9,1.5-5.6,1.8-8.5,2c-4.3,0.4-8.8,0.8-14.2,5.6c-5.3,4.7-6.9,11.8-8.5,18.7c-1.1,4.8-2.1,9.4-4.3,12.4
			c-0.1,0.2-0.2,0.4-0.1,0.6c0,0.2,0.1,0.4,0.3,0.5c0.9,0.8,2.7,0.9,3.5,0.9c1.6,0,3.6-0.3,5.2-1.2c0,2,0.2,6.6,0.7,9.6
			c1.7,9.9,2,16.1,2.2,20.3c0.2,3,0.3,4.8,0.8,6.2c0.4,0.9,1.5,1.5,3.3,1.5c3.6,0,9.2-2.2,13.7-7.1c4.2-4.6,7.4-5.1,11-5.7
			c2.5-0.4,5.1-0.9,8.2-2.7c2.3-1.3,4.1-2.5,5.5-3.4c1.4-0.9,2.5-1.6,3.6-2.2c0.5,0.8,1.7,2.8,1.8,6.5c0.1,2.3-0.1,3.2-0.2,4.1
			c-0.2,1-0.4,2.1-0.2,5.2c0.1,0.7,0.8,1.1,1.7,1.1c0.1,0,0.3,0,0.4,0c0.5-0.1,0.9-0.2,1.2-0.5c0.4-0.3,0.6-0.7,0.5-1.1
			c-0.1-0.7,0.2-1.2,0.8-1.9l0.1-0.1l0-0.1c0.7-0.9,1.5-2.3,1.7-3.1c1.1-4.5-0.1-6.7-1.5-8.7c-0.5-0.8-0.8-2.4-0.6-2.8
			c9.6-1,23-3.8,30.3-15.7c3.4-5.5,6.2-8.7,8.4-11.3c3.3-3.8,5.4-6.3,6.5-12.4c0.4-2.3,0.4-3.9-0.1-5c0.4-0.2,1-0.3,1.6-0.3
			c1.1,0,2,0.3,2.5,0.8c0.1,0.2,0.4,0.3,0.7,0.3c0.1,0,0.3,0,0.4-0.1c0.4-0.2,0.5-0.7,0.3-1.1c-1.8-3.1-7.1-8.1-13.4-8.1
			c-1.5,0-2.9,0.3-4.3,0.8c-3.4,1.3-5.9,1.8-8.6,1.8c-2.1,0-4.4-0.3-7.2-0.8c-0.6-0.1-1.1-0.1-1.7-0.1c-2.7,0-5.4,1-7.8,3
			c-1,0.9-2,1.9-2.8,3.1l-0.1,0c-1.2,0-2.2-0.1-3.4-0.5c-0.5-1-1-1.9-1.6-2.7C63.3,7.2,53.5,3.4,45.9,3.4L45.9,3.4z"/>
	</g>
	<g id="右前内段">
		<g>
			<path class="st1" d="M41.8,41.9c-1.8,10.7-7.4,23.3-5.3,29.3c-1.2,0.8-2.5,1.9-3.9,3.4c-1.8,1.9-3.7,3.4-5.6,4.5
				c-3.8-6.3-5.6-22.9-3.1-37.4C29.7,41.1,36.6,41.5,41.8,41.9z"/>
			<path class="st2" d="M36.9,61.6c-0.8,3.9-1.2,7.3-0.4,9.7c-1.2,0.8-2.5,1.9-3.9,3.4c-1.8,1.9-3.7,3.4-5.6,4.5
				c-0.6-1-1.2-2.4-1.7-4c2.6-1.1,5.4-3.7,6.9-7C33.5,64.7,35.1,62.7,36.9,61.6z"/>
			<path class="st3" d="M26.9,79.1c1.9-1.1,3.8-2.6,5.6-4.5c1.4-1.5,2.7-2.6,3.9-3.4"/>
			<path class="st4" d="M36.4,71.2c-1.2,0.8-2.5,1.9-3.9,3.4c-1.8,1.9-3.7,3.4-5.6,4.5c-0.1-0.2-0.2-0.4-0.3-0.6
				c2.6-1.5,5.4-4,7.9-8c0.5-0.8,1-1.4,1.5-2C36,69.5,36.2,70.4,36.4,71.2z"/>
		</g>
		<linearGradient id="SVGID_1_" gradientUnits="userSpaceOnUse" x1="13.0444" y1="25.4945" x2="24.9333" y2="42.4945">
			<stop  offset="0" style="stop-color:#FFFFFF;stop-opacity:0.3"/>
			<stop  offset="1" style="stop-color:#FFFFFF;stop-opacity:0"/>
		</linearGradient>
		<path class="st5" d="M22.9,48.9c0.2-2.4,0.5-4.8,0.9-7.2c2.2-0.3,4.5-0.3,6.9-0.3c-0.2,0.8-0.3,1.7-0.3,2.6
			C30.2,50,26.3,51,22.9,48.9z"/>
	</g>
	<g id="右后外段">
		<path class="st1" d="M23.8,41.7c-4.7,0.5-8.7,1.8-11.1,4.4c-0.2-10.8,2.5-22.8,10.2-29.7c5.9-5.3,14.9-6.7,22.9-6.6
			C36.7,14.2,26.6,25.3,23.8,41.7z"/>
		<path class="st2" d="M16.6,43.5c-1.5,0.7-2.9,1.5-3.9,2.7c-0.1-6,0.7-12.5,2.8-18.2C14.6,33.1,15,38.6,16.6,43.5z"/>
		<linearGradient id="SVGID_2_" gradientUnits="userSpaceOnUse" x1="24.1389" y1="17.7356" x2="36.0278" y2="34.7356">
			<stop  offset="0" style="stop-color:#FFFFFF;stop-opacity:0.3"/>
			<stop  offset="1" style="stop-color:#FFFFFF;stop-opacity:0"/>
		</linearGradient>
		<path class="st6" d="M42.8,11.5c-8.2,5.2-16.5,15.5-19,30.2c-1.8,0.2-3.6,0.5-5.1,1c0-0.1-0.1-0.2-0.1-0.3c-1.8-8.1-3-18.8,8-26.7
			C31.4,12.3,37.4,11.2,42.8,11.5z"/>
		<g>
			<path class="st7" d="M25,20.1c-1,1-0.4,1.3,0.5,0.4c3.5-3.9,6.1-5.2,6.1-5.2S28.7,16.5,25,20.1z"/>
			<path class="st7" d="M23.7,22.7c0.4-0.9,0.4-1.2-0.3-0.5C22.1,23.6,23.1,23.8,23.7,22.7z"/>
			<path class="st7" d="M22.8,24.2c-0.1-0.3-0.3-0.4-0.6,0C21.7,24.7,22.9,24.5,22.8,24.2z"/>
		</g>
		<path class="st3" d="M45.7,9.9c-8.1-0.1-17,1.3-22.9,6.6c-7.6,6.9-10.4,18.9-10.2,29.7"/>
	</g>
	<g id="右后内段">
		<path class="st1" d="M59.4,11.6c-4.9,3-14.5,11.9-17.6,30.3c-5.2-0.4-12.1-0.8-18-0.2c2.8-16.5,12.9-27.5,22-31.9h0
			C51.1,10,56,10.7,59.4,11.6z"/>
		<linearGradient id="SVGID_3_" gradientUnits="userSpaceOnUse" x1="29.1802" y1="14.21" x2="41.0691" y2="31.21">
			<stop  offset="0" style="stop-color:#FFFFFF;stop-opacity:0.3"/>
			<stop  offset="1" style="stop-color:#FFFFFF;stop-opacity:0"/>
		</linearGradient>
		<path class="st8" d="M54.6,15.4c-3.2,3.1-6.7,7.7-9.4,14.2c-6.4,1.8-13,5.4-14.6,11.8c-2.3,0-4.7,0.1-6.9,0.3
			c2.5-14.7,10.8-25,19-30.2C48,11.8,52.5,13.5,54.6,15.4z"/>
		<path class="st3" d="M59.4,11.6C56,10.7,51.1,10,45.7,9.9"/>
	</g>
	<g id="左后外段">
		<path class="st1" d="M111.7,20.1c-0.8,4.5-2.2,7-4.2,9.5c-5.8-4.7-19.1-1.7-28.3-2.5c-8.6-0.8-10.8-3.5-10.8-3.5
			c0.8-3.1,1.4-5.9,1.5-8.7c1.8,0.2,4,0.1,7.7-0.6c8.7-1.6,15,0.5,23.8-0.5C110.1,12.8,112.9,13.3,111.7,20.1z"/>
		<path class="st2" d="M111.7,20.1c-0.8,4.5-2.2,7-4.1,9.5c-0.8-0.6-1.7-1.1-2.7-1.5c3.8-3,6.9-7.6,7.1-11.2
			C112,17.7,111.9,18.8,111.7,20.1z"/>
		<path class="st2" d="M79.6,14.1c-1.5,0.5-9.1,2.9-10,10.3c-0.9-0.5-1.2-0.9-1.2-0.9c0.6-2.3,1.1-4.5,1.4-6.6
			c1.3,0.2,2.8-0.4,4.9-2.2c0.7-0.1,1.3-0.2,2.9-0.5C79.8,13.8,81.1,13.6,79.6,14.1z"/>
		<linearGradient id="SVGID_4_" gradientUnits="userSpaceOnUse" x1="90.518" y1="13.6698" x2="93.3328" y2="25.5217">
			<stop  offset="0" style="stop-color:#FFFFFF;stop-opacity:0.3"/>
			<stop  offset="1" style="stop-color:#FFFFFF;stop-opacity:0"/>
		</linearGradient>
		<path class="st9" d="M106.4,21.6c-4.1,3.6-8.6,3.8-12.7,5.3c-4.9,0.1-10.2,0.6-14.5,0.2c-1.4-0.1-2.6-0.3-3.7-0.5
			c0-0.7,0-1.5,0.2-2.3c1.2-5.8,4.6-10.8,13.9-9.5c9.4,1.3,11.7,0,15.3-0.5C108.5,14,112,16.6,106.4,21.6z"/>
		<path class="st3" d="M107.5,29.6c2-2.5,3.4-5,4.2-9.5c1.2-6.8-1.6-7.3-10.3-6.3c-8.8,1-15.1-1.1-23.8,0.5
			c-3.7,0.7-5.8,0.8-7.7,0.6"/>
	</g>
	<g id="左内段">
		<path class="st1" d="M69.9,14.8c-0.1,2.8-0.7,5.6-1.5,8.7c-0.5,2-1.1,4.1-1.6,6.4c-1.5,6.2-3,10.6-3.4,17.3
			c-0.2,3.5,0.3,8.4,0.7,12.3c-3.6,0.8-5.4,2.7-12.2,6.6c-6.1,3.5-10.2,1.7-15.4,5.1c-2-6,3.5-18.7,5.3-29.3
			c3.1-18.4,12.7-27.3,17.6-30.3c0.8,0.2,1.5,0.4,2.1,0.6C65.6,13.5,67.4,14.5,69.9,14.8z"/>
		<path class="st2" d="M69.7,16.9c-0.3,2.1-0.8,4.3-1.4,6.6c-0.5,2-1.1,4.1-1.6,6.4c-1.5,6.2-3,10.6-3.4,17.3
			c-0.2,3.5,0.3,8.4,0.7,12.3c-3.6,0.8-5.4,2.7-12.2,6.6c-6.1,3.5-10.2,1.7-15.4,5.1c-0.8-2.4-0.4-5.8,0.4-9.7h0
			c4.3-3,9.3-0.8,14.3-2.4c7-2.3,7.8-7.6,9.8-13c1.8-4.6,2.3-8.4,4.8-16c3.1-9.7,2.1-12.6-3.1-16.7c-1.1-0.9-2.9-1.7-3.3-1.8
			c0,0,0,0,0,0c0,0,0,0,0,0c0.8,0.2,1.3,0.4,2.1,0.6c1.5,0.5,2.8,1,3.8,1.4C66.9,15.4,68.2,16.7,69.7,16.9z"/>
		<path class="st4" d="M63.3,48.6c0,3.3,0.3,7.5,0.7,10.8c-3.6,0.8-5.4,2.7-12.2,6.6c-6.1,3.5-10.2,1.7-15.4,5.1
			c-0.3-0.8-0.4-1.7-0.4-2.6c4.4-5.1,8.8-2.2,14.6-3c5.3-0.8,9.2-8.3,10.6-12.5C62.1,50.5,62.8,49.1,63.3,48.6z"/>
		<linearGradient id="SVGID_5_" gradientUnits="userSpaceOnUse" x1="39.2898" y1="7.1399" x2="51.1787" y2="24.1399">
			<stop  offset="0" style="stop-color:#FFFFFF;stop-opacity:0.3"/>
			<stop  offset="1" style="stop-color:#FFFFFF;stop-opacity:0"/>
		</linearGradient>
		<path class="st10" d="M49,28.7c-1.2,0.2-2.5,0.5-3.8,0.9c2.7-6.6,6.2-11.2,9.4-14.2c0.2,0.2,0.4,0.4,0.6,0.6
			C58.5,20.2,57,27.2,49,28.7z"/>
		<path class="st3" d="M36.4,71.2c5.2-3.4,9.3-1.6,15.4-5.1c6.8-3.9,8.5-5.9,12.2-6.6"/>
		<path class="st3" d="M69.9,14.8c-2.5-0.3-4.3-1.3-8.4-2.6c-0.6-0.2-1.3-0.4-2.1-0.6"/>
	</g>
	<g id="右前外段">
		<path class="st1" d="M26.9,79.1c-5.1,3-9.9,3.1-10.6,1.3c-1.2-3.1-0.1-9.3-3-26.4c-0.4-2.5-0.7-5.1-0.7-7.9
			c2.5-2.7,6.5-3.9,11.1-4.4C21.3,56.2,23.1,72.8,26.9,79.1z"/>
		<path class="st2" d="M26.9,79.1c-5.1,3-9.9,3-10.6,1.3c-1.2-3.1-0.1-9.3-3-26.4c-0.4-2.5-0.7-5.1-0.7-7.9c1-1.1,2.4-2,3.9-2.7
			c0.6,1.8,1.4,3.5,2.3,5.1c5.8,9.9,2.2,12.2,0.8,19.1c-1.6,7.4,1.8,9,5.5,7.5C25.7,76.7,26.3,78.1,26.9,79.1z"/>
		<path class="st4" d="M26.6,78.5c0.1,0.2,0.2,0.4,0.3,0.6c-5.1,3-9.9,3-10.6,1.3c-1.2-3.1-0.1-9.3-3-26.4c-0.3-1.6-0.5-3.3-0.6-5
			c0.5,2.2,1.2,4.6,1.8,6.3c1.8,4.8,1,10.3,1.5,18c0.3,5.3,1.7,7.8,5.3,7.1C23,80.2,24.7,79.6,26.6,78.5z"/>
		<path class="st3" d="M12.7,46.2c0.1,2.7,0.3,5.4,0.7,7.9c2.9,17.1,1.8,23.3,3,26.4c0.7,1.7,5.5,1.6,10.6-1.3"/>
		<linearGradient id="SVGID_6_" gradientUnits="userSpaceOnUse" x1="10.3779" y1="27.3593" x2="22.2668" y2="44.3593">
			<stop  offset="0" style="stop-color:#FFFFFF;stop-opacity:0.3"/>
			<stop  offset="1" style="stop-color:#FFFFFF;stop-opacity:0"/>
		</linearGradient>
		<path class="st11" d="M23.8,41.7c-0.4,2.4-0.7,4.8-0.9,7.2c-1.9-1.2-3.5-3.4-4.3-6.2C20.2,42.3,22,41.9,23.8,41.7z"/>
	</g>
	<g id="左前外段">
		<path class="st1" d="M107.5,29.6c-2.5,3.2-6.1,6.5-10.7,14.1c-7.1,11.6-20,14.5-30.9,15.5c-0.7,0.1-1.3,0.2-1.8,0.3
			c-0.4-3.9-0.9-8.8-0.7-12.3c0.3-6.7,1.9-11.1,3.4-17.3c0.5-2.3,1.1-4.4,1.6-6.4c0,0,2.2,2.8,10.8,3.5
			C88.4,27.9,101.7,24.9,107.5,29.6z"/>
		<path class="st2" d="M107.5,29.6c-2.5,3.2-6.1,6.5-10.7,14.1c-7.1,11.6-20,14.5-30.9,15.5c-0.7,0.1-1.3,0.1-1.8,0.3
			c-0.4-3.9-0.9-8.8-0.7-12.3c0.3-6.7,1.9-11.1,3.4-17.3c0.5-2.3,1.1-4.4,1.6-6.4c0,0,0.3,0.4,1.2,0.9c0,0.1,0,0.1,0,0.2
			c-0.3,3.1,0,4.4-2.8,11.3c-2.6,6.7,0.5,10.1,2.6,12c2.1,1.9,8.8,5.1,17.9-0.8c9.1-5.8,3.8-12.8,13.6-16.8c1.4-0.6,2.8-1.4,4.1-2.5
			C105.8,28.5,106.7,28.9,107.5,29.6z"/>
		<path class="st4" d="M107.5,29.5c-2.5,3.2-6,6.5-10.7,14.1c-7.1,11.6-20,14.5-30.9,15.5c-0.7,0.1-1.3,0.2-1.8,0.3
			c-0.4-3.4-0.8-7.5-0.7-10.8c1.7-1.7,2,5.7,5.6,7.1c7.4,2.9,18.3-2.2,23.3-7.2c6.1-6.1,4.3-11.3,8.1-13.4c2.5-1.4,5-3.4,7-5.7
			C107.4,29.4,107.4,29.5,107.5,29.5z"/>
		<path class="st3" d="M64,59.5c0.6-0.1,1.2-0.2,1.8-0.3c10.9-1,23.8-3.9,30.9-15.5c4.6-7.6,8.2-10.9,10.7-14.1"/>
		<linearGradient id="SVGID_7_" gradientUnits="userSpaceOnUse" x1="81.9253" y1="15.7106" x2="84.7401" y2="27.5624">
			<stop  offset="0" style="stop-color:#FFFFFF;stop-opacity:0.3"/>
			<stop  offset="1" style="stop-color:#FFFFFF;stop-opacity:0"/>
		</linearGradient>
		<path class="st12" d="M93.7,26.9c-1.5,0.5-2.9,1.3-4.2,2.5c-6.6,6-13.8,3.3-14-2.8c1.1,0.2,2.3,0.4,3.7,0.5
			C83.5,27.5,88.8,27,93.7,26.9z"/>
	</g>
	<g id="右三角韧带">
		<path class="st13" d="M68.5,16.2c-0.2-0.6-0.4-1.3-0.7-1.8c-0.5-1-1-1.9-1.6-2.8C62.2,6.5,46.7,1.4,39,5.4c-3,1.6-5.7,1.8-8.6,2.1
			c-4.2,0.4-8.6,0.8-13.9,5.5c-5.2,4.6-6.8,11.6-8.3,18.5C7.1,36.3,6,40.9,3.7,44c-0.1,0.1-0.1,0.3,0.1,0.4c1.2,1.2,6.4,1.1,8.9-0.8
			c0.2-10.1,3.1-20.9,10.2-27.2c10.3-9.3,30.3-6.7,38-4.5c0,0,0,0,0,0C63.4,12.1,66.1,13.8,68.5,16.2z"/>
		<path class="st14" d="M39.3,5.9c-3.1,1.6-6,1.9-8.9,2.2c-4.1,0.4-8.4,0.8-13.6,5.3c-5,4.4-6.6,11.4-8.1,18.2
			c-1.1,4.9-2.1,9.6-4.5,12.8c-0.1,0.1-0.3,0.2-0.4,0.1c1.2,1.2,6.4,1.1,8.9-0.8c0.2-10.1,3.1-20.9,10.2-27.2
			c10.3-9.3,30.3-6.8,37.9-4.5c0,0,0,0,0.1,0c2.2,0.2,4.6,1.5,6.7,3.4c-0.5-1.3-1.1-2.4-1.9-3.4C61.8,7.1,46.5,2.1,39.3,5.9z"/>
		<path class="st14" d="M60.4,10c-0.9-0.5-3.6-1.2-5.5-1.1C52.9,9,55.4,8.2,54.5,8c-2.4-0.6-7.5,1.2-8.7,0.7c-1.2-0.5,1.7-1.4,1.3-2
			c-0.4-0.6-4.4-0.1-6.4,1c-1.9,1.1,0.7-1.8-2.1-0.1c-1.9,1.2-2.3,0-3.3,0.9s-2.7,0-3.2,0.7c-0.6,0.7-0.8-0.1-3.4-0.2
			c-1.7,0,0.1,1.1-0.6,2.6c-0.6,1.3-2.8,2.2-6.9,2c-4.1-0.2-2.3,1.2-1.1,1.6c1.2,0.5,1,1.8-0.3,1.8s-3.4-0.6-2.3,0.2
			c1.1,0.8-3.3-0.8-2.5,0.2c1.8,2,2.5,4.1,0.5,7.7c-2,3.5-5.7,3.8-4.2,4.7c1.5,0.9,1.6,4.4,0.6,5.4c-1,1,0.1,1.1-1,1.8
			c-1.1,0.8-1.4,0.4-0.5,1.2c0.9,0.8,0.3,2.2-1.1,3.4c-1.2,1-3.8,3.1-5.5,2.8c1.2,1.2,6.4,1.1,8.9-0.8c0.2-10.1,3.1-20.9,10.2-27.2
			c10.3-9.3,30.2-6.8,37.9-4.5c0,0,0,0,0.1,0c0.9,0.1,1.7,0.3,2.6,0.7c-0.9-0.6-1.9-0.9-2.8-1.3C59.1,10.8,61.5,10.6,60.4,10z"/>
		<path class="st14" d="M5.7,44.3c2-0.2,3.9-1,5.5-2.3C9.8,43.5,7.8,44.4,5.7,44.3C5.7,44.3,7.8,44.4,5.7,44.3z"/>
		<path class="st14" d="M8.3,42.8c1.4-0.7,2.7-1.6,3.7-2.7C11.2,41.4,9.8,42.4,8.3,42.8C8.3,42.8,9.8,42.4,8.3,42.8z"/>
		<path class="st14" d="M8.3,37.3c1.3,0.3,2.6,0.2,3.9-0.2C11,37.8,9.5,37.9,8.3,37.3C8.3,37.3,9.5,37.9,8.3,37.3z"/>
		<path class="st14" d="M10.2,36.5c1,0,2-0.3,2.8-0.9C12.4,36.5,11.2,36.9,10.2,36.5C10.2,36.5,11.2,36.9,10.2,36.5z"/>
		<path class="st14" d="M10.2,29.3c1.4,0.2,2.8,0.1,4.1-0.3C13.1,29.6,11.6,29.8,10.2,29.3C10.2,29.3,11.6,29.8,10.2,29.3z"/>
		<path class="st14" d="M14.7,16.7c1.7-0.2,3.4,0.3,4.8,1.3C18,17.3,16.4,16.9,14.7,16.7C14.7,16.7,16.4,16.9,14.7,16.7z"/>
		<path class="st14" d="M17,18.2c0.8-0.1,1.6,0.1,2.2,0.6C18.4,18.5,17.7,18.3,17,18.2C17,18.2,17.7,18.3,17,18.2z"/>
		<path class="st14" d="M17.6,14.2c1.7-0.4,3.7-0.3,5.3,0.5C21.2,14.2,19.4,14.1,17.6,14.2C17.6,14.2,19.4,14.1,17.6,14.2z"/>
		<path class="st14" d="M19.7,14.7c0.9,0.2,1.8,0.7,2.4,1.4C21.3,15.6,20.5,15.2,19.7,14.7C19.7,14.7,20.5,15.2,19.7,14.7z"/>
		<path class="st14" d="M27.6,9.6c1.6-0.4,3.4,0.1,4.5,1.3C30.8,10,29.2,9.5,27.6,9.6C27.6,9.6,29.2,9.5,27.6,9.6z"/>
		<path class="st14" d="M33.7,10.8c-0.5-0.4-0.9-0.9-1.2-1.5C33.1,9.7,33.5,10.3,33.7,10.8C33.7,10.8,33.5,10.3,33.7,10.8z"/>
		<path class="st14" d="M35.1,10.3c-0.1-0.6,0.1-1.4,0.6-1.8C35.4,9.2,35.2,9.7,35.1,10.3C35.1,10.3,35.2,9.7,35.1,10.3z"/>
		<path class="st14" d="M37.4,10.1c0.9-1.9,2.7-3.4,4.6-4C40.1,7,38.6,8.3,37.4,10.1C37.4,10.1,38.6,8.3,37.4,10.1z"/>
		<path class="st14" d="M42,8c2.4-1.1,5.1-1.6,7.7-1.4C47.1,6.7,44.5,7.1,42,8C42,8,44.5,7.1,42,8z"/>
		<path class="st14" d="M51.5,9c2.3-1,5.1-1.1,7.4-0.1C56.5,8.2,53.9,8.3,51.5,9C51.5,9,53.9,8.3,51.5,9z"/>
		<path class="st14" d="M57,9.5c1.7,0.3,3.5,0.8,5.2,1.4C60.4,10.6,58.7,10.1,57,9.5C57,9.5,58.7,10.1,57,9.5z"/>
		<g>
			<path class="st3" d="M68.5,16.2c-0.2-0.7-0.4-1.3-0.7-1.9c-0.5-1-1-1.9-1.6-2.8C62.2,6.5,46.7,1.4,39,5.4c-3,1.6-5.7,1.8-8.6,2.1
				c-4.2,0.4-8.6,0.8-13.9,5.5c-5.2,4.6-6.8,11.6-8.3,18.5C7.1,36.3,6,40.9,3.7,44c-0.1,0.1-0.1,0.3,0.1,0.4
				c1.2,1.2,6.4,1.1,8.9-0.8c0.2-10.1,3.1-20.9,10.2-27.2c10.4-9.3,30.3-6.7,38-4.5"/>
			<path class="st3" d="M3.8,44.5c0.1,0.1,0.3,0.1,0.4-0.1c2.4-3.2,3.4-7.9,4.5-12.8c1.5-6.8,3.1-13.7,8.1-18.2
				c5.2-4.6,9.5-4.9,13.6-5.3c2.8-0.3,5.8-0.5,8.9-2.2c7.2-3.8,22.6,1.2,26.4,6.1c0.8,1,1.4,2.1,1.9,3.4"/>
		</g>
	</g>
	<g id="左三角韧带">
		<path class="st13" d="M117,15c-2-3.5-9.2-10.1-17.1-7.1C93.5,10.4,90.4,10,83.9,9c-3.1-0.5-6.3,0.5-9.1,2.8c-1.1,0.9-2,2-2.8,3.1
			c-0.3,0.4-0.5,0.8-0.8,1.3c2.6-1.6,4.9-1.9,7.2-2.1c0,0,0,0,0,0c8.3-1.3,14.5,0.6,23-0.4c5.7-0.6,8.9-0.6,10.1,1.3
			c1-1.1,4.1-0.9,5.1,0.3c0.1,0.1,0.3,0.2,0.4,0.1C117.1,15.3,117.1,15.2,117,15z"/>
		<path class="st14" d="M100.2,8.5c-6.6,2.5-9.8,2.2-16.4,1.1c-2.9-0.5-6,0.5-8.6,2.7c-1.1,0.9-2,2-2.9,3.3c2.2-1,4.1-1.3,6-1.5
			c0,0,0.1,0,0.1,0c8.2-1.3,14.4,0.6,22.9-0.3c5.7-0.6,8.9-0.6,10.1,1.3c1-1.1,4.1-0.9,5.1,0.3C114.6,12,107.7,5.6,100.2,8.5z"/>
		<path class="st14" d="M112.3,12.7c-1.5-0.4,0.5-1-1.1-1.5s-4.3-0.4-6.8,0.4c-2.5,0.8-2.6-0.6-2.1-1.3c0.5-0.7-2.1,0.7-3.3,0.9
			c-1.3,0.2-0.1-1.3-1.1-1c-1,0.3-2.6,1.6-3.5,1.9c-0.9,0.3-0.2-0.7-0.8-0.3c-0.5,0.4-1.7,1.1-3.1,0.6c-1.4-0.5-0.3,0.6-1.7,0.7
			c-1.4,0.1-2.2-1-4-1.9c-1.8-0.8-1.2,1-2.2,1.7c-1,0.6-3.3,0.4-4.4,0.1c-1.1-0.3-0.5,0.5-2,1.2c-0.2,0.1-0.4,0.2-0.6,0.3
			c0.9-0.2,1.7-0.3,2.6-0.3c0.1,0,0.1,0,0.2,0c8.2-1.3,14.4,0.6,22.8-0.3c5.7-0.6,8.9-0.6,10.1,1.3c1-1.1,4.1-0.9,5.1,0.3
			c0.1,0.1,0.2,0.1,0.3,0.1C115.8,14,113.5,13,112.3,12.7z"/>
		<path class="st14" d="M75.1,13.1c1.1-0.2,2.2,0,3.1,0.6C77.1,13.3,76.1,13.1,75.1,13.1C75.1,13.1,76.1,13.1,75.1,13.1z"/>
		<path class="st14" d="M79.9,13.6c-0.4-0.7-0.9-1.3-1.7-1.7C79.1,12.1,79.8,12.8,79.9,13.6C79.9,13.6,79.8,12.8,79.9,13.6z"/>
		<path class="st14" d="M82.7,10.4c1.8,0.4,3.4,1.4,4.6,2.8C85.9,12,84.3,11,82.7,10.4C82.7,10.4,84.3,11,82.7,10.4z"/>
		<path class="st14" d="M84.3,11.5c0.6,0.3,1.1,1,1.1,1.7C85.1,12.5,84.8,12,84.3,11.5C84.3,11.5,84.8,12,84.3,11.5z"/>
		<path class="st14" d="M89.6,11.2c0.7,0.4,1.1,1.3,1,2.1C90.4,12.6,90.1,11.9,89.6,11.2C89.6,11.2,90.1,11.9,89.6,11.2z"/>
		<path class="st14" d="M92.9,13.4c0.3-1.2,1.2-2.2,2.3-2.6C94.2,11.5,93.4,12.3,92.9,13.4C92.9,13.4,93.4,12.3,92.9,13.4z"/>
		<path class="st14" d="M94.5,12.9c1.7-2,4.1-3.4,6.7-3.8C98.7,9.8,96.4,11.1,94.5,12.9C94.5,12.9,96.4,11.1,94.5,12.9z"/>
		<path class="st14" d="M100.3,12.3c0.7-1.7,2.4-2.9,4.1-3C102.7,9.7,101.2,10.8,100.3,12.3C100.3,12.3,101.2,10.8,100.3,12.3z"/>
		<path class="st14" d="M103.2,10.7c1.5-0.8,3.3-1.1,5-0.6C106.5,9.9,104.8,10.1,103.2,10.7C103.2,10.7,104.8,10.1,103.2,10.7z"/>
		<path class="st14" d="M107,12.8c1.7-1.6,4.6-1.7,6.3-0.2C111.4,11.4,108.8,11.5,107,12.8L107,12.8z"/>
		<path class="st14" d="M111.6,13.4c1-0.3,2.2,0,3,0.6C113.6,13.6,112.6,13.4,111.6,13.4C111.6,13.4,112.6,13.4,111.6,13.4z"/>
		<g>
			<path class="st3" d="M78.3,14.1c8.3-1.3,14.5,0.6,23-0.4c5.7-0.6,8.9-0.6,10.1,1.3c1-1.1,4.1-0.9,5.1,0.3
				c0.1,0.1,0.3,0.2,0.4,0.1c0.1-0.1,0.2-0.3,0.1-0.4c-2-3.5-9.2-10.1-17.1-7.1C93.5,10.4,90.4,10,83.9,9c-3.1-0.5-6.3,0.5-9.1,2.8
				c-1.1,0.9-2,2-2.8,3.1c-0.3,0.4-0.5,0.8-0.8,1.3"/>
			<path class="st3" d="M72.3,15.5c0.8-1.3,1.8-2.4,2.9-3.3c2.6-2.2,5.7-3.1,8.6-2.7c6.6,1.1,9.8,1.5,16.4-1.1
				c7.5-2.9,14.4,3.5,16.3,6.9c0.1,0.1,0.3,0.2,0.4,0.1"/>
		</g>
	</g>
	<g id="镰状韧带">
		<path class="st13" d="M71.2,16.2c-0.5,0.9-1,1.9-1.3,2.9c-0.1,0.4-0.6,0.3-0.7-0.1c-0.2-1-0.4-1.9-0.7-2.8
			c-2.4-2.4-5.1-4.1-7.7-4.3c0,0,0,0,0,0c0,0,0,0,0,0c2,0.7,4.4,2.6,5,4.4c0.6,1.8,0.6,3.2,1.3,4.1c0.7,0.9,0.1,1.5,0.3,2.2
			c0.2,0.7,0.1,2.4-1.6,6c-1.8,3.6-1.3,8.9-2.7,10.3c-1.4,1.4-0.4,2.7-1.4,3.6c-1,0.9-1.7,5.9-1.5,8.3c0.2,2.1,0.8,1.8,0.7,4.2
			c-0.1,2,1.6,4.8,0.4,5.4l0,0c2.2,1.4,4.7,4.5,5.6,8.4c0.4,1.9,0.3,3.8,0.1,5.1c0.7-0.9,1.4-2.2,1.6-2.9c1-4.4-0.2-6.5-1.4-8.3
			c-0.7-1-1.1-3.6-0.3-3.7c-2.7-1.6-1.1-4.5-2-5.9c-0.9-1.3,0.2-1.9-0.3-3.4c-0.5-1.5-0.4-4.8,0.5-7.9c0.6-1.9,1.4-4,2.3-6.2
			c0.8-2.2,1.4-4.5,1.8-6.8c1.5-5.8,1.4-7.5,4-9.2c1.1-0.7,0.4-1.6,1.7-2.5c1-0.7,1.8-2.9,3.5-3.2c0,0,0,0,0,0c0,0,0,0,0,0
			C76.1,14.3,73.8,14.6,71.2,16.2z"/>
		<path class="st14" d="M65,59.2l0.3,0.7c0.5,1.1,1.3,2,2,3c-0.1-0.1-0.1-0.2-0.2-0.2c-0.7-1-1.1-3.6-0.3-3.7
			c-2.7-1.6-1.1-4.5-2-5.9c-0.9-1.3,0.2-1.9-0.3-3.4C64,48.3,64.1,45,65,42C63,48,62.3,53,65,59.2z"/>
		<path class="st14" d="M72.3,15.5c-1.7,2.7-2.8,5.9-2.7,8.3c0,1.5-0.1,3.3-0.4,5.1c1.5-5.8,1.4-7.5,4-9.2c1.1-0.7,0.4-1.6,1.7-2.5
			c1-0.7,1.8-2.9,3.5-3.2c0,0,0.1,0,0.1,0c0,0-0.1,0-0.1,0C76.4,14.2,74.5,14.5,72.3,15.5z"/>
		<path class="st14" d="M60.8,11.9C60.8,11.9,60.8,11.9,60.8,11.9c2,0.7,4.4,2.6,5,4.4c0,0,0,0,0,0c0,0,0,0,0,0
			c0.6,1.8,0.6,3.2,1.3,4.1c0.7,0.9,0.1,1.5,0.3,2.2c0.2,0.7,0.1,2.4-1.6,6c-1.8,3.6-1.3,8.9-2.7,10.3c-1.4,1.4-0.4,2.7-1.4,3.6
			c-1,0.9-1.7,5.9-1.5,8.3c0.2,2.1,0.8,1.8,0.7,4.2c-0.1,2,1.6,4.8,0.4,5.4c0,0,0,0,0,0c1.6,1,3.4,3,4.6,5.5c0,0,0-0.1,0.1-0.1
			c0.5-0.5,1.1,1,1.7,2.5c0.5,1.5,0.5-1.1-0.3-3.2c-0.8-2.1-2.8-3.6-4.2-4.4c-1.6-0.8-1.9-3.2,0-2.3c1,0.5,0.3-0.2-1.2-1.8
			c-1.2-1.3,0.2-2.3-0.4-3c-1.5-1.9-1.1-3.8,0.4-1c0.8,1.5-0.1-0.5-0.6-3.3c-0.8-4.2,0.6-7.6,1.1-3c0.1,1.1,0.3,1.4,0.2-1.1
			c-0.1-1.9,0.7-5.3,0.9-5.4c0.7-0.3-0.6,3.1-0.3,2.9c0.4-0.2,1-1.8,1.2-3.5c0.3-1.9,0.2-3.1,0.5-3.7c0.4-0.6,0.5,0.8,0.7,0.7
			c0.2-0.1-0.1-0.8-0.1-1.6c-0.1-1.6,1,0.5,1.1,0.1c0.2-0.4-0.8-1.1-1-3c-0.2-1.6,1.5-6.7,1.8-3.7c0.2,1.7,0.5,0.9,0.6-0.8
			c0.1-1.7-0.5-3.3-0.4-4.1c0.1-0.8,0.8,0.8,0.9,0c0.1-0.8-0.2-0.9-0.1-1.7c0.1-0.8-0.4-1.5-1.1-2.4c-0.3-0.4-1.2-1.7-0.6-1.8
			c0.4-0.1,1.2,1.3,1.7,2.4c-0.2-1.6-0.6-3-1.1-4.4C65.4,13.4,63,12.1,60.8,11.9C60.8,11.9,60.8,11.9,60.8,11.9z"/>
		<path class="st14" d="M60.8,11.9C60.8,11.9,60.8,11.9,60.8,11.9c2.1,0.7,4.5,2.6,5,4.4c0,0,0,0,0,0c0,0,0,0,0,0
			c0.1,0.3,0.2,0.6,0.2,0.9c0-0.7-0.1-1.4-0.4-2.1c-0.5-1.2-1.3-2-2.2-2.6C62.5,12.2,61.7,12,60.8,11.9
			C60.8,11.9,60.8,11.9,60.8,11.9z"/>
		<path class="st14" d="M75.7,14.4c-1.1,0.6-1.8,1.2-1.3,1.6c0.6,0.4-2.6,1.2-1.7,1.7c0.9,0.5,0.4,1-0.4,1.4c-0.6,0.4-1.2,1.5-1.3,3
			c0.5-0.9,1.1-1.6,2.1-2.2c1.1-0.7,0.4-1.6,1.7-2.5c1-0.7,1.8-2.9,3.5-3.2c0.1,0,0.1,0,0.2,0c-0.1,0-0.1,0-0.2,0
			C77.5,14.1,76.6,14.2,75.7,14.4z"/>
		<path class="st14" d="M64.9,14.2c1.3,0.6,2.3,1.8,2.7,3.1C66.9,16.1,66,15.1,64.9,14.2C64.9,14.2,66,15.1,64.9,14.2z"/>
		<path class="st14" d="M66.6,18.7c1,0.5,1.7,1.5,1.9,2.6C68,20.3,67.4,19.5,66.6,18.7C66.6,18.7,67.4,19.5,66.6,18.7z"/>
		<path class="st14" d="M67.8,21.7c0.5,0.1,0.8,0.6,0.8,1.1C68.3,22.4,68.1,22.1,67.8,21.7C67.8,21.7,68.1,22.1,67.8,21.7z"/>
		<path class="st14" d="M67.7,24.6c0.4,1.3,0.5,2.8,0.2,4.2C67.9,27.4,67.8,26,67.7,24.6C67.7,24.6,67.8,26,67.7,24.6z"/>
		<path class="st14" d="M65.7,30.6c-0.3,1.9-0.3,3.7,0,5.6C65.1,34.4,65.1,32.4,65.7,30.6C65.7,30.6,65.1,32.4,65.7,30.6z"/>
		<path class="st14" d="M65.7,32.6c0.2,0.8,0.5,1.4,0.9,2.1C66,34.2,65.7,33.4,65.7,32.6C65.7,32.6,65.7,33.4,65.7,32.6z"/>
		<path class="st14" d="M64.4,37c0,1.9-0.3,3.8-1,5.5C63.9,40.7,64.2,38.9,64.4,37C64.4,37,64.2,38.9,64.4,37z"/>
		<path class="st14" d="M63,41.5c-0.4,1.7-0.5,3.4-0.4,5.1C62.2,45,62.3,43.1,63,41.5C63,41.5,62.3,43.1,63,41.5z"/>
		<path class="st14" d="M60.9,48.6l1.2,4.3C61.5,51.6,61.1,50.1,60.9,48.6C60.9,48.6,61.1,50.1,60.9,48.6z"/>
		<path class="st14" d="M61.2,56.3c0.8,0.7,1.5,1.5,2.3,2.2C62.6,58,61.8,57.2,61.2,56.3C61.2,56.3,61.8,57.2,61.2,56.3z"/>
		<path class="st14" d="M62.3,61c2.8,1.1,5,3.8,5.5,6.8C67,64.8,65,62.3,62.3,61C62.3,61,65,62.3,62.3,61z"/>
		<path class="st14" d="M65.9,58.8c-0.1,0.5-0.1,0.9-0.2,1.3C65.4,59.7,65.5,59.1,65.9,58.8C65.9,58.8,65.5,59.1,65.9,58.8z"/>
		<path class="st14" d="M65.6,58.5c-0.1,0.3-0.2,0.4-0.4,0.7C65.1,58.9,65.3,58.6,65.6,58.5C65.6,58.5,65.3,58.6,65.6,58.5z"/>
		<path class="st14" d="M64.7,53.9c-0.2,0.6-0.4,1.2-0.4,1.9C64,55.2,64.2,54.4,64.7,53.9C64.7,53.9,64.2,54.4,64.7,53.9z"/>
		<path class="st14" d="M63.6,52.3c-0.1-0.6,0.3-1.3,0.8-1.5C64,51.2,63.7,51.7,63.6,52.3C63.6,52.3,63.7,51.7,63.6,52.3z"/>
		<path class="st14" d="M70.3,21.1c0.6-1.1,1.8-1.9,3.1-2C72.2,19.5,71.2,20.2,70.3,21.1C70.3,21.1,71.2,20.2,70.3,21.1z"/>
		<path class="st14" d="M71.4,18.9c0.5-0.4,1.3-0.6,2-0.3C72.7,18.6,72.1,18.7,71.4,18.9C71.4,18.9,72.1,18.7,71.4,18.9z"/>
		<path class="st14" d="M72.4,16.3c0.8-0.7,2-0.8,2.9-0.3C74.3,15.8,73.3,15.9,72.4,16.3C72.4,16.3,73.3,15.9,72.4,16.3z"/>
		<g>
			<path class="st3" d="M71.3,16c-0.6,0.9-1.1,2.1-1.4,3.1c-0.1,0.4-0.6,0.3-0.7-0.1c-0.2-1-0.4-2.1-0.8-3"/>
			<path class="st3" d="M67,73.9c0.7-0.9,1.4-2.2,1.6-2.9c1-4.4-0.2-6.5-1.4-8.3c-0.7-1-1.1-3.6-0.3-3.7c-2.7-1.6-1.1-4.5-2-5.9
				c-0.9-1.3,0.2-1.9-0.3-3.4c-0.5-1.5-0.4-4.8,0.5-7.9c0.6-1.9,1.4-4,2.3-6.2c0.8-2.2,1.4-4.5,1.8-6.8c1.5-5.8,1.4-7.5,4-9.2
				c1.1-0.7,0.4-1.6,1.7-2.5c1-0.7,1.8-2.9,3.5-3.2"/>
			<path class="st3" d="M60.8,11.9c2,0.7,4.4,2.6,5,4.4c0.6,1.8,0.6,3.2,1.3,4.1c0.7,0.9,0.1,1.5,0.3,2.2c0.2,0.7,0.1,2.4-1.6,6
				c-1.8,3.6-1.3,8.9-2.7,10.3c-1.4,1.4-0.4,2.7-1.4,3.6s-1.7,5.9-1.5,8.3c0.2,2.1,0.8,1.8,0.7,4.2c-0.1,2,1.6,4.8,0.4,5.4l0,0"/>
			<path class="st3" d="M67.5,15.2c2.2,5.4,2,13.4-0.7,20.4c-3.5,9-6,15.5-2.3,23.9l0.3,0.7c1.3,3,5,4.3,3.2,10.7
				c-0.2,0.6-0.4,1.2-0.8,1.8"/>
			<path class="st3" d="M67.2,62.8c-0.7-0.9-1.4-1.8-1.8-2.8L65,59.2C61.4,51,63.8,45,67.3,35.7c1.5-3.9,2.3-8.4,2.2-11.9
				c-0.1-2.4,1.1-5.8,2.9-8.5"/>
		</g>
	</g>
	<g id="肝圆韧带">
		<path class="st13" d="M66.9,68.7c-0.9-3.9-3.4-7-5.6-8.4c0,0,2,2.2,2.2,7.1c0.2,5-0.8,3.6-0.4,9.3c0.1,0.5,0.8,0.8,1.5,0.6
			c0.8-0.1,1.4-0.6,1.3-1c-0.1-1,0.4-1.6,1-2.4c0,0,0-0.1,0.1-0.1C67.2,72.6,67.3,70.7,66.9,68.7z"/>
		<path class="st14" d="M61.3,60.3C61.3,60.3,61.3,60.3,61.3,60.3C61.3,60.3,61.3,60.3,61.3,60.3L61.3,60.3c0,0,2,2.2,2.2,7.1
			c0.2,4.7-0.7,3.7-0.5,8.4c0.1-1.2,0.2-3,0.5-4.3c0.8-3,0.4-5.8-0.3-7.9c-0.4-1.3,0.5-1.4,1.5,2.1c0.3,1.2,1.1,4,0.9,6.5
			c-0.2,2.9,0.9,1,0.9-1.3c-0.1-3.5-0.9-4.6-0.5-5.1C64.7,63.3,62.9,61.4,61.3,60.3z"/>
		<path class="st14" d="M64.8,65.1c1.2,2.5,1.6,5.5,1.1,8.3C66.1,70.6,65.7,67.8,64.8,65.1C64.8,65.1,65.7,67.8,64.8,65.1z"/>
		<g>
			<ellipse transform="matrix(0.9909 -0.1349 0.1349 0.9909 -9.7486 9.3994)" class="st15" cx="64.5" cy="76.6" rx="1.1" ry="0.5"/>
			<path class="st15" d="M64.9,76.6c0.2,0,0.4,0,0.6,0c0-0.1,0-0.1,0-0.2c0-0.3-0.5-0.5-1.1-0.4c-0.6,0.1-1,0.4-1,0.7
				c0,0.2,0.2,0.3,0.6,0.4C64.1,76.9,64.5,76.7,64.9,76.6z"/>
			<path class="st15" d="M63.6,76.9c0-0.3,0.4-0.6,0.9-0.6c0.5-0.1,1,0.1,1,0.3c0,0,0,0,0-0.1c0-0.3-0.5-0.5-1.1-0.4
				c-0.6,0.1-1,0.4-1,0.7c0,0.2,0.2,0.3,0.4,0.3C63.7,77.1,63.6,77,63.6,76.9z"/>
		</g>
		<g>
			<path class="st3" d="M61.3,60.3c0,0,2,2.2,2.2,7.1c0.2,5-0.8,3.6-0.4,9.3c0.1,0.5,0.8,0.8,1.5,0.6c0.8-0.1,1.4-0.6,1.3-1
				c-0.1-1,0.4-1.6,1-2.4c0,0,0.2-0.3,0.2-0.3"/>
			<path class="st3" d="M67.3,72.5c-0.3,0.4-0.9,1.1-1.5,1.5c-0.9,0.7-2.1,1.7-2.5,2.2c-0.2,0.2-0.2,0.5-0.2,0.5"/>
		</g>
	</g>
</g>
</svg>
