<?xml version="1.0" encoding="utf-8"?>
<!-- Generator: Adobe Illustrator 24.0.0, SVG Export Plug-In . SVG Version: 6.00 Build 0)  -->
<svg version="1.1" id="图层_1" xmlns="http://www.w3.org/2000/svg" xmlns:xlink="http://www.w3.org/1999/xlink" x="0px" y="0px"
	 viewBox="0 0 120 83.6" style="enable-background:new 0 0 120 83.6;" xml:space="preserve">
<style type="text/css">
	.st0{fill:#49231E;}
	.st1{fill:#973938;}
	.st2{fill:none;}
	.st3{opacity:0.5;fill:#391011;}
	.st4{fill:none;stroke:#49231E;stroke-width:0.2;stroke-linecap:round;stroke-linejoin:round;stroke-miterlimit:10;}
	.st5{fill:#EFE1DF;}
	.st6{opacity:0.5;fill:#BF7370;}
	.st7{fill:none;stroke:#4D2B27;stroke-width:0.2;stroke-linecap:round;stroke-linejoin:round;stroke-miterlimit:10;}
	.st8{fill:url(#SVGID_1_);}
	.st9{fill:#FFFFFF;}
	.st10{fill:url(#SVGID_2_);}
	.st11{fill:url(#SVGID_3_);}
	.st12{fill:#7994CB;}
	.st13{fill:none;stroke:#1B2A56;stroke-width:0.2;stroke-linecap:round;stroke-linejoin:round;stroke-miterlimit:10;}
	.st14{opacity:0.5;fill:#395787;}
	.st15{opacity:0.5;fill:#172D56;}
	.st16{opacity:0.5;fill:#0D1A1C;}
	.st17{opacity:0.5;}
	.st18{opacity:0.3;fill:#FFFFFF;}
	.st19{opacity:0.5;fill:#29487D;}
	.st20{fill:none;stroke:#1D2A58;stroke-width:0.2;stroke-linecap:round;stroke-linejoin:round;stroke-miterlimit:10;}
	.st21{opacity:0.5;fill:#FFFFFF;}
	.st22{fill:#E3706D;}
	.st23{opacity:0.5;fill:#842522;}
	.st24{opacity:0.5;fill:#6A1217;}
	.st25{opacity:0.5;fill:#3A1112;}
	.st26{fill:none;stroke:#4F2C28;stroke-width:0.2;stroke-linecap:round;stroke-linejoin:round;stroke-miterlimit:10;}
	.st27{fill:#A1AF51;}
	.st28{opacity:0.5;fill:#4B4C23;}
	.st29{opacity:0.5;fill:#484B23;}
	.st30{opacity:0.5;fill:#1E1F0A;}
	.st31{fill:none;stroke:#1C4826;stroke-width:0.2;stroke-linecap:round;stroke-linejoin:round;stroke-miterlimit:10;}
</style>
<g id="肝脏上面观">
	<g id="外描边">
		<path class="st0" d="M22.4,5.6c5.5,0,11.4,2.8,13.5,3.5c2.5,0.8,12,0,17.8,1.6c1.9,0.5,3.4,1.1,4.3,1.7c0,0,0.1,0.1,0.1,0.1
			c0,0,0,0,0,0c0.5,0.1,0.7,0.3,0.8,0.6c0.9,0.1,1.9,0.4,2.9,0.8c2.8,1.2,4.2,3.4,4.4,5.8c0.1,0,0.2,0.1,0.3,0.2
			c0.4,0.3,0.4,0.9,0.5,1.4c0,0,0-0.1,0-0.1c0-0.1,0-0.2,0-0.3c-0.3-1.7,1.8-2.9,4.4-3.3c0,0,0,0,0,0c0.3-1.7,0.5-3.2,0.6-4.6
			c0-0.4,0.5-0.6,1-0.6c0.5,0,1.1,0.2,1,0.8c0,0.6-0.2,2.1-0.6,4.2c0,0,0,0,0,0c0.1,0,0.3,0,0.4,0c2-3.9,3.3-7.3,3.6-8
			c0.2-0.5,0.7-0.7,1.2-0.7c1.3,0,2.9,1.2,2.4,2.3c-0.9,2.1-2,4.6-3.4,7.2c0.7,0.3,1.3,0.7,1.8,1.2c0,0,0,0,0,0
			c1.2-1.4,2.1-2.5,2.3-2.8c0.1-0.1,0.3-0.2,0.5-0.2c0.7,0,1.5,1,1,1.5c-0.3,0.3-1.2,1.5-2.7,3.1c0,0,0,0,0,0
			c1.8,2.9,2.5,6.8,0.8,8.4c0,0-0.1,0.1-0.1,0.1c-0.1,0-0.1,0.1-0.1,0.1c0.2-0.1,0.3-0.2,0.4-0.2c0.3,0,0.3,0.4,0,0.6
			c0.3-0.1,0.6-0.2,0.9-0.2c0.8,0,1.4,0.3,1,0.5c0.9-0.2,3.1-0.8,9.4-6c6.4-5.3,8.9-10.4,14.1-10.4c0.3,0,0.7,0,1.1,0.1
			c8.9,1.1,10,11.7,5.9,24.8s-0.1,16.9-4.4,24.4c-4.2,7.2-17.2,12.3-24.4,12.3c-0.3,0-0.5,0-0.8,0c-1.9-0.1-3.7-0.2-5.5-0.2
			c-1.5,0-2.9,0-4.4,0.1c-0.1,0.3-0.8,0.4-1.5,0.4c-0.4,0-0.9-0.1-1.1-0.2c-2.4,0.3-5,0.7-8,1.3c-5.4,1.2-10.4,2.5-16.6,2.5
			c-3.1,0-6.5-0.3-10.4-1.2c-11.6-2.7-13.8-4.4-23.8-15.3C3.1,52.1,1.4,36.8,4,25.4c2.5-11,7.6-16.4,13.9-19
			C19.3,5.9,20.8,5.6,22.4,5.6 M22.4,5.1c-1.7,0-3.3,0.3-4.6,0.8C10.4,8.9,5.8,15.2,3.5,25.3c-2.5,10.9-1.3,26.6,9.3,38.2
			c10.1,11,12.3,12.8,24.1,15.5c3.7,0.8,7.1,1.3,10.5,1.3c5.3,0,9.7-1,14.3-2c0.8-0.2,1.6-0.4,2.4-0.5c2.8-0.6,5.4-1,7.8-1.3
			c0.4,0.2,0.9,0.2,1.2,0.2c0.4,0,1.3-0.1,1.7-0.5c1.3-0.1,2.7-0.1,4.1-0.1c1.6,0,3.4,0.1,5.4,0.2c0.3,0,0.5,0,0.8,0
			c7.2,0,20.4-4.9,24.8-12.5c2.3-3.9,2.3-6.8,2.4-10.5c0-3.4,0.1-7.6,2.1-14c3-9.5,3.1-17.1,0.3-21.4c-1.5-2.3-3.7-3.7-6.6-4
			c-0.4-0.1-0.8-0.1-1.1-0.1c-3.7,0-6.1,2.4-9.1,5.5c-1.5,1.5-3.2,3.2-5.3,5c-5.2,4.3-7.5,5.3-8.7,5.7c-0.4-0.3-1.2-0.4-1.4-0.4
			c-0.1,0-0.2,0-0.2,0c0-0.1-0.1-0.1-0.1-0.2c1.3-2,0.6-5.5-1-8.2c1-1.1,1.7-2,2.1-2.4c0.1-0.2,0.2-0.3,0.3-0.4
			c0.3-0.3,0.3-0.8,0.1-1.3c-0.3-0.6-1-1.1-1.6-1.1c-0.3,0-0.6,0.1-0.8,0.4c-0.1,0.1-0.3,0.4-0.6,0.7c-0.4,0.4-0.8,1-1.4,1.7
			c-0.3-0.3-0.7-0.5-1.1-0.7c1.2-2.1,2.2-4.3,3.2-6.8c0.2-0.5,0.1-1.1-0.2-1.7c-0.5-0.8-1.7-1.4-2.7-1.4c-0.8,0-1.4,0.4-1.7,1
			c0,0.1-0.1,0.3-0.2,0.5c-0.4,1-1.3,3.2-2.6,5.8c0.2-1.1,0.2-1.9,0.3-2.3c0-0.3-0.1-0.6-0.3-0.8c-0.3-0.3-0.7-0.5-1.2-0.5
			c-0.8,0-1.4,0.4-1.5,1c-0.1,1-0.3,2.5-0.6,4.2c-2.1,0.4-3.6,1.2-4.2,2.3c0,0,0,0-0.1,0c-0.4-2.6-2.1-4.7-4.7-5.9
			c-0.9-0.4-1.9-0.7-2.8-0.8c-0.2-0.2-0.4-0.4-0.9-0.5c0,0,0,0-0.1-0.1c-0.8-0.7-2.2-1.2-4.4-1.8c-3.5-1-8.3-1.1-12.1-1.2
			C39.2,9,37,8.9,36,8.6c-0.5-0.1-1.1-0.4-1.9-0.7C31.4,6.9,26.7,5.1,22.4,5.1L22.4,5.1z"/>
	</g>
	<g id="肝裸区">
		<path class="st1" d="M110.6,17.2c-0.9-0.6-3.3,3.5-6.7,5.3c-1.9,1-3.1,2.8-4,3.8c-1.1,1.2-2.2,2.3-5.1,3.5c-2.6,1-6.1,3.1-9.4,3.5
			c-1.6,0.2-2.7-0.2-3.4-0.9c-0.6-0.5-0.3-1.3,0.6-1.7c-0.5,0-1,0-1.3-0.2c-0.3-0.2-0.4-0.5,0.1-0.9c0.1,0,0.1-0.1,0.1-0.1
			c-0.1,0-0.2,0.1-0.3,0.2c-0.6,0.6-1.4,1.9-2.9,2.1c-1.5,0.2-3,1.4-4.9,1.2c-1.9-0.2-4.5-1-5.3-2.4c-0.7-1.4,0-4,0.2-5.5
			c0.2-1.5-0.7-2.5-1.1-3.4c-0.1-0.1-0.1-0.3-0.1-0.4c0.1,0.7-0.2,0.7-0.4-0.2c-0.1-0.4-0.2-0.6-0.4-0.7c0,0.1,0,0.1,0,0.2
			c0,1.4-0.3,2.8-0.9,4.2c-1.8,3.9-6.2,5.2-10.1,3.4s-6.1-6.6-4.3-10.5c0.8-1.7,2-3,3.6-3.7c1.2-0.6,2.5-0.9,3.9-0.8
			c-0.1-0.2-0.3-0.4-0.6-0.6c-1.2-0.2-3,0.5-5.6,0.2c-2-0.2-4-0.2-5.7,0.6c-1.7,0.9-3.7,2.3-5.8,3c-2.1,0.7-3,1.7-6.4,1.5
			c-1.9-0.1-3.6,0.7-6.3,0.4c-3.1-0.4-4.3-1-7.2-1.6c-2-0.4-5.8-1.3-7.2-0.3s-1.2,3.4-1.1,5.6c0.2,2.2,1.4,3.6,2.5,5
			c1.4,1.7,1,4.3,0.7,6.6c-0.3,2.3,0.3,4.7,1.6,5.8c1.3,1.2,3.4,3.8,4.7,5.9c1.2,2.1,2.4,3.2,4.3,3.8s5.3,1.9,8,1.5
			c2.6-0.4,4,0.1,5.9,0.4c1.9,0.3,4.3-1.3,7-0.8c3.2,0.6,4,3.4,6.6,3.9c2.6,0.4,5-1.1,7.9-1c2.3,0.1,4.2-1.1,6.2-1.7
			c2.1-0.6,3.6,2.4,2.9,4.6c-0.6,1.7,0,3.1-0.2,4.8s-1.7,4.4-2.9,6.7c-1.2,2.2-0.3,4.8,1,6.1c1,1,2.4,2.1,3,2.4
			c0.1,0,0.1,0.1,0.2,0.1c0.8-0.1,1.5-0.2,2.3-0.2c0,0,0.1-0.1,0.1-0.1c0.1-0.5-0.9-1-2.9-1.9c-1.9-0.9-2.4-2.8-2.5-4.5
			c-0.1-1.9,1.3-4.1,3.3-7.4c2-3.3,2-4.7,3.2-6.2c1.2-1.5,2.8-3.2,3.6-4.9c1.7-3.5,5.5-5.9,9.1-6c4.7,0,6-1.9,9.1-3.4
			c3.2-1.5,4.2-4.1,5.8-5.9c1.6-1.8,2.7-3.8,2.7-6c0-2.3,1-4.8,1.9-6.2C108.8,22,111.5,17.8,110.6,17.2z"/>
		<g>
			<path class="st2" d="M50.8,14.9c-0.9-0.5-1.5,0.2-1.4,1.1c0.1,0.9-0.9,0.5-0.7,0.1c0.2-0.5-0.8-1.3-1.1-0.3
				c-0.2,1-0.9,1.1-1.6,1.2c-0.7,0.1-0.8,0.9-1.6,0.8c-0.8-0.1-2.4,0.7-2.6,1.3c-0.3,0.6-0.9,0-1.5,0.9c-0.6,0.9-1.7,0.1-2.5-0.1
				c-0.8-0.1-1.3,0.4-0.8,0.7c0.5,0.3,0.1,0.6-0.6,0.1c-0.6-0.4-1.4-0.4-2,0.2c-0.6,0.6-1.1,0.3-0.4-0.2c0.7-0.6-2.1-0.1-2.9,0.2
				c-0.8,0.3-0.7-0.2-1.7,0.1c-0.9,0.4-2.8-0.5-3.4-1.2c-0.6-0.7-1.2-0.5-0.9,0.1c0.3,0.6-0.5,0.5-0.7-0.1c-0.2-0.6-1.7-0.2-2.1-0.7
				c-0.5-0.5-0.5,0.2-1.3-0.5c-0.7-0.7-2.9-0.1-3.4-0.4c-0.5-0.3-1.4,0.2-1.5,0.8c-0.1,0.6,0.3,1-0.3,1.4c-0.6,0.3-0.4,1.2-0.5,2.2
				c-0.1,0.9,0.4,1.5,0.6,1c0.2-0.5,0.4-0.1,0.4,1c0,1.1,1.9,2.1,2.8,2.2c0.9,0.1,1.2,0.7,0.6,1.2s-0.9,1.6-0.6,2.2
				c0.2,0.5-0.6,0.8-0.2,1.7c0.3,0.8-0.2,1.6-0.4,2.7c-0.2,1.1,0.3,1,0.5,2.5c0.2,1.5,1.9,1.9,1.9,1.3c0-0.6,0.4-0.2,0.5,0.4
				c0,0.6,1,1,1.6,0.9c0.6,0,0.5,0.7,0,0.5c-0.5-0.2-1.2-0.2-0.7,0.5c0.5,0.7,1.7,0.8,1.8,2.3c0.1,1.5,0.7,1.5,1.7,1.7
				c1,0.2,1.4,1.7,2.2,2.4c0.8,0.7,1.4,0,2.5,0.5c1.2,0.5,2.7,0.6,3.2,0.1c0.5-0.5,0.7,0.1,1.4-0.3c0.7-0.4,2.3,0,3,0.7
				c0.7,0.7,1.7,0.3,1.2-0.3c-0.5-0.6,0.6-0.5,1,0.1c0.4,0.6,1.6,0.4,2-0.1c0.4-0.5,0.8,0.3,1.4-0.5c0.5-0.8,2.3-0.2,3.3,0.2
				c1,0.4,1.7-0.1,1.4-0.5c-0.3-0.4,0.5-0.8,0.8-0.1c0.4,0.7,1.3,1.4,2.4,1.4c1,0,0.7,0.6,1.8,0.7c1.1,0.1,1.2,0.9,1.3,1.8
				c0.2,0.9,2.1,0.3,2.5-0.3c0.3-0.6,1.4,0,1.9-0.6c0.5-0.6,0.6-0.1,1.8,0.2c1.2,0.3,2.1-0.7,2.4-1.2c0.3-0.6,0.8-0.3,0.3,0.6
				c-0.5,0.9,2.1,0.5,1.8-0.1c-0.2-0.5,1.3,0,1.1-0.7c-0.2-0.7,1.7-0.5,2.5-0.2c0.9,0.4,1.3-0.2,0.9-0.5c-0.5-0.4,0.1-0.7,0.7,0
				c0.6,0.7,2.2,1,2.7,0.6c0.5-0.5,1.2,0.3,0.4,0.6c-0.8,0.3,0.1,1.8,0.4,2.5c0.3,0.8,1.9,0,1.9-0.5c0-0.5,0.8-0.4,0.7-1
				c-0.1-0.7,0.9-1.2,1.7-1.9c0.8-0.7,1.2-1.7,0.6-1.5c-0.6,0.3-0.9-0.3,0.4-0.6c1.4-0.3,2.1-1.6,2-2.1c0-0.5,0.8-0.4,0.9-0.8
				c0-0.5,0.7-1.3,2.1-0.7c1.4,0.7,2,0.3,2-0.3c0.1-0.5,0.6-0.9,1.5-0.7c0.9,0.3,2.6,0.6,3.1,0c0.5-0.6,1,0.2,1.6-0.5
				c0.6-0.7,1.9-0.3,3.3-1.2c1.4-0.9,0.4-1.5-0.2-1.2c-0.6,0.3-1-0.1-0.3-0.5c0.7-0.4,1.3-1.2,1.7-1.6c0.4-0.5,0.9,0.1,0.4,0.4
				c-0.5,0.3-0.7,1.4,0.4,0.8c1.1-0.5,1.1-2,1.1-2.8c0-0.8,1.7-1.3,2.6-1.3c0.9,0,0.8-1.4,0.6-1.8c-0.2-0.4,0.3-0.5,0-1.3
				c-0.4-0.8,0.8-0.3,1.7-1.6c0.9-1.3,0.5-2.6-0.4-2.8c-0.9-0.2-2.4,1.4-2,2.1c0.3,0.7-0.5,1-1.3,0.7c-0.8-0.3-1.4,0.3-1.7,1
				C98,31.1,97.4,31,97,31.6c-0.5,0.6-1.4,0.5-1.9,0.4c-0.5-0.2-1.3,0.2-1.4,0.8c0,0.6-0.5,0.7-0.6,0.2c-0.2-0.5-1.5-0.1-2,0.3
				c-0.5,0.4-0.8,0.1-1.5,0.8c-0.7,0.7-1.3,0.3-2.9,0.7c-1.6,0.4-1.9,0.9-2.5,1.3c-0.6,0.5-1.2,0.2-0.5-0.2c0.7-0.4-0.3-0.8-0.8-0.6
				c-0.4,0.3-1.2,0.6-1.7-0.2c-0.5-0.7-1.6-1.2-2.6-0.1c-1,1.1-2.5-0.5-2.8,0.1c-0.3,0.6-0.8,0.1-1.3-0.2c-0.5-0.4-0.5,0-1.4,0.2
				c-0.9,0.2-1.6-0.8-2.5-1.1c-0.9-0.3-1.1,0.7-0.6,1c0.5,0.4,0.4,0.7-0.2,0.3c-0.7-0.4-1.2-0.5-1.8-0.3c-0.6,0.2-0.7-0.6-0.1-0.4
				c0.7,0.2,1.1-0.6-0.8-1.2c-1.9-0.6-1.7-2.1-1.2-2.4c0.5-0.4,0.2-1.5-0.1-1.3c-0.3,0.3-0.5-0.3,0-0.5c0.5-0.2,0.2-0.7-0.4-0.9
				c-0.7-0.3-0.8,1-1.3,0.6c-0.5-0.4-1.1,1-1.7,1.6c-0.6,0.6-0.8-0.4-1.6,0.4c-1.5,1.5-3.1-0.5-4.2,0.5c-0.6,0.5-0.9,0-0.4-0.4
				c0.5-0.4-0.2-0.4-0.7,0c-0.5,0.4-1.1-0.8-1.4-1.2c-0.3-0.4-0.7-0.1-1.4-0.3c-0.8-0.2-0.2-0.6-0.5-1.3c-0.3-0.7-2.5-1.3-3-2.3
				c-0.8-1.5,1.4-1.5-0.5-3c-0.7-0.5-0.6-1.6,0.1-1.2c0.7,0.3,0.3-0.4,0-0.9c-0.3-0.5-0.7-1.4,0.2-1.6c1.2-0.2,0.5-1.1,1.7-2.5
				C51.5,15.7,51.5,15.3,50.8,14.9z M16,21.1c-0.1-0.3,0.3-0.4,0.4-0.2C16.5,21.1,16.1,21.4,16,21.1z M19,20.9
				c-0.4,0.6-0.8,0.7-0.7,0.2C18.3,20.4,19.4,20.3,19,20.9z M17.2,23.4c-0.2-0.6,0.3-0.7,0.6-0.2c0.3,0.5,0.5,0,0.8,0.6
				C19,24.3,17.7,24.3,17.2,23.4z M18.7,23c-0.1-0.3,0.5-0.5,0.5-0.3S18.8,23.3,18.7,23z M21.2,25.8c0.3-0.2,0.4,0,0.1,0.3
				c-0.3,0.3,0.2,0.8,0,0.9c-0.2,0.1-0.3-0.7-0.8-0.7C20.1,26.2,20.9,26,21.2,25.8z M20,24.7c-0.1-0.3,0.3-0.4,0.4-0.2
				C20.5,24.6,20.1,24.9,20,24.7z M20.9,30.3c0.3-0.3-0.1,0.5-0.1,0.9s-0.2,0.3-0.3-0.1s-0.8-0.3-0.7-0.5
				C19.9,30.3,20.6,30.7,20.9,30.3z M20.1,35.9c-0.1,0.6-1.2-0.1-0.9-1.2c0.2-0.6,0.7-0.4,0.6,0.2C19.6,35.5,20.2,35.3,20.1,35.9z
				 M21.2,37.2c-0.4,0.5-1.4,0-0.7-0.3C21.1,36.6,21.5,36.8,21.2,37.2z M21.9,35.3c-0.1,0.3-0.7,0.1-0.6-0.1
				C21.4,35,22,35,21.9,35.3z M21.9,19.7c-0.1-0.3,0.3-0.4,0.4-0.2S22,20,21.9,19.7z M23.2,36c-0.1,0.3-0.5,0.1-0.4-0.1
				C22.7,35.8,23.3,35.8,23.2,36z M23.1,21.5c-0.7,0-1-0.3-0.6-0.5C23.1,20.7,23.8,21.5,23.1,21.5z M26.3,21.4
				c0.3,0.5,0.5,0,0.8,0.6c0.3,0.6-1,0.6-1.4-0.4C25.5,21,26,20.8,26.3,21.4z M26.5,41.6c-0.2-0.3,0.3-0.7,0.4-0.4
				C26.9,41.4,26.6,41.9,26.5,41.6z M25.1,42.2c-0.2-0.2,0.1-0.5,0.3-0.3S25.3,42.5,25.1,42.2z M26.7,44c-0.4-0.4-0.5,0.2-1-0.3
				c-0.5-0.5,0.8-0.9,1.4-0.1C27.5,44.1,27.1,44.4,26.7,44z M28.7,46.9c-0.6-0.2-0.5-1.3,0-0.8S29.2,47.1,28.7,46.9z M30.9,41.9
				c0-0.2,0.2,0.2,0.4,0.4c0.2,0.2,0.1,0.2-0.2,0.1c-0.2-0.1-0.5,0.3-0.6,0.1C30.5,42.5,30.9,42.3,30.9,41.9z M31.4,46.2
				c-0.4-0.1-0.6,0.6-0.8,0.5c-0.2-0.1,0.4-0.6,0.2-1.1c-0.2-0.4,0.4,0.3,0.8,0.4C32,46.1,31.8,46.3,31.4,46.2z M31.8,24
				c-0.3-0.1-0.2-0.7,0-0.6C32.1,23.6,32.1,24.1,31.8,24z M32.8,22.8c0,0.4-0.3-0.4-0.6-0.7c-0.3-0.3-0.1-0.4,0.3-0.1
				c0.3,0.2,0.7-0.3,0.9-0.2C33.5,22,32.8,22.3,32.8,22.8z M36.9,24.1c0.2-0.3,0.7,0.1,0.5,0.3C37.2,24.5,36.7,24.3,36.9,24.1z
				 M37.3,45.6c-0.1-0.2,0.3-0.5,0.4-0.2C37.8,45.6,37.4,45.7,37.3,45.6z M37.2,22c0-0.6,0.5-0.6,0.6,0c0.1,0.6,0.5,0.2,0.6,0.8
				C38.5,23.5,37.2,23.1,37.2,22z M38.4,46.5c-0.2-0.2-0.2-0.7,0.1-0.6C38.7,46,38.6,46.6,38.4,46.5z M39.2,21.7
				c-0.3-0.1-0.2-0.7,0-0.6C39.4,21.3,39.5,21.8,39.2,21.7z M41.8,22.2c-0.4,0-0.3-0.2,0.1-0.3c0.4-0.1,0.3-0.8,0.5-0.7
				c0.2,0-0.1,0.7,0.3,1.1C43,22.5,42.2,22.2,41.8,22.2z M43.3,46.6c-0.5,0.4-1.3-0.3-0.7-0.4C43.3,46.1,43.7,46.3,43.3,46.6z
				 M43.2,19.7c-0.6,0.2-0.1,0.5-0.7,0.7c-0.6,0.2-0.5-1.1,0.6-1.3C43.7,18.9,43.7,19.5,43.2,19.7z M44.2,19.9
				c-0.1-0.1,0.3-0.5,0.4-0.3C44.7,19.9,44.3,20.1,44.2,19.9z M101,30.3c0.2-0.1,0-0.5,0.1-0.6c0.1,0,0.1,0.5,0.4,0.6
				c0.2,0.1-0.3,0.1-0.6,0.2C100.8,30.6,100.8,30.4,101,30.3z M98.1,33.8c0.2-0.2,0.5,0.1,0.4,0.2C98.4,34.2,97.9,34,98.1,33.8z
				 M97.7,35.8c0.2-0.2,0.7,0.2,0.5,0.3C98,36.2,97.5,36,97.7,35.8z M95.1,32.7c0.2-0.2,0.5,0.1,0.4,0.2S94.9,32.9,95.1,32.7z
				 M94.1,37.3c0.3-0.4,0.6-0.1,0.4,0.3s0.2,0.4-0.1,0.8C94.1,38.9,93.6,38,94.1,37.3z M92.8,34.6c0.4,0,0.4-0.7,0.6-0.7
				c0.2,0.1-0.2,0.7,0.1,1.1c0.3,0.3-0.5-0.1-0.9-0.2C92.3,34.8,92.4,34.6,92.8,34.6z M92.5,40.4c0.4-0.5,1.4,0,0.7,0.3
				C92.5,40.9,92.1,40.8,92.5,40.4z M88.3,35.5c-0.1-0.1,0.2,0.1,0.3,0.1c0.2,0,0.1,0.1-0.1,0.1c-0.2,0-0.2,0.3-0.3,0.2
				C88.2,35.9,88.4,35.7,88.3,35.5z M88,40.6c-0.4,0.1-0.3,0.8-0.5,0.7s0.1-0.7-0.3-1.1c-0.3-0.3,0.5,0.1,0.9,0.1
				C88.5,40.4,88.4,40.6,88,40.6z M87.8,34.9c0.3,0.1,0.2,0.3-0.1,0.3c-0.3,0-0.2,0.2-0.5,0.2S87.3,34.8,87.8,34.9z M85.5,41.4
				c-0.3,0.5-1.3,0.2-0.7-0.1C85.4,40.9,85.8,41,85.5,41.4z M85.3,36.9c0.2-0.2,0.5,0.1,0.4,0.2S85.1,37.1,85.3,36.9z M84.8,36.5
				c0.2-0.2,0.2,0,0.1,0.2c-0.2,0.2,0.1,0.5,0,0.6s-0.2-0.4-0.6-0.4C84,36.8,84.6,36.6,84.8,36.5z M82.1,40.9
				c0.6-0.3,0.8,0.2,0.2,0.5s0,0.5-0.5,0.9C81.3,42.7,81.2,41.4,82.1,40.9z M80.1,43.3c-0.3,0.1-0.4-0.2-0.3-0.4
				C80,42.8,80.4,43.2,80.1,43.3z M80.6,37.7c-0.3,0.1-0.4-0.3-0.2-0.4C80.6,37.2,80.8,37.7,80.6,37.7z M80.8,35.9
				c0.4,0.1,0.2,0.3-0.2,0.3c-0.4,0-0.5,0.7-0.7,0.6c-0.2-0.1,0.2-0.7-0.1-1.1C79.7,35.4,80.4,35.9,80.8,35.9z M79.4,41.4
				c0.3,0,0.7,0.4,0.3,0.5C79.5,42,79.2,41.4,79.4,41.4z M78.2,36.7c0.7-0.2,1-0.1,0.7,0.3C78.5,37.4,77.5,36.9,78.2,36.7z
				 M77.6,46.2c0.3,0,0.2,0.1-0.1,0.2c-0.3,0-0.2,0.5-0.3,0.5s0.1-0.5-0.2-0.7C76.8,46,77.3,46.2,77.6,46.2z M75.3,49.5
				c-0.2-0.1-0.1-0.6,0.2-0.4S75.5,49.6,75.3,49.5z M75.7,35.8c0.6-0.2,0.7,0.4,0.1,0.6c-0.6,0.2-0.1,0.5-0.7,0.8
				C74.5,37.4,74.6,36.1,75.7,35.8z M74.6,50.6c0.3,0.5-0.3,1.3-0.4,0.6C74,50.5,74.3,50.2,74.6,50.6z M73.2,37.7
				c-0.3,0.1-0.4-0.3-0.2-0.4C73.2,37.2,73.5,37.7,73.2,37.7z M72.9,35.7c0.3,0,0.6,0.5,0.2,0.5C72.8,36.3,72.7,35.7,72.9,35.7z
				 M72.6,44.9c0.3,0.2,0,0.7-0.2,0.6S72.3,44.7,72.6,44.9z M71.8,46.9c0.5,0.3,0.4-0.3,1-0.1c0.6,0.3-0.4,1.1-1.3,0.6
				C71,47.1,71.3,46.6,71.8,46.9z M66.2,46.7c-0.4,0.2,0,0.8-0.3,0.9c-0.2,0-0.2-0.7-0.6-0.9c-0.4-0.1,0.5-0.1,0.9-0.3
				C66.6,46.2,66.6,46.5,66.2,46.7z M65.9,35.2c0.2,0.1,0,0.6-0.2,0.4S65.7,35.1,65.9,35.2z M66,33.6c0.4,0.1,0.3,0.3-0.1,0.3
				s-0.4,0.7-0.6,0.6c-0.2-0.1,0.2-0.7-0.1-1.1C64.8,33.1,65.6,33.6,66,33.6z M65.2,28.7c0.2,0.2,0,0.7-0.3,0.5S65,28.5,65.2,28.7z
				 M64.3,48.5c0.7,0,1,0.3,0.5,0.5C64.3,49.3,63.6,48.5,64.3,48.5z M63.5,43.9c0.3,0,0.2,0.1-0.1,0.2c-0.3,0.1-0.2,0.5-0.3,0.5
				s0-0.5-0.2-0.7C62.7,43.8,63.3,44,63.5,43.9z M59,48.1c-0.3-0.1-0.2-0.4,0-0.4C59.2,47.7,59.3,48.2,59,48.1z M59.5,46.7
				c-0.3-0.1-0.3-0.7,0-0.6C59.7,46.3,59.8,46.8,59.5,46.7z M61.6,32.1c-0.1-0.2,0.4,0.1,0.7,0.2c0.3,0,0.1,0.2-0.3,0.2
				c-0.4,0-0.7,0.6-0.9,0.5C61,32.9,61.7,32.4,61.6,32.1z M61.4,47.8c0.6,0.1,0.5,0.6-0.1,0.6c-0.6,0-0.3,0.5-0.9,0.5
				S60.4,47.6,61.4,47.8z M60.1,32.9c0.5,0.4,0.1,0.8-0.4,0.5c-0.5-0.3-0.5,0.3-1,0C58.2,33,59.3,32.3,60.1,32.9z M57.2,32.5
				c0.2,0.2,0,0.7-0.3,0.5S57,32.3,57.2,32.5z M57.1,35.5c0.1-0.2,0,0.3,0.1,0.6s-0.1,0.2-0.2,0c-0.1-0.2-0.5,0-0.5-0.2
				C56.4,35.8,56.9,35.8,57.1,35.5z M56,33.6c0.2,0.1,0,0.6-0.2,0.4S55.8,33.5,56,33.6z M55.2,49.2c0.2,0.1,0.1,0.2-0.2,0.1
				s-0.4,0.3-0.5,0.2c-0.1-0.1,0.3-0.4,0.2-0.7C54.7,48.6,55,49,55.2,49.2z M52.9,45.2c-0.1-0.1,0.3-0.5,0.4-0.3S53,45.4,52.9,45.2z
				 M53.2,31.9c0.6,0.4,0.7,0.8,0.2,0.7C52.8,32.6,52.6,31.5,53.2,31.9z M52.3,32.9c-0.1-0.2,0.2,0.2,0.5,0.3
				c0.2,0.1,0.1,0.2-0.2,0.1s-0.4,0.3-0.5,0.2C52,33.4,52.4,33.2,52.3,32.9z M52.6,47.2c0,0.6-1,0.9-0.7,0.3
				C52.2,46.8,52.6,46.7,52.6,47.2z M51.8,45.3c0.1,0.3-0.4,0.6-0.5,0.3C51.3,45.4,51.7,45,51.8,45.3z M50.8,29
				c0.1,0.3-0.2,0.4-0.4,0.3C50.4,29.1,50.7,28.7,50.8,29z M50.1,46.5c0.3,0.5,0.5,0,0.9,0.5c0.4,0.5-0.9,0.7-1.4-0.2
				C49.2,46.3,49.8,46,50.1,46.5z M47.4,20c0.2,0.6-0.8,1.1-0.6,0.4C47,19.8,47.3,19.6,47.4,20z M47.1,17.9c0.2,0.3-0.3,0.7-0.4,0.4
				C46.6,18.1,46.9,17.6,47.1,17.9z M46.5,21.5c0.2,0.2,0.3-0.1,0.5,0.1c0.2,0.2-0.4,0.4-0.7,0C46.1,21.5,46.3,21.3,46.5,21.5z
				 M47.7,46.1c-0.6,0.1-0.2,0.5-0.8,0.6c-0.6,0.1-0.2-1.1,0.9-1.2C48.3,45.5,48.2,46.1,47.7,46.1z M48.9,31.4c-0.6,0-0.9-1-0.3-0.7
				C49.2,31,49.4,31.4,48.9,31.4z M49.4,29.4c0.1,0.3-0.4,0.6-0.5,0.3C48.9,29.4,49.3,29,49.4,29.4z M48.9,26.6
				c-0.1,0.6-0.6,0.5-0.6-0.1c0.1-0.6-0.4-0.3-0.4-0.9C48,24.9,49.1,25.5,48.9,26.6z M48.1,17.6c-0.2-0.1,0.1-0.6,0.3-0.3
				C48.5,17.4,48.2,17.7,48.1,17.6z"/>
			<path class="st3" d="M83.6,30.4c-0.1,0-0.3,0.1-0.4,0.1C83.4,30.5,83.5,30.5,83.6,30.4z"/>
			<path class="st3" d="M50.9,13.8c-2-0.4-4.1,0.3-5.6,1.5c-1.6,1.2-5.4,3.3-7.9,3.6s-6.5,0.9-9.2,0.6c-2.8-0.4-10.2-3.7-13.3-1.8
				c-1.8,1.1-1.1,4.3-0.7,5.5c0.7,2,2.5,2.8,3.3,3.9c0.8,1.1-0.2,3.9-0.5,5.4c-0.3,1.5-0.2,4.5,2.1,6.6c1.6,1.5,2.6,3.1,4.1,5.5
				c1.2,1.9,3.3,3,5.3,3.8c2,0.8,4.2,0.6,6,0.6c2.2,0,4.2,0.7,6.2,0.3c2-0.4,6.2-1.1,8-0.5c1.7,0.6,3.7,3.3,5,3.8
				c2.2,0.7,3.8-1,6.3-1c2.8,0,4,0.1,6.3-1s4.7-0.8,5.6,0.5c0.9,1.4,0.7,4.2,0.6,5.6c-0.1,1.2,0.1,1.4,0.9,0c1.1-2,2.2-4.4,3.4-5.6
				s3.4-5.1,5.6-6.4c2.3-1.4,5.8-1.4,8.2-1.6c2.4-0.2,6.4-2.8,7.7-4.3c1.2-1.5,3.3-3.4,4.6-5.5c1.3-2.1,1.7-4.2,2.1-5.9
				c0.4-1.8,1.3-4.3,2.4-5.9c1-1.4,0.6-1.3-0.2-0.4c-0.9,1-2.7,2.8-4.6,4.5c-1.8,1.6-6.1,4.7-8.2,5.6s-6.7,2.2-8.8,3
				c-2,0.8-3.3,0.3-4.4-0.6c-1-0.7-0.7-1.8-0.6-2c-0.1,0.2-0.3,0.7-1.5,1.1c-1.3,0.5-2.7,1.4-4.7,1.4c-2.1,0-3.4-0.7-6.1-1.3
				c-2.4-0.5-2.3-2.4-1.9-4.5c0.4-2.1,0.9-3.6,0.2-5.4c-0.3-0.8-0.4-2-0.5-2.6c0,1.4-0.2,2.8-0.9,4.2c-1.8,3.9-6.2,5.2-10.1,3.4
				c-3.9-1.8-6.1-6.6-4.3-10.5c0.8-1.7,2-3,3.6-3.7C53.7,14.1,52.2,14.1,50.9,13.8z M50.7,16.7c-1.2,1.3-0.4,2.3-1.7,2.5
				c-0.9,0.1-0.5,1.1-0.2,1.6c0.3,0.5,0.7,1.2,0,0.9c-0.7-0.3-0.7,0.7-0.1,1.2c1.9,1.6-0.3,1.5,0.5,3c0.5,1,2.7,1.6,3,2.3
				c0.3,0.7-0.2,1.1,0.5,1.3c0.8,0.2,1.1-0.1,1.4,0.3c0.3,0.4,0.9,1.6,1.4,1.2c0.5-0.4,1.2-0.4,0.7,0c-0.5,0.4-0.2,0.8,0.4,0.4
				c1.1-0.9,2.7,1,4.2-0.5c0.8-0.8,1.1,0.2,1.6-0.4c0.6-0.6,1.2-2,1.7-1.6c0.5,0.4,0.6-0.8,1.3-0.6c0.7,0.3,0.9,0.8,0.4,0.9
				c-0.5,0.2-0.3,0.7,0,0.5c0.3-0.3,0.6,0.9,0.1,1.3c-0.5,0.4-0.8,1.9,1.2,2.4c1.9,0.6,1.5,1.4,0.8,1.2c-0.7-0.2-0.5,0.7,0.1,0.4
				c0.6-0.2,1.1-0.2,1.8,0.3c0.7,0.4,0.8,0.1,0.2-0.3c-0.5-0.4-0.4-1.3,0.6-1c0.9,0.3,1.6,1.3,2.5,1.1c0.9-0.2,0.9-0.5,1.4-0.2
				c0.5,0.4,0.9,0.8,1.3,0.2c0.3-0.6,1.8,1,2.8-0.1c1-1.1,2.1-0.7,2.6,0.1c0.5,0.7,1.3,0.5,1.7,0.2c0.4-0.3,1.5,0.2,0.8,0.6
				c-0.7,0.4-0.1,0.7,0.5,0.2c0.6-0.5,0.9-1,2.5-1.3c1.6-0.4,2.2,0,2.9-0.7c0.7-0.7,1-0.4,1.5-0.8c0.5-0.4,1.9-0.8,2-0.3
				c0.2,0.5,0.6,0.5,0.6-0.2c0-0.6,0.8-1,1.4-0.8c0.5,0.2,1.4,0.3,1.9-0.4c0.5-0.6,1-0.5,1.3-1.2c0.3-0.7,0.9-1.3,1.7-1
				c0.8,0.3,1.6,0,1.3-0.7c-0.3-0.7,1.1-2.3,2-2.1c0.9,0.2,1.4,1.5,0.4,2.8c-0.9,1.3-2.1,0.8-1.7,1.6c0.4,0.8-0.2,0.9,0,1.3
				c0.2,0.4,0.3,1.8-0.6,1.8c-0.9,0-2.6,0.5-2.6,1.3c0,0.8-0.1,2.2-1.1,2.8c-1.1,0.5-0.9-0.6-0.4-0.8c0.5-0.3,0.1-0.8-0.4-0.4
				c-0.4,0.5-1,1.3-1.7,1.6c-0.7,0.4-0.3,0.8,0.3,0.5c0.6-0.3,1.6,0.2,0.2,1.2c-1.4,0.9-2.8,0.5-3.3,1.2c-0.6,0.7-1.1-0.2-1.6,0.5
				c-0.5,0.6-2.2,0.3-3.1,0c-0.9-0.3-1.4,0.2-1.5,0.7c-0.1,0.5-0.7,0.9-2,0.3c-1.4-0.7-2.1,0.2-2.1,0.7c0,0.5-0.9,0.3-0.9,0.8
				c0,0.5-0.7,1.8-2,2.1c-1.4,0.3-1,0.8-0.4,0.6c0.6-0.3,0.2,0.8-0.6,1.5c-0.8,0.7-1.8,1.2-1.7,1.9c0.1,0.7-0.7,0.5-0.7,1
				c0,0.5-1.6,1.3-1.9,0.5c-0.3-0.8-1.2-2.2-0.4-2.5c0.8-0.3,0.1-1-0.4-0.6c-0.5,0.5-2.1,0.2-2.7-0.6c-0.6-0.7-1.2-0.4-0.7,0
				c0.5,0.4,0,0.9-0.9,0.5c-0.9-0.4-2.7-0.5-2.5,0.2c0.2,0.7-1.3,0.2-1.1,0.7c0.2,0.5-2.3,0.9-1.8,0.1c0.5-0.9,0-1.1-0.3-0.6
				c-0.3,0.6-1.2,1.5-2.4,1.2c-1.2-0.3-1.3-0.7-1.8-0.2c-0.5,0.6-1.5,0-1.9,0.6c-0.3,0.6-2.3,1.3-2.5,0.3c-0.2-0.9-0.3-1.7-1.3-1.8
				c-1.1-0.1-0.7-0.7-1.8-0.7c-1,0-2-0.7-2.4-1.4c-0.4-0.7-1.2-0.3-0.8,0.1c0.3,0.4-0.3,0.9-1.4,0.5c-1-0.4-2.8-1-3.3-0.2
				c-0.5,0.8-1,0-1.4,0.5c-0.4,0.5-1.6,0.7-2,0.1c-0.4-0.6-1.5-0.7-1-0.1c0.5,0.6-0.5,0.9-1.2,0.3c-0.7-0.7-2.4-1.1-3-0.7
				c-0.7,0.4-0.9-0.2-1.4,0.3c-0.5,0.5-2.1,0.4-3.2-0.1c-1.2-0.5-1.7,0.2-2.5-0.5c-0.8-0.7-1.2-2.2-2.2-2.4c-1-0.2-1.6-0.2-1.7-1.7
				c-0.1-1.5-1.3-1.6-1.8-2.3c-0.5-0.7,0.2-0.6,0.7-0.5c0.5,0.2,0.6-0.5,0-0.5c-0.6,0-1.6-0.4-1.6-0.9c0-0.6-0.5-1-0.5-0.4
				c0,0.6-1.7,0.2-1.9-1.3c-0.2-1.5-0.7-1.4-0.5-2.5c0.2-1.1,0.7-1.9,0.4-2.7c-0.3-0.8,0.5-1.2,0.2-1.7c-0.2-0.5,0-1.7,0.6-2.2
				s0.3-1.1-0.6-1.2c-0.9-0.1-2.8-1.1-2.8-2.2c0-1.1-0.2-1.5-0.4-1c-0.2,0.5-0.8,0-0.6-1c0.1-0.9-0.1-1.8,0.5-2.2
				c0.6-0.3,0.2-0.8,0.3-1.4c0.1-0.6,1-1.1,1.5-0.8c0.5,0.3,2.7-0.3,3.4,0.4c0.7,0.7,0.8,0,1.3,0.5c0.5,0.5,1.9,0.1,2.1,0.7
				c0.2,0.6,0.9,0.7,0.7,0.1c-0.3-0.6,0.3-0.8,0.9-0.1c0.6,0.7,2.5,1.5,3.4,1.2c0.9-0.4,0.9,0.2,1.7-0.1c0.8-0.3,3.6-0.8,2.9-0.2
				c-0.7,0.6-0.2,0.8,0.4,0.2c0.6-0.6,1.3-0.6,2-0.2c0.6,0.4,1.1,0.2,0.6-0.1c-0.5-0.3,0-0.8,0.8-0.7c0.8,0.1,2,1,2.5,0.1
				c0.6-0.9,1.2-0.3,1.5-0.9c0.3-0.6,1.9-1.4,2.6-1.3c0.8,0.1,0.8-0.7,1.6-0.8c0.7-0.1,1.4-0.1,1.6-1.2c0.2-1,1.3-0.2,1.1,0.3
				c-0.2,0.5,0.8,0.8,0.7-0.1c-0.1-0.9,0.5-1.6,1.4-1.1C51.5,15.3,51.5,15.7,50.7,16.7z"/>
			<path class="st3" d="M17.8,23.2c-0.3-0.5-0.8-0.4-0.6,0.2c0.4,1,1.7,0.9,1.4,0.4C18.3,23.2,18.1,23.7,17.8,23.2z"/>
			<path class="st3" d="M27.2,21.9c-0.3-0.6-0.6,0-0.8-0.6c-0.3-0.5-0.8-0.4-0.6,0.2C26.2,22.5,27.5,22.5,27.2,21.9z"/>
			<path class="st3" d="M18.7,23c0.1,0.3,0.5,0,0.5-0.3S18.6,22.6,18.7,23z"/>
			<path class="st3" d="M31.8,23.5c-0.2-0.1-0.4,0.5,0,0.6C32.1,24.1,32.1,23.6,31.8,23.5z"/>
			<path class="st3" d="M39.2,21.1c-0.2-0.1-0.4,0.5,0,0.6C39.5,21.8,39.4,21.3,39.2,21.1z"/>
			<path class="st3" d="M36.9,24.1c-0.2,0.3,0.3,0.4,0.5,0.3C37.7,24.2,37.2,23.8,36.9,24.1z"/>
			<path class="st3" d="M20.4,24.5c-0.1-0.2-0.5-0.1-0.4,0.2C20.1,24.9,20.5,24.6,20.4,24.5z"/>
			<path class="st3" d="M16,21.1c0.1,0.3,0.5,0,0.4-0.2C16.3,20.7,16,20.9,16,21.1z"/>
			<path class="st3" d="M21.9,19.7c0.1,0.3,0.5,0,0.4-0.2S21.9,19.5,21.9,19.7z"/>
			<path class="st3" d="M20.4,26.2c0.5,0.1,0.6,0.8,0.8,0.7c0.2-0.1-0.3-0.6,0-0.9c0.3-0.3,0.3-0.5-0.1-0.3
				C20.9,26,20.1,26.2,20.4,26.2z"/>
			<path class="st3" d="M32.5,22c-0.3-0.2-0.6-0.1-0.3,0.1c0.3,0.3,0.7,1,0.6,0.7c0-0.5,0.7-0.8,0.5-1C33.2,21.6,32.8,22.2,32.5,22z
				"/>
			<path class="st3" d="M42.7,22.3c-0.4-0.3,0-1-0.3-1.1c-0.2,0-0.1,0.7-0.5,0.7c-0.4,0.1-0.5,0.3-0.1,0.3
				C42.2,22.2,43,22.5,42.7,22.3z"/>
			<path class="st3" d="M19,20.9c0.4-0.6-0.7-0.4-0.7,0.2C18.1,21.5,18.5,21.4,19,20.9z"/>
			<path class="st3" d="M22.5,21c-0.4,0.2-0.1,0.5,0.6,0.5C23.8,21.5,23.1,20.7,22.5,21z"/>
			<path class="st3" d="M19.8,35c0.1-0.6-0.4-0.8-0.6-0.2c-0.3,1,0.8,1.8,0.9,1.2S19.6,35.5,19.8,35z"/>
			<path class="st3" d="M21.3,35.2c-0.2,0.2,0.5,0.4,0.6,0.1C22,35,21.4,35,21.3,35.2z"/>
			<path class="st3" d="M22.7,35.9c0,0.2,0.3,0.3,0.4,0.1S22.7,35.8,22.7,35.9z"/>
			<path class="st3" d="M20.6,31.1c0.1,0.4,0.3,0.5,0.3,0.1s0.3-1.2,0.1-0.9c-0.3,0.4-1,0-1.1,0.3C19.8,30.8,20.5,30.7,20.6,31.1z"
				/>
			<path class="st3" d="M20.5,36.9c-0.7,0.2,0.3,0.7,0.7,0.3C21.5,36.8,21.1,36.6,20.5,36.9z"/>
			<path class="st3" d="M47.7,45.5c-1.1,0-1.5,1.2-0.9,1.2c0.6-0.1,0.2-0.5,0.8-0.6S48.3,45.5,47.7,45.5z"/>
			<path class="st3" d="M38.4,45.9c-0.3-0.1-0.3,0.4-0.1,0.6C38.6,46.6,38.7,46,38.4,45.9z"/>
			<path class="st3" d="M37.3,45.6c0.1,0.2,0.5,0.1,0.4-0.2C37.6,45.1,37.2,45.4,37.3,45.6z"/>
			<path class="st3" d="M31.1,42.4c0.2,0.1,0.4,0.1,0.2-0.1c-0.2-0.2-0.5-0.6-0.4-0.4c0,0.3-0.4,0.5-0.3,0.6
				C30.7,42.7,30.9,42.3,31.1,42.4z"/>
			<path class="st3" d="M42.6,46.2c-0.7,0.1,0.2,0.8,0.7,0.4C43.7,46.3,43.3,46.1,42.6,46.2z"/>
			<path class="st3" d="M25.7,43.7c0.5,0.5,0.6-0.1,1,0.3c0.4,0.4,0.9,0.1,0.5-0.4C26.5,42.8,25.2,43.3,25.7,43.7z"/>
			<path class="st3" d="M26.5,41.6c0.2,0.3,0.5-0.2,0.4-0.4C26.7,40.9,26.3,41.3,26.5,41.6z"/>
			<path class="st3" d="M25.1,42.2c0.2,0.2,0.5-0.2,0.3-0.3S25,42,25.1,42.2z"/>
			<path class="st3" d="M31.6,46c-0.4-0.2-1-0.8-0.8-0.4c0.2,0.4-0.4,1-0.2,1.1c0.2,0.1,0.4-0.6,0.8-0.5C31.8,46.3,32,46.1,31.6,46z
				"/>
			<path class="st3" d="M28.7,46.9c0.5,0.2,0.5-0.3,0-0.8S28.1,46.7,28.7,46.9z"/>
			<path class="st3" d="M51,47c-0.4-0.5-0.6,0-0.9-0.5c-0.3-0.5-0.8-0.3-0.5,0.3C50,47.7,51.3,47.6,51,47z"/>
			<path class="st3" d="M51.8,45.3c-0.1-0.3-0.5,0.1-0.5,0.3C51.4,45.9,52,45.7,51.8,45.3z"/>
			<path class="st3" d="M52.9,45.2c0.1,0.1,0.5,0,0.4-0.3S52.8,45.1,52.9,45.2z"/>
			<path class="st3" d="M52.6,47.2c0-0.5-0.4-0.3-0.7,0.3C51.6,48.1,52.6,47.8,52.6,47.2z"/>
			<path class="st3" d="M43.1,19.1c-1,0.3-1.2,1.6-0.6,1.3c0.6-0.2,0.1-0.6,0.7-0.7S43.7,18.9,43.1,19.1z"/>
			<path class="st3" d="M38.4,22.8c-0.1-0.6-0.5-0.2-0.6-0.8c-0.1-0.6-0.6-0.6-0.6,0C37.2,23.1,38.5,23.5,38.4,22.8z"/>
			<path class="st3" d="M47,21.7c-0.2-0.2-0.3,0.1-0.5-0.1s-0.4,0-0.2,0.2C46.7,22.1,47.3,21.9,47,21.7z"/>
			<path class="st3" d="M47.1,17.9c-0.2-0.3-0.5,0.2-0.4,0.4C46.8,18.6,47.3,18.2,47.1,17.9z"/>
			<path class="st3" d="M48.1,17.6c0.2,0.1,0.5-0.1,0.3-0.3C48.2,17,47.9,17.4,48.1,17.6z"/>
			<path class="st3" d="M46.8,20.5c-0.2,0.7,0.8,0.2,0.6-0.4C47.3,19.6,47,19.8,46.8,20.5z"/>
			<path class="st3" d="M63.2,44.6c0.1,0,0.1-0.4,0.3-0.5c0.3-0.1,0.3-0.2,0.1-0.2c-0.3,0-0.8-0.1-0.6,0
				C63.2,44.1,63,44.6,63.2,44.6z"/>
			<path class="st3" d="M55.1,49.3c0.2,0.1,0.4,0,0.2-0.1c-0.2-0.1-0.5-0.6-0.5-0.3c0.1,0.3-0.3,0.6-0.2,0.7
				C54.6,49.6,54.8,49.2,55.1,49.3z"/>
			<path class="st3" d="M47.9,25.5c-0.1,0.6,0.5,0.3,0.4,0.9c-0.1,0.6,0.5,0.7,0.6,0.1C49.1,25.5,48,24.9,47.9,25.5z"/>
			<path class="st3" d="M49.4,29.4c-0.1-0.3-0.5,0.1-0.5,0.3C49,30,49.5,29.7,49.4,29.4z"/>
			<path class="st3" d="M50.8,29c-0.1-0.3-0.5,0.1-0.4,0.3C50.6,29.4,50.9,29.2,50.8,29z"/>
			<path class="st3" d="M44.2,19.9c0.1,0.2,0.5,0,0.4-0.3C44.5,19.4,44.1,19.8,44.2,19.9z"/>
			<path class="st3" d="M48.6,30.7c-0.6-0.3-0.3,0.7,0.3,0.7C49.4,31.4,49.2,31,48.6,30.7z"/>
			<path class="st3" d="M52.6,33.3c0.2,0.1,0.4,0,0.2-0.1c-0.2-0.1-0.5-0.6-0.5-0.3c0.1,0.3-0.3,0.6-0.2,0.7
				C52.2,33.6,52.4,33.2,52.6,33.3z"/>
			<path class="st3" d="M60.4,48.8c0.6,0,0.3-0.5,0.9-0.5c0.6,0,0.7-0.5,0.1-0.6C60.4,47.6,59.8,48.8,60.4,48.8z"/>
			<path class="st3" d="M59.5,46.1c-0.2-0.1-0.3,0.5,0,0.6C59.8,46.8,59.7,46.3,59.5,46.1z"/>
			<path class="st3" d="M59,47.7c-0.2,0-0.3,0.4,0,0.4C59.3,48.2,59.2,47.7,59,47.7z"/>
			<path class="st3" d="M65.4,46.6c0.5,0.2,0.4,1,0.6,0.9c0.2,0-0.1-0.7,0.3-0.9c0.4-0.2,0.4-0.4,0-0.3C65.9,46.5,65,46.5,65.4,46.6
				z"/>
			<path class="st3" d="M64.8,49c0.4-0.2,0.2-0.5-0.5-0.5C63.6,48.5,64.3,49.3,64.8,49z"/>
			<path class="st3" d="M62.1,32.5c0.4,0,0.6-0.2,0.3-0.2c-0.3,0-0.8-0.4-0.7-0.2c0.1,0.3-0.6,0.8-0.4,0.9
				C61.3,33,61.7,32.4,62.1,32.5z"/>
			<path class="st3" d="M57.2,36.1c-0.1-0.2,0-0.8-0.1-0.6c-0.1,0.3-0.6,0.2-0.6,0.4c0,0.1,0.4,0,0.5,0.2
				C57.1,36.3,57.3,36.4,57.2,36.1z"/>
			<path class="st3" d="M59.8,33.4c0.5,0.3,0.9-0.1,0.4-0.5c-0.9-0.6-1.9,0.1-1.4,0.4C59.3,33.7,59.3,33.1,59.8,33.4z"/>
			<path class="st3" d="M57.2,32.5c-0.2-0.2-0.5,0.3-0.3,0.5S57.4,32.7,57.2,32.5z"/>
			<path class="st3" d="M65.2,28.7c-0.2-0.2-0.5,0.3-0.3,0.5S65.3,28.9,65.2,28.7z"/>
			<path class="st3" d="M56,33.6c-0.2-0.1-0.4,0.2-0.2,0.4S56.2,33.7,56,33.6z"/>
			<path class="st3" d="M65.9,35.2c-0.2-0.1-0.4,0.2-0.2,0.4S66.1,35.2,65.9,35.2z"/>
			<path class="st3" d="M65.1,33.4c0.3,0.4-0.1,1,0.1,1.1c0.2,0.1,0.2-0.6,0.6-0.6s0.6-0.2,0.1-0.3C65.6,33.6,64.8,33.1,65.1,33.4z"
				/>
			<path class="st3" d="M53.4,32.6c0.5,0,0.4-0.4-0.2-0.7S52.8,32.6,53.4,32.6z"/>
			<path class="st3" d="M71.5,47.4c0.9,0.5,1.9-0.3,1.3-0.6c-0.6-0.3-0.5,0.3-1,0.1C71.3,46.6,71,47.1,71.5,47.4z"/>
			<path class="st3" d="M72.6,44.9c-0.3-0.2-0.4,0.4-0.2,0.6S72.9,45.1,72.6,44.9z"/>
			<path class="st3" d="M75.3,49.5c0.2,0.1,0.4-0.3,0.2-0.4S75.1,49.5,75.3,49.5z"/>
			<path class="st3" d="M74.6,50.6c-0.3-0.4-0.5-0.1-0.4,0.6C74.2,51.9,74.9,51.1,74.6,50.6z"/>
			<path class="st3" d="M84.8,37.2c0.1-0.1-0.2-0.4,0-0.6c0.2-0.2,0.2-0.3-0.1-0.2c-0.2,0.2-0.7,0.3-0.5,0.3
				C84.6,36.8,84.7,37.3,84.8,37.2z"/>
			<path class="st3" d="M88.3,36c0.1,0,0.1-0.2,0.3-0.2c0.2,0,0.2,0,0.1-0.1c-0.2,0-0.4-0.3-0.3-0.1C88.4,35.7,88.2,35.9,88.3,36z"
				/>
			<path class="st3" d="M77.2,46.9c0.1,0,0.1-0.4,0.3-0.5c0.3,0,0.3-0.2,0.1-0.2c-0.3,0-0.8-0.2-0.6,0C77.2,46.4,77,46.9,77.2,46.9z
				"/>
			<path class="st3" d="M81.9,42.3c0.5-0.3,0-0.6,0.5-0.9s0.3-0.8-0.2-0.5C81.2,41.4,81.3,42.7,81.9,42.3z"/>
			<path class="st3" d="M87.3,35.3c0.3,0,0.2-0.2,0.5-0.2c0.3,0,0.4-0.2,0.1-0.3C87.3,34.8,86.9,35.3,87.3,35.3z"/>
			<path class="st3" d="M79.8,41.8c0.3-0.1-0.1-0.5-0.3-0.5C79.2,41.4,79.5,42,79.8,41.8z"/>
			<path class="st3" d="M79.9,42.9c-0.2,0.1,0,0.5,0.3,0.4S80,42.8,79.9,42.9z"/>
			<path class="st3" d="M87.2,40.3c0.4,0.3,0,1,0.3,1.1s0.1-0.7,0.5-0.7c0.4-0.1,0.5-0.3,0.1-0.3C87.7,40.4,86.9,40,87.2,40.3z"/>
			<path class="st3" d="M84.8,41.3c-0.6,0.4,0.4,0.7,0.7,0.1C85.8,41,85.4,40.9,84.8,41.3z"/>
			<path class="st3" d="M75.1,37.1c0.6-0.2,0.1-0.6,0.7-0.8c0.6-0.2,0.5-0.8-0.1-0.6C74.6,36.1,74.5,37.4,75.1,37.1z"/>
			<path class="st3" d="M73.2,36.3c0.3-0.1,0-0.5-0.2-0.5C72.7,35.7,72.8,36.3,73.2,36.3z"/>
			<path class="st3" d="M73.1,37.3c-0.2,0.1-0.1,0.5,0.2,0.4C73.5,37.7,73.2,37.2,73.1,37.3z"/>
			<path class="st3" d="M80.4,37.3c-0.2,0.1-0.1,0.5,0.2,0.4C80.8,37.7,80.6,37.2,80.4,37.3z"/>
			<path class="st3" d="M80,36.8c0.2,0.1,0.3-0.6,0.7-0.6c0.4,0,0.6-0.2,0.2-0.3c-0.4-0.1-1.1-0.5-0.9-0.2
				C80.2,36.1,79.8,36.7,80,36.8z"/>
			<path class="st3" d="M78.9,36.9c0.3-0.3,0-0.5-0.7-0.3C77.5,36.9,78.5,37.4,78.9,36.9z"/>
			<path class="st3" d="M101,30.5c0.2-0.1,0.8-0.1,0.6-0.2c-0.3-0.1-0.3-0.6-0.4-0.6c-0.1,0,0.1,0.4-0.1,0.6
				C100.8,30.4,100.8,30.6,101,30.5z"/>
			<path class="st3" d="M94.4,38.5c0.3-0.4-0.2-0.4,0.1-0.8s0-0.7-0.4-0.3C93.6,38,94.1,38.9,94.4,38.5z"/>
			<path class="st3" d="M98.2,36.1c0.2-0.1-0.2-0.6-0.5-0.3C97.5,36,98,36.2,98.2,36.1z"/>
			<path class="st3" d="M98.5,34c0.1-0.2-0.2-0.4-0.4-0.2C97.9,34,98.4,34.2,98.5,34z"/>
			<path class="st3" d="M95.5,33c0.1-0.2-0.2-0.4-0.4-0.2C94.9,32.9,95.4,33.2,95.5,33z"/>
			<path class="st3" d="M85.7,37.1c0.1-0.2-0.2-0.4-0.4-0.2C85.1,37.1,85.6,37.3,85.7,37.1z"/>
			<path class="st3" d="M92.7,34.8c0.4,0,1.2,0.5,0.9,0.2c-0.3-0.4,0.1-1-0.1-1.1c-0.2-0.1-0.2,0.7-0.6,0.7
				C92.4,34.6,92.3,34.8,92.7,34.8z"/>
			<path class="st3" d="M93.2,40.7c0.7-0.2-0.3-0.7-0.7-0.3C92.1,40.8,92.5,40.9,93.2,40.7z"/>
		</g>
		<path class="st4" d="M110.6,17.2c-0.9-0.6-3.3,3.5-6.7,5.3c-1.9,1-3.1,2.8-4,3.8c-1.1,1.2-2.2,2.3-5.1,3.5c-2.6,1-6.1,3.1-9.4,3.5
			c-1.6,0.2-2.7-0.2-3.4-0.9c-0.6-0.5-0.3-1.3,0.6-1.7c-0.5,0-1,0-1.3-0.2c-0.3-0.2-0.4-0.5,0.1-0.9c0.1,0,0.1-0.1,0.1-0.1
			c-0.1,0-0.2,0.1-0.3,0.2c-0.6,0.6-1.4,1.9-2.9,2.1c-1.5,0.2-3,1.4-4.9,1.2c-1.9-0.2-4.5-1-5.3-2.4c-0.7-1.4,0-4,0.2-5.5
			c0.2-1.5-0.7-2.5-1.1-3.4c-0.1-0.1-0.1-0.3-0.1-0.4c0.1,0.7-0.2,0.7-0.4-0.2c-0.1-0.4-0.2-0.6-0.4-0.7c0,0.1,0,0.1,0,0.2
			c0,1.4-0.3,2.8-0.9,4.2c-1.8,3.9-6.2,5.2-10.1,3.4s-6.1-6.6-4.3-10.5c0.8-1.7,2-3,3.6-3.7c1.2-0.6,2.5-0.9,3.9-0.8
			c-0.1-0.2-0.3-0.4-0.6-0.6c-1.2-0.2-3,0.5-5.6,0.2c-2-0.2-4-0.2-5.7,0.6c-1.7,0.9-3.7,2.3-5.8,3c-2.1,0.7-3,1.7-6.4,1.5
			c-1.9-0.1-3.6,0.7-6.3,0.4c-3.1-0.4-4.3-1-7.2-1.6c-2-0.4-5.8-1.3-7.2-0.3s-1.2,3.4-1.1,5.6c0.2,2.2,1.4,3.6,2.5,5
			c1.4,1.7,1,4.3,0.7,6.6c-0.3,2.3,0.3,4.7,1.6,5.8c1.3,1.2,3.4,3.8,4.7,5.9c1.2,2.1,2.4,3.2,4.3,3.8s5.3,1.9,8,1.5
			c2.6-0.4,4,0.1,5.9,0.4c1.9,0.3,4.3-1.3,7-0.8c3.2,0.6,4,3.4,6.6,3.9c2.6,0.4,5-1.1,7.9-1c2.3,0.1,4.2-1.1,6.2-1.7
			c2.1-0.6,3.6,2.4,2.9,4.6c-0.6,1.7,0,3.1-0.2,4.8s-1.7,4.4-2.9,6.7c-1.2,2.2-0.3,4.8,1,6.1c1,1,2.4,2.1,3,2.4
			c0.1,0,0.1,0.1,0.2,0.1c0.8-0.1,1.5-0.2,2.3-0.2c0,0,0.1-0.1,0.1-0.1c0.1-0.5-0.9-1-2.9-1.9c-1.9-0.9-2.4-2.8-2.5-4.5
			c-0.1-1.9,1.3-4.1,3.3-7.4c2-3.3,2-4.7,3.2-6.2c1.2-1.5,2.8-3.2,3.6-4.9c1.7-3.5,5.5-5.9,9.1-6c4.7,0,6-1.9,9.1-3.4
			c3.2-1.5,4.2-4.1,5.8-5.9c1.6-1.8,2.7-3.8,2.7-6c0-2.3,1-4.8,1.9-6.2C108.8,22,111.5,17.8,110.6,17.2z"/>
	</g>
	<g id="镰状韧带">
		<path class="st5" d="M74.5,75.6c-0.1,0.5-2,0.6-2.6,0.2c-0.6-0.4-2-1.5-3-2.4c-1.4-1.3-2.2-3.8-1-6.1c1.2-2.2,2.7-5,2.9-6.7
			c0.1-0.8,0-1.6,0-2.4c1.1,0.5,2.1,0.7,3.3,0.6c-0.3,0.8-0.8,1.8-1.6,3c-2,3.3-3.5,5.5-3.3,7.4c0.1,1.6,0.6,3.6,2.5,4.5
			C73.6,74.7,74.6,75.2,74.5,75.6z"/>
		<path class="st6" d="M71.6,73.8c-1.9-0.9-2.4-2.8-2.5-4.5c-0.1-1.9,1.3-4.1,3.3-7.4c0.5-0.8,0.9-1.5,1.2-2.1
			c-0.4,0.2-0.8,0.3-1.3,0.3c-0.5,0-0.9-0.2-1.3-0.5c-0.1-0.1-0.1-0.2-0.2-0.2c0,0.4,0,0.9,0,1.3c-0.2,1.7-1.7,4.4-2.9,6.7
			c-1.2,2.2-0.3,4.8,1,6.1c1,1,2.4,2.1,3,2.4c0.6,0.4,2.5,0.2,2.6-0.2C74.6,75.2,73.6,74.7,71.6,73.8z"/>
		<path class="st7" d="M74,58.9c-0.4,0.8-0.8,1.8-1.6,3c-2,3.3-3.5,5.5-3.3,7.4c0.1,1.7,0.6,3.6,2.5,4.5c2,0.9,3,1.4,2.9,1.9
			c-0.1,0.5-2,0.6-2.6,0.2s-2-1.5-3-2.4c-1.4-1.3-2.2-3.8-1-6.1c1.2-2.2,2.7-5,2.9-6.7c0.1-0.8,0-1.6,0-2.4"/>
	</g>
	<g id="左三角韧带">
		<path class="st5" d="M108,23.4c-0.8,1.2-1.7,3.4-1.9,5.5c-0.5,0-0.9,0.1-1.3,0.1c0.1-0.5,0.2-0.9,0.3-1.4c0.4-1.8,1.3-4.3,2.4-5.9
			c1-1.4,0.6-1.3-0.2-0.4c-0.9,1-2.7,2.9-4.6,4.5c-0.5,0.5-1.3,1.1-2.1,1.7c-0.3-0.3-0.5-0.5-0.8-0.9c0.1-0.1,0.1-0.1,0.2-0.2
			c0.9-1,2.1-2.8,4-3.8c3.5-1.8,5.8-5.9,6.7-5.3C111.5,17.9,108.8,22,108,23.4z"/>
		<path class="st6" d="M108,23.4c-0.8,1.2-1.7,3.4-1.9,5.5c-0.2,0-0.3,0-0.5,0c0.1-1.8,0.9-4.1,2-5.8c1-1.5,3.2-4.7,2.7-5.9
			c0.1,0,0.2,0,0.3,0C111.5,17.9,108.8,22,108,23.4z"/>
		<path class="st6" d="M108,20.8c0.1-0.3-0.3-0.1-0.8,0.5c-0.9,1-2.7,2.8-4.6,4.5c-0.5,0.5-1.3,1.1-2.1,1.7
			c-0.1-0.1-0.2-0.2-0.3-0.3c1.6-1.3,2.9-2.7,3.7-3.3c1.3-1,3.1-3,3.6-3.5C108.1,19.9,108.4,20,108,20.8z"/>
		<path class="st7" d="M99.7,26.6c0.1-0.1,0.1-0.1,0.2-0.2c0.9-1,2.1-2.8,4-3.8c3.5-1.8,5.8-5.9,6.7-5.3c0.9,0.6-1.8,4.8-2.7,6.1
			c-0.8,1.2-1.7,3.4-1.9,5.5"/>
		<path class="st7" d="M104.8,29c0.1-0.5,0.2-0.9,0.3-1.4c0.4-1.8,1.3-4.3,2.4-5.9c1-1.4,0.6-1.3-0.2-0.4c-0.9,1-2.7,2.8-4.6,4.5
			c-0.5,0.5-1.3,1.1-2.1,1.7"/>
	</g>
	<g id="右三角韧带">
		<path class="st5" d="M14.2,23.4c0.7,2,2.5,2.8,3.4,3.9c0.1,0.1,0.2,0.3,0.2,0.4c-0.6,0.3-1.2,0.5-1.8,0.8c-0.2-0.5-0.4-1-0.8-1.5
			c-1.1-1.4-2.3-2.8-2.5-5c-0.2-2.2-0.4-4.6,1.1-5.6c1.4-1,5.2-0.1,7.2,0.3c2.8,0.5,4,1.2,6.9,1.5c-0.1,0.4-0.3,0.8-0.4,1.2
			c-3.2-0.7-9.7-3.4-12.5-1.7C13.1,19,13.8,22.2,14.2,23.4z"/>
		<path class="st6" d="M27.7,19c-0.1,0.2-0.1,0.3-0.2,0.5c-3.2-0.7-9.7-3.4-12.5-1.7c-1.5,0.9-1.2,3.4-0.9,4.9
			c-0.9-1.8-0.8-4.3-0.1-5.1c1.1-1.1,4.3-0.9,6.1-0.4C21.5,17.5,24.8,18.6,27.7,19z"/>
		<path class="st6" d="M16.6,28.2c-0.2,0.1-0.4,0.2-0.7,0.3c-0.2-0.5-0.4-1-0.8-1.5c-1-1.2-2-2.5-2.4-4.2c0.7,1.9,1.8,3.2,2.9,4.2
			C16.2,27.4,16.5,27.8,16.6,28.2z"/>
		<path class="st7" d="M16,28.5c-0.2-0.5-0.4-1-0.8-1.5c-1.1-1.4-2.3-2.8-2.5-5c-0.2-2.2-0.4-4.6,1.1-5.6c1.4-1,5.2-0.1,7.2,0.3
			c2.8,0.6,4,1.2,6.9,1.5"/>
		<path class="st7" d="M27.4,19.5c-3.2-0.7-9.7-3.4-12.5-1.7c-1.8,1.1-1.1,4.3-0.7,5.5c0.7,2,2.5,2.8,3.3,3.9
			c0.1,0.1,0.2,0.3,0.2,0.4"/>
	</g>
	<g id="冠状韧带">
		<path class="st5" d="M66.6,19.9c0.5,0.3,0.3,1.2,0.6,1.8c0.4,0.9,1.3,1.9,1.1,3.4c-0.2,1.5-1,4.1-0.3,5.5c0.7,1.4,3.4,2.2,5.3,2.4
			c1.9,0.2,3.4-1,4.9-1.2c1.5-0.2,2.3-1.5,2.9-2.1c0.7-0.6,0.9,0.1,0.5,0.4c1-0.5,3,0.2,1.5,0.4c-1.3,0.2-1.9,1.3-1.2,1.9
			c0.7,0.7,1.8,1.1,3.4,0.9c3.3-0.4,6.8-2.5,9.4-3.5c2.8-1.1,3.9-2.2,4.9-3.3c0.3,0.3,0.5,0.6,0.8,0.9c-2,1.5-4.6,3.2-6,3.9
			c-2,0.9-6.7,2.2-8.8,3.1c-2,0.8-3.3,0.3-4.4-0.6c-1-0.7-0.7-1.8-0.6-2c-0.1,0.2-0.4,0.7-1.5,1.1c-1.3,0.5-2.7,1.4-4.7,1.4
			c-2.1,0-3.5-0.7-6.1-1.3c-2.4-0.5-2.3-2.4-1.9-4.5c0.4-2.1,0.9-3.6,0.2-5.4c-0.4-1.1-0.4-2.9-0.8-3.2
			C65.7,19.7,66.1,19.6,66.6,19.9z"/>
		<path class="st5" d="M28.2,19.7c-0.2,0-0.5-0.1-0.7-0.1c0.2-0.4,0.3-0.8,0.4-1.2c0.1,0,0.2,0,0.3,0c2.7,0.3,4.5-0.5,6.3-0.4
			c3.4,0.2,4.3-0.8,6.4-1.5c2.1-0.7,4.1-2.1,5.8-3c1.7-0.9,3.8-0.8,5.7-0.6c2.7,0.3,4.5-0.5,5.8-0.2c1.1,0.3,0.9,1.2,0.6,0.9
			c-0.5-0.4-2.4-0.2-3.7,0.3c-0.9,0.3-2.6,0.4-4.2,0.1c-2-0.4-4,0.3-5.6,1.5c-1.6,1.2-5.4,3.3-7.9,3.6C35,19.5,31,20,28.2,19.7z"/>
		<path class="st6" d="M58.8,13.5c-0.5-0.4-2.4-0.2-3.7,0.3c-0.9,0.3-2.6,0.4-4.2,0.1c-2-0.4-4,0.3-5.6,1.5
			c-1.6,1.2-5.4,3.3-7.9,3.6C35,19.5,31,20,28.2,19.7c-0.2,0-0.5-0.1-0.7-0.1c0.1-0.2,0.1-0.3,0.2-0.5c0.5,0.1,1,0.1,1.4,0.2
			c3.1,0.2,7.2-0.1,9.5-0.9c2.3-0.8,5-2.4,7-3.5c1.9-1.2,3.8-1.7,5.7-1.2c1.9,0.5,4,0,5-0.3c1.3-0.4,2-0.2,2.4-0.4
			C59.2,13.2,59,13.7,58.8,13.5z"/>
		<path class="st6" d="M100.6,27.5c-2,1.5-4.6,3.3-6,3.9c-2,0.9-6.7,2.2-8.8,3c-2,0.8-3.3,0.3-4.4-0.6c-0.9-0.7-0.7-1.6-0.7-1.9
			c-0.1,0.2-0.5,0.7-1.5,1c-1.3,0.5-2.7,1.4-4.7,1.4c-2.1,0-3.5-0.7-6.1-1.3c-2.4-0.5-2.3-2.4-1.9-4.5c0.4-2.2,0.9-3.6,0.2-5.4
			c-0.4-1.1-0.4-2.9-0.8-3.2c-0.4-0.3,0-0.4,0.5-0.1c0.5,0.3,0.3,1.2,0.6,1.8c0.4,0.9,1.3,1.9,1.1,3.4c-0.1,1.1-0.6,2.7-0.5,4.1
			c-0.3-1.4,0.1-3.3,0.3-4.2c0.2-1.4-0.4-1.9-0.8-2.5C66.8,22,67,22.8,67.3,24c0.3,1.2,0,2.6-0.3,3.5c-0.3,0.9-0.4,2.8,0.5,4.1
			c0.9,1.2,2.7,1.8,5.1,2.1c2.4,0.3,2.6,0.2,5.1-0.6c2.5-0.8,2.6-1.6,3.1-2.4c0.3-0.5,0.8-0.7,0.9-0.5l0,0c0,0,0,0,0,0
			c0,0.1,0,0.3-0.3,0.6c-0.7,0.9-0.6,2.2,0.8,3.2s4.4-0.4,6.8-1c2.5-0.7,5.2-1.9,8.2-3.6c1.1-0.6,2.1-1.4,3-2.1
			C100.4,27.3,100.5,27.4,100.6,27.5z"/>
		<path class="st4" d="M80.7,31.8c0.3-0.7,0.5-1.3,1-1.6"/>
		<path class="st7" d="M100.5,27.5c-2,1.5-4.6,3.2-6,3.9c-2,0.9-6.7,2.2-8.8,3c-2,0.8-3.3,0.3-4.4-0.6c-1.1-0.8-0.6-2.1-0.6-2.1
			s-0.2,0.7-1.5,1.2c-1.3,0.5-2.7,1.4-4.7,1.4c-2.1,0-3.4-0.7-6.1-1.3c-2.4-0.5-2.3-2.4-1.9-4.5s0.9-3.6,0.2-5.4
			c-0.4-1.1-0.4-2.9-0.8-3.2c-0.4-0.3,0-0.4,0.5-0.1c0.5,0.3,0.3,1.2,0.6,1.8c0.4,0.9,1.3,1.9,1.1,3.4s-1,4.1-0.2,5.5
			s3.4,2.2,5.3,2.4s3.4-1,4.9-1.2s2.3-1.6,2.9-2.1c0.7-0.6,0.9,0.1,0.5,0.4c1-0.5,3,0.1,1.5,0.4c-1.3,0.2-1.9,1.3-1.2,1.9
			c0.7,0.7,1.8,1.1,3.4,0.9c3.3-0.4,6.8-2.4,9.4-3.5c2.8-1.1,3.9-2.2,4.9-3.3"/>
		<path class="st5" d="M106.1,28.9c0,0.2,0,0.4,0,0.7c0,2.2-1.1,4.1-2.7,6c-1.6,1.8-2.6,4.4-5.8,5.9c-3.2,1.5-4.4,3.3-9.1,3.4
			c-3.6,0-7.5,2.5-9.1,6c-0.8,1.7-2.3,3.3-3.6,4.9c-0.8,1-1.1,1.9-1.7,3.3c-1.1,0.1-2.2-0.1-3.3-0.6c0-0.8,0-1.5,0.2-2.4
			c0.7-2.2-0.8-5.3-2.9-4.6c-2.1,0.6-4,1.8-6.2,1.7c-2.9-0.1-5.3,1.4-7.9,1c-2.6-0.4-3.4-3.3-6.6-3.8c-2.8-0.5-5.1,1.1-7,0.8
			c-1.9-0.3-3.2-0.8-5.9-0.4c-2.6,0.4-6.1-0.9-8-1.5c-1.8-0.6-3.1-1.7-4.3-3.8c-1.2-2.1-3.3-4.7-4.7-5.8c-1.3-1.2-1.9-3.5-1.6-5.8
			c0.2-1.7,0.5-3.6,0.1-5.1c0.6-0.2,1.2-0.5,1.8-0.8c0.4,1.3-0.4,3.6-0.7,4.9c-0.3,1.5-0.2,4.5,2.1,6.6c1.6,1.5,2.7,3.1,4.1,5.5
			c1.2,1.9,3.3,3,5.3,3.8c2,0.8,4.2,0.6,6,0.6c2.2,0,4.2,0.7,6.2,0.3c2-0.4,6.2-1.1,8-0.5c1.7,0.6,3.7,3.4,5,3.8
			c2.2,0.7,3.9-1,6.3-1c2.8,0,4,0.1,6.3-1c2.4-1.1,4.7-0.8,5.6,0.5c0.9,1.4,0.7,4.2,0.6,5.6c-0.1,1.2,0.1,1.4,0.9,0
			c1.1-2,2.2-4.4,3.4-5.6c1.2-1.2,3.5-5.1,5.6-6.4c2.3-1.4,5.8-1.4,8.2-1.6c2.5-0.2,6.4-2.9,7.7-4.3c1.2-1.5,3.3-3.4,4.6-5.5
			c1-1.6,1.5-3.1,1.8-4.5C105.2,29,105.6,28.9,106.1,28.9z"/>
		<path class="st6" d="M71.7,55.5c-0.2,0.6-0.6,1.4-0.9,2.4c0-0.6,0-1.2,0.3-1.9c0.7-2.2-0.8-5.3-2.9-4.6c-2.1,0.6-4,1.8-6.2,1.7
			c-2.9-0.1-5.3,1.4-7.9,1c-2.6-0.4-3.4-3.3-6.6-3.8c-2.7-0.5-5.1,1.1-7,0.8c-1.9-0.3-3.2-0.8-5.9-0.4c-2.6,0.4-6.1-0.9-8-1.5
			c-1.8-0.6-3.1-1.7-4.3-3.8c-1.2-2.1-3.3-4.7-4.7-5.8c-1.3-1.2-1.9-3.5-1.6-5.8c0.2-1.7,0.5-3.6,0.1-5.1c0.2-0.1,0.4-0.2,0.7-0.3
			c0.6,1.5,0,3.5-0.2,5.6c-0.2,2.7,0.3,4.3,1.5,5.2c1.2,0.9,3.1,4,4.8,6.6c1.7,2.5,4.2,3.4,6,4c1.8,0.5,4.2,0.8,5.7,0.6
			c1.5-0.2,3.4-0.1,5.3,0.3c1.9,0.4,4.6-0.8,7.1-0.9c2.5-0.2,5,3,7.2,3.8c2.3,0.8,5-1,7.7-0.9c2.6,0.1,4.5-0.8,5.7-1.5
			c1.2-0.7,2.1-0.4,3.3,0.5C71.8,52.4,72,54.4,71.7,55.5z"/>
		<path class="st6" d="M106.1,28.9c0,0.2,0,0.4,0,0.7c0,2.2-1.1,4.1-2.7,6c-1.6,1.8-2.6,4.4-5.8,5.9c-3.2,1.5-4.4,3.3-9.1,3.4
			c-3.6,0-7.5,2.5-9.1,6c-0.8,1.7-2.3,3.3-3.6,4.9c-0.5,0.6-0.8,1.2-1.1,1.9c0.2-1.3,1-2.6,1.8-3.7c1.1-1.5,2-2.8,3.2-4.8
			c1.2-2,3.8-4.4,6.8-4.5c3-0.1,4.8-0.1,8-1.9c3.2-1.7,4.9-3.2,5.9-4.3c1-1.2,1.5-2.4,3-3.9c1.5-1.4,2.2-3.5,2.2-5.3
			c0-0.1,0-0.2,0-0.3C105.8,28.9,105.9,28.9,106.1,28.9z"/>
		<path class="st7" d="M70.8,58.3c0-0.8,0-1.5,0.2-2.4c0.7-2.2-0.8-5.3-2.9-4.6s-4,1.8-6.2,1.7c-2.9-0.1-5.3,1.4-7.9,1
			s-3.4-3.3-6.6-3.9c-2.7-0.5-5.1,1.1-7,0.8c-1.9-0.3-3.2-0.8-5.9-0.4s-6.1-0.9-8-1.5c-1.8-0.6-3.1-1.7-4.3-3.8
			c-1.2-2.1-3.3-4.7-4.7-5.9c-1.3-1.2-1.9-3.5-1.6-5.8c0.2-1.7,0.5-3.6,0.1-5.1"/>
		<path class="st7" d="M106.1,28.9c0,0.2,0,0.4,0,0.7c0,2.2-1.1,4.1-2.7,6s-2.6,4.4-5.8,5.9c-3.2,1.5-4.4,3.3-9.1,3.4
			c-3.6,0-7.5,2.5-9.1,6c-0.8,1.7-2.3,3.3-3.6,4.9c-0.8,1-1.1,1.9-1.7,3.3"/>
		<path class="st7" d="M17.8,27.7c0.4,1.3-0.5,3.6-0.7,4.9c-0.3,1.5-0.2,4.5,2.1,6.6c1.6,1.5,2.6,3.1,4.1,5.5c1.2,1.9,3.3,3,5.3,3.8
			s4.2,0.6,6,0.6c2.2,0,4.2,0.7,6.2,0.3c2-0.4,6.2-1.1,8-0.5s3.7,3.3,5,3.8c2.2,0.7,3.8-1,6.3-1c2.8,0,4,0.1,6.3-1
			c2.3-1.1,4.7-0.8,5.6,0.5c0.9,1.4,0.7,4.2,0.6,5.6c-0.1,1.2,0.1,1.4,0.9,0c1.1-2,2.2-4.4,3.4-5.6c1.2-1.2,3.4-5.1,5.6-6.4
			c2.3-1.4,5.8-1.4,8.2-1.6s6.4-2.8,7.7-4.3c1.2-1.5,3.3-3.4,4.6-5.5c1-1.6,1.5-3.1,1.8-4.5"/>
		<path class="st7" d="M27.9,18.3c0.1,0,0.2,0,0.3,0c2.7,0.3,4.5-0.5,6.3-0.4c3.4,0.2,4.3-0.8,6.4-1.5c2.1-0.7,4.1-2.1,5.8-3
			c1.7-0.9,3.8-0.8,5.7-0.6c2.7,0.3,4.5-0.5,5.7-0.2c1.1,0.3,0.9,1.2,0.6,0.9c-0.5-0.4-2.4-0.2-3.7,0.3c-0.9,0.3-2.6,0.4-4.1,0.1
			c-2-0.4-4.1,0.3-5.6,1.5s-5.4,3.3-7.9,3.6C35,19.5,31,20,28.2,19.7c-0.2,0-0.5-0.1-0.7-0.1"/>
	</g>
	<g id="尾状叶">
		<path class="st1" d="M68.3,25c-0.2,1.5-1,4.1-0.2,5.5c0.7,1.4,3.4,2.2,5.3,2.4c1.9,0.2,3.4-1,4.9-1.2c1.5-0.2,2.3-1.6,2.9-2.1
			c0.1-0.1,0.2-0.2,0.3-0.2c2-1.9,0.6-6.9-1.8-9.8c-3-3.6-13.2-2.4-12.6,1.3c0,0.1,0,0.2,0,0.3c0,0.1,0.1,0.3,0.1,0.4
			C67.6,22.5,68.5,23.5,68.3,25z"/>
		<linearGradient id="SVGID_1_" gradientUnits="userSpaceOnUse" x1="76.6805" y1="18.912" x2="73.7785" y2="24.5374">
			<stop  offset="0" style="stop-color:#FFFFFF;stop-opacity:0.3"/>
			<stop  offset="1" style="stop-color:#FFFFFF;stop-opacity:0"/>
		</linearGradient>
		<path class="st8" d="M68.5,19.8c0.9-2.2,6.7-2.1,9.5-0.4s3.5,5.7,2.3,7.6c-0.8,1.4-3.4,1.3-4.1-1c-0.7-2.3-2.8-2.6-4.3-2.7
			C70.3,23.2,67.7,21.7,68.5,19.8z"/>
		<g>
			<path class="st9" d="M71.9,18.6c-0.6,0.1-0.4,0.2,0.1,0.2c2.3-0.2,3.7,0.3,3.7,0.3S74.2,18.4,71.9,18.6z"/>
			<path class="st9" d="M71,18.9c0.3-0.2,0.3-0.2-0.1-0.2C70.1,18.9,70.6,19.1,71,18.9z"/>
			<path class="st9" d="M70.3,18.9c-0.1,0-0.2,0-0.2,0.2C70.1,19.3,70.4,18.9,70.3,18.9z"/>
		</g>
		<path class="st3" d="M68.3,25c-0.2,1.5-1,4.1-0.2,5.5c0.7,1.4,3.4,2.2,5.3,2.4c1.9,0.2,3.4-1,4.9-1.2c1.5-0.2,2.3-1.6,2.9-2.1
			c0.1-0.1,0.3-0.2,0.4-0.2c1.1-1.1,1.3-3.4,0.1-6.4c0.4,4.4-1.1,6.2-4,6.1c-2.8-0.1-2.4,1.6-4.2,1.9c-1.9,0.3-3.6-0.4-4.4-1.8
			c-0.7-1.4,0.2-3,0.4-4.5c0.2-1.5-0.7-1.4-1.7-2.7c-0.2-0.2-0.7-1.1-0.7-2.2c-0.1,0.2-0.2,0.5-0.2,0.7c0,0,0,0,0,0
			c0.1,0.4,0.1,0.9,0.3,1.2C67.6,22.5,68.5,23.5,68.3,25z"/>
		<path class="st4" d="M68.3,25c-0.2,1.5-1,4.1-0.2,5.5c0.7,1.4,3.4,2.2,5.3,2.4c1.9,0.2,3.4-1,4.9-1.2c1.5-0.2,2.3-1.6,2.9-2.1
			c0.1-0.1,0.2-0.2,0.3-0.2c2-1.9,0.6-6.9-1.8-9.8c-3-3.6-13.2-2.4-12.6,1.3c0,0.1,0,0.2,0,0.3c0,0.1,0.1,0.3,0.1,0.4
			C67.6,22.5,68.5,23.5,68.3,25z"/>
	</g>
	<g id="肝左叶">
		<path class="st1" d="M108.1,14.2c-5.9-0.8-8.3,4.7-15.1,10.3c-6.9,5.6-8.8,5.8-9.6,6c-0.2,0.1-0.5,0.1-0.8,0.2
			c-0.8,0.4-1.2,1.2-0.6,1.7c0.7,0.7,1.8,1.1,3.4,0.9c3.3-0.4,6.8-2.4,9.4-3.5c2.9-1.2,4-2.3,5.1-3.5c0.9-1,2.1-2.8,4-3.8
			c3.5-1.8,5.8-5.9,6.7-5.3c0.9,0.6-1.8,4.8-2.7,6.1c-0.9,1.3-1.9,3.8-1.9,6.2c0,2.2-1.1,4.1-2.7,6c-1.6,1.8-2.6,4.4-5.8,5.9
			c-3.2,1.5-4.4,3.3-9.1,3.4c-3.6,0-7.5,2.5-9.1,6c-0.8,1.7-2.3,3.3-3.6,4.9c-1.2,1.5-1.2,3-3.2,6.2c-2,3.3-3.5,5.5-3.3,7.4
			c0.1,1.7,0.6,3.6,2.5,4.5c2,0.9,3,1.4,2.9,1.9c0,0,0,0.1-0.1,0.1c3.3-0.2,6.4-0.2,9.9,0c7,0.4,20.8-4.8,25.2-12.3
			c4.4-7.5,0.3-11.3,4.4-24.4S117,15.3,108.1,14.2z"/>
		<linearGradient id="SVGID_2_" gradientUnits="userSpaceOnUse" x1="98.5981" y1="18.437" x2="100.7857" y2="22.2319">
			<stop  offset="0" style="stop-color:#FFFFFF;stop-opacity:0.3"/>
			<stop  offset="1" style="stop-color:#FFFFFF;stop-opacity:0"/>
		</linearGradient>
		<path class="st10" d="M93.9,24.9c2.6-2.6,8.2-8.9,11.2-9.8c3-0.9,4.5,1.3,2.2,3c-2.3,1.7-6.1,2.9-11,7.1
			C93.3,27.9,90.5,28.2,93.9,24.9z"/>
		<g>
			<path class="st9" d="M101.6,17.9c-0.5,0.4-0.2,0.3,0.2,0c1.7-1.5,2.5-1.8,2.5-1.8S103.4,16.4,101.6,17.9z"/>
			<path class="st9" d="M101,18.5c0.2-0.2,0.1-0.3-0.2,0C100.3,19.1,100.8,18.8,101,18.5z"/>
			<path class="st9" d="M100.5,18.9c-0.1,0-0.1,0.1-0.1,0.2C100.4,19.2,100.6,18.9,100.5,18.9z"/>
		</g>
		<path class="st3" d="M114.4,18c1.7,5.5-1.3,13.2-4.4,16.9c-4.5,5.4-5.3,11.9-7.7,16.1C97,60.2,88.1,62.2,82.1,61.6
			c-2.3-0.2-4.4-1.2-8.4-2c-0.3,0.6-0.7,1.3-1.2,2.2c-1.6,2.5-2.7,4.3-3.2,5.9c-0.1,0.5-0.2,1-0.2,1.5c0.1,1.7,0.6,3.6,2.5,4.5
			c2,0.9,3,1.4,2.9,1.9c0,0,0,0.1-0.1,0.1c3.3-0.2,6.4-0.2,9.9,0c7,0.4,20.8-4.8,25.2-12.3c4.4-7.5,0.3-11.3,4.4-24.4
			c0-0.1,0-0.1,0.1-0.2c0.2-0.6,0.3-1.1,0.5-1.7c0.1-0.2,0.1-0.4,0.2-0.6c0.1-0.5,0.2-0.9,0.4-1.4c0-0.2,0.1-0.3,0.1-0.5
			c0.3-1.3,0.5-2.5,0.7-3.8c0,0,0,0,0,0C116.7,25.5,116.3,21,114.4,18z"/>
		<path class="st3" d="M114.7,36.5c0.1-0.5,0.2-0.9,0.4-1.4c0-0.2,0.1-0.3,0.1-0.5c0.3-1.3,0.5-2.5,0.7-3.8c0,0,0,0,0,0
			c-1.5,3.7-3.5,7.6-5.1,11.9c-2.8,7.7,1.5,13.2-4.4,20.7c-3.6,4.6-11.9,9.8-22.2,8.9c-9.8-0.8-12.1-4.6-14.9-4.6
			c-0.1,0.5-0.2,1-0.2,1.5c0.1,1.7,0.6,3.6,2.5,4.5c2,0.9,3,1.4,2.9,1.9c0,0,0,0.1-0.1,0.1c3.3-0.2,6.4-0.2,9.9,0
			c7,0.4,20.8-4.8,25.2-12.3c4.4-7.5,0.3-11.3,4.4-24.4c0-0.1,0-0.1,0.1-0.2c0.2-0.6,0.3-1.1,0.5-1.7
			C114.6,36.9,114.7,36.7,114.7,36.5z"/>
		<path class="st3" d="M110.8,17.4c0.3,1.1-2,4.6-2.8,5.9c-0.9,1.3-1.9,3.8-1.9,6.2c0,2.2-1.1,4.1-2.7,6c-1.6,1.8-2.6,4.4-5.8,5.9
			c-3.2,1.5-4.4,3.3-9.1,3.4c-3.6,0-7.5,2.5-9.1,6c-0.8,1.7-2.3,3.3-3.6,4.9c-0.6,0.7-0.9,1.4-1.2,2.2c0.4-0.6,0.8-1.2,1.3-1.7
			c1.2-1.5,3.5-3,4.3-4.7c1.7-3.5,5.4-5.6,9-5.6c4.7,0,5.9-2.1,9.1-3.6c3.2-1.5,4.1-4.3,5.7-6.2c1.6-1.8,2.8-4.2,2.8-6.4
			c0-2.3,1.1-4.4,2-5.8C109.4,22.6,112.1,18.7,110.8,17.4z"/>
		<path class="st3" d="M82,32.4c0.7,0.7,1.8,1.1,3.4,0.9c3.3-0.4,6.8-2.4,9.4-3.5c2.3-0.9,3.4-1.8,4.4-2.7c-1.1,0.9-2.6,1.6-4.9,2.5
			c-2.6,1-4.8,3-8,3.4c-1.6,0.2-1.9-0.8-1.1-1.7c1-1.1,2.9-2.7,4.6-4.2c-2.8,2.1-4.6,2.9-6,3.4c-0.1,0-0.2,0.1-0.4,0.1
			c0.1,0,0.3-0.1,0.4-0.1c0.1-0.1,0.1-0.1,0.1-0.2c-0.1,0.1-0.2,0.1-0.5,0.2C82,30.7,81.3,31.7,82,32.4z"/>
		<path class="st4" d="M108.1,14.2c-5.9-0.8-8.3,4.7-15.1,10.3c-6.9,5.6-8.8,5.8-9.6,6c-0.2,0.1-0.5,0.1-0.8,0.2
			c-0.8,0.4-1.2,1.2-0.6,1.7c0.7,0.7,1.8,1.1,3.4,0.9c3.3-0.4,6.8-2.4,9.4-3.5c2.9-1.2,4-2.3,5.1-3.5c0.9-1,2.1-2.8,4-3.8
			c3.5-1.8,5.8-5.9,6.7-5.3c0.9,0.6-1.8,4.8-2.7,6.1c-0.9,1.3-1.9,3.8-1.9,6.2c0,2.2-1.1,4.1-2.7,6c-1.6,1.8-2.6,4.4-5.8,5.9
			c-3.2,1.5-4.4,3.3-9.1,3.4c-3.6,0-7.5,2.5-9.1,6c-0.8,1.7-2.3,3.3-3.6,4.9c-1.2,1.5-1.2,3-3.2,6.2c-2,3.3-3.5,5.5-3.3,7.4
			c0.1,1.7,0.6,3.6,2.5,4.5c2,0.9,3,1.4,2.9,1.9c0,0,0,0.1-0.1,0.1c3.3-0.2,6.4-0.2,9.9,0c7,0.4,20.8-4.8,25.2-12.3
			c4.4-7.5,0.3-11.3,4.4-24.4S117,15.3,108.1,14.2z"/>
	</g>
	<g id="肝右叶">
		<path class="st1" d="M69,73.3c-1.4-1.3-2.2-3.8-1-6.1c1.2-2.2,2.7-5,2.9-6.7s-0.4-3,0.2-4.8c0.7-2.2-0.8-5.3-2.9-4.6
			c-2.1,0.6-4,1.8-6.2,1.7c-2.9-0.1-5.3,1.4-7.9,1c-2.6-0.4-3.4-3.3-6.6-3.9c-2.7-0.5-5.1,1.1-7,0.8c-1.9-0.3-3.2-0.8-5.9-0.4
			c-2.6,0.4-6.1-0.9-8-1.5s-3.1-1.7-4.3-3.8c-1.2-2.1-3.3-4.7-4.7-5.9c-1.3-1.2-1.9-3.5-1.6-5.8c0.3-2.3,0.7-4.9-0.7-6.6
			c-1.1-1.4-2.3-2.8-2.5-5c-0.2-2.2-0.4-4.6,1.1-5.6s5.2-0.1,7.2,0.3c2.8,0.6,4.1,1.2,7.2,1.6c2.7,0.3,4.5-0.5,6.3-0.4
			c3.4,0.2,4.3-0.8,6.4-1.5c2.1-0.7,4.1-2.1,5.8-3c1.7-0.9,3.8-0.8,5.7-0.6c2.6,0.3,4.4-0.4,5.6-0.2c-0.9-0.7-2.3-1.2-4.3-1.7
			c-5.9-1.6-15.3-0.8-17.8-1.6c-2.8-0.8-11.7-5.2-18-2.7C11.6,9,6.5,14.4,4,25.4c-2.6,11.5-0.9,26.8,9.1,37.7
			c10,11,12.3,12.7,23.8,15.3c11.6,2.7,18.9,0.5,27-1.3c3.1-0.7,5.7-1.1,8.2-1.4c-0.1,0-0.1,0-0.2-0.1C71.4,75.4,70,74.3,69,73.3z"
			/>
		<linearGradient id="SVGID_3_" gradientUnits="userSpaceOnUse" x1="29.0567" y1="7.6246" x2="28.7219" y2="14.1205">
			<stop  offset="0" style="stop-color:#FFFFFF;stop-opacity:0.3"/>
			<stop  offset="1" style="stop-color:#FFFFFF;stop-opacity:0"/>
		</linearGradient>
		<path class="st11" d="M14.7,9c4-2.8,8.9-3.1,13.9-1.3s5.9,2.5,12.1,2.5c6.2-0.1,4.2,2.8,0,3.7S33.9,16,27,14
			c-5-1.5-8.5,0.2-11.7-0.3C12,13.3,13,10.2,14.7,9z"/>
		<g>
			<path class="st9" d="M21.1,7.4c-1,0.1-0.6,0.4,0.2,0.3c3.7-0.4,6.2,0.5,6.2,0.5S24.9,7.1,21.1,7.4z"/>
			<path class="st9" d="M19.6,8c0.5-0.3,0.5-0.4-0.2-0.3C18.1,8,19,8.3,19.6,8z"/>
			<path class="st9" d="M18.5,8c-0.1,0-0.3,0.1-0.3,0.3C18.2,8.7,18.7,8.1,18.5,8z"/>
		</g>
		<path class="st3" d="M72,75.8c-0.6-0.4-2-1.5-3-2.4c-1.2-1.2-2-3.3-1.3-5.3c0.1-0.2,0.2-0.5,0.3-0.7c1.2-2.2,2.7-5,2.9-6.7
			c0-0.5,0-0.9,0-1.4c-6.8-0.2-12.3,5.7-26.2,5.8c-6.3,0.1-20.9-2.9-30.3-12.2c-8.1-8-10-13.7-10.4-27C2.7,31.5,2.5,38,3.9,44.5
			c0,0,0,0,0,0c0.2,0.8,0.3,1.5,0.5,2.3c0,0.1,0,0.1,0,0.2c0.2,0.7,0.4,1.5,0.7,2.2c0,0.1,0.1,0.2,0.1,0.3c0.2,0.7,0.5,1.3,0.7,2
			C6,51.6,6,51.8,6.1,51.9c0.2,0.6,0.5,1.1,0.8,1.7c0.1,0.2,0.2,0.5,0.3,0.7c0.2,0.5,0.5,0.9,0.7,1.4C8,56,8.2,56.3,8.4,56.6
			c0.2,0.3,0.4,0.7,0.6,1c0.3,0.4,0.5,0.9,0.8,1.3C9.9,59,10,59.1,10,59.2c0.9,1.4,2,2.7,3.1,3.9c10,11,12.3,12.7,23.8,15.3
			c11.6,2.7,18.9,0.5,27-1.3c3.1-0.7,5.7-1.1,8.2-1.4C72.1,75.8,72,75.8,72,75.8z"/>
		<path class="st3" d="M37,78.5c11.6,2.7,18.9,0.5,27-1.3c3.1-0.7,5.7-1.1,8.2-1.4c-0.1,0-0.1,0-0.2-0.1c-0.6-0.4-2-1.5-3-2.4
			c-1.2-1.2-2-3.3-1.3-5.3c-1.9,0.7-2.7,2.5-11.9,6.1c-7.3,2.8-18.4,2.3-26-1.5C19,67.3,18.6,65,12.6,59.7
			c-4.8-4.2-7.2-10.1-8.7-15.2c0,0,0,0,0,0c0.2,0.8,0.3,1.5,0.5,2.3c0,0.1,0,0.1,0,0.2c0.2,0.7,0.4,1.5,0.7,2.2
			c0,0.1,0.1,0.2,0.1,0.3c0.2,0.7,0.5,1.3,0.7,2C6,51.6,6,51.8,6.1,51.9c0.2,0.6,0.5,1.1,0.8,1.7c0.1,0.2,0.2,0.5,0.3,0.7
			c0.2,0.5,0.5,0.9,0.7,1.4C8,56,8.2,56.3,8.4,56.6c0.2,0.3,0.4,0.7,0.6,1c0.3,0.4,0.5,0.9,0.8,1.3C9.9,59,10,59.1,10,59.2
			c0.9,1.4,2,2.7,3.1,3.9C23.2,74.1,25.4,75.8,37,78.5z"/>
		<path class="st3" d="M34.5,17.8c3.4,0.2,4.3-0.8,6.4-1.5c2.1-0.7,4.1-2.1,5.8-3c1.7-0.9,3.8-0.8,5.7-0.6c2,0.2,3.5-0.2,4.7-0.3
			c-1.2-0.1-2.9-0.1-4.9-0.3c-2-0.2-4.1-0.7-5.9,0.6c-1.5,1.1-2.5,2.2-4.6,2.8c-2.1,0.7-4.1,1.8-7.5,1.7c-1.9-0.1-3.5,0.9-6.2,0.6
			c-2.2-0.3-3.4-0.4-4.9-0.7c1.6,0.4,2.8,0.8,5.1,1.1C30.9,18.6,32.6,17.7,34.5,17.8z"/>
		<path class="st3" d="M71,55.8c0.7-2.2-0.8-5.3-2.9-4.6c-2.1,0.6-4,1.8-6.2,1.7c-2.9-0.1-5.3,1.4-7.9,1c-2.6-0.4-3.4-3.3-6.6-3.9
			c-2.7-0.5-5.1,1.1-7,0.8c-1.9-0.3-3.2-0.8-5.9-0.4s-6.1-0.9-8-1.5c-1.8-0.6-3.1-1.7-4.3-3.8c-1.2-2.1-3.3-4.7-4.7-5.9
			c-1.3-1.2-1.9-3.5-1.6-5.8c0.3-2.3,0.7-4.9-0.7-6.6c-1.1-1.4-2.3-2.8-2.5-5s-0.4-4.6,1.1-5.6c0.3-0.2,0.8-0.3,1.3-0.4
			c-0.7,0-1.2,0.2-1.6,0.4c-1.4,1-2.1,3.6-1.7,5.9c0.4,2.2,1.8,4.1,3,5.5c1.4,1.7,0.7,4.6,0.4,6.9c-0.3,2.3-0.6,3.6,1.7,4.9
			c1.5,0.8,4.1,4.9,5.3,7c1.2,2.1,2.5,2.6,4.3,3.2s3.2,2.9,5.8,2.2c5.1-1.4,6.3,0.1,8.1,0.4c1.9,0.3,4.1-2.2,6.9-1.7
			c3.2,0.6,4,4.6,6.7,5c2.6,0.4,5.2-2.2,8.1-2c2.3,0.1,3.9-0.9,6-1.5c2.1-0.6,3.2,1.7,2.5,3.9c-0.4,1.2,0.1,2.3,0.4,3.4
			C70.8,58.1,70.6,57.1,71,55.8z"/>
		<path class="st4" d="M69,73.3c-1.4-1.3-2.2-3.8-1-6.1c1.2-2.2,2.7-5,2.9-6.7s-0.4-3,0.2-4.8c0.7-2.2-0.8-5.3-2.9-4.6
			c-2.1,0.6-4,1.8-6.2,1.7c-2.9-0.1-5.3,1.4-7.9,1c-2.6-0.4-3.4-3.3-6.6-3.9c-2.7-0.5-5.1,1.1-7,0.8c-1.9-0.3-3.2-0.8-5.9-0.4
			c-2.6,0.4-6.1-0.9-8-1.5s-3.1-1.7-4.3-3.8c-1.2-2.1-3.3-4.7-4.7-5.9c-1.3-1.2-1.9-3.5-1.6-5.8c0.3-2.3,0.7-4.9-0.7-6.6
			c-1.1-1.4-2.3-2.8-2.5-5c-0.2-2.2-0.4-4.6,1.1-5.6s5.2-0.1,7.2,0.3c2.8,0.6,4.1,1.2,7.2,1.6c2.7,0.3,4.5-0.5,6.3-0.4
			c3.4,0.2,4.3-0.8,6.4-1.5c2.1-0.7,4.1-2.1,5.8-3c1.7-0.9,3.8-0.8,5.7-0.6c2.6,0.3,4.4-0.4,5.6-0.2c-0.9-0.7-2.3-1.2-4.3-1.7
			c-5.9-1.6-15.3-0.8-17.8-1.6c-2.8-0.8-11.7-5.2-18-2.7C11.6,9,6.5,14.4,4,25.4c-2.6,11.5-0.9,26.8,9.1,37.7
			c10,11,12.3,12.7,23.8,15.3c11.6,2.7,18.9,0.5,27-1.3c3.1-0.7,5.7-1.1,8.2-1.4c-0.1,0-0.1,0-0.2-0.1C71.4,75.4,70,74.3,69,73.3z"
			/>
	</g>
	<g id="下腔静脉">
		<path class="st12" d="M65.5,24.7c-1.8,3.9-6.2,5.2-10.1,3.4c-3.9-1.8-6.1-6.6-4.3-10.5c1.8-3.9,6.1-5.7,10.8-3.6
			S67.2,20.8,65.5,24.7z"/>
		<path class="st13" d="M65.5,24.7c-1.8,3.9-6.2,5.2-10.1,3.4c-3.9-1.8-6.1-6.6-4.3-10.5c1.8-3.9,6.1-5.7,10.8-3.6
			S67.2,20.8,65.5,24.7z"/>
		<ellipse transform="matrix(0.4181 -0.9084 0.9084 0.4181 15.1259 66.5297)" class="st14" cx="59.5" cy="21.5" rx="7.1" ry="6.3"/>
		<path class="st15" d="M53.7,18.8c-0.8,1.7-0.9,3.6-0.5,5.2c0.5,0.5,1,0.9,1.6,1.1c3.2,1.5,7.1-0.2,8.7-3.8
			c0.8-1.7,0.9-3.6,0.5-5.2c-0.5-0.5-1-0.9-1.6-1.1C59.3,13.5,55.4,15.2,53.7,18.8z"/>
		<path class="st16" d="M53.7,18.8c-0.4,0.8-0.6,1.7-0.7,2.5c2.9,0.7,6.2-1,7.7-4.2c0.4-0.8,0.6-1.7,0.7-2.5
			C58.5,13.9,55.2,15.6,53.7,18.8z"/>
		<g class="st17">
			<path class="st9" d="M51.7,17.4c-0.2,0.4,0,0.3,0.2,0c0.8-1.6,1.8-2.3,1.8-2.3S52.6,15.9,51.7,17.4z"/>
			<path class="st9" d="M51.6,18.1c0-0.2,0-0.3-0.2,0C51.2,18.7,51.6,18.5,51.6,18.1z"/>
			<path class="st9" d="M51.3,18.6c0,0-0.1,0.1,0,0.2C51.5,18.9,51.4,18.5,51.3,18.6z"/>
		</g>
		<path class="st18" d="M52.8,24.6c-1.7-4.3,1-10.2,5.9-10.4C54,14.9,51.6,20.3,52.8,24.6L52.8,24.6z"/>
	</g>
	<g id="静脉">
		<path class="st12" d="M81.2,11c-0.9,2.1-2,4.6-3.4,7.2c-1-0.5-2.2-0.7-3.8-0.8c2-3.9,3.3-7.3,3.6-8C78.2,7.7,81.9,9.3,81.2,11z"/>
		<path class="st14" d="M80.5,9.7c-1.4-1.4-3.5-0.6-2.1,0.9C79.7,12.1,81.9,11.1,80.5,9.7z"/>
		<path class="st19" d="M80.2,10.9c0.1,0.1,0.2,0.2,0.3,0.3c-0.5,0.3-1.5,0.2-2.2-0.6c-1.3-1.4,0.4-2.1,1.8-1.1
			C79.7,9.7,79.6,10.3,80.2,10.9z"/>
		<path class="st15" d="M79,10.7c0.3,0.4,0.7,0.6,1.1,0.6c-0.5,0.1-1.2-0.1-1.8-0.7c-1-1.1-0.1-1.8,1-1.5C78.6,9.2,78.2,9.8,79,10.7
			z"/>
		<path class="st14" d="M81.2,11c-0.9,2.1-2,4.6-3.4,7.2c-0.3-0.1-0.6-0.3-1-0.4c1.5-2.8,2.1-4.8,2.4-5.3
			C79.7,11.2,80.7,12.2,81.2,11z"/>
		<path class="st20" d="M77.7,18.2c1.4-2.6,2.5-5,3.4-7.2c0.7-1.7-3-3.3-3.7-1.6c-0.3,0.7-1.6,4.1-3.6,8"/>
		<path class="st21" d="M74.6,17.5l0.2,0c0.9-1.9,1.5-3.4,1.5-3.4S75.6,15.6,74.6,17.5z"/>
		<g class="st17">
			<path class="st12" d="M114.4,23c-2.8-0.1-5.2,1.3-6.8,3.7c-1.6,2.2-2.4,6.7-2.9,8.7c-2.1,9.1-4.8,13.7-13.7,12.8
				c-0.5,0-0.8,0.1-0.3,1.4c0.7,1.8,0.6,3.7,0.2,6.2c-0.4,2.5,1,4.5,4.6,5.5c3.3,1,7.1,2.7,8.1,6.3c-0.8-1.7-2.2-3.2-3.7-4
				c-3.1-2.1-8.4-1.6-9.6-5.5c-0.2-0.5-0.7-0.6-1.1-0.3c-2.1,2.1-6.4,3.8-7.9,4.5c-2.4,1.8-3.4,5.4-1.9,8.1c0.5,0.9,1.2,1.6,2,2.2
				c-1-0.5-1.8-1.3-2.3-2.2c-1.4-2.5-0.9-5.3,0.7-7.5c-4.7,2.3-7.1,5.8-7.9,11.3c0.6-16,18.8-11.1,17.9-22.2
				c-0.3-4.7-5.8-5.4-9.5-6.3c-2.3-0.5-5.4-1.2-7.7-1.9c-0.3-0.1-0.7,0.2-0.6,0.5c1.1,4.5-1.8,9.6-5.2,13.2
				c-2.1,2.2-4.2,3.7-5.6,7.6c-1,2.9-1,5.5-0.6,8.5c-0.7-3.1-0.7-5.9,0.2-8.9c0.7-2,1.8-3.7,3-5.2c-3.3,1.5-7.6,1.6-10-1.4
				c2.6,2.6,7.3,2.6,10.5,0.6c0.6-0.6,1.1-1.1,1.8-1.8c2.2-2.4,4.3-5.8,4.7-9.2c0.3-2.4-0.9-4.8-2.9-6.3c-2.2-1.7-3.2-3.7-3.5-6.5
				c-0.1-0.9-0.5-1.7-2-1.2c-2.2,0.7-4.2,1.1-6.5,1.4c-2.1,0.3-4.1,1.1-5.8,2.3c-3.2,2.3-6.2,5-8.8,8c-1.6,1.9-2.9,4.1-3.5,6.5
				c-1.4,5.7-0.3,12.1,2.5,17.2c-3.1-4.3-4.9-12.2-3.3-18.5c0-0.1-0.1-0.2-0.2-0.1c-4.2,5.7-7,11.9-9.1,19.1c0.7-3.9,2-7.1,3.4-10.6
				c2-4.7,4.6-9.2,7.8-13.2c0,0,0.5-0.6,0.9-1.2c0.2-0.3,0.1-0.7-0.3-0.7c-6.8-0.7-10.5,7-17.3,8.6c-2.4,0.5-4.7,0.5-7-0.2
				c2.4,0.3,4.6,0.4,6.9-0.2c6.9-1.9,10.6-10.2,18.5-9c0.3,0,0.6,0,0.8-0.3c0.7-0.8,1.4-1.5,2.1-2.2c1.5-1.4,3-2.8,4.6-4.1
				c0.3-0.2,0.1-0.7-0.3-0.7c-7,0.3-14.1-0.6-20.1-3.6c-5.9-1.8-12.3-0.4-16.8,3.9c-1.5,1.5-2.8,3.3-3.7,5.3
				c0.9-2.8,2.8-5.3,5.2-7.1c-2.9,0.8-6.3-0.4-7-3.3c1.3,3,4.9,3.8,7.8,2.7c4-2.6,8-3.4,12.4-2.8c-0.5-0.4-4.6-4-6.2-11.2
				c-1-2.4-3.8-3.5-6.3-3c-0.8,0.2-1.7,0.5-2.4,1c0.8-0.8,1.5-1.1,2.3-1.3c2.2-0.6,4.7,0.2,6.1,1.9c-0.6-3.4-0.6-6.8,0-10.1
				c-0.5,8,1.4,15.9,6,20.6c2.6,2.6,4.2,2.9,6.7,3.7c-4.1-5.3-2.2-14.8,3.6-17.8c-5.8,3.6-7.3,13.9-1.8,18.3
				c9.1,2.3,20.6,0.4,28.4-2.2c4.7-1.9,8.7-8.1,11.4-13.4c1.7,0.1,2.8,0.3,3.8,0.8c-2.1,3.8-4.9,8-8.6,12c-4.3,4.7-1.2,9.7,3.2,11.5
				c3.9,1.7,8.8,2.2,12.7,3.7c0.6,0.2,1.6,0.6,2.1,0.9c7,2.4,12.7,1.6,15.4-6c1.3-3.8,1.8-6.1,2.8-9.8c0.9-3.7,1-7.3,0.3-10.6
				c0.8,2.4,1,5.4,0.5,8.4C108.3,23.8,111.6,22.5,114.4,23z"/>
			<path class="st14" d="M47.9,35.4c-1.2,0.2-5,0.2-9.1-0.3c-5.1-0.6-7.8-1.8-9.6-2.6c-1.8-0.8-3.9-1.1-5.6-1.1
				c-1.5,0-3.5,0.2-4.5,0.7c2.9-0.7,6-0.6,9,0.3c6.1,3,13.2,3.9,20.1,3.6c0.4,0,0.5,0.4,0.2,0.7C49.8,35.9,49.1,35.2,47.9,35.4z"/>
			<path class="st14" d="M62.5,33c-1.9,0.8-4.6,1.2-7.3,1.5c-2.7,0.3-3.7,1.3-5.6,2.7c-1.7,1.3-5.4,4.3-8,7.4
				c-2.8,3.2-3.6,5.3-4.1,8.1c-0.2,1.2-0.3,2.7-0.2,4.1c0-1.6,0.2-3.3,0.6-4.8c0.6-2.4,1.8-4.6,3.5-6.5c2.6-3,5.6-5.7,8.8-8
				c1.7-1.2,3.7-2,5.8-2.3c2.4-0.4,4.3-0.8,6.5-1.4c1.5-0.5,1.9,0.3,2,1.2C64.7,33.3,64.5,32.2,62.5,33z"/>
			<path class="st14" d="M69.1,30.2c-2.8,3-2.4,6.2-0.6,8.6c-1.6-1.5-2.1-3.3-2-5.2c0.1-2.8,1.8-3.1,6.2-9.2
				c1.8-2.5,3.1-4.7,4.1-6.6c0.4,0.1,0.7,0.2,1,0.4C75.6,22,72.8,26.2,69.1,30.2z"/>
			<path class="st14" d="M68.4,54.5c1.5-2.2,2.5-4.1,2.8-6.6c0.3-2.2-0.1-4.8-2.9-6.5c-1.1-0.7-1.9-1.4-2.5-2.1
				c0.5,0.8,1.2,1.6,2.1,2.3c2,1.5,3.1,3.9,2.9,6.3c-0.4,3.3-2.5,6.8-4.7,9.2c-0.6,0.6-1,1.1-1.5,1.5C65.9,58,67.3,56.1,68.4,54.5z"
				/>
			<path class="st14" d="M90,54c0.4-2.8-0.4-4.7-1.9-5.9c-1.4-1.2-4.5-2.1-7.1-2.7c-2.6-0.6-6.7-1.6-7.7-1.9c-1-0.3-1.8-0.3-1.3,1
				c-0.1-0.3,0.2-0.6,0.6-0.5c2.3,0.7,5.3,1.4,7.7,1.9c3.7,1,9.2,1.6,9.5,6.3c0.2,2.7-0.7,4.5-2.3,5.9C88.8,57.3,89.8,55.9,90,54z"
				/>
			<path class="st20" d="M73.9,17.4c-2.7,5.3-6.8,11.5-11.4,13.4c-7.8,2.6-19.3,4.5-28.4,2.2c-5.5-4.4-4-14.7,1.8-18.3
				c-5.8,3-7.7,12.5-3.6,17.8c-2.5-0.8-4.1-1.1-6.6-3.7c-4.6-4.6-6.5-12.6-6-20.6c-0.5,3.3-0.5,6.8,0,10.1c-1.4-1.7-4-2.5-6.1-1.9
				c-0.8,0.2-1.6,0.5-2.3,1.3c0.7-0.6,1.5-0.9,2.3-1c2.5-0.5,5.3,0.6,6.3,3C21.5,27,25.5,30.5,26,31c-4.4-0.6-8.5,0.3-12.4,2.8
				c-2.9,1.2-6.5,0.3-7.8-2.7c0.7,2.9,4.1,4.1,7,3.3c-2.5,1.8-4.4,4.3-5.2,7.1c1-1.9,2.2-3.8,3.7-5.3c4.5-4.3,10.9-5.7,16.8-3.9
				c6.1,3,13.2,3.9,20.1,3.6c0.4,0,0.5,0.4,0.2,0.7c-1.6,1.3-3.1,2.6-4.6,4.1c-0.7,0.7-1.4,1.5-2.1,2.2c-0.2,0.2-0.5,0.3-0.9,0.3
				c-7.9-1.2-11.5,7.1-18.4,9c-2.3,0.6-4.6,0.6-6.9,0.2c2.3,0.7,4.7,0.7,7,0.2c6.9-1.6,10.6-9.2,17.4-8.6c0.3,0,0.5,0.4,0.3,0.7
				c-0.4,0.5-0.9,1.2-0.9,1.2c-3.2,4-5.8,8.5-7.8,13.2c-1.4,3.4-2.7,6.6-3.4,10.6c2.1-7.2,4.9-13.3,9.1-19.1c0.1-0.1,0.2,0,0.2,0.1
				c-1.6,6.3,0.1,14.2,3.3,18.5c-2.9-5.2-4-11.5-2.5-17.2c0.6-2.4,1.8-4.6,3.5-6.5c2.6-3,5.6-5.7,8.8-8c1.7-1.2,3.7-2,5.8-2.3
				c2.4-0.4,4.3-0.8,6.5-1.4c1.5-0.5,1.9,0.3,2,1.2c0.3,2.9,1.3,4.9,3.5,6.5c2,1.5,3.1,3.9,2.9,6.3c-0.4,3.3-2.5,6.8-4.7,9.2
				c-0.7,0.7-1.2,1.2-1.8,1.7c-3.2,2.1-7.9,2-10.5-0.6c2.4,3,6.7,2.9,10,1.4c-1.2,1.5-2.3,3.2-3,5.2c-0.9,3-1,5.8-0.2,8.9
				c-0.4-3.1-0.3-5.6,0.6-8.5c1.4-3.9,3.5-5.4,5.6-7.6c3.4-3.6,6.3-8.7,5.2-13.2c-0.1-0.3,0.2-0.6,0.6-0.5c2.3,0.7,5.3,1.4,7.7,1.9
				c3.7,1,9.2,1.6,9.5,6.3c0.9,11.1-17.3,6.1-17.9,22.1c0.8-5.5,3.2-9,7.9-11.3c-1.6,2.2-2.1,5.1-0.7,7.5c0.5,0.9,1.3,1.7,2.3,2.2
				c-0.8-0.6-1.5-1.3-2-2.2c-1.5-2.8-0.5-6.3,1.9-8.1c1.5-0.7,5.8-2.4,7.9-4.5c0.4-0.3,0.9-0.2,1.1,0.3c1.3,3.9,6.5,3.5,9.6,5.5
				c1.5,0.9,2.9,2.4,3.7,4.1c-1-3.6-4.8-5.4-8.1-6.3c-3.6-1.1-5-3.1-4.6-5.5c0.4-2.5,0.5-4.3-0.2-6.2c-0.4-1.3-0.1-1.4,0.3-1.4
				c8.9,0.9,11.6-3.7,13.7-12.8c0.5-2,1.3-6.5,2.9-8.7c1.6-2.4,4.1-3.8,6.8-3.7c-2.7-0.5-6.1,0.8-8.3,5.3c0.5-3,0.3-6-0.5-8.4
				c0.7,3.3,0.6,6.9-0.3,10.6c-0.9,3.6-1.5,6-2.8,9.8c-2.7,7.6-8.4,8.5-15.4,6c-0.6-0.3-1.6-0.7-2.1-0.9c-4-1.5-8.8-2-12.7-3.7
				c-4.4-1.8-7.5-6.8-3.2-11.5c3.7-4.1,6.5-8.2,8.7-12"/>
			<path class="st21" d="M74.6,17.5c-0.6,1.2-1.4,2.6-2.2,3.9c-0.5,0.8-0.6,1.4,0,0.5c0.9-1.5,1.7-3,2.4-4.4L74.6,17.5z"/>
			<path class="st21" d="M71.4,22.9c0.4-0.2,0.4-0.1,0,0.4C70.6,24.3,70.9,23.2,71.4,22.9z"/>
			<path class="st21" d="M70.7,23.9c0,0.2,0,0.4-0.2,0.4C70.2,24.5,70.7,23.7,70.7,23.9z"/>
			<g class="st17">
				<path class="st9" d="M65.5,37.8c-0.2-0.5,0-0.2,0.2,0.1c0.6,1.6,1.9,2.3,1.9,2.3S66.1,39.6,65.5,37.8z"/>
				<path class="st9" d="M65.5,37.2c0,0.2-0.1,0.2-0.1-0.1C65.2,36.5,65.5,37,65.5,37.2z"/>
				<path class="st9" d="M65.3,36.7c-0.1,0-0.1-0.1-0.1-0.2C65.2,36.4,65.4,36.7,65.3,36.7z"/>
			</g>
		</g>
	</g>
	<g id="动脉">
		<path class="st22" d="M83.4,18c-0.3,0.3-1.2,1.5-2.7,3.1c-0.3-0.4-0.7-1.1-1.2-1.6c1.2-1.4,2.1-2.5,2.3-2.8
			C82.5,16,84,17.3,83.4,18z"/>
		<path class="st23" d="M82.9,17c0.8,0.7,0.1,1.4-0.6,0.7S82.2,16.3,82.9,17z"/>
		<path class="st24" d="M82.9,17c-0.1,0.2-0.5,0.2-0.9-0.2c-0.1,0.2-0.1,0.5,0.3,0.8C83.1,18.4,83.7,17.7,82.9,17
			C82.9,17,82.9,17,82.9,17z"/>
		<path class="st25" d="M82.3,17.4c-0.1-0.1-0.2-0.3-0.3-0.4c0,0.2,0.1,0.4,0.3,0.7c0.6,0.6,1.1,0.2,0.9-0.3
			C83.2,17.7,82.8,17.9,82.3,17.4z"/>
		<path class="st23" d="M83.4,18c-0.3,0.3-1.2,1.5-2.7,3.1c-0.1-0.2-0.3-0.4-0.4-0.7c0.8-0.9,1.3-1.6,1.4-1.8
			c0.4-0.5,0.6-0.7,0.9-0.5C82.8,18.2,83.2,18.2,83.4,18z"/>
		<path class="st26" d="M80.7,21.1c1.4-1.6,2.4-2.8,2.7-3.1c0.6-0.7-0.9-2-1.5-1.3c-0.3,0.3-1.1,1.3-2.4,2.8"/>
		<g class="st17">
			<path class="st22" d="M114.1,23.5c-5.2,2.2-7.8,6.2-9,11.1c-1.8,7.7-3.8,10-8.9,11.5c-2.1,0.7-4.4,0.7-6.5,0.3
				c-0.2,0-0.2,0.2-0.1,0.3c3.1,2.4,3.4,6,1.8,9.1c-1,4.2,0.5,5.8,4.9,6.4c3.6,0.5,7.2,1.5,7.9,5.7c-0.5-1.6-1.6-3.2-3.2-4
				c-3.4-2.1-10.7-0.3-10.4-6c0-0.3,0-0.7,0.1-1c-0.3,0.4-0.6,0.8-1,1.2c-2,2.2-4.6,3.3-7.2,4.5c-0.2,0.1-0.8,0.3-0.8,0.3
				c-3.3,2.9-4.1,7.7-0.3,10.2c-3.2-1.6-3.6-5.5-2-8.1c0.4-0.7,0.8-1.2,1.3-1.8c-5.1,2.3-8.8,5.3-9.5,11.3
				c0.1-6.8,5.1-10.1,10.7-12.5c2.6-1.2,5.4-2.3,7.3-4.4c3-3.3,3.5-8.1-0.7-10.7c-4.7-3.3-10.6-3.4-15.9-5.5
				c-0.6-0.3-0.5,0.2-0.4,0.5C74,47,71,53.1,67.8,57c-2,2.5-4.5,4.4-5.8,7.4c-1.4,2.8-1.8,5.9-1.9,9.2c-0.2-3.2,0.3-6.4,1.6-9.4
				c0.6-1.6,1.7-3,2.9-4.3c-3.5,1.5-7.8,1.3-10.2-1.9c3.2,3.1,7.1,3.1,10.5,1.2c1-0.9,1.8-1.7,2.5-2.7c2.8-3.7,5.6-9.3,4.2-13.9
				c-0.4-1.2-1.2-2.3-2.2-3.1c-1.7-1.4-2.6-3.3-2.4-5.3c0.1-0.5-0.5-1-1-0.8c-2,0.8-5.2,1.7-8.9,2.3c-2,0.3-3.9,1.1-5.6,2.3
				c-3.4,2.4-6.5,5.2-9.2,8.1c-1.3,1.4-2.3,3-2.9,4.8c-1.8,5.4-1.2,11.7,1,16.9c-2.7-5-3.4-11.9-1.5-17.6c0-0.1-0.1-0.2-0.2-0.1
				c-4.7,6.2-7.9,13.3-10.7,20.8c2.5-8.8,5.8-15.9,11.5-22.7c0.4-0.4,1.5-1.8,2.1-2.5c0.1-0.1,0-0.3-0.1-0.3
				c-9.9-1.5-12.9,10.7-24.5,7.6c2.3,0.3,4.6,0.3,6.8-0.4c6.7-2.3,10.2-9.3,18.1-7.9c0.3,0,0.6,0,0.8-0.3c2.6-2.7,5.4-5.2,8.4-7.5
				c0.2-0.1,0.1-0.4-0.2-0.4c-6.9,0.6-14.7,0.3-20.5-2.5c-0.8-0.4-1.7-0.7-2.6-0.9c-7.7-1.4-15,2-19.5,9.6c1.2-3,3-5.1,5.6-6.9
				c-2.9,0.9-7.1-0.3-7.3-3.5c0.7,2.4,2.9,3.4,5.1,3.4c1.1,0,2.1-0.2,3.1-0.6c2.6-1.7,5.6-2.7,8.8-2.8c1.2-0.1,2.5,0,3.5,0.1
				c0.6,0.1,0.6-0.1,0.1-0.5c-0.3-0.3-0.7-0.6-1-0.9c-2.4-2.5-3.5-4.5-4.8-8.4c-1.5-3.6-5.3-5.9-9.2-5c2.9-1.3,6.9,0.4,8.7,3.1
				c-0.7-2.7-1.1-5.8-1.1-8.3c0.4,3.3,0.9,6.8,2.1,10.1c1.1,3.3,2.6,6.1,5.1,8.4c1.7,1.5,3.8,2.5,6.1,3.3c0.2,0.1,0.3-0.2,0.2-0.3
				c-3.8-4.8-3.1-14.3,1.8-17.9c-3.9,3.4-4.9,11.7-2.1,16.5c0.9,1.5,2.4,2.5,4.1,2.8c9.5,1.7,21.1-0.3,28.5-3.2
				C70,30,76.2,23.3,79.5,19.4c0.5,0.5,0.9,1.2,1.2,1.6c-2.4,2.7-6.2,6.7-10.3,10.1c-3.3,2.7-1.9,7.2,2.3,9
				c4.6,2.1,8.3,2.1,14.4,4.6c5.7,2.3,13.1,1.1,16-5.6c0.6-1.3,1.1-3.5,1.5-4.9c0.3-1,0.7-2.3,1.3-3.8c1-2.5,1.2-6,0.2-9.2
				c1.2,2.2,1.2,5.4,0.4,8.3C108.3,26.6,110.6,24.4,114.1,23.5z"/>
			<path class="st23" d="M51.6,36.4c-0.1-0.2-0.5-0.1-3.4,0.1c-3.2,0.1-8,0.1-11.5-0.6c-4-0.8-5.8-1.9-7.3-2.4
				c-0.8-0.3-1.5-0.3-2.1-0.3c0.2,0,0.4,0,0.5,0.1c0.9,0.2,1.8,0.5,2.6,0.9c5.9,2.8,13.6,3.1,20.5,2.5c0.2,0,0.3,0.3,0.2,0.4
				C51.4,36.8,51.7,36.6,51.6,36.4z"/>
			<path class="st23" d="M72.7,40.2c2.3,1,4.4,1.6,6.7,2.2c-2.8-0.4-6.5-1.7-8.1-2.6c-1.6-0.9-3.5-2.7-3.1-5.7
				c0.3-2.6,1.2-2.4,5.6-6.6c2.8-2.7,5.1-5.4,6.6-7.1c0.2,0.3,0.3,0.5,0.4,0.7c-2.4,2.7-6.2,6.7-10.3,10.1
				C67.1,33.9,68.6,38.4,72.7,40.2z"/>
			<path class="st23" d="M65.9,33.1c-0.8,0.2-3.8,1.4-7.3,2c-3.5,0.6-4.9,1.1-6.8,2.4c-1.8,1.2-4.6,3.6-6.7,5.5
				c-1.7,1.6-4,3.9-4.6,5.6c0.5-0.8,1-1.5,1.6-2.1c2.8-3,5.9-5.7,9.2-8.1c1.7-1.2,3.6-2,5.6-2.3c3.7-0.6,6.9-1.5,8.9-2.3
				c0.5-0.2,1.1,0.2,1,0.8C67.1,33.3,66.7,32.9,65.9,33.1z"/>
			<path class="st23" d="M87.5,45.8c-2-1.1-4.8-2-8.5-2.8c-3.7-0.8-5.7-1.8-6.5-2.1c-0.7-0.3-0.8,0.1-0.2,1
				c-0.1-0.3-0.2-0.7,0.4-0.5c5.2,2.1,11.2,2.2,15.9,5.5c1.7,1.1,2.7,2.5,3,4.1C91.6,48.9,90,47.2,87.5,45.8z"/>
			<g class="st17">
				<path class="st9" d="M67.4,31.8c-0.4,0.3-0.3,0,0-0.2c1.5-1,3.1-2.3,3.1-2.3S68.9,30.7,67.4,31.8z"/>
				<path class="st9" d="M66.7,32c0.2,0,0.3,0,0,0.2C66.2,32.4,66.4,32.1,66.7,32z"/>
				<path class="st9" d="M66.2,32.3c0,0.1,0,0.1-0.1,0.1C65.9,32.5,66.2,32.2,66.2,32.3z"/>
			</g>
			<path class="st26" d="M79.5,19.4C76.2,23.3,70,30,65.6,32.2C58.2,35,46.6,37,37.1,35.3C35.4,35,33.9,34,33,32.5
				c-2.9-4.8-1.8-13,2.1-16.5c-4.9,3.7-5.6,13.1-1.8,18c0.1,0.1,0,0.4-0.2,0.3c-2.3-0.8-4.4-1.9-6.1-3.3c-2.4-2.3-3.9-5.1-5.1-8.4
				c-1.1-3.3-1.7-6.8-2.1-10.1c-0.1,2.4,0.4,5.6,1.1,8.3c-1.8-2.7-5.8-4.3-8.7-3.1c3.9-0.9,7.6,1.4,9.2,5c1.4,3.9,2.4,5.9,4.8,8.4
				c0.4,0.4,0.7,0.6,1,0.9c0.5,0.5,0.5,0.6,0,0.5c-1-0.1-2.3-0.2-3.5-0.1c-3.2,0.1-6.2,1.2-8.8,2.8c0,0,0,0,0,0
				c-2.9,1.3-7.2,0.8-8.2-2.7c0.2,3.2,4.4,4.4,7.3,3.5c-2.5,1.8-4.4,3.9-5.6,6.9c4.5-7.7,11.8-11,19.5-9.6c0.9,0.2,1.8,0.5,2.6,0.9
				c5.9,2.8,13.6,3.1,20.5,2.5c0.2,0,0.3,0.3,0.2,0.4c-3.1,2.2-5.9,4.8-8.4,7.5c-0.2,0.2-0.5,0.3-0.8,0.3
				c-7.9-1.4-11.4,5.6-18.1,7.9c-2.2,0.7-4.5,0.7-6.8,0.4c11.6,3,14.6-9.2,24.5-7.6c0.2,0,0.2,0.2,0.1,0.3c-0.6,0.7-1.8,2.1-2.1,2.5
				c-5.7,6.9-9,14-11.5,22.7c2.8-7.5,6-14.7,10.7-20.8c0.1-0.1,0.3,0,0.2,0.1c-2,5.7-1.3,12.6,1.5,17.6c-2.2-5.2-2.9-11.4-1-16.9
				c0.6-1.8,1.6-3.4,2.9-4.8c2.8-3,5.9-5.7,9.2-8.1c1.7-1.2,3.6-2,5.6-2.3c3.7-0.6,6.9-1.5,8.9-2.3c0.5-0.2,1.1,0.2,1,0.8
				c-0.2,2,0.7,3.8,2.5,5.3c1,0.8,1.8,1.9,2.2,3.1c1.5,4.6-1.4,10.2-4.2,13.9c-0.8,1-1.6,1.8-2.5,2.7c-3.5,1.9-7.4,1.9-10.5-1.2
				c2.4,3.2,6.7,3.5,10.2,1.9c-1.1,1.3-2.2,2.6-2.9,4.3c-1.3,2.9-1.8,6.2-1.6,9.4c0.1-3.3,0.6-6.3,1.9-9.2c1.3-3,3.8-5,5.8-7.4
				c3.1-4,6.2-10.1,4.4-15.1c-0.1-0.3-0.2-0.7,0.4-0.5c5.2,2.1,11.2,2.2,15.9,5.5c4.2,2.6,3.7,7.4,0.7,10.7
				c-1.9,2.1-4.7,3.2-7.3,4.4c-5.6,2.3-10.7,5.7-10.7,12.5c0.6-6.1,4.4-9.1,9.5-11.3c-0.5,0.6-0.9,1.1-1.3,1.8
				c-1.6,2.6-1.2,6.5,2,8.1c-3.8-2.6-3-7.3,0.3-10.2c0,0,0.6-0.2,0.8-0.3c2.6-1.2,5.2-2.2,7.2-4.5c0.4-0.4,0.7-0.8,1-1.2
				c0,0.3-0.1,0.7-0.1,1c-0.2,5.7,7.1,3.9,10.4,6c1.5,0.8,2.6,2.3,3.1,4c-0.7-4.3-4.3-5.2-7.9-5.7c-4.4-0.6-5.9-2.2-4.9-6.4
				c1.6-3.1,1.3-6.7-1.8-9.1c-0.1-0.1,0-0.3,0.1-0.2c2.2,0.4,4.4,0.3,6.5-0.3c5.1-1.5,7.1-3.8,8.9-11.5c1.2-5,3.8-9,9-11.1
				c-3.5,0.9-5.8,3.1-7.5,6.2c0.8-2.8,0.8-6-0.4-8.2c1,3.2,0.8,6.6-0.2,9.2c-0.6,1.5-1,2.7-1.3,3.8c-0.4,1.4-0.9,3.6-1.5,4.9
				c-2.9,6.7-10.4,7.9-16,5.6c-6.1-2.5-9.8-2.6-14.4-4.6c-4.2-1.8-5.6-6.3-2.3-9c4.1-3.4,7.9-7.4,10.3-10.1"/>
		</g>
	</g>
	<g id="胆管">
		<path class="st27" d="M74.1,13.2c0,0.6-0.2,2.1-0.6,4.2c-0.7,0-1.4,0.1-2.1,0.2c0.3-1.7,0.5-3.2,0.6-4.6
			C72.2,12.2,74.1,12.2,74.1,13.2z"/>
		
			<ellipse transform="matrix(3.042356e-02 -0.9995 0.9995 3.042356e-02 57.7888 85.7097)" class="st28" cx="73.1" cy="13.1" rx="0.5" ry="0.7"/>
		<path class="st29" d="M73.1,13.5c0.4,0,0.7-0.2,0.8-0.4c0,0,0,0,0,0c-0.1,0-0.1,0-0.2,0c-0.4,0-0.7-0.2-0.7-0.5
			c-0.3,0-0.6,0.2-0.6,0.4C72.3,13.3,72.6,13.5,73.1,13.5z"/>
		<path class="st30" d="M73.2,13.4c-0.4,0-0.7-0.2-0.7-0.5c0,0,0-0.1,0-0.1c-0.1,0.1-0.2,0.2-0.2,0.3c0,0.3,0.3,0.5,0.7,0.5
			c0.3,0,0.6-0.1,0.7-0.3C73.6,13.3,73.4,13.4,73.2,13.4z"/>
		<path class="st28" d="M74.1,13.2c0,0.6-0.2,2.1-0.6,4.2c-0.2,0-0.5,0-0.7,0c0.3-1.8,0.4-3,0.4-3.3C73.3,13.6,74,14,74.1,13.2z"/>
		<path class="st31" d="M73.5,17.4c0.4-2.1,0.5-3.6,0.6-4.2c0.1-1-1.9-1-2-0.2c-0.1,1.4-0.3,2.9-0.6,4.6"/>
		<g class="st17">
			<path class="st27" d="M112.1,23c-5.3,2.1-6.9,7.1-7.8,11.7c-1.9,9.6-8.8,12.5-16.3,10.6c2.6,2.8,3.3,6.6,1.6,10
				c-0.9,7.8,6.6,5,11.3,7.7c1.6,0.9,2.8,2.3,3.4,4.3c-0.7-1.6-1.9-3.1-3.5-4c-3.6-2.2-10.6-0.1-11.6-5.5c-0.1-0.5-0.1-1-0.1-1.5
				c-2.3,2.9-5.9,4.4-9,5.7c-2.9,3.3-2.3,9,1.3,11.6c-3.8-2.1-4.5-7.9-2-11.4c-5.3,2.3-8.1,6.4-8.3,12.4c-0.4-6.5,3.4-10.9,9.2-13.3
				c5.3-2.2,10.3-4.9,9.2-11.5c-1.1-6.8-13.4-8.3-18-10c-0.3-0.1-0.7,0.2-0.5,0.5c2.1,5.3,0,11.6-4,16c-2.1,2.6-5,4.2-6.2,7.4
				c-1.3,3-1.5,6.4-0.9,9.7c-0.9-3.4-0.7-6.6,0.5-9.7c0.5-1.4,1.4-2.6,2.4-3.8c-2.9,1.7-6.8,1.5-8.6-1c2.8,2.6,6.5,2.2,9.4,0.1
				c1.1-0.8,2.5-2.2,3.6-3.7c2.8-3.4,4.5-7.6,3.9-11.7c-0.3-2.4-1.4-3.5-3.2-5.8c-0.5-0.6-1.1-1.5-1.8-2.6c-0.3-0.5-1-0.7-1.5-0.4
				c-1.2,0.7-2.5,1.3-4,1.7c-3.8,1-7.8,1.7-11.8,1.9c-1.3,0.1-2.5,0.5-3.5,1.3c-2.9,2.1-5.4,4.6-7.5,7.4c-3,7-1.3,15.5,1.7,22.2
				c-3.3-6.2-4.8-14-2.7-20.8C32,55,29.2,63.1,26.7,70.7c1.9-8.4,5.7-18.2,11.4-25.6c0.2-0.2,0-0.5-0.2-0.5
				c-10.1,0-11.3,10.1-22.4,7.2c2.1,0.3,4.3,0.4,6.4-0.1c2.1-0.5,3.9-1.8,5.5-3.1c3-2.8,6.9-4.5,11-4.6c0.5,0,0.9-0.2,1.2-0.5
				c1.4-1.6,3.1-3.1,4.9-4.5c0.2-0.2,0.1-0.5-0.2-0.5c-2.1-0.1-10.8-0.1-17.2-4.9c-1.4-1.1-4.1-1.2-5.6-1.1c-5,0.4-7.5,2.2-10.3,5.2
				c-1.4,1.5-2.6,3.9-3.4,5.6c1-3.6,3-6.2,5.7-8.2c-3.7,1.2-6.9-0.4-6.9-4.6c0.8,6.4,6.8,4.4,7.3,4c3.3-2.1,7.1-2.9,10.8-2.4
				c1.2,0.2-0.3-1-1.4-2.5c-1.7-2.5-3.1-5.4-4-8.3c-1.3-3.7-5.5-6.3-9.3-3.7c2.7-2.5,7.3-0.9,8.9,1.9c-0.8-3.1-1.1-7.8,0-11.2
				c-1.3,7.3,0.7,15.1,5,21c2.3,3,5.2,4.9,8.7,6.2c-4.3-4.9-3.8-16.3,1.2-19.8c-2.3,2-3.5,6-3.5,10c0,4.3,1.4,8.5,4.1,10.4
				c3,0.9,6.1,1.3,9.1,1.4c5.5,0.1,11.1-0.7,16.3-2.3c7.5-2.3,10.3-10.7,11.5-17.5c0.6-0.1,1.4-0.1,2.1-0.2c-0.6,3.5-2,8.7-4.8,13.3
				c-2.3,3.9,0.2,6.6,2.7,7.6c3.8,1.4,9.2,2.3,13.4,4.6c1.1,0.6,2.4,1.3,3,1.4c5.4,1.6,11.7,0.2,14.3-5.4c1.3-2.5,1.5-4,2.4-7.5
				c1.2-5,1.4-7.9,0.5-12.2c1.1,3.4,1.1,6,0.6,9.5c-0.1,0.4,0.1,0.3,0.3,0C107.3,25.6,108.9,23.9,112.1,23z"/>
			<path class="st28" d="M70.1,37.6c-1.5-0.5-2.8-2-3-3.9c-0.2-2,1-2.5,3.4-8.4c1.3-3.1,1.9-5.9,2.2-7.9c0.2,0,0.5,0,0.7,0
				c-0.7,3.5-2,8.7-4.8,13.3C66.7,33.9,68.2,36.3,70.1,37.6z"/>
			<path class="st28" d="M44.5,38c-0.9,0-1.4,0-3.7-0.2c-2.3-0.2-5-0.6-7.8-1.6c-2.8-0.9-5.2-2.5-6.2-3.2c-0.3-0.2-0.7-0.3-1.2-0.2
				c0.5,0.2,1,0.4,1.4,0.7c6.4,4.8,15.1,4.8,17.2,4.9c0.3,0,0.4,0.4,0.2,0.5C45,38.4,45.2,38,44.5,38z"/>
			<path class="st28" d="M63.7,34.4c-1.2,0.7-3.5,1.6-6.6,2.4c-6.3,1.6-8.8,0.8-10.8,1.7c-2.1,1-7.5,5.9-8.7,8.5
				c2.1-2.8,4.5-5.3,7.5-7.4c1-0.7,2.3-1.2,3.5-1.3c4-0.2,8-0.9,11.8-1.9c1.5-0.4,2.8-0.9,4-1.7c0.5-0.3,1.2-0.2,1.6,0.4
				C65.5,34.1,64.8,33.7,63.7,34.4z"/>
			<path class="st28" d="M84.4,43.6c-2.5-1.4-4.8-2-6.5-2.6c-1.7-0.5-5-1.3-6.2-1.7c-1.3-0.5-1.4,0.1-0.8,1
				c-0.1-0.3,0.2-0.7,0.5-0.5c4.2,1.5,14.7,2.9,17.4,8.3C88.3,46.2,86.5,44.8,84.4,43.6z"/>
			<path class="st28" d="M70.5,41.2c-0.5-1-1.7-2.5-3.3-4c0.1,0.2,0.3,0.4,0.4,0.5c1.9,2.2,2.9,3.4,3.2,5.8c0.4,3-0.4,6-1.9,8.8
				c1.4-1.9,2-4.4,2.2-6C71.5,43.9,71.1,42.4,70.5,41.2z"/>
			<g class="st17">
				<path class="st9" d="M64.9,32.8c-0.4,0.3-0.3,0.1,0-0.2c1.3-1.2,2.4-2.6,2.4-2.6S66.3,31.6,64.9,32.8z"/>
				<path class="st9" d="M64.3,33.2c0.2-0.1,0.3,0,0,0.2C63.8,33.7,64,33.3,64.3,33.2z"/>
				<path class="st9" d="M63.8,33.6c0,0.1,0,0.1-0.1,0.2C63.6,33.8,63.8,33.5,63.8,33.6z"/>
			</g>
			<path class="st31" d="M71.4,17.6c-1.2,6.8-4,15.2-11.5,17.5c-5.2,1.6-10.8,2.4-16.3,2.3c-3-0.1-6.2-0.5-9.1-1.4c0,0,0,0,0,0
				c-5.4-3.7-5.4-16.1-0.7-20.4c-5,3.4-5.4,14.9-1.2,19.8c-3.5-1.3-6.4-3.2-8.7-6.2c-4.3-5.9-6.3-13.8-5-21.1
				c-1.1,3.5-0.7,8.2,0,11.2c-1.6-2.8-6.1-4.4-8.9-1.9c3.8-2.5,8,0,9.3,3.7c0.9,2.9,2.3,5.8,4,8.3c1.1,1.5,2.6,2.7,1.4,2.5
				c-3.7-0.5-7.5,0.3-10.8,2.4c-0.6,0.3-6.5,2.4-7.3-4c0,4.2,3.2,5.7,6.9,4.6c-2.7,2.1-4.7,4.7-5.7,8.2c0.7-1.7,1.9-4,3.4-5.6
				c2.9-3,5.4-4.8,10.3-5.2c1.5-0.1,4.2,0,5.6,1.1c6.4,4.8,15.1,4.8,17.2,4.9c0.3,0,0.4,0.4,0.2,0.5c-1.8,1.4-3.4,2.9-4.9,4.5
				c-0.3,0.3-0.7,0.5-1.2,0.5c-4.1,0.1-8.1,1.8-11,4.6c-1.6,1.4-3.4,2.6-5.5,3.1c-2.1,0.5-4.3,0.4-6.4,0.1
				c11.2,2.9,12.3-7.1,22.4-7.2c0.2,0,0.4,0.3,0.2,0.5c-5.7,7.3-9.5,17.2-11.4,25.6c2.5-7.6,5.3-15.7,9.8-22.3
				c-2.1,6.8-0.6,14.6,2.7,20.8c-3-6.7-4.7-15.2-1.7-22.2c2.1-2.8,4.5-5.3,7.5-7.4c1-0.7,2.3-1.2,3.5-1.3c4-0.2,8-0.9,11.8-1.9
				c1.5-0.4,2.8-0.9,4-1.7c0.5-0.3,1.2-0.2,1.6,0.4c0.7,1.1,1.3,2,1.8,2.6c1.9,2.2,2.9,3.4,3.2,5.8c0.6,4.1-1.1,8.3-3.9,11.7
				c-1.2,1.5-2.5,2.9-3.6,3.7c-2.9,2.1-6.6,2.4-9.4-0.1c1.9,2.6,5.7,2.7,8.6,1c-1,1.1-1.9,2.4-2.4,3.8c-1.2,3.1-1.4,6.3-0.5,9.7
				c-0.6-3.2-0.3-6.7,1-9.7c1.2-3.2,4.2-4.8,6.2-7.4c4-4.3,6-10.6,4-16c-0.1-0.3,0.2-0.7,0.5-0.5c4.6,1.7,16.9,3.2,18,10
				c1.1,6.6-4,9.3-9.2,11.5c-5.8,2.4-9.6,6.8-9.2,13.3c0.2-6,3-10.1,8.3-12.4c-2.6,3.5-1.9,9.3,2,11.4c-3.6-2.6-4.3-8.2-1.3-11.6
				c3-1.3,6.7-2.8,9-5.7c0,0.5,0,1,0.1,1.5c1,5.4,8,3.2,11.6,5.5c1.6,0.8,2.8,2.3,3.5,4c-0.6-2-1.8-3.4-3.4-4.3
				c-4.6-2.6-12.1,0.2-11.3-7.7c1.7-3.4,1.1-7.2-1.6-10c7.5,1.9,14.4-1,16.3-10.6c1-4.6,2.5-9.5,7.9-11.7c-3.3,0.9-4.9,2.6-6.4,5.6
				c-0.1,0.3-0.3,0.4-0.3,0c0.5-3.5,0.5-6.1-0.6-9.5c0.9,4.4,0.7,7.2-0.5,12.2c-0.9,3.5-1.1,5-2.4,7.5c-2.6,5.6-8.8,7-14.3,5.4
				c-0.6-0.2-1.9-0.9-3-1.4c-4.2-2.3-9.6-3.2-13.4-4.6c-2.5-1-5-3.8-2.7-7.6c2.8-4.6,4.1-9.7,4.8-13.3"/>
		</g>
	</g>
</g>
</svg>
