<?xml version="1.0" encoding="utf-8"?>
<!-- Generator: Adobe Illustrator 24.0.0, SVG Export Plug-In . SVG Version: 6.00 Build 0)  -->
<svg version="1.1" id="图层_1" xmlns="http://www.w3.org/2000/svg" xmlns:xlink="http://www.w3.org/1999/xlink" x="0px" y="0px"
	 viewBox="0 0 165.3 104" style="enable-background:new 0 0 165.3 104;" xml:space="preserve">
<style type="text/css">
	.st0{fill:#3F220F;}
	.st1{fill:#E8C696;}
	.st2{opacity:0.5;fill:#AA7E52;}
	.st3{fill:url(#SVGID_1_);}
	.st4{fill:none;stroke:#3F220F;stroke-width:0.2;stroke-linecap:round;stroke-linejoin:round;stroke-miterlimit:10;}
	.st5{fill:url(#SVGID_2_);}
	.st6{fill:#FFFFFF;}
	.st7{fill:none;}
	.st8{fill:url(#SVGID_3_);}
	.st9{fill:url(#SVGID_4_);}
	.st10{fill:url(#SVGID_5_);}
	.st11{fill:url(#SVGID_6_);}
	.st12{fill:url(#SVGID_7_);}
	.st13{fill:url(#SVGID_8_);}
	.st14{fill:url(#SVGID_9_);}
	.st15{fill:url(#SVGID_10_);}
	.st16{fill:url(#SVGID_11_);}
	.st17{fill:url(#SVGID_12_);}
	.st18{fill:url(#SVGID_13_);}
	.st19{fill:url(#SVGID_14_);}
	.st20{fill:url(#SVGID_15_);}
	.st21{fill:url(#SVGID_16_);}
	.st22{fill:url(#SVGID_17_);}
	.st23{fill:url(#SVGID_18_);}
	.st24{fill:url(#SVGID_19_);}
	.st25{fill:url(#SVGID_20_);}
	.st26{fill:url(#SVGID_21_);}
	.st27{fill:url(#SVGID_22_);}
	.st28{fill:url(#SVGID_23_);}
	.st29{fill:url(#SVGID_24_);}
	.st30{fill:url(#SVGID_25_);}
	.st31{fill:url(#SVGID_26_);}
	.st32{fill:url(#SVGID_27_);}
	.st33{fill:url(#SVGID_28_);}
</style>
<g id="胰脏后面观">
	<g id="外描边">
		<path class="st0" d="M28.9,16.1c0.2,0,0.4,0,0.6,0c2.1,0.2,3.5,1.2,4.8,2.8c2.3,0.1,4,0.8,5.9,2.3c0,0,0.1,0,0.1,0
			c1.2,0,2.1,0.3,3.2,0.9c2.5,0,4.7,0.6,6.9,1.8c0.4-0.1,0.8-0.1,1.2-0.1c1.6,0,3,0.4,4.5,1.3c1.1-0.2,2.2-0.4,3.2-0.4
			c0.8,0,1.7,0.1,2.6,0.3c1-0.4,2-0.5,2.9-0.5c1.1,0,2.2,0.2,3.4,0.7c0.4-0.1,0.7-0.1,1.1-0.1c1.1,0,2,0.3,3,1
			c0.9-0.3,1.8-0.4,2.6-0.4c1.3,0,2.5,0.4,3.8,1.2c0.9-0.3,1.8-0.4,2.7-0.4c1.5,0,3,0.5,4.4,1.7c0.8-0.3,1.6-0.5,2.3-0.5
			c1.2,0,2.3,0.4,3.5,1.1c0.7-0.5,1.5-0.6,2.3-0.6c1.4,0,2.8,0.5,3.8,1c1.6-0.5,3.2-0.9,4.8-0.9c0.6,0,1.1,0,1.7,0.1
			c1.3-0.8,2.5-1.2,3.8-1.2c0.9,0,1.9,0.2,3,0.5c1.1-0.3,2.1-0.4,3-0.4c1.2,0,2.4,0.3,3.7,0.9c0.2,0,0.5,0,0.7,0
			c2.7,0,4.7,0.7,6.8,2.6c1.7,0.4,2.8,1.2,3.8,2.6c1.9,0.9,3.2,2,4.2,3.9c2.4,2.5,3.3,4.9,3.6,8.3c0.6,1.3,0.8,2.6,1.1,4
			c0.4,1.7,0.6,3.2,0.2,4.9c0.1,0.8,0.5,1.5,0.3,2.4c-0.1,0.8-0.7,1.4-1.3,2c0.3,1.5,0.1,2.7-0.6,4c-0.1,1.8-0.6,3.1-1.6,4.6
			c-0.6,2.5-1.6,3.7-4,4.6c-1.9,2.1-3.7,2.9-6.1,2.9c-0.5,0-1.1,0-1.7-0.1c-1.4,1.5-2.9,2.2-4.9,2.5c-0.9,0.4-1.7,0.5-2.6,0.5
			c-0.6,0-1.3-0.1-2-0.3c-1.8,0.6-3.4,0.9-5.2,0.9c-0.7,0-1.3,0-2-0.1c-0.7,0.1-1.4,0.4-2.1,0.4c-0.3,0-0.5,0-0.8-0.1
			c-1-0.3-1.8-1.1-2.5-1.8c-0.4,0-0.8,0.1-1.2,0.1c-1.6,0-3-0.4-4.5-1.2c-1-0.1-1.8-0.3-2.3-1.3c-0.5-0.9-0.4-2-0.5-3
			c-0.9-1.4-1.3-2.7-1-4.4c0.4-2.3,1.4-3.3,3.5-4.1c1-1.2,2.1-2,3.6-2.6c-0.3-1.2-0.3-2.3-0.2-3.4c-0.6,0-1.1,0.2-1.7,0.2
			c-0.2,0-0.5,0-0.7-0.1c-0.8-0.2-1.2-0.9-1.4-1.7c-0.7,0.4-1.4,1-2.3,1c0,0-0.1,0-0.1,0c-0.9-0.1-1.6-0.6-2.3-1.1
			c-0.7,0.1-1.4,0.2-2.1,0.2c-1,0-1.9-0.2-2.9-0.5c-0.8,0.3-1.4,0.4-2.1,0.4c-0.6,0-1.3-0.1-2-0.3c-0.1,0-0.3,0-0.4,0
			c-2.4,0-4.4-0.6-6.5-2c-0.9,0.2-1.7,0.3-2.5,0.3c-1.2,0-2.4-0.3-3.7-0.8c-0.2,0-0.3,0-0.5,0c-1.9,0-3.6-0.3-5.5-1.1
			c-1.3-0.2-2.5-0.4-3.6-1.1c-1.1-0.7-1.7-1.7-2.4-2.7c-0.2,0-0.3,0-0.5,0c-1.1,0-2-0.3-3.1-0.8c-3-0.8-5.2-2.2-7.2-4.5
			c-2.3-0.7-4.2-1.6-6-3.3c-1.9-0.3-3.2-1-4.3-2.6c-3.1-1.2-5-2.7-6.3-5.8c-1.2-1.9-1.7-3.7-1.8-6c-1.2-1.7-1.7-3-1.1-5.1
			C26,17.4,26.8,16.1,28.9,16.1 M28.9,15.6L28.9,15.6c-2.8,0-3.5,2-3.8,3.8c-0.7,2.2-0.1,3.6,1,5.4c0.1,2.3,0.6,4.1,1.8,6
			c1.3,3.1,3.1,4.8,6.4,6c1.2,1.5,2.5,2.3,4.4,2.6c1.7,1.5,3.6,2.5,6,3.2c2.1,2.4,4.3,3.7,7.3,4.6c1.1,0.6,2.1,0.8,3.3,0.8
			c0.1,0,0.2,0,0.2,0c0,0.1,0.1,0.1,0.1,0.2c0.6,0.9,1.2,1.8,2.2,2.4c1.1,0.7,2.3,0.9,3.5,1.1l0.2,0c1.8,0.8,3.6,1.1,5.6,1.1
			c0.1,0,0.3,0,0.4,0c1.3,0.6,2.6,0.8,3.8,0.8c0.7,0,1.5-0.1,2.4-0.3c2.1,1.3,4,1.9,6.6,1.9c0.1,0,0.2,0,0.3,0
			c0.7,0.2,1.4,0.3,2.1,0.3c0.7,0,1.4-0.1,2.1-0.4c1,0.3,2,0.4,2.9,0.4c0.6,0,1.3-0.1,2-0.2c0.1,0.1,0.2,0.1,0.3,0.2
			c0.6,0.4,1.2,0.9,2.1,0.9c0,0,0.1,0,0.1,0c0.8,0,1.4-0.3,2-0.7c0.2,0.6,0.7,1.2,1.5,1.4c0.3,0.1,0.5,0.1,0.8,0.1
			c0.3,0,0.6,0,1-0.1c0.1,0,0.1,0,0.2,0c-0.1,0.9,0,1.7,0.2,2.6c-1.3,0.6-2.4,1.4-3.3,2.5c-2,0.8-3.3,1.8-3.7,4.4
			c-0.3,1.7,0,3.1,1,4.6c0,0.3,0,0.5,0.1,0.8c0,0.8,0.1,1.6,0.5,2.3c0.6,1.1,1.6,1.4,2.6,1.5c1.6,0.9,3,1.2,4.7,1.2c0.3,0,0.7,0,1,0
			l0.1,0c0.7,0.7,1.5,1.4,2.5,1.7c0.3,0.1,0.6,0.1,1,0.1c0.6,0,1.1-0.1,1.6-0.2c0.2,0,0.3-0.1,0.5-0.1c0.7,0.1,1.4,0.1,2,0.1
			c1.8,0,3.4-0.3,5.2-0.8c0.7,0.2,1.4,0.3,2,0.3c0.9,0,1.7-0.2,2.7-0.5c2.1-0.3,3.5-1,5-2.5c0.6,0.1,1.1,0.1,1.6,0.1
			c2.6,0,4.5-0.9,6.4-3c2.4-1,3.5-2.3,4.1-4.8c1.1-1.5,1.6-2.9,1.7-4.7c0.6-1.3,0.8-2.5,0.6-4c0.6-0.6,1.1-1.1,1.3-2
			c0.1-0.7,0-1.3-0.2-1.9c0-0.2-0.1-0.4-0.1-0.6c0.3-1.7,0.1-3.2-0.2-5c-0.1-0.2-0.1-0.5-0.1-0.7c-0.2-1.1-0.4-2.2-0.9-3.3
			c-0.3-3.6-1.4-6-3.7-8.4c-1-1.9-2.3-3.1-4.3-4c-1-1.4-2.2-2.2-3.9-2.7c-2.1-1.9-4.2-2.7-7-2.7c-0.2,0-0.4,0-0.6,0
			c-1.4-0.6-2.6-0.9-3.8-0.9c-0.9,0-1.8,0.1-3,0.4c-1.1-0.3-2.1-0.5-3-0.5c-1.4,0-2.7,0.4-4,1.2c-0.5-0.1-1.1-0.1-1.6-0.1
			c-1.5,0-2.9,0.3-4.8,0.8c-1-0.5-2.4-1-3.9-1c-0.9,0-1.6,0.2-2.3,0.6c-1.3-0.7-2.4-1-3.5-1c-0.7,0-1.4,0.1-2.2,0.4
			C84.5,26.5,83,26,81.4,26c-0.8,0-1.7,0.1-2.6,0.4c-1.4-0.8-2.6-1.1-3.9-1.1c-0.7,0-1.6,0.1-2.5,0.4c-1-0.7-2-1-3.1-1
			c-0.3,0-0.7,0-1,0.1C67,24.2,65.9,24,64.8,24c-0.9,0-1.9,0.2-2.9,0.5c-0.8-0.2-1.7-0.3-2.6-0.3c-1,0-2,0.1-3.1,0.3
			c-1.6-0.9-3-1.3-4.6-1.3c-0.4,0-0.7,0-1.1,0.1c-2.2-1.2-4.4-1.7-6.9-1.8c-1.1-0.6-2.1-0.9-3.3-0.9c-1.8-1.4-3.5-2.1-5.8-2.3
			c-1.2-1.3-2.6-2.6-5-2.8C29.3,15.6,29.1,15.6,28.9,15.6L28.9,15.6z"/>
	</g>
	<g id="胰尾">
		<path class="st1" d="M43.5,22.1C43.5,22.1,43.5,22.1,43.5,22.1C43.5,22.1,43.5,22.1,43.5,22.1c-1.1-0.6-2.1-0.9-3.4-0.9
			c-1.8-1.5-3.5-2.2-5.9-2.3c-1.4-1.6-2.7-2.6-4.8-2.8c-2.5-0.2-3.5,1-3.9,3.4c-0.6,2.1-0.1,3.4,1.1,5.1c0.1,2.2,0.6,4.1,1.8,6
			c1.3,3.1,3.1,4.7,6.3,5.8c0,0,0,0,0,0C40.1,33.2,43.6,25.9,43.5,22.1z"/>
		<path class="st2" d="M35.9,34.2c0.4-0.5,1.2-0.4,1.8-0.1c0.3-0.3,0.5-0.6,0.8-0.8c-1.2-0.7-2.5-0.6-3.8-0.5
			c-1.8,0.1-1.9-1.6-0.7-1.3c1.3,0.2,1.6-1-0.4-0.9c-2,0.1-4.6-0.4-5.4-3.3s0.9-2.8-0.6-3.7c-1.1-0.7-1.7-1.1-2.3-2.7
			c-0.2,1.4,0.3,2.6,1.3,3.9c0.1,2.2,0.6,4.1,1.8,6c1.3,3.1,3.1,4.7,6.3,5.8c0,0,0,0,0,0c0.5-0.3,1-0.7,1.5-1.1
			C35.9,34.9,35.7,34.5,35.9,34.2z"/>
		<linearGradient id="SVGID_1_" gradientUnits="userSpaceOnUse" x1="27.0622" y1="22.9563" x2="43.1545" y2="22.9563">
			<stop  offset="0" style="stop-color:#FFFFFF;stop-opacity:0.5"/>
			<stop  offset="1" style="stop-color:#FFFFFF;stop-opacity:0"/>
		</linearGradient>
		<path class="st3" d="M31.7,18.3c0.4,0.4,0.7,1,1.2,1.4c1.2,0.9,3,0.4,4.4,1.1c1.1,0.6,1.7,2,2.9,2.2c0.5,0.1,1-0.1,1.5-0.1
			s1.1,0.1,1.4,0.5c0.4,0.6-0.1,1.4-0.7,1.7c-0.7,0.3-1.4,0.1-2.1,0c-0.3-0.1-0.5-0.1-0.8-0.1c-0.3,0.1-0.5,0.3-0.5,0.6
			c0,0.5,0.7,0.6,1.1,0.8c0.5,0.2,0.8,0.8,0.7,1.4c-0.1,0.5-0.6,1-1.1,1c-0.6,0.1-1.1-0.3-1.5-0.6c-0.4-0.4-0.8-0.8-1.3-1
			c-1.3-0.6-3,0.2-4.1-0.8c-0.7-0.7-0.6-2,0.3-2.5c0.6-0.3,1.4-0.4,1.6-1c0.1-0.3-0.1-0.7-0.4-1c-0.3-0.2-0.7-0.3-1-0.2
			c-0.5,0-1,0.2-1.4,0.3s-1,0-1.4-0.3c-0.4-0.4-0.3-1-0.7-1.4c-0.3-0.3-0.8-0.4-1.2-0.5c-1.2-0.2-2-1.5-0.6-2.1
			C29.1,16.9,30.7,17.3,31.7,18.3z"/>
		<path class="st4" d="M43.5,22.1C43.5,22.1,43.5,22.1,43.5,22.1C43.5,22.1,43.5,22.1,43.5,22.1c-1.1-0.6-2.1-0.9-3.4-0.9
			c-1.8-1.5-3.5-2.2-5.9-2.3c-1.4-1.6-2.7-2.6-4.8-2.8c-2.5-0.2-3.5,1-3.9,3.4c-0.6,2.1-0.1,3.4,1.1,5.1c0.1,2.2,0.6,4.1,1.8,6
			c1.3,3.1,3.1,4.7,6.3,5.8c0,0,0,0,0,0c0,0,0,0,0,0"/>
		
			<linearGradient id="SVGID_2_" gradientUnits="userSpaceOnUse" x1="-258.4945" y1="172.5479" x2="-258.2119" y2="174.1087" gradientTransform="matrix(0.8845 0.4666 -0.4666 0.8845 351.7527 -6.2471)">
			<stop  offset="0" style="stop-color:#FFFFFF;stop-opacity:0.5"/>
			<stop  offset="1" style="stop-color:#FFFFFF;stop-opacity:0"/>
		</linearGradient>
		<path class="st5" d="M42.2,26.5c-0.2,0.2-0.3,0.7-0.1,0.9c0.2-0.4,0.3-0.8,0.5-1.2C42.5,26.4,42.3,26.4,42.2,26.5z"/>
		<g>
			<path class="st6" d="M29.7,17.6c-0.3-0.1-0.2,0.1,0.1,0.1c0.7,0,1.4,0.5,1.4,0.5S30.5,17.7,29.7,17.6z"/>
			<path class="st6" d="M29.2,17.6c0.2,0,0.2-0.1,0-0.1C28.8,17.5,28.9,17.7,29.2,17.6z"/>
			<path class="st6" d="M28.9,17.5c0,0-0.1,0-0.1,0.1C28.6,17.7,28.9,17.6,28.9,17.5z"/>
		</g>
		<g>
			<path class="st6" d="M35.9,20.8c-0.3-0.1-0.2,0.1,0.1,0.1c0.7,0,1.4,0.5,1.4,0.5S36.7,20.9,35.9,20.8z"/>
			<path class="st6" d="M35.4,20.8c0.2,0,0.2-0.1,0-0.1C35,20.7,35.2,20.9,35.4,20.8z"/>
			<path class="st6" d="M35.1,20.7c0,0-0.1,0-0.1,0.1C34.8,20.9,35.1,20.8,35.1,20.7z"/>
		</g>
	</g>
	<g id="钩突">
		<path class="st1" d="M98.7,60.3C98.7,60.3,98.7,60.3,98.7,60.3c-1.5,0.6-2.6,1.4-3.6,2.6c-2.1,0.8-3.2,1.8-3.5,4.1
			c-0.3,1.7,0.1,3,1,4.4c0.1,1,0,2.1,0.5,3c0.5,0.9,1.3,1.1,2.3,1.3c1.9,1,3.6,1.4,5.7,1.2c0,0,0,0,0,0
			C102.8,71.7,101.1,62.3,98.7,60.3z"/>
		<path class="st7" d="M93.3,66.8c-0.7,2.1,1.1,5,4.7,4.8c1.7-0.1,2.8,0.6,3.8,1.2c0.1-3.4-0.5-7.1-1.4-9.7c-0.9,0.2-2-0.1-2.6,0.6
			C95.6,66.3,94.1,64.3,93.3,66.8z"/>
		<path class="st2" d="M98,71.6c-3.6,0.2-5.4-2.7-4.7-4.8c0.8-2.5,2.3-0.5,4.5-3.1c0.6-0.7,1.6-0.5,2.6-0.6c-0.5-1.3-1-2.2-1.7-2.7
			c0,0,0,0,0,0c-1.5,0.6-2.6,1.4-3.6,2.6c-2.1,0.8-3.2,1.8-3.5,4.1c-0.3,1.7,0.1,3,1,4.4c0.1,1,0,2.1,0.5,3c0.5,0.9,1.3,1.1,2.3,1.3
			c1.9,1,3.6,1.4,5.7,1.2c0,0,0,0,0,0c0.4-1.2,0.6-2.6,0.6-4.1C100.8,72.2,99.6,71.5,98,71.6z"/>
		<path class="st4" d="M98.7,60.3C98.7,60.3,98.7,60.3,98.7,60.3c-1.5,0.6-2.6,1.4-3.6,2.6c-2.1,0.8-3.2,1.8-3.5,4.1
			c-0.3,1.7,0.1,3,1,4.4c0.1,1,0,2.1,0.5,3c0.5,0.9,1.3,1.1,2.3,1.3c1.9,1,3.6,1.4,5.7,1.2c0,0,0,0,0,0"/>
		
			<linearGradient id="SVGID_3_" gradientUnits="userSpaceOnUse" x1="-128.7416" y1="138.4901" x2="-128.4112" y2="140.3145" gradientTransform="matrix(0.9314 0.3641 -0.3641 0.9314 270.3269 -18.3499)">
			<stop  offset="0" style="stop-color:#FFFFFF;stop-opacity:0.5"/>
			<stop  offset="1" style="stop-color:#FFFFFF;stop-opacity:0"/>
		</linearGradient>
		<path class="st8" d="M99.8,63.9c-0.4,0.1-1,0.2-1.3,0.6c-0.3,0.4-0.3,1,0.2,1.2c0.4,0.1,0.8-0.2,1.2-0.3c0.4-0.1,0.8,0,1.2,0.2
			c-0.1-0.6-0.3-1.2-0.5-1.7C100.3,63.8,100.1,63.8,99.8,63.9z"/>
		<path class="st2" d="M98.6,60.3c-1.5,0.6-2.6,1.4-3.6,2.6c-1.6,0.6-2.5,1.2-3.1,2.4c1.1-0.7,2.3-1.1,3.1-1.2
			c1.7-0.2,1.1-1.8,3.6-2.4c0.4-0.1,0.7-0.2,0.9-0.2C99.4,61,99,60.6,98.6,60.3C98.7,60.3,98.7,60.3,98.6,60.3z"/>
		
			<linearGradient id="SVGID_4_" gradientUnits="userSpaceOnUse" x1="-131.2752" y1="141.4331" x2="-130.9448" y2="143.2575" gradientTransform="matrix(0.9314 0.3641 -0.3641 0.9314 270.3269 -18.3499)">
			<stop  offset="0" style="stop-color:#FFFFFF;stop-opacity:0.5"/>
			<stop  offset="1" style="stop-color:#FFFFFF;stop-opacity:0"/>
		</linearGradient>
		<path class="st9" d="M98.1,66.1c0.3,0.3,0.6,0.7,0.5,1.1c0,0.2-0.2,0.4-0.4,0.5c-0.2,0-0.3,0-0.5-0.1c-0.7-0.3-1.4-0.8-2.1-0.6
			c-0.4,0.1-0.8,0.4-1.2,0.3c-0.5-0.2-0.5-0.8-0.2-1.2c0.3-0.4,0.9-0.5,1.3-0.6C96.3,65.4,97.5,65.6,98.1,66.1z"/>
	</g>
	<g id="胰颈">
		<path class="st1" d="M106.1,27.7C106.1,27.7,106.1,27.6,106.1,27.7c-0.6,0.2-1.2,0.5-1.8,0.8c-2.3-0.3-4.3,0-6.6,0.7
			c-1.7-0.8-4.2-1.6-6.1-0.4c0,0,0,0,0,0c3.6,9,1.3,21-1.6,26.3c0.7,0.5,1.4,1,2.3,1.1c0.9,0.1,1.6-0.5,2.4-1
			c0.2,0.8,0.5,1.5,1.4,1.7c0.8,0.2,1.6-0.1,2.4-0.1c0,0,0,0,0,0c0,0,0,0,0,0C108.3,51.4,109.4,37.5,106.1,27.7z"/>
		<path class="st2" d="M105.2,49.8c-1.8,1.2-4.4,1.8-6.1,1.5c-2.7-0.4-3.2-3.4-3.8-1.5c-0.3,1.2-1.6,0.6-3.2,0.1
			c-0.6,2.1-1.3,3.9-2,5.2c0.7,0.5,1.4,1,2.3,1.1c0.9,0.1,1.6-0.5,2.4-1c0.2,0.8,0.5,1.5,1.4,1.7c0.8,0.2,1.6-0.1,2.4-0.1
			c0,0,0,0,0,0c0,0,0,0,0,0C101.5,55.2,103.7,52.7,105.2,49.8z"/>
		<path class="st2" d="M95.7,47.3c0.1-0.8,0.7-1.7,1.2-2c0.8-0.6,0.8-0.7,0-0.5c-0.9,0.2-1.9-0.1-2.6-0.4c-0.7-0.3-0.8-0.1-0.2,0.4
			s1.2,1.7,1.3,2.3C95.3,47.8,95.6,47.7,95.7,47.3z"/>
		
			<linearGradient id="SVGID_5_" gradientUnits="userSpaceOnUse" x1="-74.3815" y1="74.4204" x2="-73.8991" y2="77.0842" gradientTransform="matrix(0.9663 0.2575 -0.2575 0.9663 188.188 -17.4361)">
			<stop  offset="0" style="stop-color:#FFFFFF;stop-opacity:0.5"/>
			<stop  offset="1" style="stop-color:#FFFFFF;stop-opacity:0"/>
		</linearGradient>
		<path class="st10" d="M99.5,35.9c0.5,0.3,0.9,0.9,0.9,1.5c0,0.3-0.2,0.7-0.5,0.8c-0.2,0.1-0.5,0-0.7,0c-1-0.3-2.1-0.9-3.2-0.5
			c-0.6,0.2-1.1,0.7-1.7,0.6c-0.8-0.2-0.9-1.1-0.5-1.7c0.4-0.6,1.2-0.9,1.8-1.1C96.8,35,98.5,35.2,99.5,35.9z"/>
		
			<linearGradient id="SVGID_6_" gradientUnits="userSpaceOnUse" x1="32.7347" y1="24.526" x2="33.4273" y2="28.3503" gradientTransform="matrix(0.9954 9.606814e-02 -9.606814e-02 0.9954 70.6372 1.8956)">
			<stop  offset="0" style="stop-color:#FFFFFF;stop-opacity:0.5"/>
			<stop  offset="1" style="stop-color:#FFFFFF;stop-opacity:0"/>
		</linearGradient>
		<path class="st11" d="M104.4,29.7c0.8,0.3,1.5,1.1,1.6,2c0,0.5-0.1,1-0.6,1.2c-0.3,0.2-0.7,0.1-1,0.1c-1.6-0.2-3.2-0.8-4.6,0
			c-0.8,0.4-1.4,1.3-2.3,1.2c-1.1-0.1-1.5-1.4-1.1-2.3c0.4-0.9,1.5-1.6,2.3-2C100.2,29.1,102.8,29,104.4,29.7z"/>
		<path class="st4" d="M106.1,27.7C106.1,27.7,106.1,27.7,106.1,27.7c-0.6,0.2-1.2,0.5-1.8,0.8c-2.3-0.3-4.3,0-6.6,0.7
			c-1.7-0.8-4.2-1.6-6.1-0.4c0,0,0,0,0,0"/>
		<path class="st4" d="M90,55.2c0.7,0.5,1.4,1,2.3,1.1c0.9,0.1,1.6-0.5,2.4-1c0.2,0.8,0.5,1.5,1.4,1.7c0.8,0.2,1.6-0.1,2.4-0.1
			c0,0,0,0,0,0c0,0,0,0,0,0"/>
		
			<linearGradient id="SVGID_7_" gradientUnits="userSpaceOnUse" x1="-146.5902" y1="110.3953" x2="-146.0168" y2="113.5615" gradientTransform="matrix(0.9314 0.3641 -0.3641 0.9314 270.3269 -18.3499)">
			<stop  offset="0" style="stop-color:#FFFFFF;stop-opacity:0.5"/>
			<stop  offset="1" style="stop-color:#FFFFFF;stop-opacity:0"/>
		</linearGradient>
		<path class="st12" d="M93.7,34.3c0.4-0.1,0.7-0.5,0.7-0.9c0.1-0.7-0.3-1.5-0.8-1.9c-0.4-0.3-0.8-0.5-1.3-0.7
			c0.3,1.1,0.6,2.3,0.8,3.5C93.3,34.3,93.5,34.4,93.7,34.3z"/>
		
			<linearGradient id="SVGID_8_" gradientUnits="userSpaceOnUse" x1="88.2853" y1="37.0262" x2="88.5564" y2="40.7968" gradientTransform="matrix(0.9997 2.536011e-02 -2.536011e-02 0.9997 16.2464 2.0776)">
			<stop  offset="0" style="stop-color:#FFFFFF;stop-opacity:0.5"/>
			<stop  offset="1" style="stop-color:#FFFFFF;stop-opacity:0"/>
		</linearGradient>
		<path class="st13" d="M106.8,41.4c-0.5,0.2-1.1,0.5-1.6,0.4c-0.5-0.1-0.9-0.4-1.3-0.6c-0.6-0.3-1.3-0.2-2,0
			c-0.7,0.2-3.1,1.1-2,2.3c0.5,0.5,1.3,0.3,1.9,0.1c0.6-0.2,1.4-0.4,2,0c0.6,0.4,0.7,1.5,1.4,1.6c0.5,0.1,0.8-0.3,1.1-0.7
			c0.2-0.4,0.4-0.9,0.7-1.1c0.1-0.1,0.2-0.1,0.3-0.2c0.1-0.7,0.2-1.4,0.3-2.1C107.3,41.2,107,41.3,106.8,41.4z"/>
		<path class="st2" d="M102,54.2c-1.2,0.7-2.5,0.9-4.2-0.1c-1.5-0.8-1.9-1.3-4.2-0.4c-1.2,0.5-2.2,0.4-2.8,0c-0.2,0.5-0.4,1-0.7,1.4
			c0.7,0.5,1.4,1,2.3,1.1c0.9,0.1,1.6-0.5,2.4-1c0.2,0.8,0.5,1.5,1.4,1.7c0.8,0.2,1.6-0.1,2.4-0.1c0,0,0,0,0,0c0,0,0,0,0,0
			C99.8,56.2,101,55.3,102,54.2z"/>
		<g>
			<path class="st6" d="M99.8,30.3c-0.4,0.1-0.1,0.3,0.2,0.1c0.7-0.4,1.7-0.3,1.7-0.3S100.7,29.9,99.8,30.3z"/>
			<path class="st6" d="M99.3,30.6c0.2-0.2,0.2-0.2-0.1-0.1C98.7,30.7,99.1,30.8,99.3,30.6z"/>
			<path class="st6" d="M98.9,30.7c-0.1,0-0.1,0-0.1,0.1C98.7,31,98.9,30.7,98.9,30.7z"/>
		</g>
	</g>
	<g id="胰体">
		<path class="st1" d="M91.6,28.9C91.6,28.9,91.6,28.8,91.6,28.9C91.6,28.8,91.6,28.8,91.6,28.9c-2-1.2-3.7-1.5-5.8-0.6
			c-2.3-2-4.6-2-7.1-1.3c-2.2-1.3-4-1.5-6.4-0.8c-1.3-0.9-2.4-1.2-4-0.9c-2.2-0.8-4.1-1-6.3-0.2c-2-0.5-3.8-0.3-5.8,0.1
			c-1.9-1.1-3.5-1.5-5.7-1.2c-2.2-1.2-4.4-1.8-6.9-1.8c0,0,0,0,0,0c0.1,3.8-3.4,11.1-8.8,14.3c1.2,1.5,2.4,2.2,4.3,2.5
			c1.8,1.6,3.7,2.6,6,3.3c2.1,2.3,4.2,3.7,7.2,4.5c1.2,0.6,2.2,0.9,3.6,0.8c0.7,1,1.3,2,2.4,2.7c1.1,0.7,2.4,0.8,3.6,1.1
			c2,0.9,3.8,1.2,6,1.1c2.1,0.9,3.9,1.1,6.2,0.5c2.2,1.5,4.2,2,6.8,2c1.5,0.5,2.7,0.5,4.1-0.1c1.7,0.5,3.3,0.6,5.1,0.3c0,0,0,0,0,0
			C93,49.9,95.3,37.8,91.6,28.9z"/>
		<path class="st7" d="M79.6,47.2c-0.3-0.1-0.7-0.2-1.1-0.2c-0.4,0-0.7,0.2-0.9,0.5c-0.3,0.4-0.4,1.5-0.2,1.9
			c0.3,0.6,1.3,0.6,1.8,0.6c0.5-0.1,1.1-0.2,1.4-0.7c0.2-0.4,0.2-0.9-0.1-1.2C80.4,47.7,80,47.4,79.6,47.2z"/>
		<path class="st7" d="M54,42c-0.9-0.4-1.8-0.9-2.6-1.3c-0.3-0.1-0.6-0.3-0.9-0.3c-0.3-0.1-0.7,0-0.9,0.2c-0.7,0.6,0.2,2.1,0.7,2.6
			c0.9,0.8,2.6,1,3.7,0.8c0.4-0.1,0.8-0.3,0.9-0.6c0.1-0.3,0-0.6-0.2-0.8C54.5,42.3,54.3,42.2,54,42z"/>
		<path class="st7" d="M69.3,46.4c-0.5-0.4-1.1-0.5-1.6-0.8c-0.6-0.4-1.1-0.9-1.7-1.3c-1.4-0.9-3.2,0.4-2.3,2c0.7,1.3,2.9,1.8,4.2,2
			c0.6,0.1,1.4,0.2,1.7-0.3C70.1,47.4,69.8,46.7,69.3,46.4z"/>
		<path class="st7" d="M36.3,35.3c0.5,0.6,1.3,1.1,1.5,1.4c0.4,0.3,0.7,0.7,1.1,0.9c0.4,0.3,0.9,0.4,1.4,0.3c0.3,0,0.6-0.2,0.6-0.5
			c0-0.3-0.2-0.5-0.4-0.6c-0.4-0.3-0.9-0.5-1.2-0.8c-0.5-0.4-0.6-1.1-1-1.6c-0.1-0.2-0.4-0.3-0.7-0.5C37.2,34.5,36.8,34.9,36.3,35.3
			z"/>
		<path class="st2" d="M88.8,49.6c-3.2,0.7-5.7-0.3-6.8-1.8c-1.2-1.5,0.7-2.7-0.8-2.2s-2.8,0.9-4.2-0.3c-1.5-1.2-2.6-0.9-0.6,0.5
			c2.1,1.4-1.8,3.1-4.9,0.8s-6.2-3.6-8-3.1s-2.1-2.1-4.2-1c-2.1,1-4.2-1.2-7.6-2.5c-3.3-1.3-3.7-2.7-3.7-4.1c0-1.4-0.9-1.8-0.8-0.3
			c0.2,1.5-0.3,1.4-3,1.5c-2.7,0.1-3-0.7-4.5-2.7c-0.4-0.5-0.8-0.9-1.3-1.2c-0.3,0.3-0.5,0.6-0.8,0.8c0.3,0.1,0.6,0.3,0.7,0.5
			c0.4,0.5,0.6,1.1,1,1.6c0.3,0.3,0.8,0.5,1.2,0.8c0.2,0.2,0.4,0.4,0.4,0.6c0,0.3-0.3,0.4-0.6,0.5c-0.5,0.1-1-0.1-1.4-0.3
			c-0.4-0.3-0.8-0.6-1.1-0.9c-0.3-0.2-1-0.8-1.5-1.4c-0.5,0.4-1,0.8-1.5,1.1c1.2,1.5,2.4,2.2,4.3,2.5c1.8,1.6,3.7,2.6,6,3.3
			c2.1,2.3,4.2,3.7,7.2,4.5c1.2,0.6,2.2,0.9,3.6,0.8c0.7,1,1.3,2,2.4,2.7c1.1,0.7,2.4,0.8,3.6,1.1c2,0.9,3.8,1.2,6,1.1
			c2.1,0.9,3.9,1.1,6.2,0.5c2.2,1.5,4.2,2,6.8,2c1.5,0.5,2.7,0.5,4.1-0.1c1.7,0.5,3.3,0.6,5.1,0.3c0,0,0,0,0,0
			c0.8-1.4,1.5-3.2,2-5.2C91.1,49.6,90,49.4,88.8,49.6z M54.9,43.3c-0.1,0.4-0.5,0.5-0.9,0.6c-1.2,0.2-2.8,0.1-3.7-0.8
			c-0.6-0.5-1.4-1.9-0.7-2.6c0.2-0.2,0.6-0.3,0.9-0.2c0.3,0.1,0.6,0.2,0.9,0.3c0.9,0.4,1.8,0.9,2.6,1.3c0.3,0.1,0.5,0.3,0.7,0.5
			C54.9,42.7,55,43,54.9,43.3z M69.7,47.9c-0.4,0.5-1.1,0.5-1.7,0.3c-1.3-0.3-3.5-0.8-4.2-2c-0.9-1.6,0.8-2.9,2.3-2
			c0.6,0.4,1.1,0.9,1.7,1.3c0.5,0.3,1.1,0.5,1.6,0.8C69.8,46.7,70.1,47.4,69.7,47.9z M80.6,49.3c-0.3,0.5-0.9,0.7-1.4,0.7
			c-0.5,0-1.5,0-1.8-0.6c-0.2-0.4-0.1-1.5,0.2-1.9c0.2-0.3,0.6-0.5,0.9-0.5c0.4,0,0.7,0,1.1,0.2c0.4,0.2,0.8,0.4,1,0.8
			C80.8,48.4,80.8,48.9,80.6,49.3z"/>
		<path class="st2" d="M69.3,42.8c0.5-0.6,1.3-1.4,1.4-2.1c0.1-0.7,0.3-0.9,0.4-0.1c0.2,0.7,0.6,1.4,1.2,1.8s0.2,0.4-0.3,0.2
			c-0.5-0.2-1.7-0.1-2,0.2C69.7,43,68.8,43.4,69.3,42.8z"/>
		
			<linearGradient id="SVGID_9_" gradientUnits="userSpaceOnUse" x1="-42.9562" y1="60.2538" x2="-42.6095" y2="65.0764" gradientTransform="matrix(0.9836 0.1805 -0.1805 0.9836 130.5025 -24.0198)">
			<stop  offset="0" style="stop-color:#FFFFFF;stop-opacity:0.5"/>
			<stop  offset="1" style="stop-color:#FFFFFF;stop-opacity:0"/>
		</linearGradient>
		<path class="st14" d="M74.1,26.8c0.9-0.1,1.8,0,2.5,0.4c0.5,0.3,1,0.8,1.6,1.1c0.7,0.2,1.4,0.1,2.1-0.2c0.7-0.2,1.4-0.5,2.1-0.3
			s1.3,0.9,1.1,1.6c-0.2,0.6-0.9,0.8-1.5,0.9c-0.6,0.1-1.3,0-1.8,0.3c-0.5,0.3-0.8,0.8-1.2,1.3c-0.4,0.5-0.9,0.9-1.5,0.7
			c-0.9-0.3-0.8-1.6-1.5-2.3c-0.6-0.6-1.6-0.5-2.5-0.3c-0.9,0.1-1.9,0.2-2.4-0.5C70,27.7,73.1,27,74.1,26.8z"/>
		
			<linearGradient id="SVGID_10_" gradientUnits="userSpaceOnUse" x1="-254.4192" y1="176.2309" x2="-253.9932" y2="178.5832" gradientTransform="matrix(0.8845 0.4666 -0.4666 0.8845 351.7527 -6.2471)">
			<stop  offset="0" style="stop-color:#FFFFFF;stop-opacity:0.5"/>
			<stop  offset="1" style="stop-color:#FFFFFF;stop-opacity:0"/>
		</linearGradient>
		<path class="st15" d="M46.4,31.9c0.4,0.4,0.6,1,0.5,1.5c-0.1,0.3-0.3,0.5-0.6,0.6c-0.2,0-0.4-0.1-0.6-0.2
			c-0.8-0.5-1.7-1.2-2.6-1.1c-0.5,0.1-1.1,0.4-1.6,0.2c-0.6-0.3-0.5-1.1-0.1-1.6c0.4-0.4,1.2-0.5,1.8-0.6
			C44.2,30.6,45.7,31.1,46.4,31.9z"/>
		
			<linearGradient id="SVGID_11_" gradientUnits="userSpaceOnUse" x1="-172.9" y1="118.9224" x2="-172.3266" y2="122.0886" gradientTransform="matrix(0.9314 0.3641 -0.3641 0.9314 270.3269 -18.3499)">
			<stop  offset="0" style="stop-color:#FFFFFF;stop-opacity:0.5"/>
			<stop  offset="1" style="stop-color:#FFFFFF;stop-opacity:0"/>
		</linearGradient>
		<path class="st16" d="M68.7,30.4c0.6,0.5,1,1.2,0.8,1.9c-0.1,0.4-0.3,0.8-0.7,0.9c-0.3,0.1-0.6,0-0.9-0.2c-1.2-0.5-2.4-1.3-3.7-1
			c-0.7,0.2-1.4,0.7-2.1,0.4c-0.9-0.3-0.9-1.5-0.4-2.1c0.5-0.6,1.5-0.9,2.3-1.1C65.6,29.1,67.6,29.5,68.7,30.4z"/>
		
			<linearGradient id="SVGID_12_" gradientUnits="userSpaceOnUse" x1="-154.3923" y1="117.0621" x2="-153.9099" y2="119.7259" gradientTransform="matrix(0.9314 0.3641 -0.3641 0.9314 270.3269 -18.3499)">
			<stop  offset="0" style="stop-color:#FFFFFF;stop-opacity:0.5"/>
			<stop  offset="1" style="stop-color:#FFFFFF;stop-opacity:0"/>
		</linearGradient>
		<path class="st17" d="M86.2,35.3c0.5,0.4,0.8,1,0.7,1.6c-0.1,0.3-0.3,0.7-0.6,0.7c-0.2,0.1-0.5,0-0.7-0.1c-1-0.4-2-1.1-3.1-0.9
			c-0.6,0.1-1.2,0.6-1.7,0.4c-0.7-0.3-0.7-1.2-0.3-1.7c0.4-0.5,1.3-0.8,1.9-0.9C83.5,34.1,85.3,34.5,86.2,35.3z"/>
		
			<linearGradient id="SVGID_13_" gradientUnits="userSpaceOnUse" x1="-174.4292" y1="115.5305" x2="-174.0988" y2="117.355" gradientTransform="matrix(0.9314 0.3641 -0.3641 0.9314 270.3269 -18.3499)">
			<stop  offset="0" style="stop-color:#FFFFFF;stop-opacity:0.5"/>
			<stop  offset="1" style="stop-color:#FFFFFF;stop-opacity:0"/>
		</linearGradient>
		<path class="st18" d="M67.4,26.3c0.3,0.3,0.6,0.7,0.5,1.1c0,0.2-0.2,0.4-0.4,0.5c-0.2,0-0.3,0-0.5-0.1c-0.7-0.3-1.4-0.8-2.1-0.6
			c-0.4,0.1-0.8,0.4-1.2,0.3c-0.5-0.2-0.5-0.8-0.2-1.2c0.3-0.4,0.9-0.5,1.3-0.6C65.6,25.5,66.7,25.8,67.4,26.3z"/>
		
			<linearGradient id="SVGID_14_" gradientUnits="userSpaceOnUse" x1="-158.0434" y1="121.9307" x2="-157.713" y2="123.7552" gradientTransform="matrix(0.9314 0.3641 -0.3641 0.9314 270.3269 -18.3499)">
			<stop  offset="0" style="stop-color:#FFFFFF;stop-opacity:0.5"/>
			<stop  offset="1" style="stop-color:#FFFFFF;stop-opacity:0"/>
		</linearGradient>
		<path class="st19" d="M80.3,38.2c0.3,0.3,0.6,0.7,0.5,1.1c0,0.2-0.2,0.4-0.4,0.5c-0.2,0-0.3,0-0.5-0.1c-0.7-0.3-1.4-0.8-2.1-0.6
			c-0.4,0.1-0.8,0.4-1.2,0.3c-0.5-0.2-0.5-0.8-0.2-1.2c0.3-0.4,0.9-0.5,1.3-0.6C78.5,37.4,79.7,37.7,80.3,38.2z"/>
		
			<linearGradient id="SVGID_15_" gradientUnits="userSpaceOnUse" x1="-166.7991" y1="122.4106" x2="-166.3167" y2="125.0744" gradientTransform="matrix(0.9314 0.3641 -0.3641 0.9314 270.3269 -18.3499)">
			<stop  offset="0" style="stop-color:#FFFFFF;stop-opacity:0.5"/>
			<stop  offset="1" style="stop-color:#FFFFFF;stop-opacity:0"/>
		</linearGradient>
		<path class="st20" d="M72.7,35.7c0.5,0.4,0.8,1,0.7,1.6c-0.1,0.3-0.3,0.7-0.6,0.7c-0.2,0.1-0.5,0-0.7-0.1c-1-0.4-2-1.1-3.1-0.9
			c-0.6,0.1-1.2,0.6-1.7,0.4c-0.7-0.3-0.7-1.2-0.3-1.7c0.4-0.5,1.3-0.8,1.9-0.9C70,34.6,71.8,35,72.7,35.7z"/>
		
			<linearGradient id="SVGID_16_" gradientUnits="userSpaceOnUse" x1="-179.1547" y1="126.1459" x2="-178.5184" y2="129.6598" gradientTransform="matrix(0.9314 0.3641 -0.3641 0.9314 270.3269 -18.3499)">
			<stop  offset="0" style="stop-color:#FFFFFF;stop-opacity:0.5"/>
			<stop  offset="1" style="stop-color:#FFFFFF;stop-opacity:0"/>
		</linearGradient>
		<path class="st21" d="M60.6,35c0.6,0.5,1.1,1.3,0.9,2.2c-0.1,0.4-0.4,0.9-0.8,1c-0.3,0.1-0.6,0-0.9-0.2c-1.3-0.6-2.7-1.5-4.1-1.2
			c-0.8,0.2-1.5,0.8-2.3,0.5c-1-0.3-1-1.6-0.4-2.3c0.6-0.7,1.7-1,2.6-1.2C57.1,33.5,59.3,34,60.6,35z"/>
		
			<linearGradient id="SVGID_17_" gradientUnits="userSpaceOnUse" x1="185.0672" y1="33.5543" x2="184.1965" y2="39.7945" gradientTransform="matrix(0.9816 -0.1908 0.1908 0.9816 -133.8627 27.386)">
			<stop  offset="0" style="stop-color:#FFFFFF;stop-opacity:0.5"/>
			<stop  offset="1" style="stop-color:#FFFFFF;stop-opacity:0"/>
		</linearGradient>
		<path class="st22" d="M51.3,25c1.2-0.3,2.6-0.2,3.5,0.7c0.2,0.3,0.4,0.6,0.7,0.8c0.6,0.4,1.4,0.3,2.1,0c0.7-0.3,1.3-0.7,2-0.9
			s1.6,0.1,1.9,0.7c0.2,0.6-0.1,1.3-0.6,1.6c-0.5,0.4-1.1,0.5-1.8,0.6c-0.6,0.1-1.3,0.1-1.8,0.4c-0.6,0.3-1,0.7-1.4,1.2
			c-0.4,0.5-0.9,0.9-1.5,1.1c-0.6,0.2-1.3,0.2-1.8-0.2c-0.4-0.4-0.5-1.1-0.5-1.7c-0.1-0.6-0.3-1.3-0.8-1.5c-0.5-0.2-1,0-1.4,0.3
			c-0.4,0.3-0.8,0.6-1.3,0.7c-0.5,0.1-1.1,0-1.3-0.5C46.6,27,50.4,25.3,51.3,25z"/>
		<path class="st4" d="M91.6,28.9C91.6,28.9,91.6,28.8,91.6,28.9C91.6,28.8,91.6,28.8,91.6,28.9c-2-1.2-3.7-1.5-5.8-0.6
			c-2.3-2-4.6-2-7.1-1.3c-2.2-1.3-4-1.5-6.4-0.8c-1.3-0.9-2.4-1.2-4-0.9c-2.2-0.8-4.1-1-6.3-0.2c-2-0.5-3.8-0.3-5.8,0.1
			c-1.9-1.1-3.5-1.5-5.7-1.2c-2.2-1.2-4.4-1.8-6.9-1.8c0,0,0,0,0,0"/>
		<path class="st4" d="M34.7,36.4C34.7,36.4,34.7,36.5,34.7,36.4c1.2,1.5,2.4,2.2,4.3,2.6c1.8,1.6,3.7,2.6,6,3.3
			c2.1,2.3,4.2,3.7,7.2,4.5c1.2,0.6,2.2,0.9,3.6,0.8c0.7,1,1.3,2,2.4,2.7c1.1,0.7,2.4,0.8,3.6,1.1c2,0.9,3.8,1.2,6,1.1
			c2.1,0.9,3.9,1.1,6.2,0.5c2.2,1.5,4.2,2,6.8,2c1.5,0.5,2.7,0.5,4.1-0.1c1.7,0.5,3.3,0.6,5.1,0.3c0,0,0,0,0,0"/>
		
			<linearGradient id="SVGID_18_" gradientUnits="userSpaceOnUse" x1="-149.865" y1="110.9884" x2="-149.2916" y2="114.1546" gradientTransform="matrix(0.9314 0.3641 -0.3641 0.9314 270.3269 -18.3499)">
			<stop  offset="0" style="stop-color:#FFFFFF;stop-opacity:0.5"/>
			<stop  offset="1" style="stop-color:#FFFFFF;stop-opacity:0"/>
		</linearGradient>
		<path class="st23" d="M92.9,34.2c0.1,0,0.1,0.1,0.2,0.1c-0.2-1.2-0.5-2.3-0.8-3.5c-1-0.4-2.3-0.6-3.2-0.4
			c-0.8,0.2-1.8,0.4-2.3,1.1c-0.5,0.6-0.5,1.8,0.4,2.1c0.7,0.2,1.4-0.3,2.1-0.4C90.5,32.8,91.7,33.7,92.9,34.2z"/>
		
			<linearGradient id="SVGID_19_" gradientUnits="userSpaceOnUse" x1="-256.5808" y1="172.2013" x2="-256.2982" y2="173.7622" gradientTransform="matrix(0.8845 0.4666 -0.4666 0.8845 351.7527 -6.2471)">
			<stop  offset="0" style="stop-color:#FFFFFF;stop-opacity:0.5"/>
			<stop  offset="1" style="stop-color:#FFFFFF;stop-opacity:0"/>
		</linearGradient>
		<path class="st24" d="M43.4,26.1c-0.2,0-0.5,0.1-0.8,0.2c-0.1,0.4-0.3,0.8-0.5,1.2c0,0,0.1,0.1,0.1,0.1c0.3,0.2,0.7-0.1,1-0.1
			c0.6-0.1,1.2,0.4,1.7,0.7c0.1,0.1,0.3,0.1,0.4,0.1c0.2,0,0.3-0.2,0.4-0.4c0.1-0.3,0-0.7-0.3-1C45.1,26.4,44.1,26.1,43.4,26.1z"/>
		<path class="st2" d="M90.5,52.4c1-1,0.2-0.9-0.9-0.1c-1.1,0.8-2.6,1-4.9,0.8c-2.3-0.2-0.6-1.7-3.8,0c-1.3,0.7-2.8,1.1-4.2,1.3
			c1.3,0.4,2.6,0.6,4.1,0.6c1.5,0.5,2.7,0.5,4.1-0.1c1.7,0.5,3.3,0.6,5.1,0.3c0,0,0,0,0,0c0.2-0.4,0.5-0.9,0.7-1.4
			C90.2,53.5,90.1,52.9,90.5,52.4z"/>
		<g>
			<path class="st6" d="M44.2,31c-0.3-0.1-0.2,0.1,0.1,0.1c0.7,0,1.4,0.5,1.4,0.5S44.9,31.1,44.2,31z"/>
			<path class="st6" d="M43.6,31c0.2,0,0.2-0.1,0-0.1C43.2,30.8,43.4,31.1,43.6,31z"/>
			<path class="st6" d="M43.3,30.9c0,0-0.1,0-0.1,0.1C43.1,31.1,43.4,30.9,43.3,30.9z"/>
		</g>
		<g>
			<path class="st6" d="M53.1,25.3c-0.3-0.1-0.2,0.1,0.1,0.1c0.7,0,1.4,0.5,1.4,0.5S53.8,25.4,53.1,25.3z"/>
			<path class="st6" d="M52.5,25.3c0.2,0,0.2-0.1,0-0.1C52.1,25.2,52.3,25.4,52.5,25.3z"/>
			<path class="st6" d="M52.2,25.2c0,0-0.1,0-0.1,0.1C52,25.4,52.3,25.3,52.2,25.2z"/>
		</g>
		<g>
			<path class="st6" d="M64.8,29.7c-0.3,0-0.2,0.2,0.1,0.1c0.7-0.1,1.5,0.2,1.5,0.2S65.6,29.6,64.8,29.7z"/>
			<path class="st6" d="M64.3,29.9c0.2-0.1,0.2-0.1,0-0.1C63.9,29.8,64.1,30,64.3,29.9z"/>
			<path class="st6" d="M64,29.9c0,0-0.1,0-0.1,0.1C63.8,30.1,64,29.9,64,29.9z"/>
		</g>
		<g>
			<path class="st6" d="M69.5,35.2c-0.3,0-0.2,0.2,0.1,0.1c0.7-0.1,1.5,0.2,1.5,0.2S70.3,35.2,69.5,35.2z"/>
			<path class="st6" d="M69,35.4c0.2-0.1,0.2-0.1,0-0.1C68.6,35.4,68.8,35.5,69,35.4z"/>
			<path class="st6" d="M68.7,35.4c0,0-0.1,0-0.1,0.1C68.5,35.6,68.7,35.4,68.7,35.4z"/>
		</g>
		<g>
			<path class="st6" d="M74.6,27.2c-0.3,0-0.2,0.2,0.1,0.1c0.7-0.1,1.5,0.2,1.5,0.2S75.4,27.2,74.6,27.2z"/>
			<path class="st6" d="M74.1,27.4c0.2-0.1,0.2-0.1,0-0.1C73.7,27.4,73.9,27.5,74.1,27.4z"/>
			<path class="st6" d="M73.8,27.4c0,0-0.1,0-0.1,0.1C73.6,27.6,73.8,27.4,73.8,27.4z"/>
		</g>
		<g>
			<path class="st6" d="M89.9,31c-0.3,0-0.2,0.2,0.1,0.1c0.7-0.1,1.5,0.2,1.5,0.2S90.6,30.9,89.9,31z"/>
			<path class="st6" d="M89.4,31.2c0.2-0.1,0.2-0.1,0-0.1C88.9,31.1,89.2,31.3,89.4,31.2z"/>
			<path class="st6" d="M89,31.1c0,0-0.1,0-0.1,0.1C88.9,31.4,89.1,31.1,89,31.1z"/>
		</g>
		<g>
			<path class="st6" d="M56.5,34.3c-0.4,0-0.2,0.2,0.1,0.2c0.9-0.2,1.9,0.2,1.9,0.2S57.5,34.2,56.5,34.3z"/>
			<path class="st6" d="M55.8,34.6c0.2-0.1,0.2-0.2-0.1-0.2C55.2,34.5,55.6,34.7,55.8,34.6z"/>
			<path class="st6" d="M55.4,34.5c-0.1,0-0.1,0-0.2,0.1C55.2,34.8,55.5,34.6,55.4,34.5z"/>
		</g>
	</g>
	<g id="胰头">
		<path class="st1" d="M138.3,54.5c0.3-1.7,0.1-3.2-0.2-4.9c-0.3-1.3-0.5-2.7-1.1-4c-0.3-3.4-1.2-5.8-3.6-8.3c-1-1.9-2.3-3-4.2-3.9
			c-1-1.4-2.1-2.2-3.8-2.6c-2.3-2.1-4.4-2.7-7.5-2.6c-2.4-1.1-4.1-1.1-6.8-0.5c-1.8-0.6-3.4-0.7-5-0.2c0,0,0,0,0,0
			c3.2,9.9,2.2,23.7-7.6,29.2c0,0,0,0,0,0c-0.1,1.2-0.1,2.2,0.2,3.4c0,0,0,0,0,0c0,0,0,0,0,0c2.4,2,4.1,11.3,2.5,16.5
			c0.8,0.7,1.5,1.5,2.5,1.8c1,0.3,1.9,0,2.9-0.2c2.5,0.3,4.8,0.1,7.2-0.7c1.7,0.5,3,0.4,4.6-0.2c2.1-0.3,3.5-1,4.9-2.5
			c3.4,0.4,5.5-0.2,7.9-2.8c2.4-0.9,3.4-2.1,4-4.6c1.1-1.4,1.6-2.8,1.6-4.6c0.7-1.4,0.8-2.5,0.6-4c0.6-0.6,1.2-1.1,1.3-2
			C138.8,56,138.5,55.3,138.3,54.5z"/>
		<path class="st7" d="M133,59.4c-0.3,0.3-0.2,0.5,0,0.9c0.2,0.5,0.3,1,0.2,1.5c0,0.2-0.1,0.4,0,0.5c0,0.2,0.1,0.4,0.3,0.4
			c0.2,0.1,0.3,0,0.5,0c0.1-0.1,0.3-0.2,0.3-0.4c0.3-0.5,0.5-1.1,0.4-1.7C134.6,60,133.8,58.9,133,59.4z"/>
		<path class="st2" d="M138.3,54.5c0.3-1.7,0.1-3.2-0.2-4.9c-0.3-1.3-0.5-2.7-1.1-4c-0.1-1.2-0.3-2.4-0.6-3.4
			c0.1,3.2-0.8,6.1-0.2,7.4c1,1.9-0.3,6.3-2.1,6.7c-1.9,0.4-2.5,2-1.7,4.6c0.8,2.6-1.1,3.6-3.1,6.4s-3,0.9-1.8-0.7
			c1.3-1.6,0.5-2.4-0.8-0.7s-3.2,2.1-4.8,1.3c-1.6-0.8-1.9,0.2-0.8,0.6c1.1,0.4,2.1,0.7,0.8,3.4c-1.3,2.8-6.3,2.1-7.2,0.3
			c-0.9-1.9-1-1.5-1.9,0.1c-1.7,3.1-3.4-1.3-7.2,1.1c-1.7,1.1-2.8,0.6-3.9,0c-0.1,1.5-0.3,2.9-0.6,4.1c0.8,0.7,1.5,1.5,2.5,1.8
			c1,0.3,1.9,0,2.9-0.2c2.5,0.3,4.8,0.1,7.2-0.7c1.7,0.5,3,0.4,4.6-0.2c2.1-0.3,3.5-1,4.9-2.5c3.4,0.4,5.5-0.2,7.9-2.8
			c2.4-0.9,3.4-2.1,4-4.6c1.1-1.4,1.6-2.8,1.6-4.6c0.7-1.4,0.8-2.5,0.6-4c0.6-0.6,1.2-1.1,1.3-2C138.8,56,138.5,55.3,138.3,54.5z
			 M134.3,62.3c-0.1,0.1-0.2,0.3-0.3,0.4c-0.1,0.1-0.3,0.1-0.5,0c-0.2-0.1-0.2-0.3-0.3-0.4c0-0.2,0-0.4,0-0.5c0.1-0.5,0-1-0.2-1.5
			c-0.1-0.3-0.3-0.6,0-0.9c0.7-0.6,1.6,0.5,1.7,1.2C134.8,61.2,134.6,61.8,134.3,62.3z"/>
		<path class="st2" d="M100.4,63.1c0.8-0.1,1.4-0.5,1.7-2.1c0.7-3.5,6.3-4.6,10.2-0.5c1.6,1.7,1.3,2.2,2.5-0.7
			c1.5-3.9,12.4-2.1,10-3.6c-3.4-2.2-6.1-4-6.1-5.9s5.2-4.7,4.7-5.4c-0.5-0.7-1.7,0.7-4.8,0.3c-3.1-0.4-3.5-1.5-4-1.1
			c-0.5,0.4,3,3.1,0.9,4.8c-2.1,1.7-4-0.3-5.5-1.9c-1.1-1.2-1.5-1.7-2.7,0.7c-0.4,0.8-1.2,1.6-2.1,2.2c-1.5,2.9-3.7,5.4-6.7,7.1
			c0,0,0,0,0,0c-0.1,1.2-0.1,2.3,0.2,3.4c0,0,0,0,0,0c0,0,0,0,0,0C99.3,60.8,99.9,61.8,100.4,63.1z"/>
		<path class="st2" d="M126.6,61c0,0.2,0.1,0.5,0.2,0.8c0,0.2,0,0.5-0.3,0.6c-0.3,0-0.4-0.2-0.4-0.4c-0.2-1.4,0-2.9,0-4.3
			c0-0.3-0.1-0.6-0.1-0.9c0-0.3,0.2-0.6,0.5-0.5c0.3,0.1,0.2,0.4,0.4,0.6c0.2,0.2,0.4,0.4,0.7,0.4c0.3,0,0.6-0.1,0.9-0.3
			c0.3-0.1,1.8-0.8,1.6,0c-0.1,0.8-1.5,0.4-2.1,0.8C126.9,58.5,126.5,59.6,126.6,61z"/>
		<path class="st2" d="M113.3,67.9c0-1.1-0.1-2.9,0.5-3.9c0.6-1,0.3-0.9-0.5-0.4c-0.8,0.5-2.3,0.6-3.2,0.4c-0.9-0.2-1.1,0.3-0.2,0.4
			c1,0.1,2.4,1.7,2.7,2.4C112.9,67.5,113.3,69,113.3,67.9z"/>
		
			<linearGradient id="SVGID_20_" gradientUnits="userSpaceOnUse" x1="-127.8988" y1="107.7164" x2="-127.5684" y2="109.5408" gradientTransform="matrix(0.9314 0.3641 -0.3641 0.9314 270.3269 -18.3499)">
			<stop  offset="0" style="stop-color:#FFFFFF;stop-opacity:0.5"/>
			<stop  offset="1" style="stop-color:#FFFFFF;stop-opacity:0"/>
		</linearGradient>
		<path class="st25" d="M113.6,36c0.3,0.3,0.6,0.7,0.5,1.1c0,0.2-0.2,0.4-0.4,0.5c-0.2,0-0.3,0-0.5-0.1c-0.7-0.3-1.4-0.8-2.1-0.6
			c-0.4,0.1-0.8,0.4-1.2,0.3c-0.5-0.2-0.5-0.8-0.2-1.2c0.3-0.4,0.9-0.5,1.3-0.6C111.7,35.2,112.9,35.5,113.6,36z"/>
		
			<linearGradient id="SVGID_21_" gradientUnits="userSpaceOnUse" x1="178.9473" y1="29.8241" x2="179.355" y2="32.0756" gradientTransform="matrix(0.9969 -7.805038e-02 7.805038e-02 0.9969 -63.6395 52.0792)">
			<stop  offset="0" style="stop-color:#FFFFFF;stop-opacity:0.5"/>
			<stop  offset="1" style="stop-color:#FFFFFF;stop-opacity:0"/>
		</linearGradient>
		<path class="st26" d="M119.1,67.6c0.5,0.1,1,0.5,1.1,1c0.1,0.3,0,0.6-0.2,0.8c-0.2,0.1-0.4,0.2-0.6,0.2c-0.9,0-2-0.1-2.7,0.5
			c-0.4,0.3-0.7,0.9-1.2,0.9c-0.7,0.1-1-0.7-0.9-1.2c0.1-0.6,0.7-1.1,1.1-1.4C116.7,67.7,118.1,67.4,119.1,67.6z"/>
		
			<linearGradient id="SVGID_22_" gradientUnits="userSpaceOnUse" x1="-119.8783" y1="136.0464" x2="-119.5479" y2="137.8708" gradientTransform="matrix(0.9314 0.3641 -0.3641 0.9314 270.3269 -18.3499)">
			<stop  offset="0" style="stop-color:#FFFFFF;stop-opacity:0.5"/>
			<stop  offset="1" style="stop-color:#FFFFFF;stop-opacity:0"/>
		</linearGradient>
		<path class="st27" d="M110.7,65.3c0.3,0.3,0.6,0.7,0.5,1.1c0,0.2-0.2,0.4-0.4,0.5c-0.2,0-0.3,0-0.5-0.1c-0.7-0.3-1.4-0.8-2.1-0.6
			c-0.4,0.1-0.8,0.4-1.2,0.3c-0.5-0.2-0.5-0.8-0.2-1.2c0.3-0.4,0.9-0.5,1.3-0.6C108.9,64.5,110.1,64.8,110.7,65.3z"/>
		
			<linearGradient id="SVGID_23_" gradientUnits="userSpaceOnUse" x1="-244.8653" y1="212.5399" x2="-244.5349" y2="214.3643" gradientTransform="matrix(0.8125 0.583 -0.583 0.8125 450.3686 5.0075)">
			<stop  offset="0" style="stop-color:#FFFFFF;stop-opacity:0.5"/>
			<stop  offset="1" style="stop-color:#FFFFFF;stop-opacity:0"/>
		</linearGradient>
		<path class="st28" d="M128.9,35.9c0.3,0.3,0.4,0.8,0.2,1.2c-0.1,0.2-0.3,0.4-0.5,0.4c-0.2,0-0.3-0.1-0.5-0.2
			c-0.6-0.5-1.1-1.1-1.9-1.1c-0.4,0-0.9,0.2-1.2,0c-0.4-0.3-0.3-0.9,0.1-1.2c0.4-0.3,1-0.3,1.4-0.3
			C127.3,34.7,128.4,35.2,128.9,35.9z"/>
		
			<linearGradient id="SVGID_24_" gradientUnits="userSpaceOnUse" x1="-58.388" y1="95.0605" x2="-57.9055" y2="97.7243" gradientTransform="matrix(0.9663 0.2575 -0.2575 0.9663 188.188 -17.4361)">
			<stop  offset="0" style="stop-color:#FFFFFF;stop-opacity:0.5"/>
			<stop  offset="1" style="stop-color:#FFFFFF;stop-opacity:0"/>
		</linearGradient>
		<path class="st29" d="M109.7,59.9c0.5,0.3,0.9,0.9,0.9,1.5c0,0.3-0.2,0.7-0.5,0.8c-0.2,0.1-0.5,0-0.7,0c-1-0.3-2.1-0.9-3.2-0.5
			c-0.6,0.2-1.1,0.7-1.7,0.6c-0.8-0.2-0.9-1.1-0.5-1.7c0.4-0.6,1.2-0.9,1.8-1.1C106.9,59.1,108.6,59.3,109.7,59.9z"/>
		
			<linearGradient id="SVGID_25_" gradientUnits="userSpaceOnUse" x1="-4.0228" y1="54.8643" x2="-3.676" y2="59.6868" gradientTransform="matrix(0.9836 0.1805 -0.1805 0.9836 130.5025 -24.0198)">
			<stop  offset="0" style="stop-color:#FFFFFF;stop-opacity:0.5"/>
			<stop  offset="1" style="stop-color:#FFFFFF;stop-opacity:0"/>
		</linearGradient>
		<path class="st30" d="M113.4,28.6c0.9-0.1,1.8,0,2.5,0.4c0.5,0.3,1,0.8,1.6,1.1c0.7,0.2,1.4,0.1,2.1-0.2c0.7-0.2,1.4-0.5,2.1-0.3
			c0.7,0.2,1.3,0.9,1.1,1.6c-0.2,0.6-0.9,0.8-1.5,0.9s-1.3,0-1.8,0.3c-0.5,0.3-0.8,0.8-1.2,1.3c-0.4,0.5-0.9,0.9-1.5,0.7
			c-0.9-0.3-0.8-1.6-1.5-2.3c-0.6-0.6-1.6-0.5-2.5-0.3c-0.9,0.1-1.9,0.2-2.4-0.5C109.3,29.4,112.4,28.7,113.4,28.6z"/>
		
			<linearGradient id="SVGID_26_" gradientUnits="userSpaceOnUse" x1="54.5156" y1="51.1301" x2="55.1881" y2="54.8435" gradientTransform="matrix(0.9954 9.606814e-02 -9.606814e-02 0.9954 70.6372 1.8956)">
			<stop  offset="0" style="stop-color:#FFFFFF;stop-opacity:0.5"/>
			<stop  offset="1" style="stop-color:#FFFFFF;stop-opacity:0"/>
		</linearGradient>
		<path class="st31" d="M123.4,58.3c0.8,0.3,1.5,1.1,1.6,1.9c0,0.5-0.1,1-0.6,1.2c-0.3,0.2-0.7,0.1-1,0.1c-1.5-0.2-3.1-0.7-4.5,0
			c-0.7,0.4-1.3,1.2-2.2,1.2c-1.1-0.1-1.4-1.4-1.1-2.2c0.4-0.9,1.4-1.5,2.3-1.9C119.4,57.7,121.8,57.6,123.4,58.3z"/>
		<path class="st2" d="M131.9,45.9c-2.2-1.7-2.3-5.5-2.9-5c-0.5,0.4,2.2,1.8-1.3,3c-2.4,0.8,1.6-0.4,2.9,1.3
			C132.1,47.2,132.6,46.4,131.9,45.9z"/>
		<path class="st4" d="M101.1,76.8c0.8,0.7,1.5,1.5,2.5,1.8c1,0.3,1.9,0,2.9-0.2c2.5,0.3,4.8,0.1,7.2-0.7c1.7,0.5,3,0.4,4.6-0.2
			c2.1-0.3,3.5-1,4.9-2.5c3.4,0.4,5.5-0.2,7.9-2.8c2.4-0.9,3.4-2.1,4-4.6c1.1-1.4,1.6-2.8,1.6-4.6c0.7-1.4,0.8-2.5,0.6-4
			c0.6-0.6,1.2-1.1,1.3-2c0.1-0.8-0.2-1.6-0.3-2.4c0.3-1.7,0.1-3.2-0.2-4.9c-0.3-1.3-0.5-2.7-1.1-4c-0.3-3.4-1.2-5.8-3.6-8.3
			c-1-1.9-2.3-3-4.2-3.9c-1-1.4-2.1-2.2-3.8-2.6c-2.3-2.1-4.4-2.7-7.5-2.6c-2.4-1.1-4.1-1.1-6.8-0.5c-1.8-0.6-3.4-0.7-5-0.2
			c0,0,0,0,0,0"/>
		
			<linearGradient id="SVGID_27_" gradientUnits="userSpaceOnUse" x1="-126.8424" y1="138.1462" x2="-126.512" y2="139.9706" gradientTransform="matrix(0.9314 0.3641 -0.3641 0.9314 270.3269 -18.3499)">
			<stop  offset="0" style="stop-color:#FFFFFF;stop-opacity:0.5"/>
			<stop  offset="1" style="stop-color:#FFFFFF;stop-opacity:0"/>
		</linearGradient>
		<path class="st32" d="M100.6,63.8c0.2,0.5,0.3,1.1,0.5,1.7c0.3,0.1,0.6,0.3,0.9,0.4c0.2,0.1,0.3,0.1,0.5,0.1
			c0.2-0.1,0.4-0.3,0.4-0.5c0.1-0.4-0.1-0.8-0.5-1.1C102,64.1,101.3,63.9,100.6,63.8z"/>
		
			<linearGradient id="SVGID_28_" gradientUnits="userSpaceOnUse" x1="93.0143" y1="36.6862" x2="93.2854" y2="40.4568" gradientTransform="matrix(0.9997 2.536011e-02 -2.536011e-02 0.9997 16.2464 2.0776)">
			<stop  offset="0" style="stop-color:#FFFFFF;stop-opacity:0.5"/>
			<stop  offset="1" style="stop-color:#FFFFFF;stop-opacity:0"/>
		</linearGradient>
		<path class="st33" d="M108.4,41c-0.3,0-0.5,0-0.7,0.1c-0.1,0.7-0.2,1.4-0.3,2.1c0.3-0.1,0.7-0.2,1-0.3c0.5-0.1,1-0.4,1-0.9
			C109.5,41.5,108.9,41,108.4,41z"/>
		<path class="st2" d="M116.9,54.8c-2.5-1.7-0.9-4.1-1.8-3.3c-0.9,0.8-2.4,1.8-4-0.9c-0.6-1-0.6,0.9-2.7,1.1
			c-2.5,0.3-2.3-1.2-3.8,0.4c-0.8,0.8-1.7,1.7-2.6,2.2c-1,1-2.2,1.9-3.5,2.7c0,0,0,0,0,0c-0.1,1.2-0.1,2.2,0.2,3.4c0,0,0,0,0,0
			c0,0,0,0,0,0c0.3,0.3,0.7,0.7,1,1.2c1.2-0.4,0.1-0.6,0.4-2.7c0.4-2.5,4.7-4,7.5-3.4c2.8,0.6,6.2,3.6,5.2,1.9
			c-1-1.7,0.8-2.9,3.7-2.1C117.7,55.6,117.8,55.4,116.9,54.8z"/>
		<g>
			<path class="st6" d="M113.9,29c-0.3,0-0.2,0.2,0.1,0.1c0.7-0.1,1.5,0.2,1.5,0.2S114.7,28.9,113.9,29z"/>
			<path class="st6" d="M113.4,29.2c0.2-0.1,0.2-0.1,0-0.1C112.9,29.1,113.2,29.3,113.4,29.2z"/>
			<path class="st6" d="M113,29.1c0,0-0.1,0-0.1,0.1C112.9,29.4,113.1,29.2,113,29.1z"/>
		</g>
		<path class="st4" d="M98.5,56.9C98.5,56.9,98.5,56.9,98.5,56.9c-0.1,1.2-0.1,2.3,0.2,3.4c0,0,0,0,0,0c0,0,0,0,0,0"/>
	</g>
</g>
</svg>
