<svg xmlns="http://www.w3.org/2000/svg" viewBox="0 0 84.98106 85.2439"><defs><style>.cls-1{fill:#b8d0e5;}.cls-2{fill:#274e8b;}.cls-3{fill:#fff;opacity:0.2;}.cls-4{fill:#809ec7;opacity:0.3;}</style></defs><title>资源 136</title><g id="图层_2" data-name="图层 2"><g id="图层_1-2" data-name="图层 1"><path class="cls-1" d="M47.77919,85.18628a5.864,5.864,0,0,1-2.668-11.08789l-.66113-7.13965a8.10286,8.10286,0,0,1-2.01074.16309,24.07459,24.07459,0,0,1-10.0166-2.16309L28.89931,71.7771a5.65,5.65,0,0,1,1.19336,4.15527A5.86788,5.86788,0,0,1,24.24794,81.2a6.09205,6.09205,0,0,1-.623-.03223,5.88385,5.88385,0,0,1,.60937-11.73535,6.0951,6.0951,0,0,1,.62305.03223l3.56055-6.84375a23.46965,23.46965,0,0,1-5.91114-5.81641l-7.16406,3.416a5.64748,5.64748,0,0,1-1.541,4.02441,5.88383,5.88383,0,1,1-.30273-8.31445l6.75195-3.208a23.51761,23.51761,0,0,1-2.26172-10.10058c0-.24317.01758-.48047.03516-.7168.01758-.23047.03418-.46.03418-.69238l-7.11328-.73243a5.64007,5.64007,0,0,1-3.415,2.63379A5.87878,5.87878,0,0,1,.27626,39.03784a5.885,5.885,0,0,1,4.07618-7.2539,5.87877,5.87877,0,0,1,7.2539,4.07617l7.20508.748a23.725,23.725,0,0,1,4.94727-9.7832L18.537,22.03784a5.28514,5.28514,0,0,1-2.415.55957,5.86321,5.86321,0,1,1,5.5664-4.02148l5.43067,4.9873a23.42727,23.42727,0,0,1,9.04-4.62109l-.96094-7.43164a5.6086,5.6086,0,0,1-3.41992-2.55664,5.8535,5.8535,0,1,1,8.043,1.959l.90625,7.34863.21582-.07031c.48925-.03515.98046-.07031,1.48632-.07031a24.422,24.422,0,0,1,10.15723,2.23437l3.37207-6.30078a5.63164,5.63164,0,0,1-1.31543-4.0039,5.87783,5.87783,0,0,1,5.85938-5.53028c.11523,0,.23144.00293.34765.00977a5.87367,5.87367,0,0,1-.33691,11.7373c-.11621,0-.23242-.00293-.34961-.00976l-3.49414,6.47558A23.35426,23.35426,0,0,1,62.662,28.738L69.33583,25.532a5.623,5.623,0,0,1,1.38965-4.0791,5.8632,5.8632,0,1,1,.59571,8.27149L64.828,32.82983a23.21986,23.21986,0,0,1,2.11133,9.792c0,.29687-.02246.58984-.0459.88086-.02148.28613-.04394.57031-.04394.85742l7.16308.71191a5.67753,5.67753,0,0,1,5.05762-3.082,5.855,5.855,0,1,1-5.54785,7.72461L65.997,48.93433a23.91485,23.91485,0,0,1-5.1377,9.76367l5.24219,4.8164a5.16626,5.16626,0,0,1,2.18555-.459,5.86483,5.86483,0,0,1,5.47656,7.96,5.8595,5.8595,0,0,1-7.57227,3.37988A5.86364,5.86364,0,0,1,62.81142,66.824L57.45009,61.8894a23.467,23.467,0,0,1-8.38965,4.30079l.71094,7.65429A5.62633,5.62633,0,0,1,52.99794,76.658a5.86673,5.86673,0,0,1-5.21875,8.52832Z"/><path class="cls-2" d="M36.774.115a5.79652,5.79652,0,0,1,3.01715,10.74878l.87933,7.40478c.57959-.04,1.15924-.08984,1.75879-.08984A24.20008,24.20008,0,0,1,52.56215,20.407l3.44763-6.32544A5.8161,5.8161,0,0,1,60.502,4.57788q.17175,0,.3457.01025a5.816,5.816,0,0,1-.3352,11.62208q-.17175,0-.3457-.01026l-3.54749,6.50537A24.69177,24.69177,0,0,1,62.615,28.77124l6.74536-3.18774a5.8063,5.8063,0,1,1,1.99854,4.09692l-6.55542,3.0979a24.32433,24.32433,0,0,1,2.07861,9.843c0,.5896-.09,1.15918-.09,1.73877l7.215.76953a5.70673,5.70673,0,0,1,6.017-3.0022l.0188.0044a5.79665,5.79665,0,1,1-6.46546,7.56469L66.0027,48.877a24.48364,24.48364,0,0,1-5.1864,9.78321l5.24634,4.89648a5.80587,5.80587,0,1,1-3.19775,3.2876L57.48867,61.8479a24.54021,24.54021,0,0,1-8.4441,4.28687l.66956,7.7146a5.80593,5.80593,0,1,1-4.57678.2998l-.62952-7.19482a12.93393,12.93393,0,0,1-2.06854.10986h-.00855a24.17468,24.17468,0,0,1-9.98443-2.15845L28.84883,71.751a5.834,5.834,0,1,1-3.99719-2.22852l3.61743-6.87524a24.83055,24.83055,0,0,1-5.91583-5.87574L15.31838,60.169a5.82592,5.82592,0,1,1-1.85871-4.197l6.81519-3.19775a24.294,24.294,0,0,1-2.22845-10.15283c0-.47949.07-.93921.07-1.40894l-7.165-.78955a5.82733,5.82733,0,1,1,.59955-4.54663l7.255.78931a24.29326,24.29326,0,0,1,4.99646-9.803l-5.22632-4.8667a5.80589,5.80589,0,1,1,3.05786-3.4375l5.44617,5.04639a24.40011,24.40011,0,0,1,9.09356-4.60669l-.91931-7.49488A5.79638,5.79638,0,0,1,36.774.115m0-.115a5.91122,5.91122,0,0,0-1.62446,11.59326l.89783,7.31958a24.34909,24.34909,0,0,0-8.962,4.54l-5.31946-4.929A5.92171,5.92171,0,1,0,18.554,22.13232l5.09015,4.74a24.54837,24.54837,0,0,0-4.92547,9.668l-7.07855-.77a5.94081,5.94081,0,1,0-.62818,4.77491l6.98834.77c-.00409.196-.01892.39379-.03326.58593-.01752.2334-.03564.47486-.03564.72022a24.58133,24.58133,0,0,0,2.19152,10.09717l-6.64233,3.1167A5.94078,5.94078,0,1,0,15.4338,60.2417l7.08172-3.32544a24.88671,24.88671,0,0,0,5.80487,5.7666l-3.53448,6.71753c-.1836-.01684-.36884-.02539-.55182-.02539A5.941,5.941,0,0,0,23.619,81.22437a6.0437,6.0437,0,0,0,.62957.0332,5.94119,5.94119,0,0,0,4.73615-9.51807l3.51294-6.68457a24.12286,24.12286,0,0,0,9.933,2.12427,14.02175,14.02175,0,0,0,1.97321-.09277l.61212,6.99609A5.92183,5.92183,0,0,0,47.779,85.2439a5.92172,5.92172,0,0,0,2.04333-11.47779l-.655-7.54687a24.52958,24.52958,0,0,0,8.31482-4.22046l5.248,4.8772a5.92069,5.92069,0,1,0,3.35718-3.45362l-5.11157-4.77075A24.73833,24.73833,0,0,0,66.08828,49.002l7.40417.801a5.91084,5.91084,0,1,0,6.5697-7.78443,5.80981,5.80981,0,0,0-6.11963,2.98853l-7.03442-.75024c.00439-.25074.02417-.50391.04333-.74976.02247-.2876.04566-.5852.04566-.88574a24.28617,24.28617,0,0,0-2.04334-9.78687l6.387-3.01831a5.921,5.921,0,1,0-2.09851-4.304l-6.58838,3.11352a24.73578,24.73578,0,0,0-5.88489-5.95483l3.46411-6.3523c.09351.0044.18677.00635.27942.00635a5.93087,5.93087,0,0,0,.34192-11.85156q-.17725-.01026-.35242-.01026A5.93082,5.93082,0,0,0,55.87209,14.094l-3.3595,6.16382a24.4847,24.4847,0,0,0-10.08325-2.19409c-.50787,0-1.00659.03589-1.489.07056l-.16864.012L39.914,10.9231A5.9115,5.9115,0,0,0,36.774,0Z"/><path class="cls-3" d="M65.49318,63.84551a5.01375,5.01375,0,0,1,.58274-.26958l-5.25357-4.89781-.302.34615Z"/><path class="cls-3" d="M69.42464,26.103a3.32588,3.32588,0,0,1-.05232-.50709l-6.75125,3.1933.17876.31427Z"/><path class="cls-3" d="M56.35156,14.469a3.32375,3.32375,0,0,1-.34373-.37646L52.56215,20.407l.42272.19951Z"/><path class="cls-3" d="M35.74437,11.67795a3.1612,3.1612,0,0,1-.4908-.16029l.91744,7.45919.46384-.11358Z"/><path class="cls-3" d="M19.05,21.76045a5.22074,5.22074,0,0,0-.468.25347l5.25139,4.89579.29356-.37666Z"/><path class="cls-4" d="M63.9323,31.11872a23.50875,23.50875,0,0,1,2.94977,11.50267A24.41217,24.41217,0,0,1,24.67474,59.38207C48.64686,68.50218,67.74077,47.31863,63.9323,31.11872Z"/><path class="cls-3" d="M20.99288,54.18777a24.11314,24.11314,0,0,1-2.927-11.55064A24.41368,24.41368,0,0,1,60.21654,25.83534C35.84883,10.08983,15.19349,34.76363,20.99288,54.18777Z"/><path class="cls-4" d="M22.55715,56.78972l-.22558-.44946S17.72688,58.44832,15.964,59.261a.57109.57109,0,0,1-.79763-.38346,5.84694,5.84694,0,0,0-.86985-1.9566,5.64147,5.64147,0,0,0-2.14093-1.8368c2.95941,2.70228,2.08685,9.4217-3.88434,10.85486a5.85088,5.85088,0,0,0,7.05542-5.753Z"/><path class="cls-3" d="M6.73246,65.37082a5.702,5.702,0,0,1-2.09039-1.90307,5.826,5.826,0,0,1,6.09732-8.92081C3.81535,54.73932,2.96671,62.33055,6.73246,65.37082Z"/><path class="cls-4" d="M28.85006,71.76494a5.83453,5.83453,0,0,1-3.86,9.34c5.15-3.34,3.73-9.97.04-11.53a5.7033,5.7033,0,0,1,2.63,1.02c.28.21.86464.50633,1.2372-.17737l3.11283-5.71265.44.2Z"/><path class="cls-3" d="M23.37932,81.07819a5.82748,5.82748,0,0,1,.13615-11.54369C17.05278,72.02707,18.81473,79.4693,23.37932,81.07819Z"/><path class="cls-4" d="M53.30007,81.07494c-.92-6.07-7.51-7.54-10.46-4.82a5.99321,5.99321,0,0,1,2.09-2,5.689,5.689,0,0,1,3.14048-.73777.88345.88345,0,0,0,.95384-.934l-.43435-6.2682.46-.16.67,7.7c-.04-.01-.08-.03-.12-.04a5.89421,5.89421,0,0,1,3.22,2.68A5.777,5.777,0,0,1,53.30007,81.07494Z"/><path class="cls-3" d="M52.65243,82.46039A5.80477,5.80477,0,0,1,42.221,77.6288C41.82146,84.544,49.30172,85.95278,52.65243,82.46039Z"/><path class="cls-4" d="M73.96217,67.72474a5.82055,5.82055,0,0,1-.13009,2.88649,5.8857,5.8857,0,0,1-7.22545,3.881,5.655,5.655,0,0,1-3.52939-2.96254C67.95825,75.25594,73.73465,71.72584,73.96217,67.72474Z"/><path class="cls-3" d="M62.57034,70.07194a5.8226,5.8226,0,0,1,10.89058-3.779C68.94065,61.04447,62.55093,65.23214,62.57034,70.07194Z"/><path class="cls-4" d="M76.78161,53.17372a5.93368,5.93368,0,0,0,2.859.4421,5.81959,5.81959,0,0,0,2.86794-10.43671C85.27462,48.6616,80.75641,53.68512,76.78161,53.17372Z"/><path class="cls-3" d="M81.19079,42.45905a5.42864,5.42864,0,0,0-2.843-.3866,5.90248,5.90248,0,0,0-5.05272,6.31715,5.65392,5.65392,0,0,0,2.204,4.02719C71.17039,47.00924,76.43693,41.55084,81.19079,42.45905Z"/><path class="cls-4" d="M71.64954,29.90891a5.93375,5.93375,0,0,0,2.66359,1.12895,5.81959,5.81959,0,0,0,5.3371-9.41623C80.98908,27.61466,75.378,31.37838,71.64954,29.90891Z"/><path class="cls-3" d="M78.56967,20.59433a5.62488,5.62488,0,0,0-2.68235-1.06484,5.90247,5.90247,0,0,0-6.4462,4.887,5.65386,5.65386,0,0,0,1.1504,4.44438C67.7193,22.55774,74.18311,18.5493,78.56967,20.59433Z"/><path class="cls-4" d="M66.23163,9.35094a5.92056,5.92056,0,0,1-.1962,2.8809,5.81959,5.81959,0,0,1-10.80527.62947C60.01564,16.70943,65.90327,13.345,66.23163,9.35094Z"/><path class="cls-3" d="M54.78809,11.342a5.625,5.625,0,0,1,.22937-2.87685,5.90247,5.90247,0,0,1,7.2316-3.62495,5.65389,5.65389,0,0,1,3.47931,2.99507C61.3419,2.47451,54.89075,6.50329,54.78809,11.342Z"/><path class="cls-4" d="M39.29266.70966a5.92067,5.92067,0,0,1,2.204,1.86565,5.8196,5.8196,0,0,1-5.89777,9.0756C41.53466,10.07766,42.31484,3.34158,39.29266.70966Z"/><path class="cls-3" d="M34.24391,11.12982a5.77714,5.77714,0,0,1-2.22163-1.88335,5.85746,5.85746,0,0,1,1.367-7.9729A5.4591,5.4591,0,0,1,37.86373.24665C30.94618.60189,30.40766,8.179,34.24391,11.12982Z"/><path class="cls-4" d="M13.34687,11.64011a5.92065,5.92065,0,0,1,2.8038-.69048A5.81959,5.81959,0,0,1,20.041,21.04991C22.24888,15.31981,17.25123,10.73649,13.34687,11.64011Z"/><path class="cls-3" d="M18.82413,21.87155a4.93052,4.93052,0,0,1-2.8285.6644,5.87861,5.87861,0,0,1-5.65511-5.784,5.7191,5.7191,0,0,1,1.79314-4.22618C8.36341,18.33642,14.184,23.24736,18.82413,21.87155Z"/><path class="cls-3" d="M.1168,37.69428a5.92064,5.92064,0,0,1,.61084-2.82223,5.81959,5.81959,0,0,1,10.78269.94C7.33175,31.31224,1.01941,33.78968.1168,37.69428Z"/><path class="cls-4" d="M18.23642,40.74438l-6.34154-.71658a.52379.52379,0,0,1-.44386-.68054,4.79657,4.79657,0,0,0,.23913-1.889A6.02368,6.02368,0,0,1,.37334,39.16112a5.91231,5.91231,0,0,0,3.04,3.54728,5.76327,5.76327,0,0,0,7.53217-2.26062l7.251.79792Z"/></g></g></svg>