<?xml version="1.0" encoding="utf-8"?>
<!-- Generator: Adobe Illustrator 24.0.0, SVG Export Plug-In . SVG Version: 6.00 Build 0)  -->
<svg version="1.1" id="图层_1" xmlns="http://www.w3.org/2000/svg" xmlns:xlink="http://www.w3.org/1999/xlink" x="0px" y="0px"
	 viewBox="0 0 120 83.6" style="enable-background:new 0 0 120 83.6;" xml:space="preserve">
<style type="text/css">
	.st0{fill:#49231E;}
	.st1{fill:#973938;}
	.st2{fill:none;}
	.st3{opacity:0.5;fill:#391011;}
	.st4{fill:none;stroke:#49231E;stroke-width:0.2;stroke-linecap:round;stroke-linejoin:round;stroke-miterlimit:10;}
	.st5{fill:#EFE1DF;}
	.st6{opacity:0.5;fill:#BF7370;}
	.st7{fill:none;stroke:#4D2B27;stroke-width:0.2;stroke-linecap:round;stroke-linejoin:round;stroke-miterlimit:10;}
	.st8{fill:url(#SVGID_1_);}
	.st9{fill:#FFFFFF;}
	.st10{fill:url(#SVGID_2_);}
	.st11{fill:url(#SVGID_3_);}
	.st12{fill:#7994CB;}
	.st13{fill:none;stroke:#1B2A56;stroke-width:0.2;stroke-linecap:round;stroke-linejoin:round;stroke-miterlimit:10;}
	.st14{opacity:0.5;fill:#395787;}
	.st15{opacity:0.5;fill:#172D56;}
	.st16{opacity:0.5;fill:#0D1A1C;}
	.st17{opacity:0.5;}
	.st18{opacity:0.3;fill:#FFFFFF;}
	.st19{opacity:0.5;fill:#29487D;}
	.st20{fill:none;stroke:#1D2A58;stroke-width:0.2;stroke-linecap:round;stroke-linejoin:round;stroke-miterlimit:10;}
	.st21{opacity:0.5;fill:#FFFFFF;}
	.st22{fill:#E3706D;}
	.st23{opacity:0.5;fill:#842522;}
	.st24{opacity:0.5;fill:#6A1217;}
	.st25{opacity:0.5;fill:#3A1112;}
	.st26{fill:none;stroke:#4F2C28;stroke-width:0.2;stroke-linecap:round;stroke-linejoin:round;stroke-miterlimit:10;}
	.st27{fill:#A1AF51;}
	.st28{opacity:0.5;fill:#4B4C23;}
	.st29{opacity:0.5;fill:#484B23;}
	.st30{opacity:0.5;fill:#1E1F0A;}
	.st31{fill:none;stroke:#1C4826;stroke-width:0.2;stroke-linecap:round;stroke-linejoin:round;stroke-miterlimit:10;}
</style>
<g id="肝脏上面观">
	<circle id="圆形的" class="st0" cx="57.2" cy="57.2" r="56.7"/>
		<circle id="第二个圆形" class="st1" cx="57.2" cy="57.2" r="56.7"/>
	<g id="胆管">
		<path class="st27" d="M74.1,13.2c0,0.6-0.2,2.1-0.6,4.2c-0.7,0-1.4,0.1-2.1,0.2c0.3-1.7,0.5-3.2,0.6-4.6
			C72.2,12.2,74.1,12.2,74.1,13.2z"/>
		
			<ellipse transform="matrix(3.042356e-02 -0.9995 0.9995 3.042356e-02 57.7888 85.7097)" class="st28" cx="73.1" cy="13.1" rx="0.5" ry="0.7"/>
		<path class="st29" d="M73.1,13.5c0.4,0,0.7-0.2,0.8-0.4c0,0,0,0,0,0c-0.1,0-0.1,0-0.2,0c-0.4,0-0.7-0.2-0.7-0.5
			c-0.3,0-0.6,0.2-0.6,0.4C72.3,13.3,72.6,13.5,73.1,13.5z"/>
		<path class="st30" d="M73.2,13.4c-0.4,0-0.7-0.2-0.7-0.5c0,0,0-0.1,0-0.1c-0.1,0.1-0.2,0.2-0.2,0.3c0,0.3,0.3,0.5,0.7,0.5
			c0.3,0,0.6-0.1,0.7-0.3C73.6,13.3,73.4,13.4,73.2,13.4z"/>
		<path class="st28" d="M74.1,13.2c0,0.6-0.2,2.1-0.6,4.2c-0.2,0-0.5,0-0.7,0c0.3-1.8,0.4-3,0.4-3.3C73.3,13.6,74,14,74.1,13.2z"/>
		<path class="st31" d="M73.5,17.4c0.4-2.1,0.5-3.6,0.6-4.2c0.1-1-1.9-1-2-0.2c-0.1,1.4-0.3,2.9-0.6,4.6"/>
		<g class="st17">
			<path class="st27" d="M112.1,23c-5.3,2.1-6.9,7.1-7.8,11.7c-1.9,9.6-8.8,12.5-16.3,10.6c2.6,2.8,3.3,6.6,1.6,10
				c-0.9,7.8,6.6,5,11.3,7.7c1.6,0.9,2.8,2.3,3.4,4.3c-0.7-1.6-1.9-3.1-3.5-4c-3.6-2.2-10.6-0.1-11.6-5.5c-0.1-0.5-0.1-1-0.1-1.5
				c-2.3,2.9-5.9,4.4-9,5.7c-2.9,3.3-2.3,9,1.3,11.6c-3.8-2.1-4.5-7.9-2-11.4c-5.3,2.3-8.1,6.4-8.3,12.4c-0.4-6.5,3.4-10.9,9.2-13.3
				c5.3-2.2,10.3-4.9,9.2-11.5c-1.1-6.8-13.4-8.3-18-10c-0.3-0.1-0.7,0.2-0.5,0.5c2.1,5.3,0,11.6-4,16c-2.1,2.6-5,4.2-6.2,7.4
				c-1.3,3-1.5,6.4-0.9,9.7c-0.9-3.4-0.7-6.6,0.5-9.7c0.5-1.4,1.4-2.6,2.4-3.8c-2.9,1.7-6.8,1.5-8.6-1c2.8,2.6,6.5,2.2,9.4,0.1
				c1.1-0.8,2.5-2.2,3.6-3.7c2.8-3.4,4.5-7.6,3.9-11.7c-0.3-2.4-1.4-3.5-3.2-5.8c-0.5-0.6-1.1-1.5-1.8-2.6c-0.3-0.5-1-0.7-1.5-0.4
				c-1.2,0.7-2.5,1.3-4,1.7c-3.8,1-7.8,1.7-11.8,1.9c-1.3,0.1-2.5,0.5-3.5,1.3c-2.9,2.1-5.4,4.6-7.5,7.4c-3,7-1.3,15.5,1.7,22.2
				c-3.3-6.2-4.8-14-2.7-20.8C32,55,29.2,63.1,26.7,70.7c1.9-8.4,5.7-18.2,11.4-25.6c0.2-0.2,0-0.5-0.2-0.5
				c-10.1,0-11.3,10.1-22.4,7.2c2.1,0.3,4.3,0.4,6.4-0.1c2.1-0.5,3.9-1.8,5.5-3.1c3-2.8,6.9-4.5,11-4.6c0.5,0,0.9-0.2,1.2-0.5
				c1.4-1.6,3.1-3.1,4.9-4.5c0.2-0.2,0.1-0.5-0.2-0.5c-2.1-0.1-10.8-0.1-17.2-4.9c-1.4-1.1-4.1-1.2-5.6-1.1c-5,0.4-7.5,2.2-10.3,5.2
				c-1.4,1.5-2.6,3.9-3.4,5.6c1-3.6,3-6.2,5.7-8.2c-3.7,1.2-6.9-0.4-6.9-4.6c0.8,6.4,6.8,4.4,7.3,4c3.3-2.1,7.1-2.9,10.8-2.4
				c1.2,0.2-0.3-1-1.4-2.5c-1.7-2.5-3.1-5.4-4-8.3c-1.3-3.7-5.5-6.3-9.3-3.7c2.7-2.5,7.3-0.9,8.9,1.9c-0.8-3.1-1.1-7.8,0-11.2
				c-1.3,7.3,0.7,15.1,5,21c2.3,3,5.2,4.9,8.7,6.2c-4.3-4.9-3.8-16.3,1.2-19.8c-2.3,2-3.5,6-3.5,10c0,4.3,1.4,8.5,4.1,10.4
				c3,0.9,6.1,1.3,9.1,1.4c5.5,0.1,11.1-0.7,16.3-2.3c7.5-2.3,10.3-10.7,11.5-17.5c0.6-0.1,1.4-0.1,2.1-0.2c-0.6,3.5-2,8.7-4.8,13.3
				c-2.3,3.9,0.2,6.6,2.7,7.6c3.8,1.4,9.2,2.3,13.4,4.6c1.1,0.6,2.4,1.3,3,1.4c5.4,1.6,11.7,0.2,14.3-5.4c1.3-2.5,1.5-4,2.4-7.5
				c1.2-5,1.4-7.9,0.5-12.2c1.1,3.4,1.1,6,0.6,9.5c-0.1,0.4,0.1,0.3,0.3,0C107.3,25.6,108.9,23.9,112.1,23z"/>
			<path class="st28" d="M70.1,37.6c-1.5-0.5-2.8-2-3-3.9c-0.2-2,1-2.5,3.4-8.4c1.3-3.1,1.9-5.9,2.2-7.9c0.2,0,0.5,0,0.7,0
				c-0.7,3.5-2,8.7-4.8,13.3C66.7,33.9,68.2,36.3,70.1,37.6z"/>
			<path class="st28" d="M44.5,38c-0.9,0-1.4,0-3.7-0.2c-2.3-0.2-5-0.6-7.8-1.6c-2.8-0.9-5.2-2.5-6.2-3.2c-0.3-0.2-0.7-0.3-1.2-0.2
				c0.5,0.2,1,0.4,1.4,0.7c6.4,4.8,15.1,4.8,17.2,4.9c0.3,0,0.4,0.4,0.2,0.5C45,38.4,45.2,38,44.5,38z"/>
			<path class="st28" d="M63.7,34.4c-1.2,0.7-3.5,1.6-6.6,2.4c-6.3,1.6-8.8,0.8-10.8,1.7c-2.1,1-7.5,5.9-8.7,8.5
				c2.1-2.8,4.5-5.3,7.5-7.4c1-0.7,2.3-1.2,3.5-1.3c4-0.2,8-0.9,11.8-1.9c1.5-0.4,2.8-0.9,4-1.7c0.5-0.3,1.2-0.2,1.6,0.4
				C65.5,34.1,64.8,33.7,63.7,34.4z"/>
			<path class="st28" d="M84.4,43.6c-2.5-1.4-4.8-2-6.5-2.6c-1.7-0.5-5-1.3-6.2-1.7c-1.3-0.5-1.4,0.1-0.8,1
				c-0.1-0.3,0.2-0.7,0.5-0.5c4.2,1.5,14.7,2.9,17.4,8.3C88.3,46.2,86.5,44.8,84.4,43.6z"/>
			<path class="st28" d="M70.5,41.2c-0.5-1-1.7-2.5-3.3-4c0.1,0.2,0.3,0.4,0.4,0.5c1.9,2.2,2.9,3.4,3.2,5.8c0.4,3-0.4,6-1.9,8.8
				c1.4-1.9,2-4.4,2.2-6C71.5,43.9,71.1,42.4,70.5,41.2z"/>
			<g class="st17">
				<path class="st9" d="M64.9,32.8c-0.4,0.3-0.3,0.1,0-0.2c1.3-1.2,2.4-2.6,2.4-2.6S66.3,31.6,64.9,32.8z"/>
				<path class="st9" d="M64.3,33.2c0.2-0.1,0.3,0,0,0.2C63.8,33.7,64,33.3,64.3,33.2z"/>
				<path class="st9" d="M63.8,33.6c0,0.1,0,0.1-0.1,0.2C63.6,33.8,63.8,33.5,63.8,33.6z"/>
			</g>
			<path class="st31" d="M71.4,17.6c-1.2,6.8-4,15.2-11.5,17.5c-5.2,1.6-10.8,2.4-16.3,2.3c-3-0.1-6.2-0.5-9.1-1.4c0,0,0,0,0,0
				c-5.4-3.7-5.4-16.1-0.7-20.4c-5,3.4-5.4,14.9-1.2,19.8c-3.5-1.3-6.4-3.2-8.7-6.2c-4.3-5.9-6.3-13.8-5-21.1
				c-1.1,3.5-0.7,8.2,0,11.2c-1.6-2.8-6.1-4.4-8.9-1.9c3.8-2.5,8,0,9.3,3.7c0.9,2.9,2.3,5.8,4,8.3c1.1,1.5,2.6,2.7,1.4,2.5
				c-3.7-0.5-7.5,0.3-10.8,2.4c-0.6,0.3-6.5,2.4-7.3-4c0,4.2,3.2,5.7,6.9,4.6c-2.7,2.1-4.7,4.7-5.7,8.2c0.7-1.7,1.9-4,3.4-5.6
				c2.9-3,5.4-4.8,10.3-5.2c1.5-0.1,4.2,0,5.6,1.1c6.4,4.8,15.1,4.8,17.2,4.9c0.3,0,0.4,0.4,0.2,0.5c-1.8,1.4-3.4,2.9-4.9,4.5
				c-0.3,0.3-0.7,0.5-1.2,0.5c-4.1,0.1-8.1,1.8-11,4.6c-1.6,1.4-3.4,2.6-5.5,3.1c-2.1,0.5-4.3,0.4-6.4,0.1
				c11.2,2.9,12.3-7.1,22.4-7.2c0.2,0,0.4,0.3,0.2,0.5c-5.7,7.3-9.5,17.2-11.4,25.6c2.5-7.6,5.3-15.7,9.8-22.3
				c-2.1,6.8-0.6,14.6,2.7,20.8c-3-6.7-4.7-15.2-1.7-22.2c2.1-2.8,4.5-5.3,7.5-7.4c1-0.7,2.3-1.2,3.5-1.3c4-0.2,8-0.9,11.8-1.9
				c1.5-0.4,2.8-0.9,4-1.7c0.5-0.3,1.2-0.2,1.6,0.4c0.7,1.1,1.3,2,1.8,2.6c1.9,2.2,2.9,3.4,3.2,5.8c0.6,4.1-1.1,8.3-3.9,11.7
				c-1.2,1.5-2.5,2.9-3.6,3.7c-2.9,2.1-6.6,2.4-9.4-0.1c1.9,2.6,5.7,2.7,8.6,1c-1,1.1-1.9,2.4-2.4,3.8c-1.2,3.1-1.4,6.3-0.5,9.7
				c-0.6-3.2-0.3-6.7,1-9.7c1.2-3.2,4.2-4.8,6.2-7.4c4-4.3,6-10.6,4-16c-0.1-0.3,0.2-0.7,0.5-0.5c4.6,1.7,16.9,3.2,18,10
				c1.1,6.6-4,9.3-9.2,11.5c-5.8,2.4-9.6,6.8-9.2,13.3c0.2-6,3-10.1,8.3-12.4c-2.6,3.5-1.9,9.3,2,11.4c-3.6-2.6-4.3-8.2-1.3-11.6
				c3-1.3,6.7-2.8,9-5.7c0,0.5,0,1,0.1,1.5c1,5.4,8,3.2,11.6,5.5c1.6,0.8,2.8,2.3,3.5,4c-0.6-2-1.8-3.4-3.4-4.3
				c-4.6-2.6-12.1,0.2-11.3-7.7c1.7-3.4,1.1-7.2-1.6-10c7.5,1.9,14.4-1,16.3-10.6c1-4.6,2.5-9.5,7.9-11.7c-3.3,0.9-4.9,2.6-6.4,5.6
				c-0.1,0.3-0.3,0.4-0.3,0c0.5-3.5,0.5-6.1-0.6-9.5c0.9,4.4,0.7,7.2-0.5,12.2c-0.9,3.5-1.1,5-2.4,7.5c-2.6,5.6-8.8,7-14.3,5.4
				c-0.6-0.2-1.9-0.9-3-1.4c-4.2-2.3-9.6-3.2-13.4-4.6c-2.5-1-5-3.8-2.7-7.6c2.8-4.6,4.1-9.7,4.8-13.3"/>
		</g>
	</g>
</g>
</svg>
